<svg xmlns="http://www.w3.org/2000/svg" width="1074.968" height="550.677" viewBox="0 0 1074.968 550.677">
  <g id="Groupe_17394" data-name="Groupe 17394" transform="translate(-785.032 -1020.243)">
    <path id="Polygone_5" data-name="Polygone 5" d="M8.224,0l8.224,24.877H0Z" transform="translate(1764.526 1405.556) rotate(48)" fill="#86c232" opacity="0.42"/>
    <path id="Polygone_3" data-name="Polygone 3" d="M10.69,0l10.69,32.336H0Z" transform="translate(1659.829 1340.695) rotate(76)" fill="#86c232" opacity="0.42"/>
    <ellipse id="Ellipse_933" data-name="Ellipse 933" cx="7.328" cy="7.328" rx="7.328" ry="7.328" transform="translate(1860 1357.159) rotate(107)" fill="#86c232" opacity="0.42"/>
    <circle id="Ellipse_932" data-name="Ellipse 932" cx="8.744" cy="8.744" r="8.744" transform="translate(1748.414 1563.529) rotate(155)" fill="#86c232" opacity="0.42"/>
    <ellipse id="Ellipse_931" data-name="Ellipse 931" cx="4.834" cy="4.834" rx="4.834" ry="4.834" transform="matrix(-0.996, -0.087, 0.087, -0.996, 1688.575, 1570.114)" fill="#86c232" opacity="0.42"/>
    <ellipse id="Ellipse_930" data-name="Ellipse 930" cx="12.063" cy="12.063" rx="12.063" ry="12.063" transform="matrix(0.899, 0.438, -0.438, 0.899, 1585.609, 1020.243)" fill="#86c232" opacity="0.42"/>
    <path id="Polygone_8" data-name="Polygone 8" d="M8.224,0l8.224,24.877H0Z" transform="translate(839.501 1417.779) rotate(-48)" fill="#86c232" opacity="0.42"/>
    <path id="Polygone_9" data-name="Polygone 9" d="M10.69,0l10.69,32.336H0Z" transform="translate(1291.031 1455.169) rotate(-76)" fill="#86c232" opacity="0.42"/>
    <ellipse id="Ellipse_934" data-name="Ellipse 934" cx="7.328" cy="7.328" rx="7.328" ry="7.328" transform="translate(799.048 1352.874) rotate(73)" fill="#86c232" opacity="0.42"/>
    <ellipse id="Ellipse_935" data-name="Ellipse 935" cx="8.744" cy="8.744" rx="8.744" ry="8.744" transform="translate(874.01 1547.68) rotate(25)" fill="#86c232" opacity="0.42"/>
    <ellipse id="Ellipse_936" data-name="Ellipse 936" cx="4.834" cy="4.834" rx="4.834" ry="4.834" transform="matrix(0.996, -0.087, 0.087, 0.996, 1085.526, 1439.076)" fill="#86c232" opacity="0.42"/>
    <ellipse id="Ellipse_937" data-name="Ellipse 937" cx="12.063" cy="12.063" rx="12.063" ry="12.063" transform="matrix(-0.899, 0.438, -0.438, -0.899, 817.293, 1041.927)" fill="#86c232" opacity="0.42"/>
  </g>
</svg>
