<svg xmlns="http://www.w3.org/2000/svg" width="33.372" height="40" viewBox="0 0 33.372 40">
  <g id="Groupe_151" data-name="Groupe 151" transform="translate(-100.744 -71.185)">
    <g id="Groupe_149" data-name="Groupe 149" transform="translate(100.91 71.185)">
      <path id="Tracé_1724" data-name="Tracé 1724" d="M123.473,71.185l5.9,5.9h16.454V93.537l5.9,5.9V71.185Z" transform="translate(-118.518 -71.185)" fill="#273956"/>
      <path id="Tracé_1725" data-name="Tracé 1725" d="M101.479,97.366v27.308h27.308V113.82L112.333,97.366Zm22.106,23.315H105.8V102.314h1.257v17.11h16.528Z" transform="translate(-101.479 -91.467)" fill="#273956"/>
    </g>
    <g id="Groupe_150" data-name="Groupe 150" transform="translate(100.744 108.02)">
      <path id="Tracé_1726" data-name="Tracé 1726" d="M103.107,237.168a.087.087,0,0,1,.063.028l.164.179a1.324,1.324,0,0,1-.461.344,1.576,1.576,0,0,1-.654.123,1.538,1.538,0,0,1-.607-.116,1.329,1.329,0,0,1-.465-.324,1.466,1.466,0,0,1-.3-.5,1.868,1.868,0,0,1-.106-.641,1.759,1.759,0,0,1,.113-.642,1.468,1.468,0,0,1,.319-.5,1.425,1.425,0,0,1,.491-.325,1.673,1.673,0,0,1,.632-.116,1.408,1.408,0,0,1,1.028.393l-.136.192a.144.144,0,0,1-.035.036.093.093,0,0,1-.056.014.108.108,0,0,1-.059-.021l-.075-.051q-.043-.03-.1-.065a.866.866,0,0,0-.138-.065,1.184,1.184,0,0,0-.186-.051,1.309,1.309,0,0,0-.244-.02,1.182,1.182,0,0,0-.455.085,1.022,1.022,0,0,0-.355.243,1.106,1.106,0,0,0-.232.385,1.466,1.466,0,0,0-.083.508,1.494,1.494,0,0,0,.083.516,1.136,1.136,0,0,0,.227.383.954.954,0,0,0,.34.239,1.087,1.087,0,0,0,.424.082,1.715,1.715,0,0,0,.248-.016,1.02,1.02,0,0,0,.2-.051.863.863,0,0,0,.175-.088,1.374,1.374,0,0,0,.163-.126A.11.11,0,0,1,103.107,237.168Z" transform="translate(-100.744 -234.677)" fill="#273956"/>
      <path id="Tracé_1727" data-name="Tracé 1727" d="M121.746,236.26a1.787,1.787,0,0,1-.11.638,1.46,1.46,0,0,1-.311.5,1.389,1.389,0,0,1-.483.325,1.735,1.735,0,0,1-1.245,0,1.392,1.392,0,0,1-.482-.325,1.46,1.46,0,0,1-.311-.5,1.908,1.908,0,0,1,0-1.277,1.471,1.471,0,0,1,.311-.5,1.4,1.4,0,0,1,.482-.327,1.723,1.723,0,0,1,1.245,0,1.4,1.4,0,0,1,.483.327,1.471,1.471,0,0,1,.311.5A1.786,1.786,0,0,1,121.746,236.26Zm-.43,0a1.573,1.573,0,0,0-.078-.512,1.083,1.083,0,0,0-.22-.384.956.956,0,0,0-.346-.241,1.258,1.258,0,0,0-.905,0,.97.97,0,0,0-.347.241,1.074,1.074,0,0,0-.221.384,1.721,1.721,0,0,0,0,1.023,1.074,1.074,0,0,0,.221.382.958.958,0,0,0,.347.24,1.274,1.274,0,0,0,.905,0,.944.944,0,0,0,.346-.24,1.082,1.082,0,0,0,.22-.382A1.563,1.563,0,0,0,121.316,236.26Z" transform="translate(-114.65 -234.677)" fill="#273956"/>
      <path id="Tracé_1728" data-name="Tracé 1728" d="M141.152,236.916q.023.057.044.116c.014-.041.03-.079.045-.116s.034-.074.054-.111l1.048-1.9a.124.124,0,0,1,.058-.06.267.267,0,0,1,.086-.011h.309v3.1h-.367v-2.275c0-.03,0-.063,0-.1s0-.07.007-.106l-1.061,1.936a.166.166,0,0,1-.151.1h-.061a.167.167,0,0,1-.151-.1l-1.084-1.942c0,.038.008.074.01.11s0,.069,0,.1v2.275h-.367v-3.1h.309a.268.268,0,0,1,.086.011.124.124,0,0,1,.058.06l1.069,1.905A.794.794,0,0,1,141.152,236.916Z" transform="translate(-130.827 -234.796)" fill="#273956"/>
      <path id="Tracé_1729" data-name="Tracé 1729" d="M162.62,236.768v1.158H162.2v-3.1h.914a1.719,1.719,0,0,1,.511.068.981.981,0,0,1,.36.193.781.781,0,0,1,.213.3,1.063,1.063,0,0,1,.07.4,1.007,1.007,0,0,1-.076.4.848.848,0,0,1-.221.309,1.027,1.027,0,0,1-.362.2,1.548,1.548,0,0,1-.495.073Zm0-.333h.5a.961.961,0,0,0,.316-.048.647.647,0,0,0,.23-.133.554.554,0,0,0,.14-.2.7.7,0,0,0,.048-.262.594.594,0,0,0-.182-.462.8.8,0,0,0-.552-.166h-.5Z" transform="translate(-148.356 -234.796)" fill="#273956"/>
      <path id="Tracé_1730" data-name="Tracé 1730" d="M178.528,237.926H178.2a.14.14,0,0,1-.091-.028.172.172,0,0,1-.052-.071l-.29-.748h-1.389l-.29.748a.166.166,0,0,1-.052.069.137.137,0,0,1-.091.03h-.324l1.238-3.1h.426Zm-2.029-1.149h1.156l-.486-1.259a2.336,2.336,0,0,1-.093-.292c-.016.059-.031.113-.046.163s-.03.093-.044.131Z" transform="translate(-158.756 -234.796)" fill="#273956"/>
      <path id="Tracé_1731" data-name="Tracé 1731" d="M195.332,234.844a.213.213,0,0,1,.062.057l1.793,2.333c0-.038-.007-.074-.009-.109s0-.07,0-.1V234.83h.367v3.1h-.212a.182.182,0,0,1-.083-.017.211.211,0,0,1-.066-.058l-1.791-2.331c0,.036.005.071.007.106s0,.066,0,.1v2.206h-.367v-3.1h.216A.186.186,0,0,1,195.332,234.844Z" transform="translate(-173.789 -234.796)" fill="#273956"/>
      <path id="Tracé_1732" data-name="Tracé 1732" d="M214.284,236.694v1.231h-.417v-1.231l-1.134-1.864h.367a.13.13,0,0,1,.088.028.26.26,0,0,1,.056.069l.709,1.2a1.471,1.471,0,0,1,.072.143q.029.067.053.132c.016-.045.033-.089.052-.134a1.148,1.148,0,0,1,.071-.141l.707-1.2a.283.283,0,0,1,.053-.066.124.124,0,0,1,.088-.031h.372Z" transform="translate(-187.501 -234.796)" fill="#273956"/>
    </g>
  </g>
</svg>
