<svg xmlns="http://www.w3.org/2000/svg" width="36.482" height="40" viewBox="0 0 36.482 40">
  <g id="Groupe_158" data-name="Groupe 158" transform="translate(-947.15 -555.565)">
    <g id="Groupe_156" data-name="Groupe 156" transform="translate(948.778 555.565)">
      <path id="Tracé_1744" data-name="Tracé 1744" d="M1014.255,566.142a12.285,12.285,0,0,1-.559,21.434,12.285,12.285,0,1,0-5.894-23.157A12.224,12.224,0,0,1,1014.255,566.142Z" transform="translate(-995.968 -561.356)" fill="#273956"/>
      <g id="Groupe_155" data-name="Groupe 155">
        <path id="Tracé_1745" data-name="Tracé 1745" d="M971.235,612.765a15.982,15.982,0,0,0,2.8,5.479,16.9,16.9,0,0,0,2.948,1.7,16.625,16.625,0,0,1-3.282-6.158,17.921,17.921,0,0,1-.181-9.255,16.879,16.879,0,0,1-.926-4.634A17.032,17.032,0,0,0,971.235,612.765Z" transform="translate(-966.99 -590.061)" fill="#273956"/>
        <path id="Tracé_1746" data-name="Tracé 1746" d="M985.006,633.518a16.067,16.067,0,0,0,4,6.852,16.945,16.945,0,0,0,20.075-7.113,16.945,16.945,0,0,1-24.448-7.786A17.371,17.371,0,0,0,985.006,633.518Z" transform="translate(-977.705 -609.956)" fill="#273956"/>
        <path id="Tracé_1747" data-name="Tracé 1747" d="M960.062,564.231a16.854,16.854,0,0,1,2.5-8.666,16.935,16.935,0,0,0-2.749,26.766,16.5,16.5,0,0,1-1.673-3.894A17.59,17.59,0,0,1,960.062,564.231Z" transform="translate(-954.485 -555.565)" fill="#273956"/>
      </g>
      <path id="Tracé_1748" data-name="Tracé 1748" d="M1005.887,585.015s-4.189,11.283,7,15.211C1017.184,589.168,1005.887,585.015,1005.887,585.015Z" transform="translate(-993.881 -578.479)" fill="#273956"/>
    </g>
    <g id="Groupe_157" data-name="Groupe 157" transform="translate(947.15 591.57)">
      <path id="Tracé_1749" data-name="Tracé 1749" d="M948.163,721.524a1.9,1.9,0,0,1-.743-.713,2.083,2.083,0,0,1,0-2.053,1.923,1.923,0,0,1,.747-.713,2.185,2.185,0,0,1,1.063-.258,2.217,2.217,0,0,1,.871.166,1.786,1.786,0,0,1,.666.483l-.466.439a1.358,1.358,0,0,0-1.037-.455,1.452,1.452,0,0,0-.716.175,1.258,1.258,0,0,0-.494.485,1.489,1.489,0,0,0,0,1.409,1.254,1.254,0,0,0,.494.485,1.452,1.452,0,0,0,.716.175,1.351,1.351,0,0,0,1.037-.461l.466.444a1.775,1.775,0,0,1-.669.483,2.238,2.238,0,0,1-.874.167A2.19,2.19,0,0,1,948.163,721.524Z" transform="translate(-947.15 -717.787)" fill="#273956"/>
      <path id="Tracé_1750" data-name="Tracé 1750" d="M970.971,721.524a1.909,1.909,0,0,1-.749-.716,2.063,2.063,0,0,1,0-2.047,1.908,1.908,0,0,1,.749-.716,2.351,2.351,0,0,1,2.142,0,1.922,1.922,0,0,1,.749.713,2.074,2.074,0,0,1,0,2.053,1.921,1.921,0,0,1-.749.713,2.352,2.352,0,0,1-2.142,0Zm1.77-.55a1.261,1.261,0,0,0,.488-.488,1.475,1.475,0,0,0,0-1.4,1.265,1.265,0,0,0-.488-.488,1.487,1.487,0,0,0-1.4,0,1.263,1.263,0,0,0-.488.488,1.475,1.475,0,0,0,0,1.4,1.259,1.259,0,0,0,.488.488,1.484,1.484,0,0,0,1.4,0Z" transform="translate(-964.89 -717.787)" fill="#273956"/>
      <path id="Tracé_1751" data-name="Tracé 1751" d="M1000.817,721.921l-.006-2.574-1.276,2.13h-.322l-1.276-2.1v2.541h-.688v-3.884h.594l1.543,2.575,1.515-2.575h.594l.006,3.884Z" transform="translate(-986.13 -717.982)" fill="#273956"/>
      <path id="Tracé_1752" data-name="Tracé 1752" d="M1028.6,718.2a1.278,1.278,0,0,1,.574.477,1.458,1.458,0,0,1,0,1.473,1.273,1.273,0,0,1-.574.48,2.15,2.15,0,0,1-.879.166h-.877v1.121h-.721v-3.884h1.6A2.15,2.15,0,0,1,1028.6,718.2Zm-.2,1.787a.791.791,0,0,0,0-1.143,1.107,1.107,0,0,0-.716-.2h-.843v1.542h.843A1.108,1.108,0,0,0,1028.4,719.99Z" transform="translate(-1008.596 -717.982)" fill="#273956"/>
      <path id="Tracé_1753" data-name="Tracé 1753" d="M1048.742,721.022H1046.8l-.383.9h-.744l1.748-3.884h.71l1.754,3.884h-.755Zm-.239-.566-.732-1.7-.727,1.7Z" transform="translate(-1023.807 -717.982)" fill="#273956"/>
      <path id="Tracé_1754" data-name="Tracé 1754" d="M1075.325,718.037v3.884h-.593l-2.142-2.63v2.63h-.716v-3.884h.594l2.142,2.63v-2.63Z" transform="translate(-1044.192 -717.982)" fill="#273956"/>
      <path id="Tracé_1755" data-name="Tracé 1755" d="M1096.8,720.551v1.371h-.721v-1.359l-1.526-2.525h.771l1.138,1.892,1.148-1.892h.71Z" transform="translate(-1061.833 -717.982)" fill="#273956"/>
    </g>
  </g>
</svg>
