<svg xmlns="http://www.w3.org/2000/svg" width="39.114" height="40" viewBox="0 0 39.114 40">
  <g id="Groupe_148" data-name="Groupe 148" transform="translate(-649.708 -69.107)">
    <g id="Groupe_145" data-name="Groupe 145" transform="translate(649.708 69.107)">
      <path id="Tracé_1714" data-name="Tracé 1714" d="M678.322,69.107H659.246l-9.538,16.52,9.538,16.52h19.076l9.538-16.52Zm-.842,31.332-.072.125H660.161l-8.623-14.936,8.623-14.936h.144l1.955,3.386,2.083-3.607h.274l-2.22,3.845,1.047,1.814,3.267-5.659h.366l-3.45,5.976.979,1.7,4.429-7.671h.549l-4.7,8.146.887,1.537,5.591-9.683h.732l-5.957,10.317.807,1.4,6.764-11.716h.915L667.4,82.978l.7,1.22,7.926-13.728h1.1l-8.475,14.679.679,1.176,8.491-14.707.732,1.267-8.491,14.708Z" transform="translate(-649.708 -69.107)" fill="#273956"/>
    </g>
    <g id="Groupe_147" data-name="Groupe 147" transform="translate(649.871 106.075)">
      <g id="Groupe_146" data-name="Groupe 146" transform="translate(0 0)">
        <path id="Tracé_1715" data-name="Tracé 1715" d="M652.977,234.488a.765.765,0,0,1,.147.479.7.7,0,0,1-.3.609,1.523,1.523,0,0,1-.884.215H650.43v-3.032h1.421a1.393,1.393,0,0,1,.827.21.675.675,0,0,1,.29.578.757.757,0,0,1-.1.4.711.711,0,0,1-.286.269A.8.8,0,0,1,652.977,234.488Zm-1.984-1.289v.836h.8a.808.808,0,0,0,.452-.106.35.35,0,0,0,.158-.31.354.354,0,0,0-.158-.314.81.81,0,0,0-.452-.106Zm1.564,1.711q0-.437-.654-.438h-.91v.875h.91Q652.557,235.348,652.557,234.91Z" transform="translate(-650.43 -232.757)" fill="#273956"/>
        <path id="Tracé_1716" data-name="Tracé 1716" d="M670.842,235.789l-.619-.888a1.127,1.127,0,0,1-.117,0h-.684v.884h-.563v-3.032h1.247a1.676,1.676,0,0,1,.687.13,1,1,0,0,1,.449.372,1.042,1.042,0,0,1,.156.576,1.028,1.028,0,0,1-.167.589.991.991,0,0,1-.479.368l.7,1Zm-.2-2.4a.866.866,0,0,0-.559-.156h-.658v1.209h.658a.856.856,0,0,0,.559-.158.55.55,0,0,0,.19-.448A.544.544,0,0,0,670.638,233.389Z" transform="translate(-664.695 -232.757)" fill="#273956"/>
        <path id="Tracé_1717" data-name="Tracé 1717" d="M687.208,235.088h-1.516l-.3.7h-.58l1.364-3.032h.555l1.369,3.032h-.589Zm-.186-.442-.572-1.325-.567,1.325Z" transform="translate(-677.046 -232.757)" fill="#273956"/>
        <path id="Tracé_1718" data-name="Tracé 1718" d="M707.6,232.757v3.032h-.464l-1.672-2.053v2.053h-.559v-3.032h.464l1.672,2.053v-2.053Z" transform="translate(-692.602 -232.757)" fill="#273956"/>
        <path id="Tracé_1719" data-name="Tracé 1719" d="M724.277,232.757H725.6a1.9,1.9,0,0,1,.862.188,1.4,1.4,0,0,1,.585.533,1.623,1.623,0,0,1,0,1.59,1.393,1.393,0,0,1-.585.533,1.9,1.9,0,0,1-.862.188h-1.326Zm1.3,2.556a1.283,1.283,0,0,0,.587-.128.914.914,0,0,0,.39-.364,1.17,1.17,0,0,0,0-1.1.916.916,0,0,0-.39-.364,1.286,1.286,0,0,0-.587-.128h-.736v2.079Z" transform="translate(-707.595 -232.757)" fill="#273956"/>
        <path id="Tracé_1720" data-name="Tracé 1720" d="M755.772,232.757v3.032h-.464l-1.672-2.053v2.053h-.559v-3.032h.464l1.672,2.053v-2.053Z" transform="translate(-729.89 -232.757)" fill="#273956"/>
        <path id="Tracé_1721" data-name="Tracé 1721" d="M772.944,235.088h-1.516l-.3.7h-.58l1.364-3.032h.555l1.369,3.032h-.589Zm-.186-.442-.572-1.325-.568,1.325Z" transform="translate(-743.414 -232.757)" fill="#273956"/>
        <path id="Tracé_1722" data-name="Tracé 1722" d="M793.43,235.789l0-2.01-1,1.663h-.251l-1-1.637v1.984h-.537v-3.032h.464l1.2,2.01,1.182-2.01h.464l0,3.032Z" transform="translate(-758.971 -232.757)" fill="#273956"/>
        <path id="Tracé_1723" data-name="Tracé 1723" d="M815.067,235.317v.472h-2.274v-3.032h2.214v.472h-1.65v.788h1.464v.464h-1.464v.836Z" transform="translate(-776.116 -232.757)" fill="#273956"/>
      </g>
    </g>
  </g>
</svg>
