<svg xmlns="http://www.w3.org/2000/svg" width="425.24" height="440.628" viewBox="0 0 425.24 440.628">
  <g id="Oops_404_Error_with_a_broken_robot-pana" data-name="Oops! 404 Error with a broken robot-pana" transform="translate(-37.38 -34.792)">
    <g id="freepik--background-simple--inject-140">
      <path id="Tracé_1506" data-name="Tracé 1506" d="M428.57,240.08,426.66,237c-16.09-26.18-45.18-42-75.85-40.05a81.582,81.582,0,0,0-11.74,1.59c-27.89,5.9-52.16,26.72-62.22,53.39-5.91,15.69-7.56,33.75-18.79,46.2-14.61,16.2-39.41,16.71-61.22,16s-46.62-.1-61.16,16.17c-9.11,10.18-12,24.67-11.27,38.32,2,36.12,27.44,68.42,59.85,84.47s70.59,17.49,106.07,10.43c49.7-9.89,97-37.06,125.37-79S451.3,285.37,428.57,240.08Z" fill="#ebebeb"/>
      <circle id="Ellipse_31" data-name="Ellipse 31" cx="60.26" cy="60.26" r="60.26" transform="translate(88.93 93.15)" fill="#ebebeb"/>
    </g>
    <g id="freepik--Robot--inject-140">
      <path id="Tracé_1507" data-name="Tracé 1507" d="M175.84,45.12h1.32a13.95,13.95,0,0,1,13.95,13.95v3.77a13.95,13.95,0,0,1-13.95,13.95h-1.32Z" transform="matrix(0.71, -0.705, 0.705, 0.71, 10.33, 146.97)" fill="#455a64"/>
      <path id="Tracé_1508" data-name="Tracé 1508" d="M189.22,77.6h0L166.89,55.1h0l.93-.93a13.9,13.9,0,0,1,9.85-4.06h.05a13.91,13.91,0,0,1,9.87,4.12l2.66,2.68a14,14,0,0,1-.07,19.77ZM166.94,55.09l22.28,22.44.92-.91a13.93,13.93,0,0,0,.07-19.69l-2.66-2.68a13.81,13.81,0,0,0-9.83-4.11h-.05a13.83,13.83,0,0,0-9.81,4Z" fill="#263238"/>
      <path id="Tracé_1509" data-name="Tracé 1509" d="M97.86,121.34h1.32a13.95,13.95,0,0,1,13.95,13.95v3.77a14,14,0,0,1-14,14H97.86Z" transform="matrix(-0.735, 0.678, -0.678, -0.735, 276.05, 166.43)" fill="#455a64"/>
      <path id="Tracé_1510" data-name="Tracé 1510" d="M111.43,148.25h-.58a13.91,13.91,0,0,1-9.71-4.48L98.59,141a14,14,0,0,1,.79-19.75l1-.91h0l21.49,23.29h0l-1,.9a13.86,13.86,0,0,1-9.44,3.72Zm-12-27A13.93,13.93,0,0,0,98.62,141l2.56,2.77a13.85,13.85,0,0,0,9.68,4.47h.57a13.83,13.83,0,0,0,9.43-3.69l1-.88-21.44-23.24Z" fill="#263238"/>
      <rect id="Rectangle_275" data-name="Rectangle 275" width="2.5" height="20.69" transform="translate(85.603 94.355) rotate(-51.11)" fill="#455a64"/>
      <path id="Tracé_1511" data-name="Tracé 1511" d="M88.22,88.3a5.1,5.1,0,1,1-7.17.77,5.1,5.1,0,0,1,7.17-.77Z" fill="#263238"/>
      <rect id="Rectangle_276" data-name="Rectangle 276" width="99.18" height="74.84" rx="16.5" transform="translate(90.516 116.739) rotate(-44.8)" fill="#ff725e"/>
      <path id="Tracé_1512" data-name="Tracé 1512" d="M150.5,57.18l-2.21-8.43-5.75.95-1.66-6.09,1.88-.43,1.31,4.43,5.74-.78,2.4,8.65Z" fill="#455a64"/>
      <rect id="Rectangle_277" data-name="Rectangle 277" width="85.13" height="30.57" rx="13.96" transform="translate(103.375 119.715) rotate(-44.8)" fill="#263238"/>
      <path id="Tracé_1513" data-name="Tracé 1513" d="M177.66,95s.12-.16.37-.45a14.861,14.861,0,0,0,1.1-1.33,16.84,16.84,0,0,0,2.93-5.87,18.939,18.939,0,0,0,.67-4.7,18.57,18.57,0,0,0-.9-5.56,17.22,17.22,0,0,0-3.12-5.65l-1.18-1.3-1.28-1.28a26.539,26.539,0,0,0-2.76-2.52A17.67,17.67,0,0,0,166.27,63a17.88,17.88,0,0,0-8.56.5,17.5,17.5,0,0,0-4.12,1.92,21.42,21.42,0,0,0-3.62,3l-7.05,7-31.43,31.23a17.41,17.41,0,0,0-5,10.11,18.06,18.06,0,0,0,.18,5.59,17.88,17.88,0,0,0,3.44,7.41c.59.69,1.17,1.36,1.83,2a30.291,30.291,0,0,0,3.94,3.62,17.35,17.35,0,0,0,19,.87,18.607,18.607,0,0,0,2-1.33c.6-.51,1.19-1,1.74-1.57l3.29-3.25,12-11.85,17.37-17.13L176,96.55l1.24-1.2c.28-.26.44-.39.44-.39s-.13.15-.4.43l-1.21,1.24-4.67,4.7-17.26,17.25-11.93,11.9-3.27,3.26c-.56.55-1.17,1.08-1.77,1.6a19.849,19.849,0,0,1-2,1.38,17.84,17.84,0,0,1-19.52-.86,32.38,32.38,0,0,1-4-3.67c-.65-.63-1.26-1.34-1.87-2a20.56,20.56,0,0,1-1.56-2.33,17.65,17.65,0,0,1-2-5.3,18.52,18.52,0,0,1-.19-5.76,17.85,17.85,0,0,1,5.11-10.4L142.6,75.19l7.07-7a22,22,0,0,1,3.7-3.07,17.72,17.72,0,0,1,20.36.93,26.561,26.561,0,0,1,2.79,2.57l1.27,1.29L179,71.18A17.6,17.6,0,0,1,182.11,77a18.15,18.15,0,0,1,.86,5.65,19.29,19.29,0,0,1-.71,4.76,16.84,16.84,0,0,1-3,5.88,12.477,12.477,0,0,1-1.15,1.29Z" fill="#263238"/>
      <path id="Tracé_1514" data-name="Tracé 1514" d="M125.76,126.43a78.3,78.3,0,0,1-.39-9,75.7,75.7,0,0,1,.14-9,80.3,80.3,0,0,1,.38,9,79.509,79.509,0,0,1-.13,9Z" fill="#fff"/>
      <path id="Tracé_1515" data-name="Tracé 1515" d="M134.47,116.72a74.852,74.852,0,0,1-9,.67,81.182,81.182,0,0,1-9,.15,75.162,75.162,0,0,1,9-.67,81,81,0,0,1,9-.15Z" fill="#fff"/>
      <path id="Tracé_1516" data-name="Tracé 1516" d="M161.4,90.11a78.767,78.767,0,0,1-.39-9,75.373,75.373,0,0,1,.14-9,80.3,80.3,0,0,1,.38,9A79.51,79.51,0,0,1,161.4,90.11Z" fill="#fff"/>
      <path id="Tracé_1517" data-name="Tracé 1517" d="M170.11,80.4a80.161,80.161,0,0,1-9,.67,76.89,76.89,0,0,1-9,.14,79.212,79.212,0,0,1,9-.66,78.179,78.179,0,0,1,9-.15Z" fill="#fff"/>
      <circle id="Ellipse_32" data-name="Ellipse 32" cx="5.1" cy="5.1" r="5.1" transform="matrix(1, -0.016, 0.016, 1, 135.465, 34.951)" fill="#263238"/>
      <path id="Tracé_1518" data-name="Tracé 1518" d="M156.51,156.68a5.089,5.089,0,0,1-.88-.73c-.55-.49-1.32-1.22-2.27-2.12-1.89-1.8-4.49-4.33-7.32-7.14s-5.38-5.38-7.2-7.27a22.262,22.262,0,0,1-2.81-3.18,11.048,11.048,0,0,1,.84.77l2.23,2.15c2,1.91,4.5,4.41,7.3,7.16s5.39,5.38,7.22,7.25l2.15,2.24a4.711,4.711,0,0,1,.74.87Z" fill="#263238"/>
      <path id="Tracé_1519" data-name="Tracé 1519" d="M199.82,113.05a4.789,4.789,0,0,1-.88-.73c-.54-.49-1.31-1.21-2.26-2.11-1.9-1.81-4.49-4.33-7.33-7.14s-5.38-5.39-7.19-7.28a22.6,22.6,0,0,1-2.81-3.17,7.79,7.79,0,0,1,.84.76l2.23,2.15,7.3,7.17c2.84,2.81,5.39,5.37,7.22,7.24l2.15,2.24a4.24,4.24,0,0,1,.73.87Z" fill="#263238"/>
      <rect id="Rectangle_278" data-name="Rectangle 278" width="52.15" height="5.72" transform="translate(142.546 136.025) rotate(-45.46)" fill="#263238"/>
      <path id="Tracé_1520" data-name="Tracé 1520" d="M137.6,142.82a1.1,1.1,0,1,1-1-1.13A1.1,1.1,0,0,1,137.6,142.82Z" fill="#263238"/>
      <path id="Tracé_1521" data-name="Tracé 1521" d="M145.94,151.63a1.1,1.1,0,1,1-1.054-1.05,1.1,1.1,0,0,1,1.054,1.05Z" fill="#263238"/>
      <path id="Tracé_1522" data-name="Tracé 1522" d="M186.62,92.91a1.161,1.161,0,1,1-1.05-1.19,1.08,1.08,0,0,1,1.05,1.19Z" fill="#263238"/>
      <path id="Tracé_1523" data-name="Tracé 1523" d="M195,101.72a1.091,1.091,0,1,1-1.045-1.135A1.091,1.091,0,0,1,195,101.72Z" fill="#263238"/>
      <path id="Tracé_1524" data-name="Tracé 1524" d="M105.45,144a27.16,27.16,0,0,0-2.31-2.05c-.75-.59-1.7-1.23-2.67-2.09a10.37,10.37,0,0,1-2.54-3.34,11.3,11.3,0,0,1-.79-7.48,8.89,8.89,0,0,1,.82-2.15c.28-.47.44-.72.47-.7a22.919,22.919,0,0,0-.93,2.93,11.54,11.54,0,0,0,.9,7.17c1.2,2.66,3.53,4.12,5,5.37a7,7,0,0,1,2.05,2.34Z" fill="#fff"/>
      <path id="Tracé_1525" data-name="Tracé 1525" d="M148.92,63.53c.1.1-10.41,10.48-23.47,23.17s-23.75,22.91-23.85,22.81S112,99,125.08,86.33,148.82,63.43,148.92,63.53Z" fill="#fff"/>
      <path id="Tracé_1526" data-name="Tracé 1526" d="M83.92,95.87c0,.06-.52,0-1.19-.45a4.1,4.1,0,0,1-1.2-5.6c.44-.69.88-.95.92-.9s-.28.41-.59,1.07a4.45,4.45,0,0,0-.36,2.76A4.4,4.4,0,0,0,83,95.13C83.51,95.61,84,95.79,83.92,95.87Z" fill="#fff"/>
      <path id="Tracé_1527" data-name="Tracé 1527" d="M139.46,43.69c0,.06-.57,0-1.28-.51a4.16,4.16,0,0,1-.78-6c.56-.67,1.08-.88,1.11-.83s-.37.38-.81,1a4.18,4.18,0,0,0,.71,5.55C139,43.42,139.49,43.61,139.46,43.69Z" fill="#fff"/>
      <path id="Tracé_1528" data-name="Tracé 1528" d="M177.32,51.71a22.58,22.58,0,0,0-4.11.94,23.1,23.1,0,0,0-3.63,2.13A6.58,6.58,0,0,1,173,52.16a6.69,6.69,0,0,1,4.32-.45Z" fill="#fff"/>
      <path id="Tracé_1529" data-name="Tracé 1529" d="M135.81,158.46a103.246,103.246,0,0,1-7.47-7.35c-4-4.16-7.19-7.61-7.08-7.71a104.435,104.435,0,0,1,7.46,7.35C132.74,154.91,135.91,158.36,135.81,158.46Z" fill="#fff"/>
      <rect id="Rectangle_279" data-name="Rectangle 279" width="42.79" height="60.65" transform="translate(208.44 398.62)" fill="#ff725e"/>
      <path id="Tracé_1530" data-name="Tracé 1530" d="M208.77,458.23h42.14a5.7,5.7,0,0,1,5.7,5.7v.54H203.06v-.54a5.7,5.7,0,0,1,5.71-5.7Z" fill="#263238"/>
      <rect id="Rectangle_280" data-name="Rectangle 280" width="64.99" height="9.88" transform="translate(198.18 464.47)" fill="#ff725e"/>
      <path id="Tracé_1531" data-name="Tracé 1531" d="M251,452.61c0,.14-9.48.26-21.18.26s-21.19-.12-21.19-.26,9.48-.26,21.19-.26S251,452.46,251,452.61Z" fill="#263238"/>
      <path id="Tracé_1532" data-name="Tracé 1532" d="M251,445.39c0,.15-9.48.26-21.18.26s-21.19-.11-21.19-.26,9.48-.26,21.19-.26S251,445.25,251,445.39Z" fill="#263238"/>
      <path id="Tracé_1533" data-name="Tracé 1533" d="M251,438.31c0,.14-9.48.26-21.18.26s-21.19-.12-21.19-.26,9.48-.26,21.19-.26S251,438.17,251,438.31Z" fill="#263238"/>
      <path id="Tracé_1534" data-name="Tracé 1534" d="M251,431.1c0,.14-9.48.26-21.18.26s-21.19-.12-21.19-.26,9.48-.26,21.19-.26S251,431,251,431.1Z" fill="#263238"/>
      <path id="Tracé_1535" data-name="Tracé 1535" d="M251,424c0,.15-9.48.26-21.18.26s-21.19-.11-21.19-.26,9.48-.26,21.19-.26S251,423.87,251,424Z" fill="#263238"/>
      <path id="Tracé_1536" data-name="Tracé 1536" d="M251,416.8c0,.15-9.48.26-21.18.26s-21.19-.11-21.19-.26,9.48-.26,21.19-.26S251,416.66,251,416.8Z" fill="#263238"/>
      <path id="Tracé_1537" data-name="Tracé 1537" d="M251,409.72c0,.14-9.48.26-21.18.26s-21.19-.12-21.19-.26,9.48-.26,21.19-.26S251,409.57,251,409.72Z" fill="#263238"/>
      <path id="Tracé_1538" data-name="Tracé 1538" d="M251,402.51c0,.14-9.48.26-21.18.26s-21.19-.12-21.19-.26,9.48-.26,21.19-.26S251,402.36,251,402.51Z" fill="#263238"/>
      <g id="Groupe_126" data-name="Groupe 126" opacity="0.3">
        <path id="Tracé_1539" data-name="Tracé 1539" d="M208.44,407.07l42.58-1.18v-6.18H208.06Z"/>
      </g>
      <rect id="Rectangle_281" data-name="Rectangle 281" width="42.79" height="60.65" transform="translate(275.46 398.62)" fill="#ff725e"/>
      <path id="Tracé_1540" data-name="Tracé 1540" d="M275.79,458.23h42.14a5.7,5.7,0,0,1,5.7,5.7v.54H270.08v-.54a5.7,5.7,0,0,1,5.71-5.7Z" fill="#263238"/>
      <rect id="Rectangle_282" data-name="Rectangle 282" width="64.99" height="9.88" transform="translate(265.2 464.47)" fill="#ff725e"/>
      <path id="Tracé_1541" data-name="Tracé 1541" d="M318,452.61c0,.14-9.48.26-21.18.26s-21.19-.12-21.19-.26,9.48-.26,21.19-.26S318,452.46,318,452.61Z" fill="#263238"/>
      <path id="Tracé_1542" data-name="Tracé 1542" d="M318,445.39c0,.15-9.48.26-21.18.26s-21.19-.11-21.19-.26,9.48-.26,21.19-.26S318,445.25,318,445.39Z" fill="#263238"/>
      <path id="Tracé_1543" data-name="Tracé 1543" d="M318,438.31c0,.14-9.48.26-21.18.26s-21.19-.12-21.19-.26,9.48-.26,21.19-.26S318,438.17,318,438.31Z" fill="#263238"/>
      <path id="Tracé_1544" data-name="Tracé 1544" d="M318,431.1c0,.14-9.48.26-21.18.26s-21.19-.12-21.19-.26,9.48-.26,21.19-.26S318,431,318,431.1Z" fill="#263238"/>
      <path id="Tracé_1545" data-name="Tracé 1545" d="M318,424c0,.15-9.48.26-21.18.26s-21.19-.11-21.19-.26,9.48-.26,21.19-.26S318,423.87,318,424Z" fill="#263238"/>
      <path id="Tracé_1546" data-name="Tracé 1546" d="M318,416.8c0,.15-9.48.26-21.18.26s-21.19-.11-21.19-.26,9.48-.26,21.19-.26S318,416.66,318,416.8Z" fill="#263238"/>
      <path id="Tracé_1547" data-name="Tracé 1547" d="M318,409.72c0,.14-9.48.26-21.18.26s-21.19-.12-21.19-.26,9.48-.26,21.19-.26S318,409.57,318,409.72Z" fill="#263238"/>
      <path id="Tracé_1548" data-name="Tracé 1548" d="M318,402.51c0,.14-9.48.26-21.18.26s-21.19-.12-21.19-.26,9.48-.26,21.19-.26S318,402.36,318,402.51Z" fill="#263238"/>
      <g id="Groupe_127" data-name="Groupe 127" opacity="0.3">
        <path id="Tracé_1549" data-name="Tracé 1549" d="M275.46,407.07l42.58-1.18v-6.18H275.08Z"/>
      </g>
      <path id="Tracé_1550" data-name="Tracé 1550" d="M328.17,223.65h4.32a1.83,1.83,0,0,1,1.83,1.83v17.68h-8V225.49a1.83,1.83,0,0,1,1.83-1.83Z" transform="matrix(0.245, -0.97, 0.97, 0.245, 23.16, 496.55)" fill="#ff725e"/>
      <g id="Groupe_128" data-name="Groupe 128" opacity="0.3">
        <path id="Tracé_1551" data-name="Tracé 1551" d="M328.17,223.65h4.32a1.83,1.83,0,0,1,1.83,1.83v17.68h-8V225.49a1.83,1.83,0,0,1,1.83-1.83Z" transform="matrix(0.245, -0.97, 0.97, 0.245, 23.16, 496.55)"/>
      </g>
      <path id="Tracé_1552" data-name="Tracé 1552" d="M323.82,237.7h5.94a3,3,0,0,1,3,3v16.47h-12V240.74a3,3,0,0,1,3.06-3.04Z" transform="matrix(0.245, -0.97, 0.97, 0.245, 6.87, 503.72)" fill="#ff725e"/>
      <rect id="Rectangle_283" data-name="Rectangle 283" width="20.39" height="7.7" transform="matrix(0.245, -0.97, 0.97, 0.245, 328.316, 249.812)" fill="#ff725e"/>
      <path id="Tracé_1553" data-name="Tracé 1553" d="M345.68,310.42s31.95-1.3,29.31-31.92c-2-23.45-36.91-23.66-36.91-23.66L347,235.35s40.76,3.55,48.81,33.23c9.09,33.54-11.93,60.89-50.13,60.25Z" fill="#ff725e"/>
      <rect id="Rectangle_284" data-name="Rectangle 284" width="12.44" height="27.68" transform="translate(337.469 229.914) rotate(12.46)" fill="#263238"/>
      <path id="Tracé_1554" data-name="Tracé 1554" d="M344.16,256.78c0,.23-2.76-.24-6.05-1a35.59,35.59,0,0,1-5.91-1.64,37.84,37.84,0,0,1,6,1.13c1.65.38,3.14.74,4.21,1l1.27.34a2.12,2.12,0,0,1,.48.17Z" fill="#455a64"/>
      <path id="Tracé_1555" data-name="Tracé 1555" d="M345.23,251.91c0,.23-2.75-.24-6.05-1a34.18,34.18,0,0,1-5.9-1.64,38.259,38.259,0,0,1,6,1.13c1.65.38,3.13.74,4.21,1l1.26.34a1.7,1.7,0,0,1,.48.17Z" fill="#455a64"/>
      <path id="Tracé_1556" data-name="Tracé 1556" d="M346.52,247c0,.24-2.76-.23-6-1a35.59,35.59,0,0,1-5.91-1.64,38.049,38.049,0,0,1,6,1.13c1.64.37,3.13.73,4.2,1l1.27.33Z" fill="#455a64"/>
      <path id="Tracé_1557" data-name="Tracé 1557" d="M347.38,242.18c0,.23-2.75-.24-6-1a34.47,34.47,0,0,1-5.91-1.64,38,38,0,0,1,6,1.13c1.65.38,3.13.74,4.21,1l1.26.34a1.7,1.7,0,0,1,.44.17Z" fill="#455a64"/>
      <path id="Tracé_1558" data-name="Tracé 1558" d="M348.63,237.62c0,.24-2.75-.23-6-1a35.588,35.588,0,0,1-5.91-1.64,38,38,0,0,1,6,1.13c1.65.37,3.14.73,4.21,1l1.27.33a3.673,3.673,0,0,1,.43.18Z" fill="#455a64"/>
      <path id="Tracé_1559" data-name="Tracé 1559" d="M352.66,328.63a14.229,14.229,0,0,1-.65-2.7c-.32-1.68-.7-4-1-6.61s-.45-5-.51-6.67a13.761,13.761,0,0,1,0-2.78,14.558,14.558,0,0,1,.34,2.75c.15,1.7.36,4.05.66,6.64s.61,4.92.84,6.61A15.649,15.649,0,0,1,352.66,328.63Z" fill="#263238"/>
      <path id="Tracé_1560" data-name="Tracé 1560" d="M362.59,327.08a93.177,93.177,0,0,1-2.91-9.54,95,95,0,0,1-2.41-9.69,95.994,95.994,0,0,1,2.91,9.55,97.707,97.707,0,0,1,2.41,9.68Z" fill="#263238"/>
      <path id="Tracé_1561" data-name="Tracé 1561" d="M375.94,322.3a18.679,18.679,0,0,1-1.71-2.65c-1.08-1.8-2.41-4-3.89-6.52l-3.92-6.5a20.314,20.314,0,0,1-1.54-2.75,17.477,17.477,0,0,1,1.85,2.55c1.08,1.62,2.53,3.89,4,6.43s2.85,4.89,3.77,6.61a18.814,18.814,0,0,1,1.44,2.83Z" fill="#263238"/>
      <path id="Tracé_1562" data-name="Tracé 1562" d="M387.17,313.3c-.1.11-4.07-3-8.88-7s-8.64-7.32-8.55-7.43,4.07,3,8.88,7S387.26,313.18,387.17,313.3Z" fill="#263238"/>
      <path id="Tracé_1563" data-name="Tracé 1563" d="M394.4,301c-.06.14-4.76-1.7-10.51-4.09s-10.36-4.44-10.3-4.57,4.76,1.7,10.5,4.09S394.45,300.82,394.4,301Z" fill="#263238"/>
      <path id="Tracé_1564" data-name="Tracé 1564" d="M397.94,287.63a24.319,24.319,0,0,1-3.37-.32l-8.08-1-8.09-1a20.823,20.823,0,0,1-3.34-.51,20.887,20.887,0,0,1,3.38.14c2.08.16,4.95.44,8.11.83s6,.8,8.08,1.15a20,20,0,0,1,3.31.71Z" fill="#263238"/>
      <path id="Tracé_1565" data-name="Tracé 1565" d="M396.29,273.81a17.513,17.513,0,0,1-3,1c-1.89.55-4.53,1.23-7.47,1.85s-5.63,1.06-7.58,1.32a17.3,17.3,0,0,1-3.17.27,22.631,22.631,0,0,1,3.12-.64c1.93-.35,4.59-.84,7.52-1.46s5.57-1.24,7.48-1.7a22.07,22.07,0,0,1,3.1-.64Z" fill="#263238"/>
      <path id="Tracé_1566" data-name="Tracé 1566" d="M392.27,260.55c.06.13-4.22,2.42-9.57,5.12s-9.74,4.78-9.81,4.65,4.22-2.42,9.57-5.12S392.2,260.43,392.27,260.55Z" fill="#263238"/>
      <path id="Tracé_1567" data-name="Tracé 1567" d="M384,249.8c.09.11-3.47,3.33-8,7.2s-8.2,6.91-8.29,6.8a105.727,105.727,0,0,1,8-7.2C380.25,252.73,383.94,249.69,384,249.8Z" fill="#263238"/>
      <path id="Tracé_1568" data-name="Tracé 1568" d="M370.13,241.82c.12.07-2.13,4-5,8.83a97.022,97.022,0,0,1-5.48,8.57c-.12-.07,2.13-4,5-8.84a99.993,99.993,0,0,1,5.48-8.56Z" fill="#263238"/>
      <path id="Tracé_1569" data-name="Tracé 1569" d="M357.68,236.82a102.114,102.114,0,0,1-3,9.86c-1.78,5.4-3.34,9.74-3.47,9.7a98.5,98.5,0,0,1,3-9.87,99.783,99.783,0,0,1,3.47-9.69Z" fill="#263238"/>
      <g id="Groupe_129" data-name="Groupe 129" opacity="0.3">
        <path id="Tracé_1570" data-name="Tracé 1570" d="M372.68,294.18a24.63,24.63,0,0,1-11.58,11.88,36.5,36.5,0,0,1-7.84,3.06c6.11,3.26,14.09,1.31,19.43-3.1s8.16-11.41,8.35-18.34a21.729,21.729,0,0,0-1.73-9.6c-1.36-3-3.61-6.12-6.58-7.5a18.45,18.45,0,0,1,1.86,5.25,30.68,30.68,0,0,1-1.91,18.35Z"/>
      </g>
      <path id="Tracé_1571" data-name="Tracé 1571" d="M137.83,348.12a8.6,8.6,0,0,1,1,1.11c.62.73,1.46,1.82,2.46,3.21A70.449,70.449,0,0,1,147.9,364a68.719,68.719,0,0,1,4.29,12.63c.39,1.66.65,3,.79,4a9.262,9.262,0,0,1,.17,1.48,7.489,7.489,0,0,1-.37-1.44c-.2-.93-.52-2.27-.94-3.91a82,82,0,0,0-4.41-12.51,81.159,81.159,0,0,0-6.43-11.6c-.95-1.41-1.74-2.53-2.31-3.3A7.569,7.569,0,0,1,137.83,348.12Z" fill="#263238"/>
      <path id="Tracé_1572" data-name="Tracé 1572" d="M133.58,344.58c.1-.11.57.15,1.06.59s.8.87.71,1-.57-.15-1.06-.59S133.49,344.68,133.58,344.58Z" fill="#263238"/>
      <path id="Tracé_1573" data-name="Tracé 1573" d="M134.56,341.64c.12-.07.61.52,1.1,1.34s.78,1.53.66,1.6-.62-.52-1.11-1.34S134.43,341.71,134.56,341.64Z" fill="#263238"/>
      <path id="Tracé_1574" data-name="Tracé 1574" d="M153.06,382.72a5.241,5.241,0,0,1,.15-.8q.21-.85.54-2.28c.47-2,1.14-4.84,1.91-8.39,1.54-7.1,3.41-17,4.78-28,.74-5.48,1-10.8,2.28-15.49a23.671,23.671,0,0,1,2.68-6.31,18.86,18.86,0,0,1,11.72-8.23,15,15,0,0,1,2.32-.35,4.608,4.608,0,0,1,.82,0,6.044,6.044,0,0,1-.81.12,21.6,21.6,0,0,0-2.29.44,19.47,19.47,0,0,0-7.54,3.86,18.55,18.55,0,0,0-3.85,4.4,23.251,23.251,0,0,0-2.59,6.22c-1.24,4.62-1.49,9.93-2.22,15.43-1.38,11-3.31,20.89-4.94,28-.82,3.55-1.55,6.4-2.07,8.36q-.4,1.41-.63,2.25A4.878,4.878,0,0,1,153.06,382.72Z" fill="#455a64"/>
      <path id="Tracé_1575" data-name="Tracé 1575" d="M154.25,303.42a16,16,0,0,0,2.55,3.72,16.81,16.81,0,0,0,9.61,4.68,36.36,36.36,0,0,0,10.92-.46l3.29-.58a6.669,6.669,0,0,1,1.22-.16,5.251,5.251,0,0,1-1.18.36c-.77.19-1.88.46-3.27.74a32.92,32.92,0,0,1-11,.61,16.48,16.48,0,0,1-9.81-4.94,10.79,10.79,0,0,1-1.88-2.81,4,4,0,0,1-.45-1.16Z" fill="#263238"/>
      <path id="Tracé_1576" data-name="Tracé 1576" d="M150.45,300.26c.1-.1.58.21,1.06.7s.8,1,.7,1.06-.58-.21-1.06-.69S150.35,300.36,150.45,300.26Z" fill="#263238"/>
      <path id="Tracé_1577" data-name="Tracé 1577" d="M151.58,298.52c.13-.08.58.43,1,1.13s.69,1.34.56,1.41-.57-.43-1-1.13S151.46,298.59,151.58,298.52Z" fill="#263238"/>
      <path id="Tracé_1578" data-name="Tracé 1578" d="M154.71,298.29c.15,0,.17.61.06,1.32s-.32,1.25-.46,1.23-.17-.61-.06-1.32S154.57,298.27,154.71,298.29Z" fill="#263238"/>
      <path id="Tracé_1579" data-name="Tracé 1579" d="M164.13,337.34a10.349,10.349,0,0,1-.08,1.78c-.09,1.15-.26,2.8-.5,4.83-.47,4.08-1.3,9.68-2.55,15.81s-2.69,11.62-3.84,15.56c-.58,2-1.08,3.55-1.44,4.63a12.653,12.653,0,0,1-.62,1.67,13.258,13.258,0,0,1,.42-1.73c.33-1.18.76-2.76,1.28-4.67,1.06-4,2.44-9.44,3.69-15.56s2.13-11.7,2.7-15.75c.27-2,.49-3.59.65-4.81a14.778,14.778,0,0,1,.29-1.76Z" fill="#455a64"/>
      <path id="Tracé_1580" data-name="Tracé 1580" d="M181.86,314.19c0,.1-1.43.11-3.64.69a18.05,18.05,0,0,0-12.54,11.58c-.76,2.15-.88,3.59-1,3.57a2.79,2.79,0,0,1,0-1,15,15,0,0,1,.58-2.68,17.37,17.37,0,0,1,12.8-11.82,15.361,15.361,0,0,1,2.72-.37A3.48,3.48,0,0,1,181.86,314.19Z" fill="#455a64"/>
      <path id="Tracé_1581" data-name="Tracé 1581" d="M157.8,382.51a5.24,5.24,0,0,1,0-.75,19.467,19.467,0,0,1,.25-2.15,20,20,0,0,1,2.37-7.57c.84-1.47,2-2.91,2.94-4.61a9.67,9.67,0,0,0,1-2.78,11.45,11.45,0,0,0,.08-3.16c-.16-2.17-.79-4.51-.3-7a8.54,8.54,0,0,1,1.6-3.39c.73-1,1.58-2,2.25-3a6.36,6.36,0,0,0,1.12-3.41,14.831,14.831,0,0,0-.48-3.57,21.11,21.11,0,0,1-.58-7,19.9,19.9,0,0,1,10.54-15.89,17.521,17.521,0,0,1,2-.88,4.266,4.266,0,0,1,.72-.23,3.853,3.853,0,0,1-.68.32,18.607,18.607,0,0,0-1.92,1,20.471,20.471,0,0,0-5.95,5.08,19.71,19.71,0,0,0-4.21,10.67,20.85,20.85,0,0,0,.6,6.82,15.279,15.279,0,0,1,.5,3.69,6.87,6.87,0,0,1-1.21,3.68c-.7,1.11-1.55,2.05-2.26,3.05a7.83,7.83,0,0,0-1.52,3.19c-.47,2.31.12,4.62.28,6.84a12,12,0,0,1-.11,3.29,10.21,10.21,0,0,1-1.11,2.9c-1,1.74-2.16,3.16-3,4.59a20.78,20.78,0,0,0-2.48,7.42c-.15.88-.26,1.59-.35,2.12A3.76,3.76,0,0,1,157.8,382.51Z" fill="#455a64"/>
      <path id="Tracé_1582" data-name="Tracé 1582" d="M183,324.55a9.451,9.451,0,0,0-2.46.35,9.77,9.77,0,0,0-5.17,4.13c-1.6,2.39-2.31,5.82-2.69,9.6A121.138,121.138,0,0,1,170.89,351a200.576,200.576,0,0,1-6,21.82c-.9,2.75-1.65,5-2.19,6.49-.25.72-.46,1.3-.62,1.75a2.489,2.489,0,0,1-.26.6A4.251,4.251,0,0,1,162,381c.13-.46.31-1.05.53-1.78l2-6.54c1.69-5.53,4-13.18,5.8-21.82.88-4.31,1.46-8.46,1.86-12.27s1.17-7.3,2.87-9.74a9.74,9.74,0,0,1,5.42-4.12,6.25,6.25,0,0,1,1.86-.23,4.127,4.127,0,0,1,.66.05Z" fill="#e0e0e0"/>
      <path id="Tracé_1583" data-name="Tracé 1583" d="M146.29,378.93h19.37s-11.75,93.29-76.61,93l.83-18.19S134,451,146.29,378.93Z" fill="#ff725e"/>
      <path id="Tracé_1584" data-name="Tracé 1584" d="M70.7,442.54H75a1.83,1.83,0,0,1,1.83,1.83V462h-8V444.37a1.83,1.83,0,0,1,1.87-1.83Z" transform="translate(-380.65 517.19) rotate(-88.99)" fill="#ff725e"/>
      <g id="Groupe_130" data-name="Groupe 130" opacity="0.3">
        <path id="Tracé_1585" data-name="Tracé 1585" d="M70.7,442.54H75a1.83,1.83,0,0,1,1.83,1.83V462h-8V444.37a1.83,1.83,0,0,1,1.87-1.83Z" transform="translate(-380.65 517.19) rotate(-88.99)"/>
      </g>
      <path id="Tracé_1586" data-name="Tracé 1586" d="M69.64,457h5.94a3,3,0,0,1,3,3v16.47h-12V460.06A3,3,0,0,1,69.64,457Z" transform="translate(-395.38 531.17) rotate(-88.854)" fill="#ff725e"/>
      <rect id="Rectangle_285" data-name="Rectangle 285" width="20.39" height="7.7" transform="translate(74.624 468.748) rotate(-88.99)" fill="#ff725e"/>
      <rect id="Rectangle_286" data-name="Rectangle 286" width="12.44" height="27.68" transform="matrix(1, -0.012, 0.012, 1, 79.009, 447.281)" fill="#263238"/>
      <path id="Tracé_1587" data-name="Tracé 1587" d="M91.64,471.9c0,.23-2.74.4-6.11.42a34.374,34.374,0,0,1-6.13-.26,38.667,38.667,0,0,1,6.12-.27h5.64a2.435,2.435,0,0,1,.48.11Z" fill="#455a64"/>
      <path id="Tracé_1588" data-name="Tracé 1588" d="M91.58,466.92c0,.23-2.74.39-6.11.41a35,35,0,0,1-6.13-.25,38.671,38.671,0,0,1,6.12-.27H91.1a1.75,1.75,0,0,1,.48.11Z" fill="#455a64"/>
      <path id="Tracé_1589" data-name="Tracé 1589" d="M91.72,461.89c0,.23-2.73.39-6.11.41a34.922,34.922,0,0,1-6.12-.25,38.671,38.671,0,0,1,6.12-.27h5.63a2,2,0,0,1,.48.11Z" fill="#455a64"/>
      <path id="Tracé_1590" data-name="Tracé 1590" d="M91.46,457c0,.23-2.74.4-6.12.42a34.288,34.288,0,0,1-6.12-.26,38.671,38.671,0,0,1,6.12-.27h5.64a2.57,2.57,0,0,1,.48.11Z" fill="#455a64"/>
      <path id="Tracé_1591" data-name="Tracé 1591" d="M91.64,452.23c0,.23-2.74.4-6.11.42a36.2,36.2,0,0,1-6.13-.25,36,36,0,0,1,6.12-.27h5.64A2.438,2.438,0,0,1,91.64,452.23Z" fill="#455a64"/>
      <path id="Tracé_1592" data-name="Tracé 1592" d="M98.44,471a3.272,3.272,0,0,0,.06.5v.58l-.17-.56a83.194,83.194,0,0,1-1.91-9.16c-.43-2.69-.72-5.13-.89-6.91a14.66,14.66,0,0,1-.13-2.89,18.889,18.889,0,0,1,.5,2.85c.25,1.76.6,4.19,1,6.87.69,4.34,1.4,8,1.55,9.2h-.16C98.38,471.14,98.41,471,98.44,471Z" fill="#263238"/>
      <path id="Tracé_1593" data-name="Tracé 1593" d="M107.64,469.21a92.854,92.854,0,0,1-3.22-9.42,92.855,92.855,0,0,1-2.73-9.57,92.857,92.857,0,0,1,3.22,9.42,92.861,92.861,0,0,1,2.73,9.57Z" fill="#263238"/>
      <path id="Tracé_1594" data-name="Tracé 1594" d="M118.51,464.62a98.811,98.811,0,0,1-4.78-9.06c-2.5-5.08-4.43-9.24-4.3-9.3a99.8,99.8,0,0,1,4.77,9.07C116.71,460.4,118.63,464.56,118.51,464.62Z" fill="#263238"/>
      <path id="Tracé_1595" data-name="Tracé 1595" d="M128.14,457.42a91.859,91.859,0,0,1-6.18-7.91,98.588,98.588,0,0,1-5.77-8.23,96.335,96.335,0,0,1,6.19,7.92C125.67,453.66,128.25,457.34,128.14,457.42Z" fill="#263238"/>
      <path id="Tracé_1596" data-name="Tracé 1596" d="M136.55,449.44a93.691,93.691,0,0,1-7.2-6.85,96.187,96.187,0,0,1-6.82-7.22,94.535,94.535,0,0,1,7.19,6.85,97.737,97.737,0,0,1,6.83,7.22Z" fill="#263238"/>
      <path id="Tracé_1597" data-name="Tracé 1597" d="M143.48,439.86a14.643,14.643,0,0,1-2.51-1.34l-5.92-3.46-5.91-3.45a15.523,15.523,0,0,1-2.41-1.53,15.05,15.05,0,0,1,2.58,1.21c1.56.81,3.69,2,6,3.32s4.37,2.64,5.84,3.6a15.722,15.722,0,0,1,2.33,1.65Z" fill="#263238"/>
      <path id="Tracé_1598" data-name="Tracé 1598" d="M148.17,430.16a13.823,13.823,0,0,1-2.43-1.09c-1.47-.72-3.51-1.71-5.77-2.76s-4.34-1.95-5.84-2.61a15.477,15.477,0,0,1-2.41-1.14,11.929,11.929,0,0,1,2.54.8c1.54.57,3.65,1.43,5.93,2.48s4.29,2.1,5.72,2.9a13.263,13.263,0,0,1,2.26,1.42Z" fill="#263238"/>
      <path id="Tracé_1599" data-name="Tracé 1599" d="M153.77,420.78a13.929,13.929,0,0,1-2.77-.46c-1.7-.37-4-.94-6.57-1.68s-4.82-1.51-6.45-2.11a14.17,14.17,0,0,1-2.59-1.09,16.237,16.237,0,0,1,2.71.74c1.65.51,3.94,1.22,6.47,2s4.84,1.36,6.51,1.82a16.1,16.1,0,0,1,2.69.78Z" fill="#263238"/>
      <path id="Tracé_1600" data-name="Tracé 1600" d="M156.76,411.32a84.281,84.281,0,0,1-9.25-.92,84.447,84.447,0,0,1-9.18-1.43,84.063,84.063,0,0,1,9.25.92,79,79,0,0,1,9.18,1.43Z" fill="#263238"/>
      <path id="Tracé_1601" data-name="Tracé 1601" d="M159.94,402.07a12.639,12.639,0,0,1-2.69-.08c-1.66-.12-3.95-.32-6.47-.57s-4.81-.51-6.45-.73a13.789,13.789,0,0,1-2.66-.45,14.261,14.261,0,0,1,2.7.09c1.66.12,3.94.32,6.46.57s4.8.51,6.45.72a14.826,14.826,0,0,1,2.66.45Z" fill="#263238"/>
      <path id="Tracé_1602" data-name="Tracé 1602" d="M162.39,393.11a92.127,92.127,0,0,1-9.64.56,86.39,86.39,0,0,1-9.65,0,92.127,92.127,0,0,1,9.64-.56,89.422,89.422,0,0,1,9.65,0Z" fill="#263238"/>
      <path id="Tracé_1603" data-name="Tracé 1603" d="M163.4,385.79a13.172,13.172,0,0,1-2.64.41c-1.64.17-3.91.31-6.42.32s-4.79-.11-6.43-.26a12.811,12.811,0,0,1-2.64-.38,15,15,0,0,1,2.66,0c1.64.06,3.9.13,6.4.11s4.77-.1,6.4-.17a15,15,0,0,1,2.67-.03Z" fill="#263238"/>
      <path id="Tracé_1604" data-name="Tracé 1604" d="M147.13,381.7a.72.72,0,0,1,0,.25v.74c0,.65,0,1.61-.07,2.84a74,74,0,0,1-1.23,10.39,78.321,78.321,0,0,1-4.35,14.89,77.44,77.44,0,0,1-22,30.58,78.858,78.858,0,0,1-12.76,8.83,73.1,73.1,0,0,1-9.47,4.45c-1.14.46-2.06.74-2.67,1l-.7.23a.8.8,0,0,1-.25.06.7.7,0,0,1,.23-.11l.68-.28c.6-.25,1.51-.56,2.64-1a82.134,82.134,0,0,0,9.36-4.58,79.89,79.89,0,0,0,39-54,81.569,81.569,0,0,0,1.39-10.33c.11-1.22.11-2.18.16-2.83v-.74a.87.87,0,0,1,.04-.39Z" fill="#fff"/>
      <path id="Tracé_1605" data-name="Tracé 1605" d="M236.92,273s-10.72-14.51-35.53-12.36c0,0,25.25-19.4,10.39-39.33,0,0,31.89,9.42,32.25-30.44,0,0,5.8,37,35.88,26.46,0,0,2.14,29.36,22.95,23.93-10.07,9.9-19.86,18.63-17.86,31.29" fill="#ff725e"/>
      <g id="Groupe_131" data-name="Groupe 131" opacity="0.8">
        <path id="Tracé_1606" data-name="Tracé 1606" d="M236.92,273s-10.72-14.51-35.53-12.36c0,0,25.25-19.4,10.39-39.33,0,0,31.89,9.42,32.25-30.44,0,0,5.8,37,35.88,26.46,0,0,2.14,29.36,22.95,23.93-10.07,9.9-19.86,18.63-17.86,31.29" fill="#fff"/>
      </g>
      <path id="Tracé_1607" data-name="Tracé 1607" d="M236.92,273s-.25-16.92-20.18-15.19c0,0,18.53-10.69,6.6-26.7,0,0,25.62,7.57,25.91-24.45,0,0,4.65,29.69,28.82,21.25,0,0-2.89,21.54,13.84,17.17-8.09,8-11.37,17-9.77,27.2" fill="#ff725e"/>
      <g id="Groupe_132" data-name="Groupe 132" opacity="0.6">
        <path id="Tracé_1608" data-name="Tracé 1608" d="M236.92,273s-.25-16.92-20.18-15.19c0,0,18.53-10.69,6.6-26.7,0,0,25.62,7.57,25.91-24.45,0,0,4.65,29.69,28.82,21.25,0,0-2.89,21.54,13.84,17.17-8.09,8-11.37,17-9.77,27.2" fill="#fff"/>
      </g>
      <path id="Tracé_1609" data-name="Tracé 1609" d="M269.65,160.76a5.126,5.126,0,0,1-.24.63l-.79,1.76c-.35.76-.77,1.69-1.22,2.8s-1,2.33-1.51,3.74-1.13,2.93-1.68,4.6-1.12,3.46-1.7,5.35c-1.09,3.8-2.13,8-2.95,12.52a124.127,124.127,0,0,0-1.6,12.76c-.12,2-.25,3.85-.27,5.61s-.05,3.4,0,4.89.08,2.85.12,4,.1,2.21.17,3,.09,1.43.12,1.92a3,3,0,0,1,0,.68,5.343,5.343,0,0,1-.11-.67q-.07-.74-.21-1.92c-.1-.83-.2-1.85-.26-3s-.18-2.55-.19-4-.08-3.14,0-4.91.12-3.65.22-5.63a113.18,113.18,0,0,1,4.57-25.39c.59-1.89,1.14-3.7,1.75-5.35s1.18-3.2,1.74-4.59,1.12-2.64,1.6-3.73.92-2,1.3-2.77l.87-1.72a3,3,0,0,1,.27-.58Z" fill="#ff725e"/>
      <path id="Tracé_1610" data-name="Tracé 1610" d="M198.07,153.89a33,33,0,0,0-6-4.49,33.259,33.259,0,0,0-7.06-2.52,6.79,6.79,0,0,1,2.23.22,18.551,18.551,0,0,1,5.08,1.84,18.9,18.9,0,0,1,4.34,3.21A6.55,6.55,0,0,1,198.07,153.89Z" fill="#ff725e"/>
      <path id="Tracé_1611" data-name="Tracé 1611" d="M205.75,197.42a2.339,2.339,0,0,1,.42.4l1.11,1.19c1,1,2.31,2.59,3.91,4.56s3.43,4.37,5.36,7.11,3.92,5.86,5.86,9.2,3.62,6.64,5.06,9.67,2.6,5.82,3.5,8.19,1.59,4.31,2,5.66q.28.94.48,1.56a2.26,2.26,0,0,1,.13.56,2.26,2.26,0,0,1-.23-.53l-.58-1.52c-.47-1.33-1.2-3.25-2.15-5.59s-2.16-5.1-3.59-8.12-3.15-6.27-5.08-9.62-3.92-6.42-5.8-9.18-3.69-5.18-5.26-7.16-2.85-3.58-3.77-4.66l-1-1.25A2.44,2.44,0,0,1,205.75,197.42Z" fill="#ff725e"/>
      <path id="Tracé_1612" data-name="Tracé 1612" d="M274.51,202.53a1.72,1.72,0,0,1-.21.46l-.67,1.25c-.31.54-.67,1.2-1.06,2s-.87,1.66-1.32,2.67a70,70,0,0,0-3,7.16,78.079,78.079,0,0,0-4.16,18.47c-.27,2.9-.39,5.53-.38,7.74,0,1.1,0,2.1.05,3s.06,1.63.1,2.25.05,1,.07,1.42a1.371,1.371,0,0,1,0,.5,2.25,2.25,0,0,1-.09-.49c-.05-.38-.1-.85-.17-1.42s-.15-1.37-.19-2.25-.13-1.88-.13-3a71.006,71.006,0,0,1,.28-7.79,72.749,72.749,0,0,1,4.18-18.58,70.412,70.412,0,0,1,3.09-7.16c.47-1,1-1.87,1.4-2.65s.8-1.43,1.13-2,.56-.88.76-1.21a2,2,0,0,1,.32-.37Z" fill="#ff725e"/>
      <path id="Tracé_1613" data-name="Tracé 1613" d="M294.15,206.41c.05.06-.83.71-2.16,1.87a36.84,36.84,0,0,0-8.52,10.7,26.434,26.434,0,0,1-1.35,2.53,11.4,11.4,0,0,1,1-2.7,30.938,30.938,0,0,1,3.68-5.9,30.11,30.11,0,0,1,4.93-4.91,11.07,11.07,0,0,1,2.42-1.59Z" fill="#ff725e"/>
      <path id="Tracé_1614" data-name="Tracé 1614" d="M210.65,231.91a11.929,11.929,0,0,1,2.44,1.53,34.6,34.6,0,0,1,5.16,4.68,33.84,33.84,0,0,1,4.12,5.61,11.659,11.659,0,0,1,1.27,2.59,27.7,27.7,0,0,1-1.58-2.4,45,45,0,0,0-4.2-5.46,45.57,45.57,0,0,0-5-4.73A22.61,22.61,0,0,1,210.65,231.91Z" fill="#ff725e"/>
      <path id="Tracé_1615" data-name="Tracé 1615" d="M205.58,222.61c-.08.14-2.12-1-4.88-1.7s-5.09-.71-5.09-.87a14.5,14.5,0,0,1,10,2.57Z" fill="#ff725e"/>
      <path id="Tracé_1616" data-name="Tracé 1616" d="M185,191.31a6.851,6.851,0,0,1,.66-1.66l-.91-1.38,1.9-2,1.41.85a7.26,7.26,0,0,1,1.64-.71l.34-1.61,2.73-.05.39,1.61a7,7,0,0,1,1.66.65l1.38-.9,2,1.9-.86,1.41a6.311,6.311,0,0,1,.71,1.64l1.62.33v2.74l-1.6.39a6.78,6.78,0,0,1-.66,1.65l.91,1.39-1.9,2L195,198.7a6.251,6.251,0,0,1-1.63.71L193,201h-2.73l-.39-1.6a6.85,6.85,0,0,1-1.66-.66l-1.38.9-2-1.9.86-1.41a6.25,6.25,0,0,1-.71-1.63l-1.62-.34v-2.73l1.6-.39Zm3.6,1.55a1.207,1.207,0,1,1,.01,0Z" fill="#ff725e" fill-rule="evenodd"/>
      <path id="Tracé_1617" data-name="Tracé 1617" d="M299.57,265.2a5.17,5.17,0,0,1,.48-1.22l-.67-1,1.41-1.45,1,.63a5.131,5.131,0,0,1,1.2-.52l.25-1.19h2l.29,1.19a4.769,4.769,0,0,1,1.22.48l1-.67,1.45,1.41-.63,1a5,5,0,0,1,.52,1.2l1.19.25v2l-1.19.29a5.17,5.17,0,0,1-.48,1.22l.66,1-1.4,1.45-1-.63a5,5,0,0,1-1.21.52l-.24,1.19h-2l-.29-1.18a5.17,5.17,0,0,1-1.22-.48l-1,.66L299.5,270l.63-1a5,5,0,0,1-.52-1.21l-1.19-.25v-2l1.19-.29Zm2.66,1.14a2.16,2.16,0,1,0,2.125-2.2,2.16,2.16,0,0,0-2.125,2.2Z" fill="#455a64" fill-rule="evenodd"/>
      <rect id="Rectangle_287" data-name="Rectangle 287" width="10.43" height="4.72" transform="translate(275.022 188.151) rotate(-64.59)" fill="#e0e0e0"/>
      <path id="Tracé_1618" data-name="Tracé 1618" d="M275,188.16a10.74,10.74,0,0,1,1.23.49c.76.32,1.83.78,3.11,1.36l-.25.09c1.12-2.45,2.67-5.79,4.41-9.45-.11-.31.15.43.12.35h-.13l-.14-.06-.28-.14-.56-.26-1.08-.52-2.06-1,.33-.11c-1.29,2.68-2.45,5-3.28,6.64-.4.76-.73,1.41-1,1.95a4.554,4.554,0,0,1-.41.72,3.13,3.13,0,0,1,.26-.68c.23-.54.52-1.19.85-1.95.75-1.69,1.83-4.1,3.14-6.89l.11-.23.22.11,2.07,1,1.09.51.55.26.28.14.14.06h.14c0-.08.23.66.12.35-1.74,3.66-3.34,7-4.54,9.39l-.08.17-.17-.09c-1.34-.66-2.41-1.21-3.12-1.59a7.682,7.682,0,0,1-1.07-.62Z" fill="#263238"/>
      <path id="Tracé_1619" data-name="Tracé 1619" d="M283.35,175.75a4.34,4.34,0,0,0-5.79,2.06l7.86,3.74a4.35,4.35,0,0,0-2.07-5.8Z" fill="#e0e0e0"/>
      <path id="Tracé_1620" data-name="Tracé 1620" d="M283.35,175.75a1.2,1.2,0,0,1,.49.18,4.219,4.219,0,0,1,1.12.9,4.28,4.28,0,0,1,1,2,4.45,4.45,0,0,1-.32,2.83l-.09.22-.23-.1-3.93-1.85L277.45,178l-.22-.1.11-.22a4.54,4.54,0,0,1,2-2,4.4,4.4,0,0,1,2.17-.48,3.86,3.86,0,0,1,1.4.3c.31.14.46.24.44.26a8.45,8.45,0,0,0-1.84-.27,4.22,4.22,0,0,0-2,.55,4.16,4.16,0,0,0-1.76,1.89l-.11-.32,3.94,1.85,3.92,1.88-.32.12a4.19,4.19,0,0,0,.36-2.56,4.35,4.35,0,0,0-.83-1.88A8,8,0,0,0,283.35,175.75Z" fill="#263238"/>
      <path id="Tracé_1621" data-name="Tracé 1621" d="M283.45,178.24a2.74,2.74,0,0,0-.86-2.8" fill="#e0e0e0"/>
      <path id="Tracé_1622" data-name="Tracé 1622" d="M282.59,175.44c.07-.13.8.27,1.08,1.2s-.09,1.66-.22,1.6,0-.71-.27-1.45S282.5,175.56,282.59,175.44Z" fill="#263238"/>
      <path id="Tracé_1623" data-name="Tracé 1623" d="M278.65,180.07a9,9,0,0,1,2.28.94,9.17,9.17,0,0,1,2.23,1.09,4.68,4.68,0,0,1-2.44-.62C279.44,180.91,278.57,180.18,278.65,180.07Z" fill="#263238"/>
      <path id="Tracé_1624" data-name="Tracé 1624" d="M278.12,181.17a9.711,9.711,0,0,1,2.29,1,9.171,9.171,0,0,1,2.22,1.08,4.52,4.52,0,0,1-2.44-.61C278.92,182,278,181.29,278.12,181.17Z" fill="#263238"/>
      <path id="Tracé_1625" data-name="Tracé 1625" d="M277.6,182.28a9,9,0,0,1,2.28.94,9.411,9.411,0,0,1,2.23,1.09,4.72,4.72,0,0,1-2.44-.61C278.39,183.12,277.52,182.39,277.6,182.28Z" fill="#263238"/>
      <path id="Tracé_1626" data-name="Tracé 1626" d="M277.07,183.38a9.71,9.71,0,0,1,2.29,1,9.171,9.171,0,0,1,2.22,1.08,4.52,4.52,0,0,1-2.44-.61A4.959,4.959,0,0,1,277.07,183.38Z" fill="#263238"/>
      <path id="Tracé_1627" data-name="Tracé 1627" d="M276.54,184.49a9.26,9.26,0,0,1,2.29.94,9.871,9.871,0,0,1,2.23,1.09,7.15,7.15,0,0,1-4.52-2Z" fill="#263238"/>
      <path id="Tracé_1628" data-name="Tracé 1628" d="M276,185.6a9,9,0,0,1,2.29.94,9.211,9.211,0,0,1,2.22,1.09,7.23,7.23,0,0,1-4.51-2Z" fill="#263238"/>
      <path id="Tracé_1629" data-name="Tracé 1629" d="M275.49,186.7a9.54,9.54,0,0,1,2.29,1,9.171,9.171,0,0,1,2.22,1.08,4.48,4.48,0,0,1-2.43-.61C276.29,187.55,275.41,186.82,275.49,186.7Z" fill="#263238"/>
      <rect id="Rectangle_288" data-name="Rectangle 288" width="10.43" height="4.72" transform="matrix(0.911, -0.413, 0.413, 0.911, 171.332, 264.26)" fill="#e0e0e0"/>
      <path id="Tracé_1630" data-name="Tracé 1630" d="M182.77,264.25a11.2,11.2,0,0,1-.62-1.17c-.37-.73-.89-1.77-1.5-3l.25.09c-2.44,1.15-5.78,2.7-9.46,4.37-.12.31.15-.42.13-.34h0v.07l.06.14.13.28.25.56c.17.37.33.73.5,1.09l.93,2.09-.33-.12c2.73-1.22,5.09-2.23,6.8-3l2-.84a5,5,0,0,1,.78-.29,3,3,0,0,1-.63.36l-1.91.94c-1.66.8-4,1.95-6.85,3.24l-.23.1-.1-.23c-.31-.66-.62-1.36-1-2.07-.17-.36-.33-.73-.5-1.1l-.25-.55-.13-.29-.07-.14v-.12h0l.13-.34c3.69-1.68,7.05-3.17,9.53-4.24l.17-.08.08.17c.59,1.38,1.05,2.49,1.35,3.24a5.891,5.891,0,0,1,.49,1.18Z" fill="#263238"/>
      <path id="Tracé_1631" data-name="Tracé 1631" d="M168.41,268.36a4.35,4.35,0,0,0,5.76,2.17l-3.6-7.93a4.34,4.34,0,0,0-2.16,5.76Z" fill="#e0e0e0"/>
      <path id="Tracé_1632" data-name="Tracé 1632" d="M168.41,268.36a2.089,2.089,0,0,1-.26-.44,4.089,4.089,0,0,1-.27-1.42,4.34,4.34,0,0,1,.52-2.16,4.59,4.59,0,0,1,2.07-2l.22-.1.1.22c.57,1.23,1.18,2.56,1.82,4s1.22,2.73,1.78,4l.1.22-.22.1a4.52,4.52,0,0,1-2.84.26,4.28,4.28,0,0,1-2-1,3.9,3.9,0,0,1-.88-1.13c-.15-.31-.2-.48-.17-.49a7.9,7.9,0,0,0,1.23,1.4,4.26,4.26,0,0,0,4.43.55l-.12.32-1.82-4c-.62-1.4-1.22-2.73-1.78-4l.32.12a4.24,4.24,0,0,0-2.5,3.69A8.472,8.472,0,0,0,168.41,268.36Z" fill="#263238"/>
      <path id="Tracé_1633" data-name="Tracé 1633" d="M169.94,266.4a2.74,2.74,0,0,0-1.15,2.69" fill="#e0e0e0"/>
      <path id="Tracé_1634" data-name="Tracé 1634" d="M168.79,269.09c-.13.06-.44-.73-.06-1.61s1.16-1.21,1.21-1.08-.43.56-.73,1.28S168.94,269.06,168.79,269.09Z" fill="#263238"/>
      <path id="Tracé_1635" data-name="Tracé 1635" d="M174.79,268.1a9,9,0,0,1-1.14-2.19,9.38,9.38,0,0,1-1-2.27,7.13,7.13,0,0,1,2.14,4.46Z" fill="#263238"/>
      <path id="Tracé_1636" data-name="Tracé 1636" d="M175.9,267.6a9.581,9.581,0,0,1-1.14-2.2,9.791,9.791,0,0,1-1-2.26c.11-.09.86.77,1.46,2A4.5,4.5,0,0,1,175.9,267.6Z" fill="#263238"/>
      <path id="Tracé_1637" data-name="Tracé 1637" d="M177,267.09a9.19,9.19,0,0,1-1.14-2.19,9.379,9.379,0,0,1-1-2.27,7.13,7.13,0,0,1,2.14,4.46Z" fill="#263238"/>
      <path id="Tracé_1638" data-name="Tracé 1638" d="M178.13,266.59a9.85,9.85,0,0,1-1.14-2.2,9.569,9.569,0,0,1-1-2.27,4.67,4.67,0,0,1,1.46,2,4.53,4.53,0,0,1,.68,2.47Z" fill="#263238"/>
      <path id="Tracé_1639" data-name="Tracé 1639" d="M179.25,266.08a9.14,9.14,0,0,1-1.14-2.2,9.4,9.4,0,0,1-1-2.26,7.13,7.13,0,0,1,2.14,4.46Z" fill="#263238"/>
      <path id="Tracé_1640" data-name="Tracé 1640" d="M180.36,265.57a9.371,9.371,0,0,1-1.14-2.19,9.57,9.57,0,0,1-1-2.27,4.67,4.67,0,0,1,1.46,2,4.52,4.52,0,0,1,.68,2.46Z" fill="#263238"/>
      <path id="Tracé_1641" data-name="Tracé 1641" d="M181.48,265.07a40.24,40.24,0,0,1-2.14-4.46c.11-.09.87.77,1.47,2a4.61,4.61,0,0,1,.67,2.46Z" fill="#263238"/>
      <path id="Tracé_1642" data-name="Tracé 1642" d="M201.52,142.38s12.11,12,15.13,19.43c2.87,7.11,4.77,13.73,4.77,13.73s3.12-5.46,6.63,0,20.1,71.77,22.83,96.73h10.57s-4.92-41.73-7.26-46.41-4.3-6.24-4.3-6.24-2.73-17.56-4.68-20.29a13.16,13.16,0,0,0-4.29-3.9s-3.51-19.11-8.58-23-9-1.95-9-1.95S220.14,150,201.52,142.38Z" fill="#ff725e"/>
      <path id="Tracé_1643" data-name="Tracé 1643" d="M300.67,231a55.809,55.809,0,0,0-7,2.38,58.258,58.258,0,0,0-6.41,3.72,6.81,6.81,0,0,1,1.62-1.48,24.09,24.09,0,0,1,9.62-4.37,7.24,7.24,0,0,1,2.17-.25Z" fill="#455a64"/>
      <path id="Tracé_1644" data-name="Tracé 1644" d="M300.26,228.86A72.8,72.8,0,0,0,293.2,232c-3.73,2.06-6.28,4.45-6.39,4.32a8.14,8.14,0,0,1,1.6-1.63,28,28,0,0,1,4.54-3.14,26.889,26.889,0,0,1,5.07-2.18,7.88,7.88,0,0,1,2.24-.51Z" fill="#455a64"/>
      <path id="Tracé_1645" data-name="Tracé 1645" d="M298.21,234c0,.16-2.2.19-4.79.94s-4.49,1.85-4.57,1.72a13.27,13.27,0,0,1,9.36-2.66Z" fill="#455a64"/>
      <path id="Tracé_1646" data-name="Tracé 1646" d="M274.88,272.17c-1.77-14,2.83-30.42,14-38.28l2.66,2.17s-13.91,8.28-12.89,36.21" fill="#263238"/>
      <path id="Tracé_1647" data-name="Tracé 1647" d="M217.41,252a33.581,33.581,0,0,0-5.37,2.39,34.871,34.871,0,0,0-4.56,3.71A13.8,13.8,0,0,1,217.41,252Z" fill="#455a64"/>
      <path id="Tracé_1648" data-name="Tracé 1648" d="M217.13,250.76a51.193,51.193,0,0,1-5.44,2.1,50.865,50.865,0,0,1-5.5,2,24.23,24.23,0,0,1,5.32-2.46,23.76,23.76,0,0,1,5.62-1.64Z" fill="#455a64"/>
      <path id="Tracé_1649" data-name="Tracé 1649" d="M247.94,275.62l-4.84-1.26a10.74,10.74,0,0,0-3.65-11.13,9.21,9.21,0,0,1-5.31,7.13,7.86,7.86,0,0,1-6.65-.42,6.93,6.93,0,0,1-3.63-4.72,7.86,7.86,0,0,1,3.87-8,9.8,9.8,0,0,1,3.66-1.24,3.507,3.507,0,0,0-.36-.29,13.38,13.38,0,0,0-15.08-.41l-2.82-4.13a18.33,18.33,0,0,1,20.94.56,14.92,14.92,0,0,1,4.35,5.22,15.83,15.83,0,0,1,9.52,18.72ZM233,260.83a5.35,5.35,0,0,0-2.76.67,2.93,2.93,0,0,0-1.52,2.75,2.08,2.08,0,0,0,1.09,1.29,2.93,2.93,0,0,0,2.37.2,4.5,4.5,0,0,0,2.32-4.58v-.2A8.439,8.439,0,0,0,233,260.83Z" fill="#263238"/>
      <path id="Tracé_1650" data-name="Tracé 1650" d="M207.34,182.76a7.838,7.838,0,0,1,1.34.71c.85.48,2,1.24,3.48,2.23a61.064,61.064,0,0,1,4.85,3.78,62,62,0,0,1,10.07,11.14,58.321,58.321,0,0,1,3.27,5.19c.85,1.53,1.49,2.79,1.88,3.69a7.7,7.7,0,0,1,.57,1.4,8,8,0,0,1-.75-1.31c-.45-.87-1.13-2.1-2-3.59s-2-3.24-3.34-5.11a67.211,67.211,0,0,0-10-11A61.083,61.083,0,0,0,212,186c-1.35-1-2.56-1.83-3.38-2.36a8.609,8.609,0,0,1-1.28-.88Z" fill="#ff725e"/>
      <path id="Tracé_1651" data-name="Tracé 1651" d="M190.42,294.18h.85v50.51h-.85a9,9,0,0,1-9-9V303.14a9,9,0,0,1,9-8.96Z" fill="#263238"/>
      <path id="Tracé_1652" data-name="Tracé 1652" d="M335.87,294.18h.94a8.88,8.88,0,0,1,8.88,8.88v32.76a8.88,8.88,0,0,1-8.88,8.88h-.94Z" fill="#263238"/>
      <rect id="Rectangle_289" data-name="Rectangle 289" width="149.39" height="109.99" rx="14.12" transform="translate(188.69 284.32)" fill="#ff725e"/>
      <path id="Tracé_1653" data-name="Tracé 1653" d="M282.39,296a34.23,34.23,0,0,0-34.23,34.23h68.47A34.23,34.23,0,0,0,282.39,296Z" fill="#fff"/>
      <path id="Tracé_1654" data-name="Tracé 1654" d="M310,328.58h3.68a6.728,6.728,0,0,1,1.53.1,7.864,7.864,0,0,1-1.52.11H305.2a1.748,1.748,0,0,1-.41,0,1.26,1.26,0,0,1,.41,0l1.12-.05Z" fill="#e0e0e0"/>
      <path id="Tracé_1655" data-name="Tracé 1655" d="M307.58,318.23a27.217,27.217,0,0,1,4.83-2,24.732,24.732,0,0,1-4.62,2.41,34.838,34.838,0,0,1-4.83,2,35,35,0,0,1,4.62-2.41Z" fill="#e0e0e0"/>
      <path id="Tracé_1656" data-name="Tracé 1656" d="M301.16,309.77c1.9-2.16,3.54-3.82,3.67-3.71s-1.35,1.93-3.29,4.05a33.9,33.9,0,0,1-3.67,3.7A34.863,34.863,0,0,1,301.16,309.77Z" fill="#e0e0e0"/>
      <path id="Tracé_1657" data-name="Tracé 1657" d="M292,304.36a23,23,0,0,1,2.05-4.79c.16.06-.54,2.28-1.57,5a35.664,35.664,0,0,1-2.06,4.79,34.188,34.188,0,0,1,1.58-5Z" fill="#e0e0e0"/>
      <path id="Tracé_1658" data-name="Tracé 1658" d="M281.51,302.58c0-2.88.08-5.21.25-5.21s.28,2.33.26,5.21a33.845,33.845,0,0,1-.26,5.21A33.183,33.183,0,0,1,281.51,302.58Z" fill="#e0e0e0"/>
      <path id="Tracé_1659" data-name="Tracé 1659" d="M271.05,304.54c-1-2.69-1.74-4.91-1.58-5s1.08,2.08,2,4.79a32.377,32.377,0,0,1,1.58,5,34.943,34.943,0,0,1-2-4.79Z" fill="#e0e0e0"/>
      <path id="Tracé_1660" data-name="Tracé 1660" d="M262,310.11c-1.94-2.12-3.42-3.93-3.29-4.05s1.77,1.55,3.67,3.71a34.864,34.864,0,0,1,3.29,4A33.892,33.892,0,0,1,262,310.11Z" fill="#e0e0e0"/>
      <path id="Tracé_1661" data-name="Tracé 1661" d="M255.73,318.7c-2.63-1.18-4.7-2.26-4.63-2.42s2.24.72,4.84,2a35.134,35.134,0,0,1,4.62,2.41,34.907,34.907,0,0,1-4.83-1.99Z" fill="#e0e0e0"/>
      <path id="Tracé_1662" data-name="Tracé 1662" d="M253.55,328.83h-3.69a7.862,7.862,0,0,1-1.52-.11,6.73,6.73,0,0,1,1.53-.1h3.68l3.68.06,1.12.05a1.169,1.169,0,0,1,.4,0,1.6,1.6,0,0,1-.4,0h-1.12Z" fill="#e0e0e0"/>
      <path id="Tracé_1663" data-name="Tracé 1663" d="M225.31,302a4.55,4.55,0,1,1-4.55-4.54A4.55,4.55,0,0,1,225.31,302Z" fill="#fff"/>
      <path id="Tracé_1664" data-name="Tracé 1664" d="M225.31,315.7a4.55,4.55,0,1,1-4.55-4.54A4.55,4.55,0,0,1,225.31,315.7Z" fill="#455a64"/>
      <path id="Tracé_1665" data-name="Tracé 1665" d="M311.43,384.82v-3.3c0-2.17,0-5.33-.05-9.38,0-8.13-.06-19.85-.1-34.3l.19.19-93.17.07h0l.26-.26v47l-.25-.24,66.92.11,19.3.07h.11l-19.25.07-67.08.12H218V337.46h.27l93.17.07h.2v.19c-.05,14.5-.08,26.26-.11,34.41v11.76A3.915,3.915,0,0,1,311.43,384.82Z" fill="#263238"/>
      <path id="Tracé_1666" data-name="Tracé 1666" d="M204.1,394.09H322.67v.59a6.23,6.23,0,0,1-6.23,6.23H210.34a6.23,6.23,0,0,1-6.23-6.23v-.59Z" fill="#263238"/>
      <g id="Groupe_133" data-name="Groupe 133" opacity="0.3">
        <path id="Tracé_1667" data-name="Tracé 1667" d="M301.47,344.43a2.81,2.81,0,0,0,1.93,3,3.11,3.11,0,0,0,3.39-1.24,3.49,3.49,0,0,0,0-3.67,3.48,3.48,0,0,1-.78,2.35,2.56,2.56,0,0,1-2.26.88,2,2,0,0,1-1.69-1.64"/>
      </g>
      <path id="Tracé_1668" data-name="Tracé 1668" d="M306.81,343.32a2.77,2.77,0,1,1-2.76-2.76A2.77,2.77,0,0,1,306.81,343.32Z" fill="#e0e0e0"/>
      <path id="Tracé_1669" data-name="Tracé 1669" d="M306.81,343.32a5.243,5.243,0,0,1-.18-.65,2.78,2.78,0,0,0-1-1.4,2.61,2.61,0,0,0-2.42-.32,2.53,2.53,0,0,0,0,4.74,2.61,2.61,0,0,0,2.42-.32,2.78,2.78,0,0,0,1-1.4,6,6,0,0,1,.18-.65,1.42,1.42,0,0,1,0,.7,2.7,2.7,0,0,1-1,1.64,2.92,2.92,0,0,1-2.81.48,3,3,0,0,1,0-5.64,2.92,2.92,0,0,1,2.81.48,2.7,2.7,0,0,1,1,1.64C306.9,343.07,306.84,343.32,306.81,343.32Z" fill="#263238"/>
      <path id="Tracé_1670" data-name="Tracé 1670" d="M305.32,342.14c.05.14-.6.48-1.21,1.12s-.93,1.29-1.07,1.24,0-.87.7-1.61S305.29,342,305.32,342.14Z" fill="#263238"/>
      <path id="Tracé_1671" data-name="Tracé 1671" d="M305.32,344.18c-.12.08-.58-.42-1.26-.87s-1.32-.7-1.29-.85.81-.11,1.58.42S305.44,344.12,305.32,344.18Z" fill="#263238"/>
      <g id="Groupe_134" data-name="Groupe 134" opacity="0.3">
        <path id="Tracé_1672" data-name="Tracé 1672" d="M302.76,378.63a2.83,2.83,0,0,0,1.94,3,3.11,3.11,0,0,0,3.39-1.24,3.49,3.49,0,0,0,.05-3.66,3.43,3.43,0,0,1-.79,2.34,2.55,2.55,0,0,1-2.25.88,2,2,0,0,1-1.7-1.63"/>
      </g>
      <circle id="Ellipse_33" data-name="Ellipse 33" cx="2.76" cy="2.76" r="2.76" transform="translate(302.59 374.75)" fill="#e0e0e0"/>
      <path id="Tracé_1673" data-name="Tracé 1673" d="M308.11,377.51c-.05,0-.06-.24-.19-.65a2.74,2.74,0,0,0-1-1.4,2.62,2.62,0,0,0-2.42-.32,2.54,2.54,0,1,0,2.42,4.42,2.7,2.7,0,0,0,1-1.4c.13-.4.14-.65.19-.65s.09.25,0,.7a2.74,2.74,0,0,1-1,1.65,2.93,2.93,0,0,1-2.81.47,2.98,2.98,0,1,1,2.81-5.16,2.7,2.7,0,0,1,1,1.64C308.2,377.27,308.14,377.52,308.11,377.51Z" fill="#263238"/>
      <path id="Tracé_1674" data-name="Tracé 1674" d="M306.62,376.33c.05.14-.61.48-1.21,1.12s-.93,1.29-1.08,1.25,0-.88.7-1.61S306.59,376.2,306.62,376.33Z" fill="#263238"/>
      <path id="Tracé_1675" data-name="Tracé 1675" d="M306.62,378.37c-.13.09-.59-.42-1.27-.87s-1.31-.7-1.28-.85.8-.11,1.58.42S306.74,378.31,306.62,378.37Z" fill="#263238"/>
      <g id="Groupe_135" data-name="Groupe 135" opacity="0.3">
        <path id="Tracé_1676" data-name="Tracé 1676" d="M222.38,344.39a2.83,2.83,0,0,0,1.94,3,3.12,3.12,0,0,0,3.39-1.25,3.49,3.49,0,0,0,0-3.66,3.45,3.45,0,0,1-.79,2.35,2.55,2.55,0,0,1-2.25.88,2,2,0,0,1-1.7-1.64"/>
      </g>
      <circle id="Ellipse_34" data-name="Ellipse 34" cx="2.76" cy="2.76" r="2.76" transform="translate(222.2 340.52)" fill="#e0e0e0"/>
      <path id="Tracé_1677" data-name="Tracé 1677" d="M227.73,343.28s-.06-.25-.19-.65a2.67,2.67,0,0,0-1-1.4,2.59,2.59,0,0,0-2.41-.32,2.53,2.53,0,0,0,0,4.74,2.62,2.62,0,0,0,2.42-.32,2.7,2.7,0,0,0,1-1.4c.13-.4.14-.65.19-.65a1.21,1.21,0,0,1,0,.7,2.75,2.75,0,0,1-1,1.64,2.93,2.93,0,0,1-2.81.48,3,3,0,0,1,0-5.64,2.93,2.93,0,0,1,2.81.48,2.75,2.75,0,0,1,1,1.64,1.21,1.21,0,0,1-.01.7Z" fill="#263238"/>
      <path id="Tracé_1678" data-name="Tracé 1678" d="M226.24,342.1c0,.14-.61.48-1.21,1.12s-.93,1.29-1.08,1.24,0-.88.7-1.61A1.965,1.965,0,0,1,226.24,342.1Z" fill="#263238"/>
      <path id="Tracé_1679" data-name="Tracé 1679" d="M226.24,344.14c-.13.08-.59-.42-1.27-.87s-1.31-.7-1.28-.85.8-.11,1.58.41S226.36,344.07,226.24,344.14Z" fill="#263238"/>
      <g id="Groupe_136" data-name="Groupe 136" opacity="0.3">
        <path id="Tracé_1680" data-name="Tracé 1680" d="M221.8,378.29a2.8,2.8,0,0,0,1.93,3,3.11,3.11,0,0,0,3.39-1.24,3.47,3.47,0,0,0,0-3.66,3.47,3.47,0,0,1-.78,2.34,2.57,2.57,0,0,1-2.26.89,2,2,0,0,1-1.69-1.64"/>
      </g>
      <circle id="Ellipse_35" data-name="Ellipse 35" cx="2.76" cy="2.76" r="2.76" transform="translate(221.62 374.41)" fill="#e0e0e0"/>
      <path id="Tracé_1681" data-name="Tracé 1681" d="M227.14,377.17a1.812,1.812,0,0,0-.18-.65,2.87,2.87,0,0,0-1-1.4,2.61,2.61,0,0,0-2.42-.32,2.54,2.54,0,1,0,2.42,4.42,2.78,2.78,0,0,0,1-1.4,6,6,0,0,1,.18-.65,1.42,1.42,0,0,1,0,.7,2.72,2.72,0,0,1-1,1.65,2.985,2.985,0,1,1,0-4.69,2.72,2.72,0,0,1,1,1.65C227.23,376.93,227.17,377.18,227.14,377.17Z" fill="#263238"/>
      <path id="Tracé_1682" data-name="Tracé 1682" d="M225.65,376c0,.14-.6.48-1.21,1.12s-.93,1.29-1.07,1.25,0-.88.7-1.61S225.62,375.86,225.65,376Z" fill="#263238"/>
      <path id="Tracé_1683" data-name="Tracé 1683" d="M225.65,378c-.12.08-.58-.43-1.26-.88s-1.32-.7-1.29-.85.81-.11,1.58.42S225.77,378,225.65,378Z" fill="#263238"/>
      <g id="Groupe_137" data-name="Groupe 137" opacity="0.3">
        <path id="Tracé_1684" data-name="Tracé 1684" d="M218.25,385.08c10.82,2.35,23.46,2.44,35.15,1.87,5.62-.28,11.79-.63,16.29,2.76,1,.74,2.14,1.71,3.3,1.28,1.68-.63,1.74-3.71,3.54-3.77a2.23,2.23,0,0,1,1.88,1.68,13,13,0,0,0,.82,2.56c.46.78,1.55,1.3,2.27.75,1.14-.87-.18-2.74.25-4.11s2.47-1.53,3.85-1,2.72,1.54,4.19,1.32a8.191,8.191,0,0,0,2.83-1.45c2.63-1.61,5.88-1.7,9-1.76,3.25-.05,6.6-.36,9.85-.42Z"/>
      </g>
      <path id="Tracé_1685" data-name="Tracé 1685" d="M292.77,349.79a2.221,2.221,0,0,1-.51.18,11.727,11.727,0,0,0-1.45.49,22,22,0,0,0-4.88,2.76c-1.95,1.36-4.1,3.24-6.83,4.9a15.6,15.6,0,0,1-4.63,1.93,26.2,26.2,0,0,1-5.34.4c-3.65,0-6.84,1.48-9.6,3s-5.29,2.84-7.26,4.17a26.218,26.218,0,0,0-4.34,3.56c-.93,1-1.36,1.55-1.4,1.52s.08-.16.28-.45a14.006,14.006,0,0,1,1-1.21,23.789,23.789,0,0,1,4.28-3.72,77.993,77.993,0,0,1,7.24-4.3,33.09,33.09,0,0,1,4.52-2.1,15.5,15.5,0,0,1,5.29-.95,26.232,26.232,0,0,0,5.25-.38,15.769,15.769,0,0,0,4.5-1.84c2.68-1.61,4.87-3.46,6.86-4.79a20.609,20.609,0,0,1,5-2.65,8.711,8.711,0,0,1,1.49-.4A2,2,0,0,1,292.77,349.79Z" fill="#263238"/>
      <path id="Tracé_1686" data-name="Tracé 1686" d="M269.06,357.71a13,13,0,0,1-2.9-.45,43.587,43.587,0,0,1-6.77-2.1,42.762,42.762,0,0,1-6.34-3.16,12.388,12.388,0,0,1-2.41-1.69,25.491,25.491,0,0,1,2.59,1.37,59.769,59.769,0,0,0,13,5.23,21.005,21.005,0,0,1,2.83.8Z" fill="#263238"/>
      <path id="Tracé_1687" data-name="Tracé 1687" d="M284.1,325.07c.77-.41,23.24-7.64,23.24-7.64l-21.48,12Z" fill="#ff725e"/>
      <path id="Tracé_1688" data-name="Tracé 1688" d="M281.76,322.64a7.6,7.6,0,0,0-7.6,7.6h15.2a7.6,7.6,0,0,0-7.6-7.6Z" fill="#263238"/>
      <path id="Tracé_1689" data-name="Tracé 1689" d="M205.35,394.09c-.15,0-.26-24.42-.26-54.54s.11-54.55.26-54.55.26,24.42.26,54.55S205.49,394.09,205.35,394.09Z" fill="#263238"/>
      <path id="Tracé_1690" data-name="Tracé 1690" d="M324.2,394.09c-.15,0-.26-24.42-.26-54.54s.11-54.55.26-54.55.26,24.42.26,54.55S324.34,394.09,324.2,394.09Z" fill="#263238"/>
      <circle id="Ellipse_36" data-name="Ellipse 36" cx="1.17" cy="1.17" r="1.17" transform="translate(199.19 297.46)" fill="#263238"/>
      <circle id="Ellipse_37" data-name="Ellipse 37" cx="1.17" cy="1.17" r="1.17" transform="translate(199.19 319.34)" fill="#263238"/>
      <circle id="Ellipse_38" data-name="Ellipse 38" cx="1.17" cy="1.17" r="1.17" transform="translate(199.19 341.23)" fill="#263238"/>
      <circle id="Ellipse_39" data-name="Ellipse 39" cx="1.17" cy="1.17" r="1.17" transform="translate(199.19 363.12)" fill="#263238"/>
      <circle id="Ellipse_40" data-name="Ellipse 40" cx="1.17" cy="1.17" r="1.17" transform="translate(199.19 385)" fill="#263238"/>
      <circle id="Ellipse_41" data-name="Ellipse 41" cx="1.17" cy="1.17" r="1.17" transform="translate(329.14 297.46)" fill="#263238"/>
      <circle id="Ellipse_42" data-name="Ellipse 42" cx="1.17" cy="1.17" r="1.17" transform="translate(329.14 319.34)" fill="#263238"/>
      <circle id="Ellipse_43" data-name="Ellipse 43" cx="1.17" cy="1.17" r="1.17" transform="translate(329.14 341.23)" fill="#263238"/>
      <circle id="Ellipse_44" data-name="Ellipse 44" cx="1.17" cy="1.17" r="1.17" transform="translate(329.14 363.12)" fill="#263238"/>
      <circle id="Ellipse_45" data-name="Ellipse 45" cx="1.17" cy="1.17" r="1.17" transform="translate(329.14 385)" fill="#263238"/>
      <rect id="Rectangle_290" data-name="Rectangle 290" width="51.1" height="12.04" transform="translate(234.3 272.27)" fill="#455a64"/>
      <path id="Tracé_1691" data-name="Tracé 1691" d="M238,284.32a32.12,32.12,0,0,1-.26-5.82,32,32,0,0,1,.26-5.81,33.091,33.091,0,0,1,.26,5.81,33.248,33.248,0,0,1-.26,5.82Z" fill="#263238"/>
      <path id="Tracé_1692" data-name="Tracé 1692" d="M243.23,284.32a33.252,33.252,0,0,1-.26-5.82,33.092,33.092,0,0,1,.26-5.81,32,32,0,0,1,.26,5.81,32.121,32.121,0,0,1-.26,5.82Z" fill="#263238"/>
      <path id="Tracé_1693" data-name="Tracé 1693" d="M248.48,284.32a33.249,33.249,0,0,1-.26-5.82,33.091,33.091,0,0,1,.26-5.81,33.089,33.089,0,0,1,.26,5.81,33.251,33.251,0,0,1-.26,5.82Z" fill="#263238"/>
      <path id="Tracé_1694" data-name="Tracé 1694" d="M253.73,284.32a32.121,32.121,0,0,1-.26-5.82,32,32,0,0,1,.26-5.81,33.089,33.089,0,0,1,.26,5.81A33.251,33.251,0,0,1,253.73,284.32Z" fill="#263238"/>
      <path id="Tracé_1695" data-name="Tracé 1695" d="M259,284.32a33.252,33.252,0,0,1-.26-5.82,33.094,33.094,0,0,1,.26-5.81,32,32,0,0,1,.26,5.81,32.123,32.123,0,0,1-.26,5.82Z" fill="#263238"/>
      <path id="Tracé_1696" data-name="Tracé 1696" d="M264.22,284.32a33.249,33.249,0,0,1-.26-5.82,33.091,33.091,0,0,1,.26-5.81,33.088,33.088,0,0,1,.26,5.81,33.249,33.249,0,0,1-.26,5.82Z" fill="#263238"/>
      <path id="Tracé_1697" data-name="Tracé 1697" d="M269.47,284.32a32.122,32.122,0,0,1-.26-5.82,32,32,0,0,1,.26-5.81,33.091,33.091,0,0,1,.26,5.81,33.249,33.249,0,0,1-.26,5.82Z" fill="#263238"/>
      <path id="Tracé_1698" data-name="Tracé 1698" d="M274.71,284.32a33.252,33.252,0,0,1-.26-5.82,33.094,33.094,0,0,1,.26-5.81,32,32,0,0,1,.26,5.81,32.12,32.12,0,0,1-.26,5.82Z" fill="#263238"/>
      <path id="Tracé_1699" data-name="Tracé 1699" d="M280,284.32a33.252,33.252,0,0,1-.26-5.82,33.091,33.091,0,0,1,.26-5.81,33.091,33.091,0,0,1,.26,5.81A33.246,33.246,0,0,1,280,284.32Z" fill="#263238"/>
      <g id="Groupe_138" data-name="Groupe 138" opacity="0.3">
        <path id="Tracé_1700" data-name="Tracé 1700" d="M345.68,310.42c1.24,6.26,2.39,12.16,3.62,18.42a26.7,26.7,0,0,1-3.62,0V310.43"/>
      </g>
      <path id="Tracé_1701" data-name="Tracé 1701" d="M192.15,296.05c.14,0,0,18.68-.35,41.71s-.71,41.7-.86,41.7,0-18.67.34-41.71S192,296.05,192.15,296.05Z" fill="#fff"/>
      <path id="Tracé_1702" data-name="Tracé 1702" d="M213.89,382c-.15,0-.26-9.3-.26-20.77s.11-20.77.26-20.77.26,9.3.26,20.77S214,382,213.89,382Z" fill="#fff"/>
      <path id="Tracé_1703" data-name="Tracé 1703" d="M312.1,287.68c0,.15-22.93.26-51.2.26s-51.2-.11-51.2-.26,22.92-.26,51.2-.26S312.1,287.54,312.1,287.68Z" fill="#fff"/>
    </g>
    <g id="freepik--Floor--inject-140">
      <path id="Tracé_1704" data-name="Tracé 1704" d="M462.62,475.16c0,.14-95.2.26-212.61.26s-212.63-.12-212.63-.26,95.18-.26,212.63-.26S462.62,475,462.62,475.16Z" fill="#263238"/>
    </g>
  </g>
</svg>
