<svg xmlns="http://www.w3.org/2000/svg" width="777.715" height="584.758" viewBox="0 0 777.715 584.758">
  <g id="Edit_photo-rafiki" data-name="Edit photo-rafiki" transform="translate(-56.11 -87.8)">
    <g id="freepik--background-simple--inject-1" transform="translate(72.773 110.741)">
      <path id="Tracé_1972" data-name="Tracé 1972" d="M71.087,381.444c8.621-23.889,27.9-44.284,58.473-53.164,71.333-20.653,142.769,18.261,208.477,36.47,46.489,12.908,100.967,8.984,128.93-28.983,35.524-48.191,4.341-103.4,21.339-154.9,21.135-64.162,100.519-91.751,173.381-74.885,70.172,16.23,106.939,74.127,112.1,132.989,10.5,118.5-46.876,250.522-168.408,315.992-124.324,66.916-299.213,53.853-424.984-4.027-47.936-22.064-91.123-60.909-108.284-105.159a92.215,92.215,0,0,1-1.019-64.334Z" transform="translate(-65.792 -101.129)" fill="#86c232"/>
      <path id="Tracé_1973" data-name="Tracé 1973" d="M71.087,381.444c8.621-23.889,27.9-44.284,58.473-53.164,71.333-20.653,142.769,18.261,208.477,36.47,46.489,12.908,100.967,8.984,128.93-28.983,35.524-48.191,4.341-103.4,21.339-154.9,21.135-64.162,100.519-91.751,173.381-74.885,70.172,16.23,106.939,74.127,112.1,132.989,10.5,118.5-46.876,250.522-168.408,315.992-124.324,66.916-299.213,53.853-424.984-4.027-47.936-22.064-91.123-60.909-108.284-105.159a92.215,92.215,0,0,1-1.019-64.334Z" transform="translate(-65.792 -101.129)" fill="#fff" opacity="0.9"/>
    </g>
    <g id="freepik--Shadow--inject-1" transform="translate(56.11 633.592)">
      <ellipse id="freepik--path--inject-1" cx="388.857" cy="19.483" rx="388.857" ry="19.483" fill="#f5f5f5"/>
    </g>
    <g id="freepik--Plant--inject-1" transform="translate(694.296 490.549)">
      <path id="Tracé_1974" data-name="Tracé 1974" d="M370.28,349.165s10.929-9.1,20.292,0,11.17,65.522,11.17,65.522" transform="translate(-357.441 -304.999)" fill="none" stroke="#86c232" stroke-miterlimit="10" stroke-width="1"/>
      <path id="Tracé_1975" data-name="Tracé 1975" d="M389.324,431.27s-6.437-66.21,17.813-94.04" transform="translate(-344.266 -310.687)" fill="none" stroke="#86c232" stroke-miterlimit="10" stroke-width="1"/>
      <path id="Tracé_1976" data-name="Tracé 1976" d="M393.2,426.413s4.957-75.418-13.2-92.113" transform="translate(-350.432 -312.8)" fill="none" stroke="#86c232" stroke-miterlimit="10" stroke-width="1"/>
      <path id="Tracé_1977" data-name="Tracé 1977" d="M389,412.552s.43-49.808,13.941-57.553,20.481,17.5,20.481,17.5" transform="translate(-343.942 -298.939)" fill="none" stroke="#86c232" stroke-miterlimit="10" stroke-width="1"/>
      <path id="Tracé_1978" data-name="Tracé 1978" d="M398.378,411.6s2.2-38.243-8.261-51.908-21.5,5.852-21.5,5.852" transform="translate(-358.638 -297.99)" fill="none" stroke="#86c232" stroke-miterlimit="10" stroke-width="1"/>
      <path id="Tracé_1979" data-name="Tracé 1979" d="M388.848,434.621s-6.764-89.5,4.44-104.591" transform="translate(-345.511 -315.879)" fill="none" stroke="#86c232" stroke-miterlimit="10" stroke-width="1"/>
      <path id="Tracé_1980" data-name="Tracé 1980" d="M405.968,360.885s-6.729,2.5-4.733,8.347,23.321,15.49,23.321,15.49,8.915-8.175.723-21.479S406.157,356.7,405.968,360.885Z" transform="translate(-335.386 -297.58)" fill="#86c232"/>
      <path id="Tracé_1981" data-name="Tracé 1981" d="M405.968,360.885s-6.729,2.5-4.733,8.347,23.321,15.49,23.321,15.49,8.915-8.175.723-21.479S406.157,356.7,405.968,360.885Z" transform="translate(-335.386 -297.58)" fill="#fff" opacity="0.2"/>
      <path id="Tracé_1982" data-name="Tracé 1982" d="M394.008,353.243s7.177-.31,7.59,5.886-15.49,23.286-15.49,23.286-11.394-4.113-8.932-19.552S392.235,349.439,394.008,353.243Z" transform="translate(-352.719 -301.091)" fill="#86c232"/>
      <path id="Tracé_1983" data-name="Tracé 1983" d="M394.008,353.243s7.177-.31,7.59,5.886-15.49,23.286-15.49,23.286-11.394-4.113-8.932-19.552S392.235,349.439,394.008,353.243Z" transform="translate(-352.719 -301.091)" fill="#fff" opacity="0.2"/>
      <path id="Tracé_1984" data-name="Tracé 1984" d="M393.693,338.437s4.785-.516,4.406-3.442-18.588-10.413-29.259,1.721c0,0,6.884,11.824,16.832,12.048S393.693,338.437,393.693,338.437Z" transform="translate(-358.479 -315.887)" fill="#86c232"/>
      <path id="Tracé_1985" data-name="Tracé 1985" d="M393.693,338.437s4.785-.516,4.406-3.442-18.588-10.413-29.259,1.721c0,0,6.884,11.824,16.832,12.048S393.693,338.437,393.693,338.437Z" transform="translate(-358.479 -315.887)" fill="#fff" opacity="0.2"/>
      <path id="Tracé_1986" data-name="Tracé 1986" d="M390.819,337.284s-4.32,2.083-5.542-.585,10.327-18.674,25.816-14.061c0,0,.413,13.665-7.951,19.052S390.819,337.284,390.819,337.284Z" transform="translate(-346.69 -321.808)" fill="#86c232"/>
      <path id="Tracé_1987" data-name="Tracé 1987" d="M390.819,337.284s-4.32,2.083-5.542-.585,10.327-18.674,25.816-14.061c0,0,.413,13.665-7.951,19.052S390.819,337.284,390.819,337.284Z" transform="translate(-346.69 -321.808)" fill="#fff" opacity="0.2"/>
      <path id="Tracé_1988" data-name="Tracé 1988" d="M384.3,359.071s3.3-2.65-.258-3.958-21.049-.929-21.221,16.385c0,0,20.36,3.442,22.873-3.218S384.3,359.071,384.3,359.071Z" transform="translate(-362.82 -298.124)" fill="#86c232"/>
      <path id="Tracé_1989" data-name="Tracé 1989" d="M384.3,359.071s3.3-2.65-.258-3.958-21.049-.929-21.221,16.385c0,0,20.36,3.442,22.873-3.218S384.3,359.071,384.3,359.071Z" transform="translate(-362.82 -298.124)" fill="#fff" opacity="0.2"/>
      <path id="Tracé_1990" data-name="Tracé 1990" d="M400.367,336.519s-3.3-2.668.258-3.976,21.049-.929,21.221,16.385c0,0-20.36,3.442-22.873-3.2S400.367,336.519,400.367,336.519Z" transform="translate(-337.358 -314.399)" fill="#86c232"/>
      <path id="Tracé_1991" data-name="Tracé 1991" d="M400.367,336.519s-3.3-2.668.258-3.976,21.049-.929,21.221,16.385c0,0-20.36,3.442-22.873-3.2S400.367,336.519,400.367,336.519Z" transform="translate(-337.358 -314.399)" fill="#fff" opacity="0.2"/>
      <path id="Tracé_1992" data-name="Tracé 1992" d="M395.717,343.706s-.275-3.236,2.341-1.962,11.721,11.1,2.272,20.429c0,0-12.719-9.414-10.413-14.319S395.717,343.706,395.717,343.706Z" transform="translate(-343.482 -307.646)" fill="#86c232"/>
      <path id="Tracé_1993" data-name="Tracé 1993" d="M395.717,343.706s-.275-3.236,2.341-1.962,11.721,11.1,2.272,20.429c0,0-12.719-9.414-10.413-14.319S395.717,343.706,395.717,343.706Z" transform="translate(-343.482 -307.646)" fill="#fff" opacity="0.2"/>
      <path id="Tracé_1994" data-name="Tracé 1994" d="M379.54,346.677s1.979-2.6-.912-2.909-15.851,3.132-12.839,16.058c0,0,15.782-1.188,16.471-6.557S379.54,346.677,379.54,346.677Z" transform="translate(-361.004 -305.986)" fill="#86c232"/>
      <path id="Tracé_1995" data-name="Tracé 1995" d="M379.54,346.677s1.979-2.6-.912-2.909-15.851,3.132-12.839,16.058c0,0,15.782-1.188,16.471-6.557S379.54,346.677,379.54,346.677Z" transform="translate(-361.004 -305.986)" fill="#fff" opacity="0.2"/>
      <path id="Tracé_1996" data-name="Tracé 1996" d="M429.69,440.544H375.562L369.71,381.27h65.832Z" transform="translate(-357.852 -278.931)" fill="#86c232"/>
      <path id="Tracé_1997" data-name="Tracé 1997" d="M429.69,440.544H375.562L369.71,381.27h65.832Z" transform="translate(-357.852 -278.931)" fill="#fff" opacity="0.5"/>
      <rect id="Rectangle_423" data-name="Rectangle 423" width="71.615" height="13.08" transform="translate(8.967 95.799)" fill="#86c232"/>
      <rect id="Rectangle_424" data-name="Rectangle 424" width="71.615" height="13.08" transform="translate(8.967 95.799)" fill="#fff" opacity="0.2"/>
    </g>
    <g id="freepik--Interface--inject-1" transform="translate(371.449 87.8)">
      <rect id="Rectangle_425" data-name="Rectangle 425" width="457.087" height="351.36" fill="#86c232"/>
      <rect id="Rectangle_426" data-name="Rectangle 426" width="457.087" height="335.251" transform="translate(0 16.092)" fill="#fff" opacity="0.3"/>
      <rect id="Rectangle_427" data-name="Rectangle 427" width="250.78" height="222.984" transform="translate(68.723 68.465)" fill="#fff"/>
      <path id="Tracé_1998" data-name="Tracé 1998" d="M332.231,223.858l-9.913,45.058-1.807-.843L330.923,223.6Z" transform="translate(-63.482 10.124)" fill="#86c232"/>
      <path id="Tracé_1999" data-name="Tracé 1999" d="M332.231,223.858l-9.913,45.058-1.807-.843L330.923,223.6Z" transform="translate(-63.482 10.124)" fill="#fff" opacity="0.6"/>
      <circle id="Ellipse_46" data-name="Ellipse 46" cx="28.605" cy="28.605" r="28.605" transform="translate(219.355 120.592) rotate(-45)" fill="#86c232"/>
      <circle id="Ellipse_47" data-name="Ellipse 47" cx="28.605" cy="28.605" r="28.605" transform="translate(219.355 120.592) rotate(-45)" fill="#fff" opacity="0.9"/>
      <path id="Tracé_2000" data-name="Tracé 2000" d="M287.45,160.266a4.664,4.664,0,0,1,4.664-4.664,4.954,4.954,0,0,1,1.343.189,9.862,9.862,0,0,1,9.759-11.29,9.228,9.228,0,0,1,1.824.172,8.605,8.605,0,0,1,16.058,4.354h0a7.951,7.951,0,1,1,0,15.886H291.839A4.647,4.647,0,0,1,287.45,160.266Z" transform="translate(-87.322 -49.893)" fill="#86c232"/>
      <path id="Tracé_2001" data-name="Tracé 2001" d="M322.91,181.017a4.664,4.664,0,0,1,4.664-4.664,4.957,4.957,0,0,1,1.343.189,9.862,9.862,0,0,1,9.759-11.29,9.228,9.228,0,0,1,1.824.172,8.605,8.605,0,0,1,15.989,4.354h.138a7.951,7.951,0,1,1,0,15.886H327.368A4.647,4.647,0,0,1,322.91,181.017Z" transform="translate(-61.752 -34.845)" fill="#86c232"/>
      <path id="Tracé_2002" data-name="Tracé 2002" d="M352.666,234.309s-4.268-7.676-15.851-14.337a45.833,45.833,0,0,0-20.068,3.838s-2.151,3.6.293,5.008,4.492-1.428,4.492-1.428.448,4.32,3.649,4.458a4.3,4.3,0,0,0,4.148-3.029,5.766,5.766,0,0,0,4.131,4.974,5.284,5.284,0,0,0,5.37-1.945,5.869,5.869,0,0,0,3.631,4.2,3.907,3.907,0,0,0,4.027-1.291s.688,3.442,3.218,3.442C351.874,238.285,352.666,234.309,352.666,234.309Z" transform="translate(-66.827 7.487)" fill="#86c232"/>
      <path id="Tracé_2003" data-name="Tracé 2003" d="M239.1,306.626S235.483,250.5,216.93,177.407l3.769-2.857s16.264,26.419,32.6,128.755Z" transform="translate(-138.173 -25.245)" fill="#86c232"/>
      <g id="Groupe_161" data-name="Groupe 161" transform="translate(78.757 149.305)" opacity="0.5">
        <path id="Tracé_2004" data-name="Tracé 2004" d="M239.1,306.626S235.483,250.5,216.93,177.407l3.769-2.857s16.264,26.419,32.6,128.755Z" transform="translate(-216.93 -174.55)" fill="#fff"/>
      </g>
      <path id="Tracé_2005" data-name="Tracé 2005" d="M248,314.4s-5.748-80.2,26.057-160.44l-3.838-3.442S235.4,210.414,232.25,315.486Z" transform="translate(-127.126 -42.573)" fill="#86c232"/>
      <g id="Groupe_162" data-name="Groupe 162" transform="translate(105.124 107.947)" opacity="0.6">
        <path id="Tracé_2006" data-name="Tracé 2006" d="M248,314.4s-5.748-80.2,26.057-160.44l-3.838-3.442S235.4,210.414,232.25,315.486Z" transform="translate(-232.25 -150.52)" fill="#fff"/>
      </g>
      <path id="Tracé_2007" data-name="Tracé 2007" d="M225.439,174.275l-4.2-8.605s1.721,4.905,3.2,9.242A8.861,8.861,0,0,1,225.439,174.275Z" transform="translate(-135.065 -31.649)" fill="none"/>
      <path id="Tracé_2008" data-name="Tracé 2008" d="M214.707,168.71l-.327,7.177.878.327C214.948,172.341,214.707,168.71,214.707,168.71Z" transform="translate(-140.012 -29.457)" fill="none"/>
      <path id="Tracé_2009" data-name="Tracé 2009" d="M225.43,174.634a11.835,11.835,0,0,1,1.308,1.48l.379-3.924Z" transform="translate(-132.044 -26.947)" fill="none"/>
      <path id="Tracé_2010" data-name="Tracé 2010" d="M224.727,173.668,225,171.74l-.723,1.6Z" transform="translate(-132.873 -27.272)" fill="none"/>
      <path id="Tracé_2011" data-name="Tracé 2011" d="M255.485,139.54l-4.785,9.827c.379.224.757.447,1.119.688C253.488,145.116,255.485,139.54,255.485,139.54Z" transform="translate(-113.822 -50.491)" fill="none"/>
      <path id="Tracé_2012" data-name="Tracé 2012" d="M212.327,170.26l-.327,4.3.62-.155Z" transform="translate(-141.728 -28.339)" fill="none"/>
      <path id="Tracé_2013" data-name="Tracé 2013" d="M260.71,151.584a9.524,9.524,0,0,1,.981-.361l-.361-8.192S261.054,147.161,260.71,151.584Z" transform="translate(-106.604 -47.974)" fill="none"/>
      <path id="Tracé_2014" data-name="Tracé 2014" d="M263.58,149.506l.706.189-.344-4.905Z" transform="translate(-104.534 -46.705)" fill="none"/>
      <path id="Tracé_2015" data-name="Tracé 2015" d="M250.339,148.3l-.809-1.824.31,2.186Z" transform="translate(-114.665 -45.486)" fill="none"/>
      <path id="Tracé_2016" data-name="Tracé 2016" d="M247.58,147l.43,4.458a15.269,15.269,0,0,1,1.48-1.721Z" transform="translate(-116.071 -45.111)" fill="none"/>
      <path id="Tracé_2017" data-name="Tracé 2017" d="M211.122,198.215v1.876l.43-.757Zm48.087,2.41c-1.721-15.49-8.21-21.238-18.3-22.185a13.6,13.6,0,0,0-6.54,1.033l1.222-.723-2.272-6.316,3.081,5.886a23.926,23.926,0,0,1,3.442-1.377l-2.375-9.225,4.664,8.605a32.473,32.473,0,0,1,3.6-.585l-.757-2.995,1.635,2.926h2.513l-2.427-5.611c.189.293,1.721,2.805,3.322,5.628a26.814,26.814,0,0,1,4.217.465c-6.093-12.289-20.653-16.419-26.729-8.5-3.666,4.785-3.442,11.858-2.874,16.092l-.12.1h0a2.3,2.3,0,0,0-.275-.74c-.31-5.68-1.721-23.407-6.884-25.386-2.771-1.067-4.836.826-6.282,3.218v6.093l.809-3.442-.5,3.821a8,8,0,0,1,2.117.774l1.222-5.043-.534,5.439.809.568,1.429-4.767-.964,5.163a19.758,19.758,0,0,1,3.632,4.2v-6.884l1.446,9.208.688,1.308a15.231,15.231,0,0,0-4.888-4.544,10.1,10.1,0,0,0-5.267-1.274v24.9l1.222,1.6c.43-.637.861-1.256,1.308-1.859l-1.015-2.909,1.428,2.392c.31-.4.637-.774.964-1.153l-1.274-3.872,1.807,3.3a16.658,16.658,0,0,1,3.029-2.53l-1.91-4.7,2.7,4.062c-3.167,3.322-5.731,9.139-.086,18.244,0,0,.086-2.616.465-6.075l-1.325-1.635,1.429.688c.12-1.067.275-2.186.447-3.339l-1.05-1.635,1.222.637.206-1.136-1.428-3.253,1.876,1.2c.138-.534.275-1.05.43-1.566l.534,2.874.31-1.015h0l1.153-3.614,2.668,3.356.723-3.356h.138l2.805,2.031a31.546,31.546,0,0,0-1.515-6.161h.293a20.657,20.657,0,0,1,1.824,1.463l.809-1.239V189.4q.74.757,1.446,1.549l1.274-3.563-.31,4.733c.671.843,1.308,1.721,1.893,2.6l.43-3.442.275,4.544c.62,1,1.2,1.962,1.721,2.874l.275-6.334.671,8.124c1.239,2.427,1.928,4.148,1.928,4.148s1.05-10.327-3.236-16.918a24.36,24.36,0,0,1,2.6.775,32.316,32.316,0,0,1,3.442,1.411l1.256-4.113-.4,4.544c1.084.534,2.151,1.136,3.167,1.721l.516-3.58.224,4.027c1.256.774,2.444,1.583,3.545,2.358l-.551-6.385,1.429,7.039c1.136.826,2.151,1.618,3.029,2.341l-.207-4.458,1.532,5.559a18.293,18.293,0,0,1,1.928,1.669Zm-46.469-16.781.327-4.3.293,4.131Zm4.1.207.327-7.194s.241,3.649.551,7.5Zm14.939-3.253a3.442,3.442,0,0,0-.275-.843l-.516-1.463c-.568-1.721-1.136-3.3-1.583-4.561l-.207-.585a4.267,4.267,0,0,0-.172-.5,1.254,1.254,0,0,0-.155-.447l-.275-.774,4.182,8.605C232.429,180.419,232.1,180.625,231.775,180.8Zm2.478,3.184a4.267,4.267,0,0,0-.447-.327l.723-1.6Zm2.84,2.754a13.208,13.208,0,0,0-1.308-1.48l1.721-2.444Z" transform="translate(-142.398 -37.603)" fill="#86c232"/>
      <path id="Tracé_2018" data-name="Tracé 2018" d="M281.968,147.658a17.211,17.211,0,0,0-5.559,5.163c.258-.5.5-1.015.757-1.48l1.721-10.5v7.779a23.064,23.064,0,0,1,4.148-4.767l-1.1-5.834,1.635,5.421c.31-.241.62-.447.912-.637l-.6-6.213,1.377,5.766a8.6,8.6,0,0,1,2.41-.895l-.551-4.354,1,4.268a7.688,7.688,0,0,1,1.188-.086l-.843-3.27,1.566,3.322a4.113,4.113,0,0,1,.912.224s-3.064-13.769-10.068-11.135c-5.869,2.255-7.47,22.374-7.848,28.914l-.31.843h0l-.138-.12c.654-4.819.912-12.874-3.27-18.33-6.884-9.036-23.493-4.32-30.446,9.673a29.88,29.88,0,0,1,4.819-.516c1.859-3.218,3.563-6.075,3.769-6.42l-2.771,6.4a27.883,27.883,0,0,1,2.874.1l1.859-3.339-.861,3.442a38.185,38.185,0,0,1,4.1.671l5.318-9.793-2.7,10.5a32.277,32.277,0,0,1,3.924,1.583l3.442-6.712-2.513,7.211,1.394.809a15.489,15.489,0,0,0-7.435-1.17c-11.514,1.067-18.932,7.607-20.86,25.283,0,0,.826-.792,2.272-2.031L237.2,171.1l-.241,5.077c1-.809,2.151-1.721,3.442-2.668l1.721-8.02-.637,7.28c1.256-.895,2.616-1.807,4.045-2.685l.241-4.6.585,4.1c1.17-.706,2.375-1.377,3.614-2l-.447-5.163,1.428,4.7a41.9,41.9,0,0,1,3.872-1.618c1.033-.361,2.014-.637,2.96-.878-4.871,7.59-3.666,19.276-3.666,19.276s.757-1.962,2.186-4.733l.774-9.259.31,7.229c.568-1.05,1.222-2.151,1.928-3.27l.327-5.163.465,3.958c.688-1,1.411-2,2.169-2.96l-.344-5.387,1.446,4.062a12.511,12.511,0,0,1,1.721-1.721v-2.272l.929,1.394a23.454,23.454,0,0,1,2.048-1.721h.361a35.127,35.127,0,0,0-1.721,6.884h0a1.158,1.158,0,0,0,0,.172l3.442-2.427.809,3.821,2.237-2.805h0l.792-1,1.721,5.3.6-3.27c.172.568.327,1.17.482,1.721l2.151-1.377-1.635,3.718a6.809,6.809,0,0,0,.241,1.291l1.394-.723-1.2,1.859c.207,1.308.379,2.582.516,3.8l1.618-.792-1.5,1.876c.413,3.924.516,6.884.516,6.884,6.42-10.327,3.442-17-.1-20.774l3.064-4.578-2.151,5.3a19.947,19.947,0,0,1,3.442,2.874l2.048-3.752-1.428,4.423c.379.413.74.843,1.1,1.291l1.618-2.719-1.17,3.322c.534.671,1.015,1.394,1.5,2.117l2.909-3.786-2,5.163a61.969,61.969,0,0,1,4.027,8.3l2.151-5.955-1.5,7.659c.723,1.928,1.291,3.666,1.721,5.008l1.428-5.163-1.05,6.489c.275,1,.413,1.583.413,1.583,5.163-16.695,1.119-27.761-4.079-32.7h0l1.721-10.722.981,11.1a35.258,35.258,0,0,1,4.027,1.015l.568-3.442.379,3.821c.981.327,1.859.688,2.685,1.05V158.9s.447,3.442.912,7.435a29.258,29.258,0,0,1,4.2,2.392C305.238,153.028,291.9,142.116,281.968,147.658Zm-23.6,15.972-.43-4.458,1.91,2.788A15.086,15.086,0,0,0,258.372,163.63Zm3.236-3.132-.31-2.2.809,1.824Zm2.823-3.632c-.361-.224-.74-.465-1.136-.671l4.785-9.827S266.1,151.927,264.431,156.866Zm16.109,4.027c.344-4.406.62-8.605.62-8.605l.361,8.192Zm4.939-.774.361-4.716.344,4.888A5.268,5.268,0,0,0,285.479,160.119Z" transform="translate(-126.434 -57.301)" fill="#86c232"/>
      <g id="Groupe_163" data-name="Groupe 163" transform="translate(68.671 72.794)" opacity="0.7">
        <path id="Tracé_2019" data-name="Tracé 2019" d="M225.439,174.275l-4.2-8.605s1.721,4.905,3.2,9.242A8.861,8.861,0,0,1,225.439,174.275Z" transform="translate(-203.736 -104.443)" fill="#fff"/>
        <path id="Tracé_2020" data-name="Tracé 2020" d="M214.707,168.71l-.327,7.177.878.327C214.948,172.341,214.707,168.71,214.707,168.71Z" transform="translate(-208.683 -102.251)" fill="#fff"/>
        <path id="Tracé_2021" data-name="Tracé 2021" d="M225.43,174.634a11.835,11.835,0,0,1,1.308,1.48l.379-3.924Z" transform="translate(-200.715 -99.742)" fill="#fff"/>
        <path id="Tracé_2022" data-name="Tracé 2022" d="M224.727,173.668,225,171.74l-.723,1.6Z" transform="translate(-201.544 -100.066)" fill="#fff"/>
        <path id="Tracé_2023" data-name="Tracé 2023" d="M255.485,139.54l-4.785,9.827c.379.224.757.447,1.119.688C253.488,145.116,255.485,139.54,255.485,139.54Z" transform="translate(-182.493 -123.285)" fill="#fff"/>
        <path id="Tracé_2024" data-name="Tracé 2024" d="M212.327,170.26l-.327,4.3.62-.155Z" transform="translate(-210.399 -101.133)" fill="#fff"/>
        <path id="Tracé_2025" data-name="Tracé 2025" d="M260.71,151.584a9.524,9.524,0,0,1,.981-.361l-.361-8.192S261.054,147.161,260.71,151.584Z" transform="translate(-175.275 -120.769)" fill="#fff"/>
        <path id="Tracé_2026" data-name="Tracé 2026" d="M263.58,149.506l.706.189-.344-4.905Z" transform="translate(-173.206 -119.499)" fill="#fff"/>
        <path id="Tracé_2027" data-name="Tracé 2027" d="M250.339,148.3l-.809-1.824.31,2.186Z" transform="translate(-183.337 -118.281)" fill="#fff"/>
        <path id="Tracé_2028" data-name="Tracé 2028" d="M247.58,147l.43,4.458a15.269,15.269,0,0,1,1.48-1.721Z" transform="translate(-184.743 -117.906)" fill="#fff"/>
        <path id="Tracé_2029" data-name="Tracé 2029" d="M211.122,198.215v1.876l.43-.757Zm48.087,2.41c-1.721-15.49-8.21-21.238-18.3-22.185a13.6,13.6,0,0,0-6.54,1.033l1.222-.723-2.272-6.316,3.081,5.886a23.926,23.926,0,0,1,3.442-1.377l-2.375-9.225,4.664,8.605a32.473,32.473,0,0,1,3.6-.585l-.757-2.995,1.635,2.926h2.513l-2.427-5.611c.189.293,1.721,2.805,3.322,5.628a26.814,26.814,0,0,1,4.217.465c-6.093-12.289-20.653-16.419-26.729-8.5-3.666,4.785-3.442,11.858-2.874,16.092l-.12.1h0a2.3,2.3,0,0,0-.275-.74c-.31-5.68-1.721-23.407-6.884-25.386-2.771-1.067-4.836.826-6.282,3.218v6.093l.809-3.442-.5,3.821a8,8,0,0,1,2.117.774l1.222-5.043-.534,5.439.809.568,1.429-4.767-.964,5.163a19.758,19.758,0,0,1,3.632,4.2v-6.884l1.446,9.208.688,1.308a15.231,15.231,0,0,0-4.888-4.544,10.1,10.1,0,0,0-5.267-1.274v24.9l1.222,1.6c.43-.637.861-1.256,1.308-1.859l-1.015-2.909,1.428,2.392c.31-.4.637-.774.964-1.153l-1.274-3.872,1.807,3.3a16.658,16.658,0,0,1,3.029-2.53l-1.91-4.7,2.7,4.062c-3.167,3.322-5.731,9.139-.086,18.244,0,0,.086-2.616.465-6.075l-1.325-1.635,1.429.688c.12-1.067.275-2.186.447-3.339l-1.05-1.635,1.222.637.206-1.136-1.428-3.253,1.876,1.2c.138-.534.275-1.05.43-1.566l.534,2.874.31-1.015h0l1.153-3.614,2.668,3.356.723-3.356h.138l2.805,2.031a31.546,31.546,0,0,0-1.515-6.161h.293a20.657,20.657,0,0,1,1.824,1.463l.809-1.239V189.4q.74.757,1.446,1.549l1.274-3.563-.31,4.733c.671.843,1.308,1.721,1.893,2.6l.43-3.442.275,4.544c.62,1,1.2,1.962,1.721,2.874l.275-6.334.671,8.124c1.239,2.427,1.928,4.148,1.928,4.148s1.05-10.327-3.236-16.918a24.36,24.36,0,0,1,2.6.775,32.316,32.316,0,0,1,3.442,1.411l1.256-4.113-.4,4.544c1.084.534,2.151,1.136,3.167,1.721l.516-3.58.224,4.027c1.256.774,2.444,1.583,3.545,2.358l-.551-6.385,1.429,7.039c1.136.826,2.151,1.618,3.029,2.341l-.207-4.458,1.532,5.559a18.293,18.293,0,0,1,1.928,1.669Zm-46.469-16.781.327-4.3.293,4.131Zm4.1.207.327-7.194s.241,3.649.551,7.5Zm14.939-3.253a3.442,3.442,0,0,0-.275-.843l-.516-1.463c-.568-1.721-1.136-3.3-1.583-4.561l-.207-.585a4.267,4.267,0,0,0-.172-.5,1.254,1.254,0,0,0-.155-.447l-.275-.774,4.182,8.605C232.429,180.419,232.1,180.625,231.775,180.8Zm2.478,3.184a4.267,4.267,0,0,0-.447-.327l.723-1.6Zm2.84,2.754a13.208,13.208,0,0,0-1.308-1.48l1.721-2.444Z" transform="translate(-211.07 -110.397)" fill="#fff"/>
        <path id="Tracé_2030" data-name="Tracé 2030" d="M281.968,147.658a17.211,17.211,0,0,0-5.559,5.163c.258-.5.5-1.015.757-1.48l1.721-10.5v7.779a23.064,23.064,0,0,1,4.148-4.767l-1.1-5.834,1.635,5.421c.31-.241.62-.447.912-.637l-.6-6.213,1.377,5.766a8.6,8.6,0,0,1,2.41-.895l-.551-4.354,1,4.268a7.688,7.688,0,0,1,1.188-.086l-.843-3.27,1.566,3.322a4.113,4.113,0,0,1,.912.224s-3.064-13.769-10.068-11.135c-5.869,2.255-7.47,22.374-7.848,28.914l-.31.843h0l-.138-.12c.654-4.819.912-12.874-3.27-18.33-6.884-9.036-23.493-4.32-30.446,9.673a29.88,29.88,0,0,1,4.819-.516c1.859-3.218,3.563-6.075,3.769-6.42l-2.771,6.4a27.883,27.883,0,0,1,2.874.1l1.859-3.339-.861,3.442a38.185,38.185,0,0,1,4.1.671l5.318-9.793-2.7,10.5a32.277,32.277,0,0,1,3.924,1.583l3.442-6.712-2.513,7.211,1.394.809a15.489,15.489,0,0,0-7.435-1.17c-11.514,1.067-18.932,7.607-20.86,25.283,0,0,.826-.792,2.272-2.031L237.2,171.1l-.241,5.077c1-.809,2.151-1.721,3.442-2.668l1.721-8.02-.637,7.28c1.256-.895,2.616-1.807,4.045-2.685l.241-4.6.585,4.1c1.17-.706,2.375-1.377,3.614-2l-.447-5.163,1.428,4.7a41.9,41.9,0,0,1,3.872-1.618c1.033-.361,2.014-.637,2.96-.878-4.871,7.59-3.666,19.276-3.666,19.276s.757-1.962,2.186-4.733l.774-9.259.31,7.229c.568-1.05,1.222-2.151,1.928-3.27l.327-5.163.465,3.958c.688-1,1.411-2,2.169-2.96l-.344-5.387,1.446,4.062a12.511,12.511,0,0,1,1.721-1.721v-2.272l.929,1.394a23.454,23.454,0,0,1,2.048-1.721h.361a35.127,35.127,0,0,0-1.721,6.884h0a1.158,1.158,0,0,0,0,.172l3.442-2.427.809,3.821,2.237-2.805h0l.792-1,1.721,5.3.6-3.27c.172.568.327,1.17.482,1.721l2.151-1.377-1.635,3.718a6.809,6.809,0,0,0,.241,1.291l1.394-.723-1.2,1.859c.207,1.308.379,2.582.516,3.8l1.618-.792-1.5,1.876c.413,3.924.516,6.884.516,6.884,6.42-10.327,3.442-17-.1-20.774l3.064-4.578-2.151,5.3a19.947,19.947,0,0,1,3.442,2.874l2.048-3.752-1.428,4.423c.379.413.74.843,1.1,1.291l1.618-2.719-1.17,3.322c.534.671,1.015,1.394,1.5,2.117l2.909-3.786-2,5.163a61.969,61.969,0,0,1,4.027,8.3l2.151-5.955-1.5,7.659c.723,1.928,1.291,3.666,1.721,5.008l1.428-5.163-1.05,6.489c.275,1,.413,1.583.413,1.583,5.163-16.695,1.119-27.761-4.079-32.7h0l1.721-10.722.981,11.1a35.258,35.258,0,0,1,4.027,1.015l.568-3.442.379,3.821c.981.327,1.859.688,2.685,1.05V158.9s.447,3.442.912,7.435a29.258,29.258,0,0,1,4.2,2.392C305.238,153.028,291.9,142.116,281.968,147.658Zm-23.6,15.972-.43-4.458,1.91,2.788A15.086,15.086,0,0,0,258.372,163.63Zm3.236-3.132-.31-2.2.809,1.824Zm2.823-3.632c-.361-.224-.74-.465-1.136-.671l4.785-9.827S266.1,151.927,264.431,156.866Zm16.109,4.027c.344-4.406.62-8.605.62-8.605l.361,8.192Zm4.939-.774.361-4.716.344,4.888A5.268,5.268,0,0,0,285.479,160.119Z" transform="translate(-195.105 -130.096)" fill="#fff"/>
      </g>
      <path id="Tracé_2031" data-name="Tracé 2031" d="M459.645,248.179v22.632H214.2l1.962-3.442a22.7,22.7,0,0,0,15.817-7.848c1.618-1.842,3.167-3.718,4.871-5.49a1.587,1.587,0,0,0,.241-.293,15.709,15.709,0,0,1,1.721-.964l.843-.31.654-.258,1.377-.534c1.256-.5,2.461-1.033,3.631-1.6a26.78,26.78,0,0,0,7.728-5.525h0c1.721-1.842,3.132-3.976,4.957-5.766a2.011,2.011,0,0,0,.568-.258l1.394-.189h2.289c1.05,0,2.1.138,3.15.224,4.113,6.007,9.294,14.216,11.6,15.3,3.528,1.721,36.229,10.327,38.621,9.793s15.042.516,18.209.4,8.9-1.532,17.211-5.353,12.857-3.838,22.856-7.022,16.712-4.406,22.563.5a4.871,4.871,0,0,0,1.721.947,7.744,7.744,0,0,0,1.859.344c7.211.465,19.156-6.97,23.338-8.21,5.026-1.48,14.612-9.965,21.152-6.007C449.645,242.31,454.068,244.135,459.645,248.179Z" transform="translate(-140.141 20.655)" fill="#86c232"/>
      <path id="Tracé_2032" data-name="Tracé 2032" d="M459.645,248.179v22.632H214.2l1.962-3.442a22.7,22.7,0,0,0,15.817-7.848c1.618-1.842,3.167-3.718,4.871-5.49a1.587,1.587,0,0,0,.241-.293,15.709,15.709,0,0,1,1.721-.964l.843-.31.654-.258,1.377-.534c1.256-.5,2.461-1.033,3.631-1.6a26.78,26.78,0,0,0,7.728-5.525h0c1.721-1.842,3.132-3.976,4.957-5.766a2.011,2.011,0,0,0,.568-.258l1.394-.189h2.289c1.05,0,2.1.138,3.15.224,4.113,6.007,9.294,14.216,11.6,15.3,3.528,1.721,36.229,10.327,38.621,9.793s15.042.516,18.209.4,8.9-1.532,17.211-5.353,12.857-3.838,22.856-7.022,16.712-4.406,22.563.5a4.871,4.871,0,0,0,1.721.947,7.744,7.744,0,0,0,1.859.344c7.211.465,19.156-6.97,23.338-8.21,5.026-1.48,14.612-9.965,21.152-6.007C449.645,242.31,454.068,244.135,459.645,248.179Z" transform="translate(-140.141 20.655)" fill="#fff" opacity="0.7"/>
      <path id="Tracé_2033" data-name="Tracé 2033" d="M287.45,160.266a4.664,4.664,0,0,1,4.664-4.664,4.954,4.954,0,0,1,1.343.189,9.862,9.862,0,0,1,9.759-11.29,9.228,9.228,0,0,1,1.824.172,8.605,8.605,0,0,1,16.058,4.354h0a7.951,7.951,0,1,1,0,15.886H291.839A4.647,4.647,0,0,1,287.45,160.266Z" transform="translate(-87.322 -49.893)" fill="#fff" opacity="0.8"/>
      <path id="Tracé_2034" data-name="Tracé 2034" d="M322.91,181.017a4.664,4.664,0,0,1,4.664-4.664,4.957,4.957,0,0,1,1.343.189,9.862,9.862,0,0,1,9.759-11.29,9.228,9.228,0,0,1,1.824.172,8.605,8.605,0,0,1,15.989,4.354h.138a7.951,7.951,0,1,1,0,15.886H327.368A4.647,4.647,0,0,1,322.91,181.017Z" transform="translate(-61.752 -34.845)" fill="#fff" opacity="0.8"/>
      <path id="Tracé_2035" data-name="Tracé 2035" d="M352.666,234.309s-4.268-7.676-15.851-14.337a45.833,45.833,0,0,0-20.068,3.838s-2.151,3.6.293,5.008,4.492-1.428,4.492-1.428.448,4.32,3.649,4.458a4.3,4.3,0,0,0,4.148-3.029,5.766,5.766,0,0,0,4.131,4.974,5.284,5.284,0,0,0,5.37-1.945,5.869,5.869,0,0,0,3.631,4.2,3.907,3.907,0,0,0,4.027-1.291s.688,3.442,3.218,3.442C351.874,238.285,352.666,234.309,352.666,234.309Z" transform="translate(-66.827 7.487)" fill="#fff" opacity="0.7"/>
      <path id="Tracé_2036" data-name="Tracé 2036" d="M291.25,181.09s.327,18.6,17,20.188" transform="translate(-84.582 -20.53)" fill="none" stroke="#263238" stroke-linecap="round" stroke-linejoin="round" stroke-width="0.5"/>
      <path id="Tracé_2037" data-name="Tracé 2037" d="M312.684,225.509a79.8,79.8,0,0,1-12.512,5.06l-1.05-8.261-.809-6.437s15.49-.809,18.622-8.485-8.984-14.337-17.108-17.727c-3.786-1.6-6.678-2.5-6.678-2.5V177.37s2.1.757,5.284,2.083c9.053,3.752,26.883,12.048,30.412,20.481C332.615,208.952,326.574,218.418,312.684,225.509Z" transform="translate(-83.211 -23.212)" fill="#ebb376"/>
      <path id="Tracé_2038" data-name="Tracé 2038" d="M299.8,189.649c-3.786-1.6-6.678-2.5-6.678-2.5V177.36s2.1.757,5.284,2.083a34.2,34.2,0,0,1,1.394,10.206Z" transform="translate(-83.233 -23.219)" opacity="0.2"/>
      <path id="Tracé_2039" data-name="Tracé 2039" d="M310.182,206.683a79.806,79.806,0,0,1-12.512,5.06l-1.05-8.261C299.976,203.43,305.879,203.826,310.182,206.683Z" transform="translate(-80.709 -4.386)" opacity="0.2"/>
      <path id="Tracé_2040" data-name="Tracé 2040" d="M270.873,167.115a50.032,50.032,0,0,1,24.853-12.048c16.006-3.064,27.451,12.048,26.333,25.558s-7.917,22.116-8.778,26.367,3.769,15.886,8.778,20.1c0,0-43.027,10.585-53.2,5.163s-3.718-16.763-6.884-30.653S258.619,171.039,270.873,167.115Z" transform="translate(-107.008 -39.582)" fill="#263238"/>
      <path id="Tracé_2041" data-name="Tracé 2041" d="M330.566,262.779l-4.991-10.017L272.5,249.32c-1.222,4.75-2.272,9.191-3.167,13.407Z" transform="translate(-100.388 28.67)" fill="#263238"/>
      <path id="Tracé_2042" data-name="Tracé 2042" d="M271.933,253.076,270.16,260.8l55.385-2.719-.912-8.984Z" transform="translate(-99.789 28.512)"/>
      <path id="Tracé_2043" data-name="Tracé 2043" d="M282.889,262.418l-.31-12.6-2.6.069.293,12.53Z" transform="translate(-92.708 29.031)" fill="#263238"/>
      <rect id="Rectangle_428" data-name="Rectangle 428" width="11.531" height="8.692" transform="translate(201.159 279.81) rotate(-3.54)" fill="#fff"/>
      <rect id="Rectangle_429" data-name="Rectangle 429" width="2.616" height="13.218" transform="translate(219.45 276.306) rotate(-1.35)" fill="#263238"/>
      <path id="Tracé_2044" data-name="Tracé 2044" d="M330.757,288.617l-54.077.207a64.676,64.676,0,0,0-.4-16.419,138.774,138.774,0,0,0-6.007-23.8c-6.764-20.653-14.2-37.451,1.446-43.148,14.8-5.4,48.655-5.714,48.655-5.714s6.213,15.954,8.072,26.952C333.081,253.645,330.757,288.617,330.757,288.617Z" transform="translate(-105.346 -7.081)" fill="#ebb376"/>
      <path id="Tracé_2045" data-name="Tracé 2045" d="M292.25,205.791a32.353,32.353,0,0,0,1.308,9.741l-20.188-2.7c3.1-3.2,3.132-10.327,2.478-16.178-.31-2.84-.775-5.421-1.153-7.211-.31-1.515-.551-2.461-.551-2.461l7.917,1.721L295,191.4A39.585,39.585,0,0,0,292.25,205.791Z" transform="translate(-97.475 -16.282)" fill="#ebb376"/>
      <path id="Tracé_2046" data-name="Tracé 2046" d="M294.449,190.642A39.586,39.586,0,0,0,291.7,205.1a26.969,26.969,0,0,1-16.4-9.156c-.31-2.84-.775-5.421-1.153-7.211,2.6-.327,5.043-.585,7.366-.792Z" transform="translate(-96.919 -15.59)" opacity="0.2"/>
      <path id="Tracé_2047" data-name="Tracé 2047" d="M286.242,162.1c16.058-1.721,22.185,6.213,25.214,22.632,3.8,20.515.861,35.713-19.707,33.544C263.816,215.451,259.582,165.16,286.242,162.1Z" transform="translate(-101.087 -34.392)" fill="#ebb376"/>
      <path id="Tracé_2048" data-name="Tracé 2048" d="M287.31,175.34a34.142,34.142,0,0,0,5.421,6.144,4.406,4.406,0,0,1-4.027,2.289Z" transform="translate(-87.423 -24.676)" fill="#d58745"/>
      <path id="Tracé_2049" data-name="Tracé 2049" d="M282.869,176.133c.172,1.325-.4,2.478-1.274,2.6s-1.721-.843-1.91-2.169.4-2.478,1.274-2.6S282.68,174.825,282.869,176.133Z" transform="translate(-92.947 -25.675)" fill="#263238"/>
      <path id="Tracé_2050" data-name="Tracé 2050" d="M280.2,174.635l2.7-1.515S281.818,175.77,280.2,174.635Z" transform="translate(-92.55 -26.277)" fill="#263238"/>
      <path id="Tracé_2051" data-name="Tracé 2051" d="M292.349,174.683c.172,1.308-.4,2.478-1.274,2.6s-1.721-.843-1.91-2.169.4-2.478,1.274-2.6S292.16,173.358,292.349,174.683Z" transform="translate(-86.111 -26.721)" fill="#263238"/>
      <path id="Tracé_2052" data-name="Tracé 2052" d="M289.68,173.215l2.7-1.515S291.3,174.3,289.68,173.215Z" transform="translate(-85.714 -27.301)" fill="#263238"/>
      <path id="Tracé_2053" data-name="Tracé 2053" d="M283.505,168.79s-4.578,0-6.7,3.218" transform="translate(-94.994 -29.399)" fill="none" stroke="#263238" stroke-linecap="round" stroke-linejoin="round" stroke-width="0.725"/>
      <path id="Tracé_2054" data-name="Tracé 2054" d="M287.44,167.845a7.521,7.521,0,0,1,6.54.585" transform="translate(-87.329 -30.433)" fill="none" stroke="#263238" stroke-linecap="round" stroke-linejoin="round" stroke-width="0.725"/>
      <path id="Tracé_2055" data-name="Tracé 2055" d="M273.858,193.711s6.024-14.027,3.735-24.1c0,0,30.36-16.574,35.558,15.49,0,0-.1-29.035-27.778-26.574s-23.028,42.838-7.418,53.251C277.954,211.851,270.14,202.471,273.858,193.711Z" transform="translate(-103.212 -36.903)" fill="#263238"/>
      <path id="Tracé_2056" data-name="Tracé 2056" d="M277,183.107a7.091,7.091,0,0,0-8.3-5.594c-4.922,1.1-6.144,11.583,6.506,12.65C277.032,190.319,277.841,188.477,277,183.107Z" transform="translate(-103.357 -23.201)" fill="#ebb376"/>
      <path id="Tracé_2057" data-name="Tracé 2057" d="M288.81,187.243a9.328,9.328,0,0,1-7.16-5.353" transform="translate(-91.504 -19.953)" fill="none" stroke="#263238" stroke-linecap="round" stroke-linejoin="round" stroke-width="0.5"/>
      <path id="Tracé_2058" data-name="Tracé 2058" d="M264.16,224.066s43.853-10.808,62.217-11.256a160.062,160.062,0,0,1,3.15,66.382l-54.077.207S274.9,258.436,264.16,224.066Z" transform="translate(-104.116 2.343)" fill="#86c232"/>
      <path id="Tracé_2059" data-name="Tracé 2059" d="M272.49,165.839s29.259-10.034,37.416,12.581" transform="translate(-98.109 -33.126)" fill="none" stroke="#263238" stroke-linecap="round" stroke-linejoin="round" stroke-width="0.5"/>
      <path id="Tracé_2060" data-name="Tracé 2060" d="M266.32,169.327c2.926-3.769,11.686-16.178,29.259-15.834s18.708,15.834,18.708,15.834" transform="translate(-102.558 -40.435)" fill="none" stroke="#263238" stroke-linecap="round" stroke-linejoin="round" stroke-width="0.5"/>
      <path id="Tracé_2061" data-name="Tracé 2061" d="M263.473,177.36a84.92,84.92,0,0,1-2.891,22.064c-3.236,12.426.671,17.71,6.3,18.725" transform="translate(-107.542 -23.219)" fill="none" stroke="#263238" stroke-linecap="round" stroke-linejoin="round" stroke-width="0.5"/>
      <path id="Tracé_2062" data-name="Tracé 2062" d="M272.25,203.06S279.96,218,303.591,230.6c0,0-1.876-22.374-9.036-30.377" transform="translate(-98.282 -6.735)" fill="none" stroke="#263238" stroke-linecap="round" stroke-linejoin="round" stroke-width="0.5"/>
      <path id="Tracé_2063" data-name="Tracé 2063" d="M290.573,217.74s5.267,5.783,1.962,6.523S290.573,217.74,290.573,217.74Z" transform="translate(-85.264 5.898)" fill="#263238"/>
      <path id="Tracé_2064" data-name="Tracé 2064" d="M273.23,215.126s7.865,16.092-4.526,25.489L263.54,220.53S268.6,213.284,273.23,215.126Z" transform="translate(-104.563 3.797)" opacity="0.2"/>
      <path id="Tracé_2065" data-name="Tracé 2065" d="M251.68,296.137h12.478c2.754-5.163,12.185-23.355,12.719-28.949.62-6.557,5.026-44.593,5.026-44.593l-2.341-19.534s-8.984,3.2-12.048,10.619c-5.163,12.375-4.423,41-4.423,48.191C263.091,268.031,254.072,290.3,251.68,296.137Z" transform="translate(-113.115 -4.687)" fill="#ebb376"/>
      <path id="Tracé_2066" data-name="Tracé 2066" d="M249.9,257.589s.327-.912.895-2.409" transform="translate(-114.399 32.896)" fill="none" stroke="#86c232" stroke-linecap="round" stroke-linejoin="round" stroke-width="0.5"/>
      <path id="Tracé_2067" data-name="Tracé 2067" d="M251.12,288.1c3.322-9.1,9.38-25.92,9.328-26.918-.086-1.36-1.515-28.828,0-37.21a36.762,36.762,0,0,1,8.967-19.1" transform="translate(-113.519 -3.382)" fill="none" stroke="#86c232" stroke-linecap="round" stroke-linejoin="round" stroke-width="0.5" stroke-dasharray="3.1 2.067"/>
      <path id="Tracé_2068" data-name="Tracé 2068" d="M262.72,205.184c.585-.6,1.188-1.2,1.842-1.807a16.711,16.711,0,0,1-2.461-.757" transform="translate(-105.601 -5.004)" fill="none" stroke="#86c232" stroke-linecap="round" stroke-linejoin="round" stroke-width="0.5"/>
      <path id="Tracé_2069" data-name="Tracé 2069" d="M262.448,231.539a10.585,10.585,0,0,1-4.905-6.523c-1.6-7.056,3.89-23.458,3.442-27.968s-5.594-19.345-.929-28.57a16.126,16.126,0,0,1,8.605-8.158" transform="translate(-109.099 -35.507)" fill="none" stroke="#86c232" stroke-linecap="round" stroke-linejoin="round" stroke-width="0.5" stroke-dasharray="3.085 2.057"/>
      <path id="Tracé_2070" data-name="Tracé 2070" d="M264.84,160.966a10.965,10.965,0,0,1,2.547-.361s.585-.757,1.721-1.945" transform="translate(-103.625 -36.704)" fill="none" stroke="#86c232" stroke-linecap="round" stroke-linejoin="round" stroke-width="0.5"/>
      <path id="Tracé_2071" data-name="Tracé 2071" d="M268.66,161.894c5.611-5.284,16.574-13.235,29.74-10.43,17.486,3.718,22.65,25.489,18.932,39.878" transform="translate(-100.871 -42.313)" fill="none" stroke="#86c232" stroke-linecap="round" stroke-linejoin="round" stroke-width="0.5" stroke-dasharray="2.909 1.94"/>
      <path id="Tracé_2072" data-name="Tracé 2072" d="M297.085,175.33a23.2,23.2,0,0,1-.895,2.427s.912.258,2.461.774" transform="translate(-81.019 -24.683)" fill="none" stroke="#86c232" stroke-linecap="round" stroke-linejoin="round" stroke-width="0.5"/>
      <path id="Tracé_2073" data-name="Tracé 2073" d="M299.54,177.88c9.346,3.442,27,11.635,29.173,23.562,2.53,13.769-4.062,20.774-20.378,28.312" transform="translate(-78.604 -22.844)" fill="none" stroke="#86c232" stroke-linecap="round" stroke-linejoin="round" stroke-width="0.5" stroke-dasharray="3.065 2.043"/>
      <path id="Tracé_2074" data-name="Tracé 2074" d="M304.7,208.44l-2.358,1.05s.207.895.568,2.513" transform="translate(-76.585 -0.808)" fill="none" stroke="#86c232" stroke-linecap="round" stroke-linejoin="round" stroke-width="0.5"/>
      <path id="Tracé_2075" data-name="Tracé 2075" d="M303.06,212.43c2.53,12.77,7.521,43.905,1.342,65.78l3.442,7.28" transform="translate(-76.065 2.069)" fill="none" stroke="#86c232" stroke-linecap="round" stroke-linejoin="round" stroke-width="0.5" stroke-dasharray="2.945 1.964"/>
      <line id="Ligne_79" data-name="Ligne 79" x2="1.101" y2="2.341" transform="translate(232.45 289.109)" fill="none" stroke="#86c232" stroke-linecap="round" stroke-linejoin="round" stroke-width="0.5"/>
      <rect id="Rectangle_430" data-name="Rectangle 430" width="20.601" height="283.722" transform="translate(1.721 51.254)" fill="#fff" opacity="0.3"/>
      <rect id="Rectangle_431" data-name="Rectangle 431" width="453.06" height="30.98" transform="translate(1.721 17.813)" fill="#fff" opacity="0.3"/>
      <rect id="Rectangle_432" data-name="Rectangle 432" width="96.14" height="78.447" transform="translate(358.641 59.859)" fill="#fff" opacity="0.3"/>
      <rect id="Rectangle_433" data-name="Rectangle 433" width="91.114" height="62.544" transform="translate(361.016 62.338)" opacity="0.2"/>
      <rect id="Rectangle_434" data-name="Rectangle 434" width="67.277" height="59.808" transform="translate(367.78 63.715)" fill="#fff"/>
      <path id="Tracé_2076" data-name="Tracé 2076" d="M417.35,150.656,414.7,162.738l-.5-.241,2.805-11.927Z" transform="translate(4.077 -42.537)" fill="#86c232"/>
      <path id="Tracé_2077" data-name="Tracé 2077" d="M417.35,150.656,414.7,162.738l-.5-.241,2.805-11.927Z" transform="translate(4.077 -42.537)" fill="#fff" opacity="0.6"/>
      <circle id="Ellipse_48" data-name="Ellipse 48" cx="7.676" cy="7.676" r="7.676" transform="translate(411.358 70.014)" fill="#86c232"/>
      <circle id="Ellipse_49" data-name="Ellipse 49" cx="7.676" cy="7.676" r="7.676" transform="translate(411.358 70.014)" fill="#fff" opacity="0.9"/>
      <path id="Tracé_2078" data-name="Tracé 2078" d="M405.34,133.614a1.256,1.256,0,0,1,1.239-1.256,1.138,1.138,0,0,1,.361,0,2.667,2.667,0,0,1,0-.379,2.633,2.633,0,0,1,2.633-2.65,2.459,2.459,0,0,1,.5,0,2.289,2.289,0,0,1,1.962-1.119,2.323,2.323,0,0,1,2.323,2.289h0a2.134,2.134,0,1,1,0,4.268h-7.883a1.239,1.239,0,0,1-1.136-1.153Z" transform="translate(-2.312 -58.661)" fill="#86c232"/>
      <path id="Tracé_2079" data-name="Tracé 2079" d="M414.85,139.2a1.256,1.256,0,0,1,1.239-1.256,1.137,1.137,0,0,1,.361,0,2.719,2.719,0,0,1,2.616-3.029,2.343,2.343,0,0,1,.5,0,2.306,2.306,0,0,1,4.286,1.17h0a2.134,2.134,0,1,1,0,4.251H416.02A1.239,1.239,0,0,1,414.85,139.2Z" transform="translate(4.545 -54.639)" fill="#86c232"/>
      <path id="Tracé_2080" data-name="Tracé 2080" d="M422.847,153.442a11.739,11.739,0,0,0-4.268-3.838,12.048,12.048,0,0,0-5.37,1.033s-.585.964,0,1.342,1.2-.4,1.2-.4.12,1.17.981,1.2a1.153,1.153,0,0,0,1.119-.809,1.515,1.515,0,0,0,1.1,1.325,1.411,1.411,0,0,0,1.446-.516,1.549,1.549,0,0,0,.964,1.119,1.033,1.033,0,0,0,1.084-.344s.189.947.861.947S422.847,153.442,422.847,153.442Z" transform="translate(3.174 -43.24)" fill="#86c232"/>
      <path id="Tracé_2081" data-name="Tracé 2081" d="M392.375,172.84a212.769,212.769,0,0,0-5.955-34.663l1.015-.757s4.354,7.091,8.743,34.542Z" transform="translate(-15.955 -52.02)" fill="#86c232"/>
      <g id="Groupe_164" data-name="Groupe 164" transform="translate(370.465 85.4)" opacity="0.5">
        <path id="Tracé_2082" data-name="Tracé 2082" d="M392.375,172.84a212.769,212.769,0,0,0-5.955-34.663l1.015-.757s4.354,7.091,8.743,34.542Z" transform="translate(-386.42 -137.42)" fill="#fff"/>
      </g>
      <path id="Tracé_2083" data-name="Tracé 2083" d="M394.767,174.927a109.633,109.633,0,0,1,6.988-43.027l-1.015-.929s-9.345,16.075-10.189,44.266Z" transform="translate(-12.977 -56.671)" fill="#86c232"/>
      <g id="Groupe_165" data-name="Groupe 165" transform="translate(377.573 74.299)" opacity="0.6">
        <path id="Tracé_2084" data-name="Tracé 2084" d="M394.767,174.927a109.633,109.633,0,0,1,6.988-43.027l-1.015-.929s-9.345,16.075-10.189,44.266Z" transform="translate(-390.55 -130.97)" fill="#fff"/>
      </g>
      <path id="Tracé_2085" data-name="Tracé 2085" d="M388.706,137.353l-1.136-2.323s.482,1.308.861,2.478Z" transform="translate(-15.126 -53.743)" fill="none"/>
      <path id="Tracé_2086" data-name="Tracé 2086" d="M385.826,135.85l-.086,1.928.224.086C385.878,136.831,385.826,135.85,385.826,135.85Z" transform="translate(-16.446 -53.152)" fill="none"/>
      <path id="Tracé_2087" data-name="Tracé 2087" d="M388.7,137.434a3.982,3.982,0,0,1,.344.413l.1-1.067Z" transform="translate(-14.311 -52.481)" fill="none"/>
      <path id="Tracé_2088" data-name="Tracé 2088" d="M388.539,137.216V136.7l-.189.43Z" transform="translate(-14.564 -52.539)" fill="none"/>
      <path id="Tracé_2089" data-name="Tracé 2089" d="M396.754,128l-1.274,2.633.293.189C396.22,129.549,396.754,128,396.754,128Z" transform="translate(-9.422 -58.812)" fill="none"/>
      <path id="Tracé_2090" data-name="Tracé 2090" d="M385.15,136.27v1.153h.155Z" transform="translate(-16.871 -52.849)" fill="none"/>
      <path id="Tracé_2091" data-name="Tracé 2091" d="M398.16,131.213h.275l-.1-2.2S398.263,130.043,398.16,131.213Z" transform="translate(-7.49 -58.084)" fill="none"/>
      <path id="Tracé_2092" data-name="Tracé 2092" d="M398.93,130.725h.189l-.086-1.325Z" transform="translate(-6.935 -57.803)" fill="none"/>
      <path id="Tracé_2093" data-name="Tracé 2093" d="M395.377,130.372l-.207-.482v.585Z" transform="translate(-9.646 -57.449)" fill="none"/>
      <path id="Tracé_2094" data-name="Tracé 2094" d="M394.64,130l.12,1.2a4.914,4.914,0,0,1,.4-.448Z" transform="translate(-10.028 -57.37)" fill="none"/>
      <path id="Tracé_2095" data-name="Tracé 2095" d="M384.86,143.823v.5l.1-.207Zm12.891.637c-.465-4.148-2.2-5.7-4.905-5.938a3.442,3.442,0,0,0-1.721.275l.327-.207-.585-1.721.826,1.583a6.89,6.89,0,0,1,.912-.379l-.637-2.461,1.256,2.289.964-.155-.207-.792.448.774h.671l-.654-1.515.895,1.515a9.036,9.036,0,0,1,1.136.12c-1.635-3.287-5.542-4.406-7.177-2.272a6.058,6.058,0,0,0-.775,4.32h0v-.189c-.086-1.532-.465-6.282-1.859-6.884-.74-.293-1.291.224-1.721.861v1.721l.207-.912-.138,1.015a2.307,2.307,0,0,1,.568.207l.327-1.342-.138,1.446.224.155.379-1.274-.258,1.377a5.525,5.525,0,0,1,.981,1.119v-1.824l.379,2.461.189.361a4.027,4.027,0,0,0-1.308-1.222,2.6,2.6,0,0,0-1.411-.344v6.7l.327.43.344-.5-.275-.774.379.637.258-.31-.327-1.033.482.895a4.305,4.305,0,0,1,.809-.688l-.516-1.256.723,1.084c-.843.895-1.532,2.461,0,4.905a16.176,16.176,0,0,1,.121-1.721l-.344-.447.379.189a2.342,2.342,0,0,1,.12-.895l-.293-.43.344.172v-.31l-.4-.878.516.327.1-.413.155.757.086-.275h0l.31-.964.706.895.189-.895h0l.74.551a7.571,7.571,0,0,0-.4-1.721h0l.5.4.206-.327v.534l.4.413.344-.947L390.849,142c.189.224.344.447.516.688l.1-.929.086,1.222.447.757v-1.721l.189,2.169c.327.654.516,1.119.516,1.119a8.261,8.261,0,0,0-.878-4.544l.706.207.912.379.344-1.1-.12,1.222c.293.138.585.31.861.465l.138-.964v1.084c.344.207.654.43.964.637l-.155-1.721.379,1.893c.31.224.585.43.826.637v-1.2l.413,1.5Zm-12.478-4.492v-.052Zm1.1,0,.086-1.928a17.286,17.286,0,0,0,.138,2.014Zm4.01-.861a1.115,1.115,0,0,0,0-.224l-.138-.4-.43-1.222v-.413a1.364,1.364,0,0,1,0-.206l1.119,2.306Zm.671.861-.12-.1.189-.413Zm.757.723c-.1-.138-.224-.258-.344-.4l.448-.654Z" transform="translate(-17.08 -55.393)" fill="#86c232"/>
      <path id="Tracé_2096" data-name="Tracé 2096" d="M403.863,130.252a4.424,4.424,0,0,0-1.5,1.377l.207-.4.43-2.805v2.083a6.661,6.661,0,0,1,1.119-1.274l-.293-1.566.43,1.446.258-.172-.172-1.721.379,1.549a2.477,2.477,0,0,1,.637-.241l-.138-1.17.258,1.153h.327l-.224-.878.413.878h.241s-.809-3.718-2.7-2.995c-1.566.62-2,6.024-2.1,7.762a.326.326,0,0,1-.086.224h0a6.884,6.884,0,0,0-.878-4.905c-1.859-2.427-6.3-1.17-8.175,2.582a9.407,9.407,0,0,1,1.291-.138l1.015-1.721-.74,1.721a6.084,6.084,0,0,1,.775,0l.5-.895-.241.912a9.073,9.073,0,0,1,1.1.172l1.428-2.616-.723,2.805a8.983,8.983,0,0,1,1.05.43l.947-1.807-.688,1.945.379.207a4.217,4.217,0,0,0-2-.31c-3.081.293-5.06,2.048-5.594,6.781l.62-.551.465-1.721v1.36c.258-.224.568-.465.912-.723l.448-2.151-.172,1.962,1.084-.723v-1.239l.155,1.1c.31-.189.637-.361.981-.534l-.12-1.394.379,1.256c.344-.155.688-.31,1.033-.43l.792-.224a9.328,9.328,0,0,0-.981,5.163s.206-.534.585-1.274l.207-2.478.086,1.945q.224-.43.516-.878l.086-1.394.138,1.067c.172-.275.379-.551.568-.809l-.086-1.446.4,1.1a5.752,5.752,0,0,1,.43-.482v-.62l.258.379.551-.447h.086a10.17,10.17,0,0,0-.447,1.842h0l.895-.654.224,1.015.6-.74h0l.207-.258.447,1.411.172-.861a.7.7,0,0,0,.12.465l.585-.361-.447,1v.344l.379-.189-.327.482a9.357,9.357,0,0,0,.138,1.033l.43-.224-.4.516c.1,1.05.138,1.842.138,1.842,1.721-2.771.947-4.561,0-5.576l.826-1.222-.585,1.428a4.84,4.84,0,0,1,.929.775l.551-1.015-.379,1.188c.1.1.189.224.293.344l.43-.723-.31.878.4.568.792-1.015-.551,1.411a14.594,14.594,0,0,1,1.084,2.22l.585-1.6-.413,2.065c.207.516.344.981.465,1.342l.379-1.394-.275,1.721.1.43c1.394-4.475.293-7.452-1.1-8.795h0l.482-2.6.258,2.977a9.976,9.976,0,0,1,1.084.275l.138-.947.1,1.033a2.037,2.037,0,0,1,.723.275V133.3s.121.929.241,2a7.58,7.58,0,0,1,1.136.637C410.076,131.7,406.514,128.772,403.863,130.252Zm-6.334,4.286-.12-1.2.516.757a4.9,4.9,0,0,0-.4.448Zm.861-.843v-.585l.224.482Zm.757-.981-.293-.172,1.274-2.633S399.595,131.388,399.147,132.713Zm4.32,1.084c.1-1.17.172-2.289.172-2.289l.1,2.2Zm1.325-.207.1-1.256.086,1.308Z" transform="translate(-12.797 -60.668)" fill="#86c232"/>
      <g id="Groupe_166" data-name="Groupe 166" transform="translate(367.78 64.757)" opacity="0.7">
        <path id="Tracé_2097" data-name="Tracé 2097" d="M388.706,137.353l-1.136-2.323s.482,1.308.861,2.478Z" transform="translate(-382.906 -118.5)" fill="#fff"/>
        <path id="Tracé_2098" data-name="Tracé 2098" d="M385.826,135.85l-.086,1.928.224.086C385.878,136.831,385.826,135.85,385.826,135.85Z" transform="translate(-384.225 -117.909)" fill="#fff"/>
        <path id="Tracé_2099" data-name="Tracé 2099" d="M388.7,137.434a3.982,3.982,0,0,1,.344.413l.1-1.067Z" transform="translate(-382.091 -117.238)" fill="#fff"/>
        <path id="Tracé_2100" data-name="Tracé 2100" d="M388.539,137.216V136.7l-.189.43Z" transform="translate(-382.343 -117.296)" fill="#fff"/>
        <path id="Tracé_2101" data-name="Tracé 2101" d="M396.754,128l-1.274,2.633.293.189C396.22,129.549,396.754,128,396.754,128Z" transform="translate(-377.202 -123.57)" fill="#fff"/>
        <path id="Tracé_2102" data-name="Tracé 2102" d="M385.15,136.27v1.153h.155Z" transform="translate(-384.651 -117.606)" fill="#fff"/>
        <path id="Tracé_2103" data-name="Tracé 2103" d="M398.16,131.213h.275l-.1-2.2S398.263,130.043,398.16,131.213Z" transform="translate(-375.269 -122.841)" fill="#fff"/>
        <path id="Tracé_2104" data-name="Tracé 2104" d="M398.93,130.725h.189l-.086-1.325Z" transform="translate(-374.714 -122.56)" fill="#fff"/>
        <path id="Tracé_2105" data-name="Tracé 2105" d="M395.377,130.372l-.207-.482v.585Z" transform="translate(-377.425 -122.207)" fill="#fff"/>
        <path id="Tracé_2106" data-name="Tracé 2106" d="M394.64,130l.12,1.2a4.914,4.914,0,0,1,.4-.448Z" transform="translate(-377.808 -122.127)" fill="#fff"/>
        <path id="Tracé_2107" data-name="Tracé 2107" d="M384.86,143.823v.5l.1-.207Zm12.891.637c-.465-4.148-2.2-5.7-4.905-5.938a3.442,3.442,0,0,0-1.721.275l.327-.207-.585-1.721.826,1.583a6.89,6.89,0,0,1,.912-.379l-.637-2.461,1.256,2.289.964-.155-.207-.792.448.774h.671l-.654-1.515.895,1.515a9.036,9.036,0,0,1,1.136.12c-1.635-3.287-5.542-4.406-7.177-2.272a6.058,6.058,0,0,0-.775,4.32h0v-.189c-.086-1.532-.465-6.282-1.859-6.884-.74-.293-1.291.224-1.721.861v1.721l.207-.912-.138,1.015a2.307,2.307,0,0,1,.568.207l.327-1.342-.138,1.446.224.155.379-1.274-.258,1.377a5.525,5.525,0,0,1,.981,1.119v-1.824l.379,2.461.189.361a4.027,4.027,0,0,0-1.308-1.222,2.6,2.6,0,0,0-1.411-.344v6.7l.327.43.344-.5-.275-.774.379.637.258-.31-.327-1.033.482.895a4.305,4.305,0,0,1,.809-.688l-.516-1.256.723,1.084c-.843.895-1.532,2.461,0,4.905a16.176,16.176,0,0,1,.121-1.721l-.344-.447.379.189a2.342,2.342,0,0,1,.12-.895l-.293-.43.344.172v-.31l-.4-.878.516.327.1-.413.155.757.086-.275h0l.31-.964.706.895.189-.895h0l.74.551a7.571,7.571,0,0,0-.4-1.721h0l.5.4.206-.327v.534l.4.413.344-.947L390.849,142c.189.224.344.447.516.688l.1-.929.086,1.222.447.757v-1.721l.189,2.169c.327.654.516,1.119.516,1.119a8.261,8.261,0,0,0-.878-4.544l.706.207.912.379.344-1.1-.12,1.222c.293.138.585.31.861.465l.138-.964v1.084c.344.207.654.43.964.637l-.155-1.721.379,1.893c.31.224.585.43.826.637v-1.2l.413,1.5Zm-12.478-4.492v-.052Zm1.1,0,.086-1.928a17.286,17.286,0,0,0,.138,2.014Zm4.01-.861a1.115,1.115,0,0,0,0-.224l-.138-.4-.43-1.222v-.413a1.364,1.364,0,0,1,0-.206l1.119,2.306Zm.671.861-.12-.1.189-.413Zm.757.723c-.1-.138-.224-.258-.344-.4l.448-.654Z" transform="translate(-384.86 -120.151)" fill="#fff"/>
        <path id="Tracé_2108" data-name="Tracé 2108" d="M403.863,130.252a4.424,4.424,0,0,0-1.5,1.377l.207-.4.43-2.805v2.083a6.661,6.661,0,0,1,1.119-1.274l-.293-1.566.43,1.446.258-.172-.172-1.721.379,1.549a2.477,2.477,0,0,1,.637-.241l-.138-1.17.258,1.153h.327l-.224-.878.413.878h.241s-.809-3.718-2.7-2.995c-1.566.62-2,6.024-2.1,7.762a.326.326,0,0,1-.086.224h0a6.884,6.884,0,0,0-.878-4.905c-1.859-2.427-6.3-1.17-8.175,2.582a9.407,9.407,0,0,1,1.291-.138l1.015-1.721-.74,1.721a6.084,6.084,0,0,1,.775,0l.5-.895-.241.912a9.073,9.073,0,0,1,1.1.172l1.428-2.616-.723,2.805a8.983,8.983,0,0,1,1.05.43l.947-1.807-.688,1.945.379.207a4.217,4.217,0,0,0-2-.31c-3.081.293-5.06,2.048-5.594,6.781l.62-.551.465-1.721v1.36c.258-.224.568-.465.912-.723l.448-2.151-.172,1.962,1.084-.723v-1.239l.155,1.1c.31-.189.637-.361.981-.534l-.12-1.394.379,1.256c.344-.155.688-.31,1.033-.43l.792-.224a9.328,9.328,0,0,0-.981,5.163s.206-.534.585-1.274l.207-2.478.086,1.945q.224-.43.516-.878l.086-1.394.138,1.067c.172-.275.379-.551.568-.809l-.086-1.446.4,1.1a5.752,5.752,0,0,1,.43-.482v-.62l.258.379.551-.447h.086a10.17,10.17,0,0,0-.447,1.842h0l.895-.654.224,1.015.6-.74h0l.207-.258.447,1.411.172-.861a.7.7,0,0,0,.12.465l.585-.361-.447,1v.344l.379-.189-.327.482a9.357,9.357,0,0,0,.138,1.033l.43-.224-.4.516c.1,1.05.138,1.842.138,1.842,1.721-2.771.947-4.561,0-5.576l.826-1.222-.585,1.428a4.84,4.84,0,0,1,.929.775l.551-1.015-.379,1.188c.1.1.189.224.293.344l.43-.723-.31.878.4.568.792-1.015-.551,1.411a14.594,14.594,0,0,1,1.084,2.22l.585-1.6-.413,2.065c.207.516.344.981.465,1.342l.379-1.394-.275,1.721.1.43c1.394-4.475.293-7.452-1.1-8.795h0l.482-2.6.258,2.977a9.976,9.976,0,0,1,1.084.275l.138-.947.1,1.033a2.037,2.037,0,0,1,.723.275V133.3s.121.929.241,2a7.58,7.58,0,0,1,1.136.637C410.076,131.7,406.514,128.772,403.863,130.252Zm-6.334,4.286-.12-1.2.516.757a4.9,4.9,0,0,0-.4.448Zm.861-.843v-.585l.224.482Zm.757-.981-.293-.172,1.274-2.633S399.595,131.388,399.147,132.713Zm4.32,1.084c.1-1.17.172-2.289.172-2.289l.1,2.2Zm1.325-.207.1-1.256.086,1.308Z" transform="translate(-380.577 -125.426)" fill="#fff"/>
      </g>
      <path id="Tracé_2109" data-name="Tracé 2109" d="M451.522,157.024V163.1H385.69l.516-.912a6.092,6.092,0,0,0,4.251-2.117c.43-.482.843-1,1.308-1.463v-.086l.482-.258h.4l.379-.138.964-.43a7.3,7.3,0,0,0,2.083-1.48h0c.482-.5.843-1.067,1.342-1.549h1.962a20.657,20.657,0,0,0,3.115,4.113,76.811,76.811,0,0,0,10.327,2.616c.637-.138,4.027.138,4.888.12a13.563,13.563,0,0,0,4.6-1.446,46.555,46.555,0,0,1,6.144-1.876c2.685-.861,4.475-1.188,6.041.138a1.5,1.5,0,0,0,.465.241,2.339,2.339,0,0,0,.5.1c1.945.12,5.163-1.876,6.265-2.2s3.924-2.685,5.68-1.618A27.341,27.341,0,0,1,451.522,157.024Z" transform="translate(-16.482 -39.646)" fill="#86c232"/>
      <path id="Tracé_2110" data-name="Tracé 2110" d="M451.522,157.024V163.1H385.69l.516-.912a6.092,6.092,0,0,0,4.251-2.117c.43-.482.843-1,1.308-1.463v-.086l.482-.258h.4l.379-.138.964-.43a7.3,7.3,0,0,0,2.083-1.48h0c.482-.5.843-1.067,1.342-1.549h1.962a20.657,20.657,0,0,0,3.115,4.113,76.811,76.811,0,0,0,10.327,2.616c.637-.138,4.027.138,4.888.12a13.563,13.563,0,0,0,4.6-1.446,46.555,46.555,0,0,1,6.144-1.876c2.685-.861,4.475-1.188,6.041.138a1.5,1.5,0,0,0,.465.241,2.339,2.339,0,0,0,.5.1c1.945.12,5.163-1.876,6.265-2.2s3.924-2.685,5.68-1.618A27.341,27.341,0,0,1,451.522,157.024Z" transform="translate(-16.482 -39.646)" fill="#fff" opacity="0.7"/>
      <path id="Tracé_2111" data-name="Tracé 2111" d="M405.34,133.614a1.256,1.256,0,0,1,1.239-1.256,1.138,1.138,0,0,1,.361,0,2.667,2.667,0,0,1,0-.379,2.633,2.633,0,0,1,2.633-2.65,2.459,2.459,0,0,1,.5,0,2.289,2.289,0,0,1,1.962-1.119,2.323,2.323,0,0,1,2.323,2.289h0a2.134,2.134,0,1,1,0,4.268h-7.883a1.239,1.239,0,0,1-1.136-1.153Z" transform="translate(-2.312 -58.661)" fill="#fff" opacity="0.8"/>
      <path id="Tracé_2112" data-name="Tracé 2112" d="M414.85,139.2a1.256,1.256,0,0,1,1.239-1.256,1.137,1.137,0,0,1,.361,0,2.719,2.719,0,0,1,2.616-3.029,2.343,2.343,0,0,1,.5,0,2.306,2.306,0,0,1,4.286,1.17h0a2.134,2.134,0,1,1,0,4.251H416.02A1.239,1.239,0,0,1,414.85,139.2Z" transform="translate(4.545 -54.639)" fill="#fff" opacity="0.8"/>
      <path id="Tracé_2113" data-name="Tracé 2113" d="M422.847,153.442a11.739,11.739,0,0,0-4.268-3.838,12.048,12.048,0,0,0-5.37,1.033s-.585.964,0,1.342,1.2-.4,1.2-.4.12,1.17.981,1.2a1.153,1.153,0,0,0,1.119-.809,1.515,1.515,0,0,0,1.1,1.325,1.411,1.411,0,0,0,1.446-.516,1.549,1.549,0,0,0,.964,1.119,1.033,1.033,0,0,0,1.084-.344s.189.947.861.947S422.847,153.442,422.847,153.442Z" transform="translate(3.174 -43.24)" fill="#fff" opacity="0.7"/>
      <rect id="Rectangle_435" data-name="Rectangle 435" width="67.277" height="59.808" transform="translate(367.78 63.715)" fill="#86c232" opacity="0.2"/>
      <path id="Tracé_2114" data-name="Tracé 2114" d="M412.145,151.088a21.984,21.984,0,0,1-3.442,1.342l-.275-2.2-.224-1.721s4.131-.206,4.991-2.272-2.409-3.838-4.578-4.75c-1.015-.43-1.807-.671-1.807-.671V138.18s.568.206,1.429.568c2.427,1,7.211,3.218,8.158,5.49S415.863,149.178,412.145,151.088Z" transform="translate(-1.252 -51.472)" fill="#ebb376"/>
      <path id="Tracé_2115" data-name="Tracé 2115" d="M408.667,141.474c-1.015-.43-1.807-.671-1.807-.671V138.17s.568.207,1.428.568a9.383,9.383,0,0,1,.379,2.737Z" transform="translate(-1.216 -51.479)" opacity="0.2"/>
      <path id="Tracé_2116" data-name="Tracé 2116" d="M411.468,146.046a21.988,21.988,0,0,1-3.442,1.342l-.275-2.2a6.644,6.644,0,0,1,3.718.861Z" transform="translate(-0.575 -46.43)" opacity="0.2"/>
      <path id="Tracé_2117" data-name="Tracé 2117" d="M400.914,135.4a13.424,13.424,0,0,1,6.661-3.236c4.286-.826,7.366,3.218,7.057,6.884s-2.117,5.938-2.358,7.074a8.3,8.3,0,0,0,2.358,5.4s-11.514,2.823-14.268,1.377-1-4.492-1.876-8.21S397.61,136.485,400.914,135.4Z" transform="translate(-7.611 -55.887)" fill="#263238"/>
      <path id="Tracé_2118" data-name="Tracé 2118" d="M416.886,161.077l-1.342-2.685-14.233-.912c-.327,1.274-.62,2.461-.861,3.6Z" transform="translate(-5.838 -37.554)" fill="#263238"/>
      <path id="Tracé_2119" data-name="Tracé 2119" d="M401.182,158.477l-.482,2.083,14.853-.74-.241-2.41Z" transform="translate(-5.658 -37.605)"/>
      <path id="Tracé_2120" data-name="Tracé 2120" d="M404.122,160.983l-.086-3.373-.706.017.086,3.356Z" transform="translate(-3.762 -37.461)" fill="#263238"/>
      <rect id="Rectangle_436" data-name="Rectangle 436" width="3.098" height="2.341" transform="translate(403.293 120.403) rotate(-3.54)" fill="#fff"/>
      <rect id="Rectangle_437" data-name="Rectangle 437" width="0.706" height="3.545" transform="translate(408.19 119.486) rotate(-1.35)" fill="#263238"/>
      <path id="Tracé_2121" data-name="Tracé 2121" d="M416.932,168.016H402.441a17.964,17.964,0,0,0-.1-4.406,37.677,37.677,0,0,0-1.6-6.385c-1.807-5.559-3.8-10.051.4-11.566s13.046-1.549,13.046-1.549a47.242,47.242,0,0,1,2.169,7.229,85.38,85.38,0,0,1,.585,16.677Z" transform="translate(-7.141 -47.195)" fill="#ebb376"/>
      <path id="Tracé_2122" data-name="Tracé 2122" d="M406.62,145.793a8.608,8.608,0,0,0,.361,2.616l-5.421-.723a5.921,5.921,0,0,0,.654-4.337,9.935,9.935,0,0,0-.293-1.945,3.881,3.881,0,0,0-.155-.654l2.117.447,3.442.723a10.584,10.584,0,0,0-.706,3.872Z" transform="translate(-5.038 -49.618)" fill="#ebb376"/>
      <path id="Tracé_2123" data-name="Tracé 2123" d="M407.209,141.733a10.586,10.586,0,0,0-.74,3.872,7.28,7.28,0,0,1-4.406-2.444,9.941,9.941,0,0,0-.293-1.945l1.962-.207Z" transform="translate(-4.887 -49.431)" opacity="0.2"/>
      <path id="Tracé_2124" data-name="Tracé 2124" d="M405.007,134.087c4.3-.482,5.955,1.721,6.764,6.075,1.015,5.507.241,9.586-5.284,9C399,148.372,397.864,134.9,405.007,134.087Z" transform="translate(-6.006 -54.47)" fill="#ebb376"/>
      <path id="Tracé_2125" data-name="Tracé 2125" d="M401.7,142.552a12.96,12.96,0,0,0,1-6.471s8.158-4.44,9.552,4.182c0,0,0-7.8-7.47-7.125s-6.161,11.48-1.979,14.285C402.8,147.422,400.7,144.978,401.7,142.552Z" transform="translate(-6.585 -55.137)" fill="#263238"/>
      <path id="Tracé_2126" data-name="Tracé 2126" d="M402.548,139.712a1.91,1.91,0,0,0-2.237-1.5c-1.308.293-1.721,3.1,1.721,3.442C402.548,141.64,402.771,141.158,402.548,139.712Z" transform="translate(-6.628 -51.472)" fill="#ebb376"/>
      <path id="Tracé_2127" data-name="Tracé 2127" d="M399.09,150.692s11.755-2.891,16.677-3.012a42.735,42.735,0,0,1,.843,17.813H402.119A61.225,61.225,0,0,0,399.09,150.692Z" transform="translate(-6.819 -44.621)" fill="#86c232"/>
      <path id="Tracé_2128" data-name="Tracé 2128" d="M401.26,145.074a20.36,20.36,0,0,0,8.4,7.383s-.5-6.024-2.409-8.158" transform="translate(-5.254 -47.058)" fill="none" stroke="#263238" stroke-linecap="round" stroke-linejoin="round" stroke-width="0.25"/>
      <path id="Tracé_2129" data-name="Tracé 2129" d="M406.168,149s1.411,1.549.534,1.721S406.168,149,406.168,149Z" transform="translate(-1.763 -43.669)" fill="#263238"/>
      <path id="Tracé_2130" data-name="Tracé 2130" d="M401.519,148.3s2.117,4.32-1.2,6.884L398.92,149.8S400.28,147.835,401.519,148.3Z" transform="translate(-6.942 -44.226)" opacity="0.2"/>
      <path id="Tracé_2131" data-name="Tracé 2131" d="M395.74,170h3.339a40.59,40.59,0,0,0,3.442-7.762c.155-1.721,1.342-11.962,1.342-11.962l-.62-5.163a5.972,5.972,0,0,0-3.236,2.84c-1.377,3.322-1.188,11-1.188,12.925C398.8,162.459,396.377,168.431,395.74,170Z" transform="translate(-9.235 -46.474)" fill="#ebb376"/>
      <rect id="Rectangle_438" data-name="Rectangle 438" width="68.207" height="2.375" transform="translate(361.016 130.028)" opacity="0.2"/>
      <rect id="Rectangle_439" data-name="Rectangle 439" width="20.429" height="6.816" transform="translate(431.718 128.049)" opacity="0.2"/>
      <rect id="Rectangle_440" data-name="Rectangle 440" width="8.554" height="2.375" transform="translate(392.856 130.028)" fill="#fff"/>
      <rect id="Rectangle_441" data-name="Rectangle 441" width="96.14" height="78.447" transform="translate(358.641 149.356)" fill="#fff" opacity="0.3"/>
      <rect id="Rectangle_442" data-name="Rectangle 442" width="63.956" height="44.972" transform="translate(361.016 152.988)" opacity="0.2"/>
      <path id="Tracé_2132" data-name="Tracé 2132" d="M380.93,213.771c0,.258,1.91.637,2.117.6,1.394-.206,1.721-1.532,2.547-2.685a2.03,2.03,0,0,1,.413-.447,1.1,1.1,0,0,1,1.188,0,2.977,2.977,0,0,1,.826.964c1.274-3.012,2.306-6.316,3.855-9.191,1.274-2.341,2.547-3.442,3.012-6.351.344-2.048,1.033-6.643,1.721-6.988s1.721,10.051,2.891,10.051,1.721,7.487,2.909,8,1.188-2.564,2.375-2.564,2.547,2.737,3.236,2.048,1.721-6.3,3.58-6.3c2.461,0,3.442-10.223,4.785-12.048.31.172.293.62.275.981s.1.826.465.861c.275-.688.568-1.377.861-2.065.413-.981,2.237-8.605,3.89-6.626a3.03,3.03,0,0,1,.482,1.136l3.442,13.08c.1.43.327.947.757.981l.654-1.721a.413.413,0,0,1,.1-.189c.155-.172.465,0,.568.155a1.411,1.411,0,0,1,.086.671c0,1.635.534,1.824,1.36.757a.448.448,0,0,1,.671,0,1.411,1.411,0,0,1,.275.706,53.676,53.676,0,0,0,3.718,9.569.671.671,0,0,0,.241.361c.4.258.792-.258.964-.688.688-1.721,1.446-3.442,2.255-5.163A1.583,1.583,0,0,0,438.9,201a4.6,4.6,0,0,0,.706-1.532c.293-.912.671-4.819,1.979-4.354.534.189,1.153,2.1,1.153,2.633h2.151v20.24H380.93Z" transform="translate(-19.914 -20.097)" fill="#fff" opacity="0.5"/>
      <rect id="Rectangle_443" data-name="Rectangle 443" width="63.044" height="2.375" transform="translate(361.911 219.25)" opacity="0.2"/>
      <rect id="Rectangle_444" data-name="Rectangle 444" width="8.554" height="2.375" transform="translate(393.734 219.25)" fill="#fff"/>
      <rect id="Rectangle_445" data-name="Rectangle 445" width="63.044" height="2.375" transform="translate(361.911 207.202)" opacity="0.2"/>
      <rect id="Rectangle_446" data-name="Rectangle 446" width="8.554" height="2.375" transform="translate(376.523 207.202)" fill="#fff"/>
      <rect id="Rectangle_447" data-name="Rectangle 447" width="20.429" height="7.487" rx="0.99" transform="translate(430.358 158.22)" opacity="0.2"/>
      <rect id="Rectangle_448" data-name="Rectangle 448" width="20.429" height="7.487" rx="0.99" transform="translate(430.358 170.698)" opacity="0.2"/>
      <rect id="Rectangle_449" data-name="Rectangle 449" width="20.429" height="7.487" rx="0.99" transform="translate(430.358 183.176)" opacity="0.2"/>
      <rect id="Rectangle_450" data-name="Rectangle 450" width="457.087" height="11.979" transform="translate(0 339.365)" opacity="0.2"/>
      <rect id="Rectangle_451" data-name="Rectangle 451" width="96.14" height="8.037" transform="translate(358.641 51.805)" fill="#86c232"/>
      <rect id="Rectangle_452" data-name="Rectangle 452" width="96.14" height="8.037" transform="translate(358.451 141.301)" fill="#86c232"/>
      <rect id="Rectangle_453" data-name="Rectangle 453" width="96.14" height="97.569" transform="translate(358.641 238.853)" fill="#fff" opacity="0.3"/>
      <rect id="Rectangle_454" data-name="Rectangle 454" width="90.667" height="19.741" transform="translate(361.016 242.329)" fill="#fff" opacity="0.3"/>
      <rect id="Rectangle_455" data-name="Rectangle 455" width="18.605" height="15.662" transform="translate(363.856 244.378)" opacity="0.2"/>
      <rect id="Rectangle_456" data-name="Rectangle 456" width="90.667" height="19.741" transform="translate(361.188 264.359)" fill="#fff" opacity="0.3"/>
      <rect id="Rectangle_457" data-name="Rectangle 457" width="18.605" height="15.662" transform="translate(364.028 266.39)" opacity="0.2"/>
      <rect id="Rectangle_458" data-name="Rectangle 458" width="90.667" height="19.741" transform="translate(361.36 286.372)" fill="#fff" opacity="0.3"/>
      <rect id="Rectangle_459" data-name="Rectangle 459" width="18.605" height="15.662" transform="translate(364.183 288.403)" opacity="0.2"/>
      <rect id="Rectangle_460" data-name="Rectangle 460" width="90.667" height="19.741" transform="translate(361.515 308.385)" fill="#fff" opacity="0.3"/>
      <rect id="Rectangle_461" data-name="Rectangle 461" width="18.605" height="15.662" transform="translate(364.355 310.416)" opacity="0.2"/>
      <rect id="Rectangle_462" data-name="Rectangle 462" width="96.14" height="8.037" transform="translate(358.451 230.798)" fill="#86c232"/>
      <rect id="Rectangle_463" data-name="Rectangle 463" width="57.536" height="9.535" transform="translate(394.611 21.169)" opacity="0.2"/>
      <rect id="Rectangle_464" data-name="Rectangle 464" width="9.965" height="9.965" transform="translate(5.284 21.169)" fill="#fff" opacity="0.3"/>
      <rect id="Rectangle_465" data-name="Rectangle 465" width="9.965" height="9.965" transform="translate(17.331 20.946)" fill="#fff" opacity="0.3"/>
      <rect id="Rectangle_466" data-name="Rectangle 466" width="9.965" height="9.965" transform="translate(29.379 20.722)" fill="#fff" opacity="0.3"/>
      <rect id="Rectangle_467" data-name="Rectangle 467" width="9.965" height="9.965" transform="translate(41.427 20.515)" fill="#fff" opacity="0.3"/>
      <rect id="Rectangle_468" data-name="Rectangle 468" width="9.965" height="9.965" transform="translate(53.474 20.292)" fill="#fff" opacity="0.3"/>
      <rect id="Rectangle_469" data-name="Rectangle 469" width="30.119" height="9.965" transform="translate(69.825 20.292)" fill="#fff" opacity="0.3"/>
      <rect id="Rectangle_470" data-name="Rectangle 470" width="30.119" height="9.965" transform="translate(105.124 20.292)" fill="#fff" opacity="0.3"/>
      <rect id="Rectangle_471" data-name="Rectangle 471" width="30.119" height="9.965" transform="translate(140.424 20.292)" fill="#fff" opacity="0.3"/>
      <rect id="Rectangle_472" data-name="Rectangle 472" width="30.119" height="9.965" transform="translate(175.723 20.292)" fill="#fff" opacity="0.3"/>
      <rect id="Rectangle_473" data-name="Rectangle 473" width="14.371" height="14.371" transform="translate(4.217 54.868)" fill="#fff" opacity="0.3"/>
      <rect id="Rectangle_474" data-name="Rectangle 474" width="14.371" height="14.371" transform="translate(4.217 72.372)" fill="#fff" opacity="0.3"/>
      <rect id="Rectangle_475" data-name="Rectangle 475" width="14.371" height="14.371" transform="translate(4.217 89.875)" fill="#fff" opacity="0.3"/>
      <rect id="Rectangle_476" data-name="Rectangle 476" width="14.371" height="14.371" transform="translate(4.217 107.379)" fill="#fff" opacity="0.3"/>
      <rect id="Rectangle_477" data-name="Rectangle 477" width="14.371" height="14.371" transform="translate(4.217 124.882)" fill="#fff" opacity="0.3"/>
      <rect id="Rectangle_478" data-name="Rectangle 478" width="14.371" height="14.371" transform="translate(4.217 142.386)" fill="#fff" opacity="0.3"/>
      <rect id="Rectangle_479" data-name="Rectangle 479" width="14.371" height="14.371" transform="translate(4.217 159.889)" fill="#fff" opacity="0.3"/>
      <rect id="Rectangle_480" data-name="Rectangle 480" width="14.371" height="14.371" transform="translate(4.217 177.393)" fill="#fff" opacity="0.3"/>
      <rect id="Rectangle_481" data-name="Rectangle 481" width="14.371" height="14.371" transform="translate(4.217 194.896)" fill="#fff" opacity="0.3"/>
      <rect id="Rectangle_482" data-name="Rectangle 482" width="14.371" height="14.371" transform="translate(4.217 212.4)" fill="#fff" opacity="0.3"/>
      <rect id="Rectangle_483" data-name="Rectangle 483" width="14.371" height="14.371" transform="translate(4.217 229.92)" fill="#fff" opacity="0.3"/>
    </g>
    <g id="freepik--Character--inject-1" transform="translate(56.953 257.236)">
      <path id="Tracé_2133" data-name="Tracé 2133" d="M104.748,329.71l-.62,26.8-2.823,121.216H91.995L89.19,356.507l-.62-26.8Z" transform="translate(-33.547 -82.797)" fill="#263238"/>
      <path id="Tracé_2134" data-name="Tracé 2134" d="M104.748,329.71l-.62,26.8-2.823,121.216H91.995L89.19,356.507l-.62-26.8Z" transform="translate(-33.547 -82.797)" fill="#fff" opacity="0.4"/>
      <path id="Tracé_2135" data-name="Tracé 2135" d="M104.748,329.71l-.62,27.537H89.19l-.62-27.537Z" transform="translate(-33.547 -82.797)" opacity="0.2"/>
      <path id="Tracé_2136" data-name="Tracé 2136" d="M136.847,476.5l-8.605-145.69H114.18L126.21,476.5Z" transform="translate(-15.08 -82.003)" fill="#263238"/>
      <path id="Tracé_2137" data-name="Tracé 2137" d="M126.193,476.572H136.83l-7.814-132.61-.775-13.252H114.18l1.084,13.252Z" transform="translate(-15.08 -82.076)" fill="#fff" opacity="0.5"/>
      <path id="Tracé_2138" data-name="Tracé 2138" d="M114.18,330.71l1.084,13.769h13.752l-.775-13.769Z" transform="translate(-15.08 -82.076)" opacity="0.2"/>
      <path id="Tracé_2139" data-name="Tracé 2139" d="M69.816,476.5l12.03-145.69H67.785L59.18,476.5Z" transform="translate(-54.74 -82.003)" fill="#263238"/>
      <path id="Tracé_2140" data-name="Tracé 2140" d="M69.826,476.572l10.929-132.61L81.84,330.71H67.778L67,343.962,59.19,476.572Z" transform="translate(-54.732 -82.076)" fill="#fff" opacity="0.5"/>
      <path id="Tracé_2141" data-name="Tracé 2141" d="M78.566,330.71l-1.084,13.769H63.73L64.5,330.71Z" transform="translate(-51.459 -82.076)" opacity="0.2"/>
      <path id="Tracé_2142" data-name="Tracé 2142" d="M68.405,322H166.37a8.605,8.605,0,0,1,8.605,8.605V342.12H59.8V330.605A8.605,8.605,0,0,1,68.405,322Z" transform="translate(-54.293 -88.356)" fill="#86c232"/>
      <rect id="Rectangle_484" data-name="Rectangle 484" width="126.208" height="10.051" rx="2.01" transform="translate(0 243.781)" fill="#263238"/>
      <rect id="Rectangle_485" data-name="Rectangle 485" width="126.208" height="10.051" rx="2.01" transform="translate(0 243.781)" fill="#fff" opacity="0.6"/>
      <g id="freepik--group--inject-1" transform="translate(27.987)">
        <path id="Tracé_2143" data-name="Tracé 2143" d="M137.913,242.88s20.343,13.769,24.422,12.891,41.427-6.42,41.427-6.42l2.117,10.447s-34.559,4.458-45.523,6.454-30.016-9.9-30.016-9.9Z" transform="translate(-31.413 -145.409)" fill="#ebb376"/>
        <path id="Tracé_2144" data-name="Tracé 2144" d="M131.718,232.67c6.8,4.423,31.616,25.816,31.616,25.816l-11.893,16.849L118.07,258.486Z" transform="translate(-40.261 -152.771)" fill="#86c232"/>
        <path id="Tracé_2145" data-name="Tracé 2145" d="M121.61,422.933l13.717-1.876,1.893-32.6-13.683,1.893Z" transform="translate(-37.708 -40.433)" fill="#ebb376"/>
        <path id="Tracé_2146" data-name="Tracé 2146" d="M123.184,390.346l13.683-1.876-1.084,18.622L122.1,408.3Z" transform="translate(-37.355 -40.425)" opacity="0.2"/>
        <path id="Tracé_2147" data-name="Tracé 2147" d="M157.313,311.484l-3.322-29.551L77.128,277.32s-8.175,52.218-1.893,63.835c11.2,20.653,71.615,10.327,89.307,12.323-10.567,43.217-9.535,127.67-9.535,127.67l25.248,1.928s19.414-91.011,23.355-134.245C206.244,319.642,182.062,320.364,157.313,311.484Z" transform="translate(-72.861 -120.575)" fill="#263238"/>
        <path id="Tracé_2148" data-name="Tracé 2148" d="M119.026,401.7l30.343,2,2.6-12.994L118.63,389.14Z" transform="translate(-39.857 -39.942)" fill="#86c232"/>
        <path id="Tracé_2149" data-name="Tracé 2149" d="M139.99,414.6l13.8,1.015,8.64-31.479-13.786-1Z" transform="translate(-24.455 -44.269)" fill="#ebb376"/>
        <path id="Tracé_2150" data-name="Tracé 2150" d="M149.158,404.673v.1h.12a17.207,17.207,0,0,0,3.442,1.446,3.7,3.7,0,0,0,2.685,0,1.721,1.721,0,0,0,.878-1.618,1.222,1.222,0,0,0-.482-1.084,5.525,5.525,0,0,0-3.855-.1,5.025,5.025,0,0,0,2-2.823,1.2,1.2,0,0,0-.843-1.256,1.549,1.549,0,0,0-1.377,0c-1.721.912-2.324,4.785-2.375,4.991h-.241A.275.275,0,0,0,149.158,404.673Zm1.033-.775-.31.086c.327-1.257,1.015-3.442,2.014-3.89a.86.86,0,0,1,.74,0h.155c.43.172.482.413.465.6-.12.895-1.7,2.461-3.064,3.2Zm0,.706c1.824-.551,4.354-1.05,5.163-.465a.637.637,0,0,1,.224.534,1.222,1.222,0,0,1-.534,1.05c-.775.43-2.547.034-4.8-1.119Z" transform="translate(-17.909 -32.705)" fill="#86c232"/>
        <path id="Tracé_2151" data-name="Tracé 2151" d="M147.025,383.14l13.786,1.015-4.94,17.985-13.631-1.669Z" transform="translate(-22.832 -44.269)" opacity="0.2"/>
        <path id="Tracé_2152" data-name="Tracé 2152" d="M205.592,468.035l-24.3-7.143S195.8,379,210.548,350.6c-1.1-.361-2.564-.826-4.372-1.36-3.253-.981-7.573-2.2-12.65-3.614-35.317-9.793-106.9-28.157-106.9-28.157l32.7-28.794s130.252,18.14,132.954,52.459C253.541,357.644,205.592,468.035,205.592,468.035Z" transform="translate(-62.932 -112.383)" fill="#263238"/>
        <path id="Tracé_2153" data-name="Tracé 2153" d="M139.81,394.22l29.259,8.278,5.249-12.168L142.03,381.88Z" transform="translate(-24.585 -45.177)" fill="#86c232"/>
        <path id="Tracé_2154" data-name="Tracé 2154" d="M197.259,344.661c-3.253-.981-7.573-2.2-12.65-3.614,1.015-8.33,1.033-17.882-2.977-22.753-7.969-9.707-28.467-15.4-40.136-17.469-9.759-1.721-42.545-5.163-42.545-5.163S141.5,291.583,185,304.267C206.484,310.566,202.3,331.581,197.259,344.661Z" transform="translate(-54.048 -107.799)" opacity="0.2"/>
        <path id="Tracé_2155" data-name="Tracé 2155" d="M119.026,401.7l30.343,2,2.6-12.994L118.63,389.14Z" transform="translate(-39.857 -39.942)" fill="#fff" opacity="0.2"/>
        <path id="Tracé_2156" data-name="Tracé 2156" d="M139.81,394.22l29.259,8.278,5.249-12.168L142.03,381.88Z" transform="translate(-24.585 -45.177)" fill="#fff" opacity="0.2"/>
        <path id="Tracé_2157" data-name="Tracé 2157" d="M157.327,402.954l-14.939-4.165a1,1,0,0,0-1.239.62h0l-4.113,11.652a2.461,2.461,0,0,0,1.721,3.012c5.249,1.377,7.814,1.721,14.406,3.545,4.045,1.119,11.927,3.7,17.693,4.354s6.248-5.06,3.872-5.834c-5.645-1.893-12.409-7.779-15.335-11.772a3.907,3.907,0,0,0-2.065-1.411Z" transform="translate(-26.647 -33.017)" fill="#263238"/>
        <path id="Tracé_2158" data-name="Tracé 2158" d="M130.413,409.842h.293a2.081,2.081,0,0,1,.344.121.567.567,0,0,0,0,.1.138.138,0,0,0,.12,0,16.221,16.221,0,0,0,3.614.723,3.734,3.734,0,0,0,2.633-.516,1.721,1.721,0,0,0,.5-1.721,1.274,1.274,0,0,0-.706-.964,5.7,5.7,0,0,0-3.821.706,4.957,4.957,0,0,0,1.36-3.15,1.308,1.308,0,0,0-1.17-1.05,2,2,0,0,0-1.549.361c-1.429,1.239-1.721,5.163-1.721,5.387h.1Zm1.48-.809-.275.155c0-1.308.293-3.442,1.17-4.217a.912.912,0,0,1,.706-.258h.155c.447.086.551.327.568.516a6.42,6.42,0,0,1-2.323,3.89Zm.207.688c1.721-.912,4.027-1.928,4.905-1.515a.568.568,0,0,1,.344.465,1.188,1.188,0,0,1-.31,1.136c-.688.585-2.5.551-4.94-.086Z" transform="translate(-31.435 -29.183)" fill="#86c232"/>
        <path id="Tracé_2159" data-name="Tracé 2159" d="M137.761,406.847l-15.49-.964a.964.964,0,0,0-1.084.861h0l-1.515,12.22a2.444,2.444,0,0,0,2.289,2.616c5.4.241,8,.086,14.819.465,4.182.241,12.426,1.136,18.209.585s5.06-6.265,2.564-6.523c-5.9-.688-13.769-5.026-17.435-8.33A3.855,3.855,0,0,0,137.761,406.847Z" transform="translate(-39.11 -27.875)" fill="#263238"/>
        <path id="Tracé_2160" data-name="Tracé 2160" d="M163.6,239.006s-11.153-9.965-31.616-14.061-38.621,4.974-38.621,4.974-13.614,32.7-19.517,89.5l81.7,6.11S152.125,287.111,163.6,239.006Z" transform="translate(-72.148 -159.108)" fill="#86c232"/>
        <path id="Tracé_2161" data-name="Tracé 2161" d="M155.543,325.457s-2.668-29.947,4.63-70.117c.947-5.284,2.083-10.74,3.442-16.333,0,0-11.135-9.965-31.616-14.061s-38.621,4.974-38.621,4.974a224.045,224.045,0,0,0-8.5,27.056A422.27,422.27,0,0,0,73.86,319.347Z" transform="translate(-72.14 -159.108)" fill="#fff" opacity="0.8"/>
        <path id="Tracé_2162" data-name="Tracé 2162" d="M80.25,256.975c5.163,11.359,17.865,11.566,22.374,1.342a76.228,76.228,0,0,1,14.44-20.963s14.991,11.858,21.479,10.86a8.984,8.984,0,0,0,7.487-7.16c8.485,7.8,9.432,13.769,9.5,14.285.947-5.284,2.083-10.74,3.442-16.333,0,0-11.135-9.965-31.616-14.061s-38.621,4.974-38.621,4.974a224.046,224.046,0,0,0-8.485,27.056Z" transform="translate(-67.533 -159.108)" fill="#86c232"/>
        <path id="Tracé_2163" data-name="Tracé 2163" d="M100.273,240.68c9.259,25.162,7.538,25.059,57.054,10.327a24.886,24.886,0,0,1,5.163-3.6c2.031-.774,19.07,3.924,20.1,5.318s-3.442,9.087-5.163,9.845-17.607,0-18.5,0h-2.513s-31.685,14.715-44.008,14.922S86.59,246.2,86.59,246.2Z" transform="translate(-62.961 -146.995)" fill="#ebb376"/>
        <path id="Tracé_2164" data-name="Tracé 2164" d="M87.558,227.39c-8.416,4.32-10.086,25.971,13.889,55.488l15.645-14.216s-10.808-13.941-11.445-26.987S87.558,227.39,87.558,227.39Z" transform="translate(-66.338 -156.579)" fill="#86c232"/>
        <path id="Tracé_2165" data-name="Tracé 2165" d="M116.895,207.5c-1.928,9.638-6.884,26.711-15.645,30.1a30.98,30.98,0,0,0,16.712,17.09c11.342,4.991,11.032-5.628,11.032-5.628-8.967-6.489-5.662-13.769-1.067-20Z" transform="translate(-52.39 -170.921)" fill="#ebb376"/>
        <path id="Tracé_2166" data-name="Tracé 2166" d="M114.03,212.61l6.523,12.77a30,30,0,0,0-2.891,4.561c-3.58-2.117-7.074-8.451-5.834-12.6A13.769,13.769,0,0,1,114.03,212.61Z" transform="translate(-44.947 -167.236)" opacity="0.2"/>
        <path id="Tracé_2167" data-name="Tracé 2167" d="M123.672,198.712c-5.68,3.115-3.855,9.483,7.28,20.257,5.525-5.886,7.538-18.14,3.941-21.634S128.629,196.045,123.672,198.712Z" transform="translate(-38.48 -179.551)" fill="#263238"/>
        <path id="Tracé_2168" data-name="Tracé 2168" d="M108.7,209.036c-.688,13.1-1.721,20.653,4.045,28.14,8.726,11.17,25.455,7.056,30.05-5.576,4.1-11.342,4.561-30.842-7.573-37.468a17.9,17.9,0,0,0-26.522,14.9Z" transform="translate(-47.412 -182.164)" fill="#ebb376"/>
        <path id="Tracé_2169" data-name="Tracé 2169" d="M119.528,205.945c-.12,1.067.344,2,1.033,2.065s1.342-.706,1.463-1.721-.344-1.962-1.033-2.065S119.717,204.912,119.528,205.945Z" transform="translate(-39.223 -173.29)" fill="#263238"/>
        <path id="Tracé_2170" data-name="Tracé 2170" d="M126.508,206.724c-.12,1.067.344,2,1.05,2.065s1.342-.706,1.463-1.721-.344-1.979-1.033-2.065S126.628,205.725,126.508,206.724Z" transform="translate(-34.19 -172.726)" fill="#263238"/>
        <path id="Tracé_2171" data-name="Tracé 2171" d="M124.666,206.06a37.607,37.607,0,0,0,4.027,9.638,6.161,6.161,0,0,1-5.163.361Z" transform="translate(-36.324 -171.959)" fill="#d58745"/>
        <path id="Tracé_2172" data-name="Tracé 2172" d="M118.1,204.076a.585.585,0,0,1-.379-.12.637.637,0,0,1,0-.9,6.127,6.127,0,0,1,5.353-1.979.585.585,0,0,1,.5.671h0a.654.654,0,0,1-.723.5h0a4.939,4.939,0,0,0-4.217,1.618.654.654,0,0,1-.534.207Z" transform="translate(-40.648 -175.587)" fill="#263238"/>
        <path id="Tracé_2173" data-name="Tracé 2173" d="M131.753,206.039a.637.637,0,0,1-.534-.413,5.026,5.026,0,0,0-3.184-3.218.62.62,0,0,1-.448-.757.637.637,0,0,1,.74-.465,6.282,6.282,0,0,1,4.062,4.027.62.62,0,0,1-.361.792h0A.448.448,0,0,1,131.753,206.039Z" transform="translate(-33.412 -175.483)" fill="#263238"/>
        <path id="Tracé_2174" data-name="Tracé 2174" d="M117.621,196.657c5.834,2.788,4.337,9.242-6.2,20.653-5.834-5.576-8.5-17.727-5.163-21.376S112.526,194.248,117.621,196.657Z" transform="translate(-49.829 -180.714)" fill="#263238"/>
        <path id="Tracé_2175" data-name="Tracé 2175" d="M104.216,210.351a12.53,12.53,0,0,0,5.043,8.089c3.58,2.5,6.884-.344,7.039-4.475.189-3.735-1.446-9.518-5.611-10.327S103.58,206.358,104.216,210.351Z" transform="translate(-50.313 -173.789)" fill="#ebb376"/>
        <path id="Tracé_2176" data-name="Tracé 2176" d="M117.72,212.57a9.173,9.173,0,0,0,8.175,4.905" transform="translate(-40.513 -167.265)" fill="none" stroke="#263238" stroke-linecap="round" stroke-linejoin="round" stroke-width="0.526"/>
        <path id="Tracé_2177" data-name="Tracé 2177" d="M118.6,205.959s15.49-8.433,26.333,0c0,0,6.058-7.143,2.461-15.008s-28.725-4.113-35.489-1.291c-12.048,4.991-2.823,18.381-2.823,18.381Z" transform="translate(-49.175 -186.247)" fill="#263238"/>
        <path id="Tracé_2178" data-name="Tracé 2178" d="M236.962,251.71v4.561c0,1.36-2.341,2.323-3.7,2.323H126.915c-1.36,0-3.545-.964-3.545-2.323V251.71Z" transform="translate(-36.439 -139.042)" fill="#263238"/>
        <path id="Tracé_2179" data-name="Tracé 2179" d="M221.819,251.71v4.561c0,1.36-2.341,2.323-3.7,2.323H147.984c-1.377,0-3.614-.964-3.614-2.323V251.71Z" transform="translate(-21.296 -139.042)" opacity="0.3"/>
        <path id="Tracé_2180" data-name="Tracé 2180" d="M236.427,220.321,223.76,277.944a4.492,4.492,0,0,1-4.113,3.442H150.493a2.995,2.995,0,0,1-2.6-3.855l12.65-57a3.959,3.959,0,0,1,4.113-2.823h69.153C235.67,217.723,236.84,218.445,236.427,220.321Z" transform="translate(-18.849 -163.571)" fill="#263238"/>
        <path id="Tracé_2181" data-name="Tracé 2181" d="M235.444,220.321l-12.667,57.622a4.492,4.492,0,0,1-4.113,3.442h-66.8a3.012,3.012,0,0,1-2.616-3.855l12.65-57a3.959,3.959,0,0,1,4.113-2.823h66.813C234.687,217.723,235.857,218.445,235.444,220.321Z" transform="translate(-17.866 -163.571)" fill="#fff" opacity="0.2"/>
        <path id="Tracé_2182" data-name="Tracé 2182" d="M177.5,247.148c3.218,0,6.523-3.442,7.366-7.71s-1.1-7.728-4.337-7.728a5.009,5.009,0,0,0-1.721.344,9.879,9.879,0,0,1-5.49,7.039,2.516,2.516,0,0,0,0,.344C172.322,243.689,174.267,247.148,177.5,247.148Z" transform="translate(-0.61 -153.463)" fill="#fff" opacity="0.5"/>
      </g>
      <path id="Tracé_2183" data-name="Tracé 2183" d="M175.394,526.217H164.861L163.14,262.46h13.975Z" transform="translate(20.225 -131.29)"/>
      <path id="Tracé_2184" data-name="Tracé 2184" d="M177.132,262.71l-.275,42.563-1.446,220.764h-10.55l-1.446-220.764-.275-42.563Z" transform="translate(20.225 -131.11)" fill="#fff" opacity="0.6"/>
      <path id="Tracé_2185" data-name="Tracé 2185" d="M177.132,262.71l-.275,43.027H163.415l-.275-43.027Z" transform="translate(20.225 -131.11)" opacity="0.2"/>
      <path id="Tracé_2186" data-name="Tracé 2186" d="M247.652,526.217H237.119L218.17,262.46h13.992Z" transform="translate(59.906 -131.29)"/>
      <path id="Tracé_2187" data-name="Tracé 2187" d="M247.669,526.037h-10.55L219.1,275.394l-.929-12.684h13.992l.757,12.684Z" transform="translate(59.906 -131.11)" fill="#fff" opacity="0.7"/>
      <path id="Tracé_2188" data-name="Tracé 2188" d="M232.92,274.758H219.1l-.929-12.048h13.992Z" transform="translate(59.906 -131.11)" opacity="0.2"/>
      <path id="Tracé_2189" data-name="Tracé 2189" d="M109.633,526.217H99.1L114.59,262.46h13.992Z" transform="translate(-25.954 -131.29)"/>
      <path id="Tracé_2190" data-name="Tracé 2190" d="M128.582,262.71l-.929,12.684-18.02,250.642H99.1l14.733-250.642.757-12.684Z" transform="translate(-25.954 -131.11)" fill="#fff" opacity="0.7"/>
      <path id="Tracé_2191" data-name="Tracé 2191" d="M108.417,262.71H122.41l-.929,12.048H107.66Z" transform="translate(-19.781 -131.11)" opacity="0.2"/>
      <path id="Tracé_2192" data-name="Tracé 2192" d="M101.66,258.63h225.6v9.483a3.718,3.718,0,0,1-3.718,3.718H105.378a3.718,3.718,0,0,1-3.718-3.718V258.63Z" transform="translate(-24.108 -134.052)"/>
      <path id="Tracé_2193" data-name="Tracé 2193" d="M101.66,258.63h225.6v9.483a3.718,3.718,0,0,1-3.718,3.718H105.378a3.718,3.718,0,0,1-3.718-3.718V258.63Z" transform="translate(-24.108 -134.052)" fill="#fff" opacity="0.8"/>
      <rect id="Rectangle_486" data-name="Rectangle 486" width="225.6" height="6.609" transform="translate(77.552 124.578)" opacity="0.2"/>
      <path id="Tracé_2194" data-name="Tracé 2194" d="M338.1,262.752H99.418a3.735,3.735,0,0,1-3.718-3.735h0a3.718,3.718,0,0,1,3.718-3.718H338.1a3.718,3.718,0,0,1,3.718,3.718h0a3.735,3.735,0,0,1-3.718,3.735Z" transform="translate(-28.405 -136.453)"/>
      <path id="Tracé_2195" data-name="Tracé 2195" d="M338.1,262.752H99.418a3.735,3.735,0,0,1-3.718-3.735h0a3.718,3.718,0,0,1,3.718-3.718H338.1a3.718,3.718,0,0,1,3.718,3.718h0a3.735,3.735,0,0,1-3.718,3.735Z" transform="translate(-28.405 -136.453)" fill="#fff" opacity="0.8"/>
    </g>
  </g>
</svg>
