<svg xmlns="http://www.w3.org/2000/svg" width="592.048" height="527.242" viewBox="0 0 592.048 527.242">
  <g id="Career_progress-pana" data-name="Career progress-pana" transform="translate(-30.58 -83.519)">
    <g id="freepik--background-simple--inject-34" transform="translate(134.756 128.039)">
      <path id="Tracé_2360" data-name="Tracé 2360" d="M504.577,173.79l-2.48-4.022c-20.968-34.535-58.855-55.356-98.806-52.835a105.014,105.014,0,0,0-15.283,2.1c-36.332,7.776-67.931,35.246-81.029,70.425-7.709,20.686-9.854,44.51-24.48,60.919-19.024,21.383-51.334,22.054-79.729,21.169s-60.732-.134-79.675,21.316c-11.851,13.407-15.619,32.551-14.667,50.543,2.534,47.647,35.729,90.253,77.959,111.422s91.929,23.073,138.088,13.755c64.727-13.045,126.29-48.88,163.292-104.236S534.232,233.529,504.577,173.79Z" transform="translate(-108.285 -116.727)" fill="#ebebeb"/>
    </g>
    <g id="freepik--Floor--inject-34" transform="translate(30.58 610.064)">
      <path id="Tracé_2361" data-name="Tracé 2361" d="M622.628,476.619c0,.2-132.537.349-296,.349S30.58,476.82,30.58,476.619s132.524-.349,296.044-.349S622.628,476.431,622.628,476.619Z" transform="translate(-30.58 -476.27)" fill="#263238"/>
    </g>
    <g id="freepik--Plant--inject-34" transform="translate(398.794 394.926)">
      <path id="Tracé_2362" data-name="Tracé 2362" d="M393.417,418.677c1.207-4.143,3.767-8.151,7.722-9.854s8.9-.764,13.112.764,8.366,3.58,12.843,3.861,9.532-1.85,10.873-6.127c1.26-4.022-1.166-8.326-4.21-11.248a26.532,26.532,0,0,0-43.478,10.471" transform="translate(-276.259 -290.977)" fill="#86c232"/>
      <g id="Groupe_213" data-name="Groupe 213" transform="translate(114.021 97.684)" opacity="0.5">
        <path id="Tracé_2363" data-name="Tracé 2363" d="M393.417,418.677c1.207-4.143,3.767-8.151,7.722-9.854s8.9-.764,13.112.764,8.366,3.58,12.843,3.861,9.532-1.85,10.873-6.127c1.26-4.022-1.166-8.326-4.21-11.248a26.532,26.532,0,0,0-43.478,10.471" transform="translate(-390.28 -388.661)"/>
      </g>
      <path id="Tracé_2364" data-name="Tracé 2364" d="M367.494,437.547c-6.583-6.234-6.247-17.107-2.976-25.553s10.444-14.948,18.434-19.225a58.292,58.292,0,0,1,50.838-1.636,24.132,24.132,0,0,0-19.507,11.449c-3.606,5.979-4.4,13.246-7.374,19.56a30.835,30.835,0,0,1-39.415,15.4" transform="translate(-285.81 -291.855)" fill="#86c232"/>
      <path id="Tracé_2365" data-name="Tracé 2365" d="M366.337,423.992c-7.28-8.594-8.245-22.376-7.173-33.583s3.673-22.483,1.9-33.6c-1.046-6.583-3.606-12.87-4.464-19.48s.362-14.09,5.483-18.354c5.885-4.907,15.163-3.754,21.29.858s9.666,11.838,12.267,19.051c5.7,15.847,7.789,33.409,3.1,49.6s-15.659,30.634-31.774,35.514" transform="translate(-287.817 -315.798)" fill="#86c232"/>
      <path id="Tracé_2366" data-name="Tracé 2366" d="M361.207,469.057a4.209,4.209,0,0,1,0-.979c0-.657,0-1.609,0-2.842.08-2.467.322-6.033.871-10.4a139.928,139.928,0,0,1,2.882-15.23,70.223,70.223,0,0,1,6.945-17.63,74.18,74.18,0,0,1,11.355-15.19,72.52,72.52,0,0,1,11.918-9.907c1.81-1.247,3.566-2.2,5.081-3.083s2.909-1.488,4.022-2.024l2.614-1.1a8.183,8.183,0,0,1,.925-.349,5.043,5.043,0,0,1-.885.456l-2.561,1.207c-1.086.563-2.427,1.26-3.955,2.1a52.844,52.844,0,0,0-5.014,3.151,74.875,74.875,0,0,0-22.979,25.03c-6.7,11.691-8.513,24-9.84,32.618-.6,4.357-.912,7.91-1.073,10.363l-.161,2.829C361.247,468.722,361.221,469.057,361.207,469.057Z" transform="translate(-286.173 -290.412)" fill="#263238"/>
      <path id="Tracé_2367" data-name="Tracé 2367" d="M317.51,371.23c-13.407,8.124-13.407,15.511-11.168,22.483s10.511,11.825,17.348,9.21c3.875-1.475,6.7-4.84,9.076-8.218s4.652-7,8.044-9.385,8.218-3.365,11.6-.952" transform="translate(-305.232 -296.915)" fill="#86c232"/>
      <g id="Groupe_214" data-name="Groupe 214" transform="translate(0 74.315)" opacity="0.5">
        <path id="Tracé_2368" data-name="Tracé 2368" d="M317.51,371.23c-13.407,8.124-13.407,15.511-11.168,22.483s10.511,11.825,17.348,9.21c3.875-1.475,6.7-4.84,9.076-8.218s4.652-7,8.044-9.385,8.218-3.365,11.6-.952" transform="translate(-305.232 -371.23)"/>
      </g>
      <path id="Tracé_2369" data-name="Tracé 2369" d="M306.877,382.507c3.526-4.867,12.213-6.274,17.71-3.848s9.505,7.24,13.112,12.066,7.105,9.881,12.066,13.219,11.945,4.558,16.919,1.193a14.614,14.614,0,0,0,5.751-9.961,33.343,33.343,0,0,0-.791-11.731c-1.193-5.644-3.137-11.543-7.655-15.123-5.027-4.022-12.066-4.2-18.447-4.022-7.374.241-14.854.791-21.772,3.352s-13.983,8.044-16.919,14.841" transform="translate(-304.68 -299.29)" fill="#86c232"/>
      <path id="Tracé_2370" data-name="Tracé 2370" d="M361.649,466.767v-1.153c0-.818-.067-1.931-.121-3.352-.08-2.949-.2-7.132-.349-12.28s-.375-11.369-.751-18.206-.885-14.385-1.931-22.215a70.531,70.531,0,0,0-2.225-11.275,59.187,59.187,0,0,0-4.129-9.881,57.254,57.254,0,0,0-5.2-8.165,52.282,52.282,0,0,0-5.684-6.234,41.693,41.693,0,0,0-10.068-6.878c-.657-.295-1.233-.59-1.756-.8l-1.341-.509-.8-.322-.268-.134a.844.844,0,0,1,.295.08l.818.268,1.341.456c.536.188,1.113.469,1.783.764a39.991,39.991,0,0,1,10.256,6.7,51.81,51.81,0,0,1,5.792,6.247,55.232,55.232,0,0,1,5.363,8.218,58.169,58.169,0,0,1,4.2,9.961,71.049,71.049,0,0,1,2.266,11.369c1.032,7.87,1.528,15.4,1.877,22.255s.523,13.045.63,18.233.147,9.385.161,12.294v4.21A1.193,1.193,0,0,1,361.649,466.767Z" transform="translate(-297.809 -298.914)" fill="#263238"/>
      <path id="Tracé_2371" data-name="Tracé 2371" d="M357.062,483.291a38.984,38.984,0,0,1-1.475-5.778,61.173,61.173,0,0,1-.617-16.235,107.882,107.882,0,0,1,5.135-23.569c2.762-8.661,6.516-17.925,9.72-27.872a121.117,121.117,0,0,0,5.765-28.824,201.84,201.84,0,0,0,.429-24.065c-.228-6.851-.59-12.4-.818-16.222l-.255-4.424v-1.14a1.571,1.571,0,0,1,0-.4v.389c0,.255.067.67.121,1.153.08,1.046.2,2.52.362,4.4.308,3.834.737,9.385,1.019,16.235a197.457,197.457,0,0,1-.295,24.132,128.846,128.846,0,0,1-1.89,14.144,126.55,126.55,0,0,1-3.875,14.814c-3.2,9.988-6.971,19.238-9.76,27.872a110.03,110.03,0,0,0-5.228,23.421,62.8,62.8,0,0,0,.429,16.168c.322,1.877.63,3.338.9,4.317.107.469.2.831.268,1.113a1.72,1.72,0,0,1,.067.375Z" transform="translate(-288.382 -309.339)" fill="#263238"/>
      <path id="Tracé_2372" data-name="Tracé 2372" d="M397.786,453.183H334.574L333.14,441.01h64.646Z" transform="translate(-295.724 -273.144)" fill="#455a64"/>
      <path id="Tracé_2373" data-name="Tracé 2373" d="M339.27,449.05l7.91,36.493h34.334l7.4-36.493Z" transform="translate(-293.636 -270.405)" fill="#455a64"/>
      <path id="Tracé_2374" data-name="Tracé 2374" d="M397.119,450.192c0,.161-13.889.255-31.023.215s-31.036-.228-31.036-.389,13.889-.268,31.036-.214S397.119,450.072,397.119,450.192Z" transform="translate(-295.07 -270.153)" fill="#455a64"/>
      <path id="Tracé_2375" data-name="Tracé 2375" d="M383.909,464.825a26.052,26.052,0,0,0-5.564-3.191,19.682,19.682,0,0,0-6.77-1.341,23.754,23.754,0,0,0-8.312,1.528,82.825,82.825,0,0,1-8.191,2.681,19.7,19.7,0,0,1-7.079.214,14.665,14.665,0,0,1-4.558-1.448,11.066,11.066,0,0,1-1.1-.7c-.228-.174-.349-.281-.335-.295s.536.308,1.542.778a15.644,15.644,0,0,0,4.5,1.233,19.518,19.518,0,0,0,6.891-.335c2.534-.63,5.229-1.77,8.124-2.762a23.715,23.715,0,0,1,8.527-1.5,19.465,19.465,0,0,1,6.918,1.515,17.788,17.788,0,0,1,4.116,2.4,12.513,12.513,0,0,1,.992.845C383.829,464.7,383.923,464.812,383.909,464.825Z" transform="translate(-292.706 -266.78)" fill="#263238"/>
      <path id="Tracé_2376" data-name="Tracé 2376" d="M383.2,466.611a28.155,28.155,0,0,0-5.363-3.151,18.408,18.408,0,0,0-6.529-1.341,23.4,23.4,0,0,0-8.044,1.448c-2.789.925-5.363,2.011-7.9,2.681a20.108,20.108,0,0,1-6.81.764,11.329,11.329,0,0,1-4.451-1.193,7.8,7.8,0,0,1-1.073-.67c-.228-.174-.335-.268-.322-.295s.523.308,1.488.751a12.28,12.28,0,0,0,4.384.979,20.555,20.555,0,0,0,6.636-.871c2.44-.684,5.028-1.77,7.843-2.681a23.4,23.4,0,0,1,8.258-1.421,17.966,17.966,0,0,1,6.7,1.5,18.352,18.352,0,0,1,3.955,2.386,12.241,12.241,0,0,1,.939.831C383.1,466.49,383.212,466.6,383.2,466.611Z" transform="translate(-292.465 -266.126)" fill="#fff"/>
      <path id="Tracé_2377" data-name="Tracé 2377" d="M384.713,463.13A29.012,29.012,0,0,0,379,459.765a20.873,20.873,0,0,0-6.945-1.676,22.351,22.351,0,0,0-8.58,1.515,76.887,76.887,0,0,1-8.486,2.775,21.841,21.841,0,0,1-7.307,0,16.653,16.653,0,0,1-4.692-1.488,8.462,8.462,0,0,1-1.14-.711c-.255-.188-.375-.281-.362-.308s.55.335,1.6.8a18.037,18.037,0,0,0,4.666,1.341,21.825,21.825,0,0,0,7.132-.134,85.2,85.2,0,0,0,8.392-2.789,22.281,22.281,0,0,1,8.822-1.5,20.6,20.6,0,0,1,7.079,1.837,19.962,19.962,0,0,1,4.21,2.534c.456.362.791.657,1.019.871S384.726,463.117,384.713,463.13Z" transform="translate(-292.88 -267.499)" fill="#fff"/>
      <path id="Tracé_2378" data-name="Tracé 2378" d="M397.907,450.208c0,.161-14.211.295-31.747.295s-31.76-.134-31.76-.295,14.211-.308,31.76-.308S397.907,450.034,397.907,450.208Z" transform="translate(-295.295 -270.115)" fill="#263238"/>
    </g>
    <g id="freepik--Character--inject-34" transform="translate(136.17 83.519)">
      <path id="Tracé_2379" data-name="Tracé 2379" d="M185.181,265.5l-8.406-4.022c-4.679.456-9.532.965-13.594,3.338s-7.132,7.146-5.993,11.7c.965,3.807,4.612,6.971,4.022,10.859-.5,3.526-4.129,5.55-7.293,7.173s-6.7,4.022-6.636,7.6a6.274,6.274,0,0,0,3.11,5.014,12.28,12.28,0,0,0,5.885,1.6c9.988.536,19.654-5.591,24.762-14.184S187.125,275.316,185.181,265.5Z" transform="translate(-96.416 -22.895)" fill="#86c232"/>
      <g id="Groupe_215" data-name="Groupe 215" transform="translate(50.864 238.585)" opacity="0.7">
        <path id="Tracé_2380" data-name="Tracé 2380" d="M185.181,265.5l-8.406-4.022c-4.679.456-9.532.965-13.594,3.338s-7.132,7.146-5.993,11.7c.965,3.807,4.612,6.971,4.022,10.859-.5,3.526-4.129,5.55-7.293,7.173s-6.7,4.022-6.636,7.6a6.274,6.274,0,0,0,3.11,5.014,12.28,12.28,0,0,0,5.885,1.6c9.988.536,19.654-5.591,24.762-14.184S187.125,275.316,185.181,265.5Z" transform="translate(-147.279 -261.48)" fill="#fff"/>
      </g>
      <path id="Tracé_2381" data-name="Tracé 2381" d="M158.49,261.893l28.154,20.485s7.467-9.385,4.813-20.365l-14.211-10S168.625,250.672,158.49,261.893Z" transform="translate(-92.597 -26.137)" fill="#263238"/>
      <path id="Tracé_2382" data-name="Tracé 2382" d="M167.24,283.016l24.574,17.16,90.83-122.389s6.207-11.556-3.057-26.317c0,0-18.769-1.7-29.119,10.645S167.24,283.016,167.24,283.016Z" transform="translate(-89.616 -60.397)" fill="#e0e0e0"/>
      <path id="Tracé_2383" data-name="Tracé 2383" d="M167.25,283.1s.134-.255.469-.764l1.461-2.239,5.684-8.567,21.2-31.546c9.009-13.34,19.788-29.267,31.975-46.923,6.113-8.835,12.522-18.126,19.48-27.6l2.681-3.513a28.864,28.864,0,0,1,11.047-7.829,40.715,40.715,0,0,1,8.929-2.427,43.9,43.9,0,0,1,9.385-.469h.161l.094.147a32.712,32.712,0,0,1,5.068,14.747,24.522,24.522,0,0,1-2,11.972h0L191.918,300.366l-.107.147-.147-.107-18.045-12.8-4.733-3.365-1.193-.858-.375-.282.429.282,1.247.845,4.8,3.3,18.193,12.589h-.255l90.7-122.482h0a23.837,23.837,0,0,0,1.917-11.583,32.175,32.175,0,0,0-4.96-14.4l.268.161a42.647,42.647,0,0,0-17.992,2.856A28.155,28.155,0,0,0,254,159.209a28.517,28.517,0,0,0-3.151,3.083c-.9,1.166-1.81,2.319-2.681,3.472-6.945,9.385-13.407,18.769-19.493,27.551-12.227,17.656-23.046,33.516-32.109,46.923L175.2,271.663l-5.792,8.486-1.622,2.185Z" transform="translate(-89.612 -60.481)" fill="#263238"/>
      <path id="Tracé_2384" data-name="Tracé 2384" d="M171.836,252.747l-14.546.241,13.38-17.362,13.112-.617Z" transform="translate(-93.005 -31.912)" fill="#455a64"/>
      <path id="Tracé_2385" data-name="Tracé 2385" d="M277.026,151.45l-.389.134a4.827,4.827,0,0,0-1.14.429,23.729,23.729,0,0,0-4.022,2.494,130.382,130.382,0,0,0-13.125,11.53v-.174a3.634,3.634,0,0,1-.335.778l-.375.67-.778,1.341-1.676,2.681-3.633,5.7c-2.574,3.928-5.363,8.151-8.232,12.616-5.872,8.9-12.414,18.769-19.372,29.012-6.7,9.934-13.219,19.305-19.091,27.859l-15.672,22.7L178.568,284.47l-2.909,4.129-.778,1.073a2.915,2.915,0,0,1-.282.349,1.5,1.5,0,0,1,.228-.389l.711-1.113,2.815-4.2c2.48-3.673,6.033-8.929,10.43-15.391,8.862-13,21.089-30.835,34.589-50.663,6.945-10.283,13.514-20.11,19.413-28.972S254.1,172.4,258.257,165.862l-.08-.174a124.2,124.2,0,0,1,13.3-11.4,21.8,21.8,0,0,1,4.022-2.4,4.4,4.4,0,0,1,1.18-.375Z" transform="translate(-87.109 -60.377)" fill="#263238"/>
      <path id="Tracé_2386" data-name="Tracé 2386" d="M219.577,191.633c0-.08.268-.335.737,0a.871.871,0,0,1,.389.871.979.979,0,0,1-1.863.228.871.871,0,0,1,.134-.925c.375-.4.751-.268.724-.174s-.215.188-.308.442a.375.375,0,0,0,0,.375.362.362,0,0,0,.657-.08.375.375,0,0,0-.067-.349C219.845,191.74,219.6,191.727,219.577,191.633Z" transform="translate(-72.064 -46.746)" fill="#263238"/>
      <path id="Tracé_2387" data-name="Tracé 2387" d="M210.276,204.78c0-.067.268-.322.751,0a.845.845,0,0,1,.375.871.979.979,0,0,1-1.864.215.872.872,0,0,1,.147-.925c.362-.4.737-.255.724-.174s-.228.188-.322.456a.389.389,0,0,0,0,.362.429.429,0,0,0,.362.188.415.415,0,0,0,.295-.268.375.375,0,0,0-.067-.349C210.544,204.9,210.3,204.874,210.276,204.78Z" transform="translate(-75.231 -42.264)" fill="#263238"/>
      <path id="Tracé_2388" data-name="Tracé 2388" d="M199.656,220.34c0-.067.268-.322.737,0a.858.858,0,0,1,.389.871.979.979,0,0,1-1.863.215.9.9,0,0,1,.134-.925c.375-.4.751-.255.724-.174s-.215.188-.308.456a.349.349,0,0,0,0,.362.353.353,0,0,0,.657-.08.375.375,0,0,0,0-.349C199.924,220.461,199.682,220.434,199.656,220.34Z" transform="translate(-78.849 -36.963)" fill="#263238"/>
      <path id="Tracé_2389" data-name="Tracé 2389" d="M188.957,236.266s.268-.322.737,0a.858.858,0,0,1,.389.871.979.979,0,0,1-1.863.228.9.9,0,0,1,.134-.938c.375-.4.751-.255.724-.174s-.215.188-.308.456a.349.349,0,0,0,0,.362.353.353,0,0,0,.657-.08.376.376,0,0,0-.067-.349C189.292,236.387,188.983,236.36,188.957,236.266Z" transform="translate(-82.495 -31.533)" fill="#263238"/>
      <path id="Tracé_2390" data-name="Tracé 2390" d="M179.038,251.236s.268-.322.737,0a.858.858,0,0,1,.389.871,1.032,1.032,0,0,1-.845.818,1.006,1.006,0,0,1-1.019-.6.845.845,0,0,1,.134-.925c.375-.4.751-.255.724-.174s-.215.188-.308.456a.349.349,0,0,0,0,.362.353.353,0,0,0,.657-.08.375.375,0,0,0,0-.349C179.266,251.357,179.065,251.33,179.038,251.236Z" transform="translate(-85.876 -26.433)" fill="#263238"/>
      <path id="Tracé_2391" data-name="Tracé 2391" d="M228.446,178.673c0-.08.268-.335.751,0a.858.858,0,0,1,.375.871.992.992,0,0,1-.845.818,1.019,1.019,0,0,1-1.019-.59.871.871,0,0,1,.147-.925c.362-.4.751-.268.724-.174s-.228.188-.322.442a.456.456,0,0,0,0,.375.416.416,0,0,0,.362.174.4.4,0,0,0,.295-.255.335.335,0,0,0-.067-.349C228.714,178.78,228.472,178.767,228.446,178.673Z" transform="translate(-69.041 -51.161)" fill="#263238"/>
      <path id="Tracé_2392" data-name="Tracé 2392" d="M237.928,164.63c-.067-.067.268-.322.737,0a.845.845,0,0,1,.375.871.992.992,0,0,1-.845.818,1.006,1.006,0,0,1-1.005-.59.871.871,0,0,1,.134-.938c.375-.4.751-.255.724-.174s-.215.188-.308.456a.349.349,0,0,0,0,.362.4.4,0,0,0,.349.188.416.416,0,0,0,.308-.268.375.375,0,0,0-.067-.349C238.183,164.751,237.955,164.724,237.928,164.63Z" transform="translate(-65.814 -55.941)" fill="#263238"/>
      <path id="Tracé_2393" data-name="Tracé 2393" d="M151.916,277.331a5.255,5.255,0,0,0-7.521-.576l.174-.094a5.108,5.108,0,0,0-1.274,5.819,5.054,5.054,0,1,0,8.62-5.148Z" transform="translate(-97.915 -18.14)" fill="#86c232"/>
      <g id="Groupe_216" data-name="Groupe 216" transform="translate(44.964 257.297)" opacity="0.7">
        <path id="Tracé_2394" data-name="Tracé 2394" d="M151.916,277.331a5.255,5.255,0,0,0-7.521-.576l.174-.094a5.108,5.108,0,0,0-1.274,5.819,5.054,5.054,0,1,0,8.62-5.148Z" transform="translate(-142.879 -275.437)" fill="#fff"/>
      </g>
      <path id="Tracé_2395" data-name="Tracé 2395" d="M259.4,177.715c-.094,0-1.341-1.448-3.874-3.486a99.947,99.947,0,0,0-10.2-7.347,78.7,78.7,0,0,0-11.06-5.953c-.737-.308-1.421-.55-2.011-.778l-1.569-.456a5.565,5.565,0,0,1-1.341-.295,5.735,5.735,0,0,1,1.421,0l1.622.349c.617.2,1.341.4,2.091.684a65.129,65.129,0,0,1,11.235,5.832,77.073,77.073,0,0,1,10.162,7.561,31.984,31.984,0,0,1,2.681,2.681A4.65,4.65,0,0,1,259.4,177.715Z" transform="translate(-68.461 -57.684)" fill="#263238"/>
      <path id="Tracé_2396" data-name="Tracé 2396" d="M234.847,345.66l-42.1,6.221,7.481,52.406c4.96-1.019,11.141-29.561,11.141-29.561l27.135-2.882Z" transform="translate(-80.926 5.782)" fill="#455a64"/>
      <path id="Tracé_2397" data-name="Tracé 2397" d="M207.613,355.319a2.145,2.145,0,0,0-2.681-1.126,2.065,2.065,0,0,0-1.14,2.614,2.279,2.279,0,0,0,2.815,1.18,2.158,2.158,0,0,0,.885-2.856" transform="translate(-77.207 8.645)" fill="#fff"/>
      <path id="Tracé_2398" data-name="Tracé 2398" d="M192.75,350.416l4.263-.456,5.577,50.422s-.684,2.48-2.36,2.44Z" transform="translate(-80.926 7.247)" fill="#fff"/>
      <path id="Tracé_2399" data-name="Tracé 2399" d="M207.861,369.115c-.255,0-.55-1.247-1.555-2.386s-2.172-1.649-2.1-1.9,1.6-.08,2.789,1.341S208.1,369.115,207.861,369.115Z" transform="translate(-77.026 12.277)" fill="#263238"/>
      <path id="Tracé_2400" data-name="Tracé 2400" d="M206.951,373.06c-.241.094-.831-.952-2.038-1.676s-2.386-.791-2.413-1.059,1.341-.617,2.882.295S207.192,373.02,206.951,373.06Z" transform="translate(-77.604 14.084)" fill="#263238"/>
      <path id="Tracé_2401" data-name="Tracé 2401" d="M201.241,375.444c-.08-.228,1.14-.764,2.681-.308s2.225,1.569,2.024,1.716-1.046-.5-2.279-.858S201.308,375.685,201.241,375.444Z" transform="translate(-78.035 15.762)" fill="#263238"/>
      <path id="Tracé_2402" data-name="Tracé 2402" d="M211.776,368.308c-.255-.067-.067-1.341-.375-2.681s-.912-2.494-.711-2.681,1.26.791,1.6,2.48S211.991,368.389,211.776,368.308Z" transform="translate(-74.828 11.663)" fill="#263238"/>
      <path id="Tracé_2403" data-name="Tracé 2403" d="M216.1,367.5a4.974,4.974,0,0,1-.362-2.681,12.375,12.375,0,0,1,.456-2.869,11.727,11.727,0,0,1,.59-1.609,3.15,3.15,0,0,1,.5-.885,1.139,1.139,0,0,1,1.341-.308,1.341,1.341,0,0,1,.737,1.032,3.633,3.633,0,0,1,0,1.005,9.72,9.72,0,0,1-.335,1.716,9.386,9.386,0,0,1-1.247,2.681c-.952,1.341-1.85,1.931-1.9,1.85s.617-.818,1.341-2.185a10.525,10.525,0,0,0,.979-2.52,9.745,9.745,0,0,0,.255-1.582c.067-.576,0-1.046-.268-1.153s-.134,0-.282.094a2.681,2.681,0,0,0-.362.657,11.7,11.7,0,0,0-.6,1.5,13.983,13.983,0,0,0-.6,2.681,17.419,17.419,0,0,1-.228,2.574Z" transform="translate(-73.11 10.342)" fill="#263238"/>
      <path id="Tracé_2404" data-name="Tracé 2404" d="M215.68,365.438a4.21,4.21,0,0,1,2.44-1.046,8.391,8.391,0,0,1,2.923,0,8.043,8.043,0,0,1,1.689.442,2.185,2.185,0,0,1,1.569,1.475,1.247,1.247,0,0,1-.576,1.207,3.177,3.177,0,0,1-.925.4,5.5,5.5,0,0,1-1.77.255,6.033,6.033,0,0,1-2.869-.724c-1.5-.831-1.957-1.864-1.877-1.89a11.683,11.683,0,0,0,2.158,1.341,6.047,6.047,0,0,0,2.574.469,5.523,5.523,0,0,0,1.515-.255c.55-.161.965-.442.885-.644a1.9,1.9,0,0,0-.992-.791,8.376,8.376,0,0,0-1.515-.442,9.022,9.022,0,0,0-2.681-.134C216.659,365.17,215.747,365.572,215.68,365.438Z" transform="translate(-73.114 12.12)" fill="#263238"/>
      <path id="Tracé_2405" data-name="Tracé 2405" d="M141.06,385.84l-31.72,28.368,35.152,39.576c3.58-3.58-7.025-30.835-7.025-30.835L158.5,405.521Z" transform="translate(-109.34 19.47)" fill="#455a64"/>
      <path id="Tracé_2406" data-name="Tracé 2406" d="M124.3,403.4a2.145,2.145,0,0,0-2.829.523,2.078,2.078,0,0,0,.483,2.815,2.293,2.293,0,0,0,3-.563,2.158,2.158,0,0,0-.831-2.882" transform="translate(-105.327 25.343)" fill="#fff"/>
      <path id="Tracé_2407" data-name="Tracé 2407" d="M109.34,407.681l3.3-2.681,32.444,38.973s.791,2.44-.63,3.338Z" transform="translate(-109.34 25.997)" fill="#fff"/>
      <path id="Tracé_2408" data-name="Tracé 2408" d="M132.3,414.482c-.2.161-1.14-.724-2.681-1.126s-2.681-.174-2.8-.429,1.341-.952,3.057-.429S132.51,414.362,132.3,414.482Z" transform="translate(-103.39 28.486)" fill="#263238"/>
      <path id="Tracé_2409" data-name="Tracé 2409" d="M133.713,418.453c-.147.215-1.22-.335-2.681-.255s-2.427.643-2.587.442.818-1.341,2.561-1.341S133.887,418.238,133.713,418.453Z" transform="translate(-102.838 30.187)" fill="#263238"/>
      <path id="Tracé_2410" data-name="Tracé 2410" d="M130.238,423.686c-.2-.134.523-1.26,2.024-1.7s2.681.08,2.681.308-1.14.174-2.373.55S130.426,423.861,130.238,423.686Z" transform="translate(-102.232 31.724)" fill="#263238"/>
      <path id="Tracé_2411" data-name="Tracé 2411" d="M135.139,411.594c-.255.08-.778-1.046-1.81-2.078s-2.158-1.569-2.078-1.823,1.488,0,2.681,1.193S135.367,411.554,135.139,411.594Z" transform="translate(-101.877 26.883)" fill="#263238"/>
      <path id="Tracé_2412" data-name="Tracé 2412" d="M137.876,408.874c-.08.08-.885-.576-1.756-1.984a12.066,12.066,0,0,1-1.609-4.317,2.95,2.95,0,0,1-.067-1.005,1.126,1.126,0,0,1,.952-1.006,1.421,1.421,0,0,1,1.193.456,3.177,3.177,0,0,1,.55.831,8.207,8.207,0,0,1,.67,1.609,9.184,9.184,0,0,1,.429,2.9,4.41,4.41,0,0,1-.576,2.587,13.07,13.07,0,0,1,0-2.574,10.832,10.832,0,0,0-.576-2.681,10.01,10.01,0,0,0-.657-1.461c-.268-.509-.577-.871-.858-.818s-.147,0-.188.241a2.144,2.144,0,0,0,0,.751,13.5,13.5,0,0,0,.322,1.569,15.056,15.056,0,0,0,.979,2.574A21.45,21.45,0,0,1,137.876,408.874Z" transform="translate(-100.794 24.482)" fill="#263238"/>
      <path id="Tracé_2413" data-name="Tracé 2413" d="M136.654,407.922A4.412,4.412,0,0,1,138.1,405.7a9.036,9.036,0,0,1,2.413-1.649,8.855,8.855,0,0,1,1.649-.576,2.226,2.226,0,0,1,2.132.375,1.233,1.233,0,0,1,.174,1.341,3.659,3.659,0,0,1-.536.845,5.873,5.873,0,0,1-1.341,1.193,6.1,6.1,0,0,1-2.789,1.019c-1.7.147-2.681-.456-2.6-.536a21.649,21.649,0,0,0,2.52-.094,5.886,5.886,0,0,0,2.413-1.019,5.536,5.536,0,0,0,1.113-1.059c.375-.442.576-.9.389-1.019a1.475,1.475,0,0,0-1.26-.107,8.664,8.664,0,0,0-1.515.456,9.223,9.223,0,0,0-2.319,1.341C137.324,407.158,136.774,408,136.654,407.922Z" transform="translate(-100.04 25.434)" fill="#263238"/>
      <path id="Tracé_2414" data-name="Tracé 2414" d="M274.453,251.14c-1.046.416-10.859,2.185-19.426,19.667s-7.2,28.033-7.2,28.033L205.57,359.076l-86.03,80.305,27.242,26.813,89.61-78.335s46.923-42.19,51.857-47.808c9.613-10.832,41.976-57.313,41.976-57.313Z" transform="translate(-105.865 -26.417)" fill="#263238"/>
      <path id="Tracé_2415" data-name="Tracé 2415" d="M258.254,314.459,275.535,356.7l-63.1,16.088,4.357,30.835s98.525-13.407,103.9-18.273,8.889-9.264,9.023-14.238S298.447,267.12,298.447,267.12l-35.541,27.644Z" transform="translate(-74.222 -20.973)" fill="#263238"/>
      <path id="Tracé_2416" data-name="Tracé 2416" d="M282.989,276.51a2.144,2.144,0,0,1-.228.644c-.215.5-.483,1.086-.791,1.81-.67,1.6-1.837,3.781-3.3,6.475a221.342,221.342,0,0,1-13,20.11c-5.43,7.615-10.618,14.3-14.466,19.064-1.917,2.386-3.513,4.3-4.625,5.6l-1.341,1.488a3.553,3.553,0,0,1-.5.483,3.23,3.23,0,0,1,.389-.576l1.193-1.569,4.438-5.725c3.74-4.84,8.875-11.57,14.291-19.171s10.068-14.653,13.138-19.936c1.5-2.681,2.681-4.8,3.486-6.355l.952-1.689C282.841,276.7,282.962,276.5,282.989,276.51Z" transform="translate(-63.215 -17.775)" fill="#455a64"/>
      <path id="Tracé_2417" data-name="Tracé 2417" d="M279.7,342.456c-.107.067-.791-1.113-2.266-2.681a19.6,19.6,0,0,0-2.856-2.44,22,22,0,0,0-4.022-2.172A21.368,21.368,0,0,0,266.117,334a19.65,19.65,0,0,0-3.754-.174c-2.145.134-3.446.523-3.472.4s.295-.174.885-.362a11.248,11.248,0,0,1,2.547-.523,16.276,16.276,0,0,1,3.875,0,19.733,19.733,0,0,1,4.612,1.166,20.392,20.392,0,0,1,4.156,2.293,17.239,17.239,0,0,1,2.842,2.681,11.812,11.812,0,0,1,1.5,2.118C279.59,342.121,279.738,342.429,279.7,342.456Z" transform="translate(-58.395 1.545)" fill="#455a64"/>
      <path id="Tracé_2418" data-name="Tracé 2418" d="M278.564,331.2a61.114,61.114,0,0,1-9.183,1.783,64.2,64.2,0,0,1-9.291,1.1,61.1,61.1,0,0,1,9.184-1.783,64.351,64.351,0,0,1,9.291-1.1Z" transform="translate(-57.986 0.856)" fill="#455a64"/>
      <path id="Tracé_2419" data-name="Tracé 2419" d="M280.512,318a3.1,3.1,0,0,1-.322.362l-1.006,1.005-3.928,3.848c-3.405,3.338-8.393,8.111-14.6,13.943-12.428,11.691-29.87,27.524-49.443,44.671s-37.458,32.471-50.382,43.585l-15.31,13.246-4.143,3.513c-.469.375-.831.684-1.1.912l-.389.295a3.822,3.822,0,0,1,.335-.349l1.059-.965,4.022-3.66c3.62-3.177,8.795-7.709,15.176-13.326l50.248-43.746c19.56-17.134,37.056-32.9,49.6-44.5,6.247-5.792,11.288-10.5,14.747-13.769l4.022-3.754,1.059-.965C280.378,318.134,280.5,318,280.512,318Z" transform="translate(-98.933 -3.641)" fill="#455a64"/>
      <path id="Tracé_2420" data-name="Tracé 2420" d="M367.13,109.637l7.052-12.066s3.58-12.066,4.572-13.018,2.1-1.341,2.842-.764,11.5,3.566,12.254,4.022,0,7.159,0,7.159l-.081,1.609s4.169-1.341,5.805,0c.791.657-.5,3.7-3.083,4.853a33.73,33.73,0,0,0-9.733,6.891,5.135,5.135,0,0,1-3.325,1.435c-.7,0-1.26,0-1.046-.161.8-.644-6.7,9.385-6.7,9.385Z" transform="translate(-21.522 -83.519)" fill="#b78876"/>
      <path id="Tracé_2421" data-name="Tracé 2421" d="M394.877,93.488a4.532,4.532,0,0,0-1.984-.4,17.858,17.858,0,0,0-4.88,1.113,15.35,15.35,0,0,1-5.094,1.059,3.459,3.459,0,0,1-2.118-.509c0-.107.818.121,2.1,0a19.788,19.788,0,0,0,4.867-1.207,14.171,14.171,0,0,1,5.121-.952,3.164,3.164,0,0,1,1.569.456C394.81,93.26,394.9,93.475,394.877,93.488Z" transform="translate(-16.865 -80.428)" fill="#aa6550"/>
      <path id="Tracé_2422" data-name="Tracé 2422" d="M380.593,88.45a3.535,3.535,0,0,0,1.046.818,3.861,3.861,0,0,0,3.231-.308l.59-.295-.161.657a9.614,9.614,0,0,0-.188,3.432v.617h-.362a4.249,4.249,0,0,1-1.77-.429,1.609,1.609,0,0,0-1.247-.107,1.113,1.113,0,0,0-.576.885,1.877,1.877,0,0,0,.255,1.005A4.088,4.088,0,0,0,382.6,95.9c.335.241.523.389.5.429s-.255,0-.643-.2a3.673,3.673,0,0,1-1.448-1.14,2.051,2.051,0,0,1-.416-1.341,1.7,1.7,0,0,1,.845-1.421,2.185,2.185,0,0,1,1.77,0,3.822,3.822,0,0,0,1.475.362l-.308.4V92.74a8.942,8.942,0,0,1,.282-3.687l.429.375a5.993,5.993,0,0,1-2.051.483,3.057,3.057,0,0,1-1.622-.416C380.633,89.08,380.539,88.45,380.593,88.45Z" transform="translate(-16.94 -81.839)" fill="#aa6550"/>
      <path id="Tracé_2423" data-name="Tracé 2423" d="M379.6,95.439c-.174-.121.764-1.555,1.341-3.526a4.651,4.651,0,0,0,.228-2.48c-.147-.6-.469-.9-.416-.979s.55.107.885.818a4.089,4.089,0,0,1,0,2.829,5.657,5.657,0,0,1-2.038,3.338Z" transform="translate(-17.283 -81.843)" fill="#aa6550"/>
      <path id="Tracé_2424" data-name="Tracé 2424" d="M293.71,109.247a26.719,26.719,0,0,1,11.972-3.821,13.286,13.286,0,0,1,11.154,4.92c1.931,2.681,2.681,6.221,5.175,8.3,3.486,2.869,8.647,1.609,13.085,2.413.912.174,1.944.55,2.2,1.435a2.788,2.788,0,0,1-.7,2.212l-4.478,6.7a6.9,6.9,0,0,0,5.993.711,20.432,20.432,0,0,1-7.159,12.066,1.743,1.743,0,0,1,2.252,1.26,4.344,4.344,0,0,1-.456,2.842A21.1,21.1,0,0,1,302.4,157.94" transform="translate(-46.533 -76.064)" fill="#263238"/>
      <path id="Tracé_2425" data-name="Tracé 2425" d="M308.936,108.589a13.085,13.085,0,0,0-15.873-.59c-3.177,2.346-5.054,6.02-7.213,9.385s-5.027,6.6-8.915,7.333c-3.151.6-6.529-.563-9.559.469-3.285,1.113-5.282,4.625-5.644,8.044a27.4,27.4,0,0,0,1.5,10.243,8.956,8.956,0,0,1-6.7,1.77,11.919,11.919,0,0,0,4.6,6.1,15.255,15.255,0,0,1,3.941,2.909,8.272,8.272,0,0,1,1.341,4.612,6.274,6.274,0,0,0,8.044,5.6,30.284,30.284,0,0,0,5.591-2.293s-1.9,2.574,1.046,5.363a7.468,7.468,0,0,0,5.711-3.821" transform="translate(-59.199 -75.996)" fill="#263238"/>
      <path id="Tracé_2426" data-name="Tracé 2426" d="M326.723,135.1a23.931,23.931,0,0,0-19.372-26l-1.22-.241c-13.273-1.7-22.134,8.62-23.475,21.947L273.74,191.84l30.111,5.591,3.405-19.761s12.991.416,15.525-12.187C324,159.369,325.5,146.647,326.723,135.1Z" transform="translate(-53.336 -74.946)" fill="#b78876"/>
      <path id="Tracé_2427" data-name="Tracé 2427" d="M309.2,135.09a1.823,1.823,0,0,1-2.078,1.488,1.756,1.756,0,0,1-1.542-1.971,1.823,1.823,0,0,1,2.078-1.5,1.756,1.756,0,0,1,1.542,1.984Z" transform="translate(-42.493 -66.634)" fill="#263238"/>
      <path id="Tracé_2428" data-name="Tracé 2428" d="M312.181,133.281c-.268.2-1.448-1.073-3.378-1.435s-3.553.349-3.714.067.228-.5.925-.831a5.081,5.081,0,0,1,3.03-.349,4.853,4.853,0,0,1,2.681,1.434C312.195,132.744,312.315,133.2,312.181,133.281Z" transform="translate(-42.669 -67.466)" fill="#263238"/>
      <path id="Tracé_2429" data-name="Tracé 2429" d="M297.072,134.381c-.268.188-1.435-1.073-3.378-1.435s-3.539.335-3.714,0,.228-.509.938-.845a5.014,5.014,0,0,1,3.016-.349,4.893,4.893,0,0,1,2.681,1.435C297.086,133.832,297.206,134.287,297.072,134.381Z" transform="translate(-47.817 -67.119)" fill="#263238"/>
      <path id="Tracé_2430" data-name="Tracé 2430" d="M299.33,146.076a12.8,12.8,0,0,1,3.258,0c.51,0,.992,0,1.14-.282a2.507,2.507,0,0,0,0-1.528c-.241-1.341-.5-2.681-.751-4.022-1.032-5.751-1.676-10.444-1.435-10.484s1.247,4.585,2.266,10.336c.241,1.421.469,2.775.7,4.022a2.882,2.882,0,0,1-.121,2,1.341,1.341,0,0,1-.938.563,3.591,3.591,0,0,1-.871,0A13.556,13.556,0,0,1,299.33,146.076Z" transform="translate(-44.618 -67.766)" fill="#263238"/>
      <path id="Tracé_2431" data-name="Tracé 2431" d="M295.023,142.131c.322,0-.067,2.145,1.448,4.022s3.807,2.024,3.767,2.333-.576.308-1.528.161a5.363,5.363,0,0,1-3.164-1.823,4.639,4.639,0,0,1-1.072-3.311C294.553,142.56,294.889,142.09,295.023,142.131Z" transform="translate(-46.277 -63.553)" fill="#263238"/>
      <path id="Tracé_2432" data-name="Tracé 2432" d="M299.238,126.995c-.228.523-2.185.121-4.5.228s-4.25.59-4.518.094c-.121-.241.241-.724,1.032-1.18a7.4,7.4,0,0,1,3.405-.925,7.655,7.655,0,0,1,3.472.67C298.943,126.271,299.319,126.74,299.238,126.995Z" transform="translate(-47.731 -69.318)" fill="#263238"/>
      <path id="Tracé_2433" data-name="Tracé 2433" d="M313.351,127.731c-.509.362-2.065-.389-4.022-.764s-3.7-.349-4.022-.871c-.134-.255.2-.657,1.005-.938a6.623,6.623,0,0,1,3.405-.147,6.5,6.5,0,0,1,3.057,1.461C313.418,127.1,313.566,127.6,313.351,127.731Z" transform="translate(-42.592 -69.437)" fill="#263238"/>
      <path id="Tracé_2434" data-name="Tracé 2434" d="M282.957,132.671c-.2-.134-8.191-4.2-9.532,4.478s7.642,8.245,7.7,8.044S282.957,132.671,282.957,132.671Z" transform="translate(-53.49 -67.138)" fill="#b78876"/>
      <path id="Tracé_2435" data-name="Tracé 2435" d="M278.986,140.862a3.7,3.7,0,0,1-.442.161,1.5,1.5,0,0,1-1.139-.147,3.821,3.821,0,0,1-1.207-3.633,5.134,5.134,0,0,1,.764-2.091,1.77,1.77,0,0,1,1.341-.992.8.8,0,0,1,.831.55.746.746,0,0,1,0,.456c0,.027.2-.121.188-.483a.939.939,0,0,0-.255-.6,1.126,1.126,0,0,0-.8-.349,2.172,2.172,0,0,0-1.783,1.1,5.067,5.067,0,0,0-.9,2.333,4.022,4.022,0,0,0,1.622,4.1,1.649,1.649,0,0,0,1.421,0C278.933,141.077,279.013,140.889,278.986,140.862Z" transform="translate(-52.737 -66.414)" fill="#aa6550"/>
      <path id="Tracé_2436" data-name="Tracé 2436" d="M294.179,116.283h0a11.087,11.087,0,0,1,7.307,2.373l1.341,1.059,22.094,6.7c5.751-1.81,3.1-7.253-1.408-9.666-5.269-2.829-10.9-7.91-16.758-9.1s-16.6.59-21.88,6.408a20.538,20.538,0,0,0-4.2,6.7,75.745,75.745,0,0,0-2.748,18.769,16.087,16.087,0,0,0,1.931,5.684h0c1.984.362,3.016-1.086,3.07-3.1L284,134.355a11.838,11.838,0,0,0,6.073-12.911h0a4.022,4.022,0,0,1,4.1-5.162Z" transform="translate(-51.909 -75.418)" fill="#263238"/>
      <path id="Tracé_2437" data-name="Tracé 2437" d="M287.14,117.834c.965-2.681,5.765-3.673,8.312-2.373s4.183,3.834,5.912,6.1,3.955,4.531,6.8,4.84,6.154-1.528,8.781-.147A37.844,37.844,0,0,1,320,128.72a6.7,6.7,0,0,0,5.845.429,20.11,20.11,0,0,0,5.188-3.07c-5.6-.871-10.377-4.384-14.854-7.87s-9.09-7.132-14.627-8.352-12.254.831-14.412,6.06" transform="translate(-48.771 -74.663)" fill="#263238"/>
      <path id="Tracé_2438" data-name="Tracé 2438" d="M264.47,153.282a3.357,3.357,0,0,0,.791.268,3.137,3.137,0,0,0,2.252-.429,3.767,3.767,0,0,0,1.729-3.084,8.942,8.942,0,0,0-1.233-4.746,25.167,25.167,0,0,1-2.44-5.711,8.647,8.647,0,0,1,1.059-7.038,6.448,6.448,0,0,1,3.2-2.319,12.066,12.066,0,0,1,4.022-.536c2.681,0,5.564.5,8.232-.282a6.06,6.06,0,0,0,3.218-2.293,9.479,9.479,0,0,0,1.435-3.7c.509-2.6.295-5.255.737-7.762A11.838,11.838,0,0,1,288.6,112.1a6.556,6.556,0,0,1,2.413-2.6,8.044,8.044,0,0,1,6.167-.684,11.476,11.476,0,0,1,4.518,2.467,22.792,22.792,0,0,1,2.681,2.775c.67.818,1.153,1.488,1.475,1.931a5.147,5.147,0,0,1,.469.711,3.807,3.807,0,0,1-.576-.617c-.4-.483-.925-1.086-1.582-1.837a22.522,22.522,0,0,0-2.681-2.681,11.329,11.329,0,0,0-4.384-2.279,7.561,7.561,0,0,0-5.751.684,7.87,7.87,0,0,0-3.2,5.765c-.4,2.413-.174,5.068-.7,7.8a10.041,10.041,0,0,1-1.528,4.022,6.7,6.7,0,0,1-3.58,2.561c-2.923.845-5.792.308-8.46.308a11.556,11.556,0,0,0-3.821.483,5.845,5.845,0,0,0-2.9,2.065,8.124,8.124,0,0,0-1.019,6.529,24.882,24.882,0,0,0,2.319,5.631,9.385,9.385,0,0,1,1.18,5,4.089,4.089,0,0,1-1.984,3.285,3.191,3.191,0,0,1-2.427.322A1.877,1.877,0,0,1,264.47,153.282Z" transform="translate(-56.494 -75.013)" fill="#455a64"/>
      <path id="Tracé_2439" data-name="Tracé 2439" d="M328.38,121.475a1.517,1.517,0,0,1-.335.282,6.352,6.352,0,0,1-1.113.617,9.385,9.385,0,0,1-4.612.711,10.162,10.162,0,0,1-6.288-2.829,10.054,10.054,0,0,1-2.239-3.486,32.056,32.056,0,0,0-1.7-3.942,8.044,8.044,0,0,0-6.7-3.861,7.521,7.521,0,0,0-5.845,2.561,8.741,8.741,0,0,0-2.024,4.022c-.2,1.059-.161,1.662-.228,1.662s0-.147-.08-.429a6.178,6.178,0,0,1,0-1.341,8.392,8.392,0,0,1,1.917-4.25,7.923,7.923,0,0,1,6.234-2.882,8.58,8.58,0,0,1,7.253,4.156,30.053,30.053,0,0,1,1.729,4.022,9.585,9.585,0,0,0,2.065,3.3,9.961,9.961,0,0,0,6.006,2.856,9.72,9.72,0,0,0,4.451-.483C327.843,121.77,328.339,121.408,328.38,121.475Z" transform="translate(-45.353 -75.073)" fill="#455a64"/>
      <path id="Tracé_2440" data-name="Tracé 2440" d="M273.638,120.84a2.218,2.218,0,0,0,.228-.456,1.8,1.8,0,0,0,0-1.341,1.729,1.729,0,0,0-1.649-1.14,2.346,2.346,0,0,0-2.065,1.676,2.99,2.99,0,0,0,1.18,3.043,4.893,4.893,0,0,0,3.9.711,7.213,7.213,0,0,0,3.928-2.2,11.046,11.046,0,0,0,2.2-4.438,17.146,17.146,0,0,1,2.038-4.8,13.942,13.942,0,0,1,3.352-3.553,13.326,13.326,0,0,1,13.138-1.555,10.5,10.5,0,0,1,1.341.7c.282.174.429.282.416.308s-.657-.308-1.85-.751a13.983,13.983,0,0,0-5.3-.818,12.884,12.884,0,0,0-7.36,2.681,13.3,13.3,0,0,0-3.164,3.405,17.2,17.2,0,0,0-1.957,4.639,11.651,11.651,0,0,1-2.346,4.692,7.87,7.87,0,0,1-4.317,2.36,5.443,5.443,0,0,1-4.371-.885,3.526,3.526,0,0,1-1.341-3.633,2.775,2.775,0,0,1,2.534-1.931,1.944,1.944,0,0,1,1.341.483,2.279,2.279,0,0,1,.617.952,1.89,1.89,0,0,1-.08,1.528C273.813,120.84,273.652,120.907,273.638,120.84Z" transform="translate(-54.763 -75.952)" fill="#263238"/>
      <path id="Tracé_2441" data-name="Tracé 2441" d="M293.71,109.247a26.719,26.719,0,0,1,11.972-3.821,13.286,13.286,0,0,1,11.154,4.92c1.931,2.681,2.681,6.221,5.175,8.3,3.486,2.869,8.647,1.609,13.085,2.413.912.174,1.944.55,2.2,1.435a2.788,2.788,0,0,1-.7,2.212l-4.478,6.7a6.9,6.9,0,0,0,5.993.711,20.432,20.432,0,0,1-7.159,12.066,1.743,1.743,0,0,1,2.252,1.26,4.344,4.344,0,0,1-.456,2.842A21.1,21.1,0,0,1,302.4,157.94" transform="translate(-46.533 -76.064)" fill="#263238"/>
      <path id="Tracé_2442" data-name="Tracé 2442" d="M308.936,108.589a13.085,13.085,0,0,0-15.873-.59c-3.177,2.346-5.054,6.02-7.213,9.385s-5.027,6.6-8.915,7.333c-3.151.6-6.529-.563-9.559.469-3.285,1.113-5.282,4.625-5.644,8.044a27.4,27.4,0,0,0,1.5,10.243,8.956,8.956,0,0,1-6.7,1.77,11.919,11.919,0,0,0,4.6,6.1,15.255,15.255,0,0,1,3.941,2.909,8.272,8.272,0,0,1,1.341,4.612,6.274,6.274,0,0,0,8.044,5.6,30.284,30.284,0,0,0,5.591-2.293s-1.9,2.574,1.046,5.363a7.468,7.468,0,0,0,5.711-3.821" transform="translate(-59.199 -75.996)" fill="#263238"/>
      <path id="Tracé_2443" data-name="Tracé 2443" d="M326.723,135.1a23.931,23.931,0,0,0-19.372-26l-1.22-.241c-13.273-1.7-22.134,8.62-23.475,21.947L273.74,191.84l30.111,5.591,3.405-19.761s12.991.416,15.525-12.187C324,159.369,325.5,146.647,326.723,135.1Z" transform="translate(-53.336 -74.946)" fill="#b78876"/>
      <path id="Tracé_2444" data-name="Tracé 2444" d="M302.792,162.13a31.184,31.184,0,0,1-15.632-7.95s2.185,9.814,14.989,11.047Z" transform="translate(-48.764 -59.447)" fill="#aa6550"/>
      <path id="Tracé_2445" data-name="Tracé 2445" d="M309.2,135.09a1.823,1.823,0,0,1-2.078,1.488,1.756,1.756,0,0,1-1.542-1.971,1.823,1.823,0,0,1,2.078-1.5,1.756,1.756,0,0,1,1.542,1.984Z" transform="translate(-42.493 -66.634)" fill="#263238"/>
      <path id="Tracé_2446" data-name="Tracé 2446" d="M312.181,133.281c-.268.2-1.448-1.073-3.378-1.435s-3.553.349-3.714.067.228-.5.925-.831a5.081,5.081,0,0,1,3.03-.349,4.853,4.853,0,0,1,2.681,1.434C312.195,132.744,312.315,133.2,312.181,133.281Z" transform="translate(-42.669 -67.466)" fill="#263238"/>
      <path id="Tracé_2447" data-name="Tracé 2447" d="M297.072,134.381c-.268.188-1.435-1.073-3.378-1.435s-3.539.335-3.714,0,.228-.509.938-.845a5.014,5.014,0,0,1,3.016-.349,4.893,4.893,0,0,1,2.681,1.435C297.086,133.832,297.206,134.287,297.072,134.381Z" transform="translate(-47.817 -67.119)" fill="#263238"/>
      <path id="Tracé_2448" data-name="Tracé 2448" d="M299.33,146.076a12.8,12.8,0,0,1,3.258,0c.51,0,.992,0,1.14-.282a2.507,2.507,0,0,0,0-1.528c-.241-1.341-.5-2.681-.751-4.022-1.032-5.751-1.676-10.444-1.435-10.484s1.247,4.585,2.266,10.336c.241,1.421.469,2.775.7,4.022a2.882,2.882,0,0,1-.121,2,1.341,1.341,0,0,1-.938.563,3.591,3.591,0,0,1-.871,0A13.556,13.556,0,0,1,299.33,146.076Z" transform="translate(-44.618 -67.766)" fill="#263238"/>
      <path id="Tracé_2449" data-name="Tracé 2449" d="M295.023,142.131c.322,0-.067,2.145,1.448,4.022s3.807,2.024,3.767,2.333-.576.308-1.528.161a5.363,5.363,0,0,1-3.164-1.823,4.639,4.639,0,0,1-1.072-3.311C294.553,142.56,294.889,142.09,295.023,142.131Z" transform="translate(-46.277 -63.553)" fill="#263238"/>
      <path id="Tracé_2450" data-name="Tracé 2450" d="M299.238,126.995c-.228.523-2.185.121-4.5.228s-4.25.59-4.518.094c-.121-.241.241-.724,1.032-1.18a7.4,7.4,0,0,1,3.405-.925,7.655,7.655,0,0,1,3.472.67C298.943,126.271,299.319,126.74,299.238,126.995Z" transform="translate(-47.731 -69.318)" fill="#263238"/>
      <path id="Tracé_2451" data-name="Tracé 2451" d="M313.351,127.731c-.509.362-2.065-.389-4.022-.764s-3.7-.349-4.022-.871c-.134-.255.2-.657,1.005-.938a6.623,6.623,0,0,1,3.405-.147,6.5,6.5,0,0,1,3.057,1.461C313.418,127.1,313.566,127.6,313.351,127.731Z" transform="translate(-42.592 -69.437)" fill="#263238"/>
      <path id="Tracé_2452" data-name="Tracé 2452" d="M282.957,132.671c-.2-.134-8.191-4.2-9.532,4.478s7.642,8.245,7.7,8.044S282.957,132.671,282.957,132.671Z" transform="translate(-53.49 -67.138)" fill="#b78876"/>
      <path id="Tracé_2453" data-name="Tracé 2453" d="M278.986,140.862a3.7,3.7,0,0,1-.442.161,1.5,1.5,0,0,1-1.139-.147,3.821,3.821,0,0,1-1.207-3.633,5.134,5.134,0,0,1,.764-2.091,1.77,1.77,0,0,1,1.341-.992.8.8,0,0,1,.831.55.746.746,0,0,1,0,.456c0,.027.2-.121.188-.483a.939.939,0,0,0-.255-.6,1.126,1.126,0,0,0-.8-.349,2.172,2.172,0,0,0-1.783,1.1,5.067,5.067,0,0,0-.9,2.333,4.022,4.022,0,0,0,1.622,4.1,1.649,1.649,0,0,0,1.421,0C278.933,141.077,279.013,140.889,278.986,140.862Z" transform="translate(-52.737 -66.414)" fill="#aa6550"/>
      <path id="Tracé_2454" data-name="Tracé 2454" d="M294.179,116.283h0a11.087,11.087,0,0,1,7.307,2.373l1.341,1.059,22.094,6.7c5.751-1.81,3.1-7.253-1.408-9.666-5.269-2.829-10.9-7.91-16.758-9.1s-16.6.59-21.88,6.408a20.538,20.538,0,0,0-4.2,6.7,75.745,75.745,0,0,0-2.748,18.769,16.087,16.087,0,0,0,1.931,5.684h0c1.984.362,3.016-1.086,3.07-3.1L284,134.355a11.838,11.838,0,0,0,6.073-12.911h0a4.022,4.022,0,0,1,4.1-5.162Z" transform="translate(-51.909 -75.418)" fill="#263238"/>
      <path id="Tracé_2455" data-name="Tracé 2455" d="M287.14,117.834c.965-2.681,5.765-3.673,8.312-2.373s4.183,3.834,5.912,6.1,3.955,4.531,6.8,4.84,6.154-1.528,8.781-.147A37.844,37.844,0,0,1,320,128.72a6.7,6.7,0,0,0,5.845.429,20.11,20.11,0,0,0,5.188-3.07c-5.6-.871-10.377-4.384-14.854-7.87s-9.09-7.132-14.627-8.352-12.254.831-14.412,6.06" transform="translate(-48.771 -74.663)" fill="#263238"/>
      <path id="Tracé_2456" data-name="Tracé 2456" d="M264.47,153.282a3.357,3.357,0,0,0,.791.268,3.137,3.137,0,0,0,2.252-.429,3.767,3.767,0,0,0,1.729-3.084,8.942,8.942,0,0,0-1.233-4.746,25.167,25.167,0,0,1-2.44-5.711,8.647,8.647,0,0,1,1.059-7.038,6.448,6.448,0,0,1,3.2-2.319,12.066,12.066,0,0,1,4.022-.536c2.681,0,5.564.5,8.232-.282a6.06,6.06,0,0,0,3.218-2.293,9.479,9.479,0,0,0,1.435-3.7c.509-2.6.295-5.255.737-7.762A11.838,11.838,0,0,1,288.6,112.1a6.556,6.556,0,0,1,2.413-2.6,8.044,8.044,0,0,1,6.167-.684,11.476,11.476,0,0,1,4.518,2.467,22.792,22.792,0,0,1,2.681,2.775c.67.818,1.153,1.488,1.475,1.931a5.147,5.147,0,0,1,.469.711,3.807,3.807,0,0,1-.576-.617c-.4-.483-.925-1.086-1.582-1.837a22.522,22.522,0,0,0-2.681-2.681,11.329,11.329,0,0,0-4.384-2.279,7.561,7.561,0,0,0-5.751.684,7.87,7.87,0,0,0-3.2,5.765c-.4,2.413-.174,5.068-.7,7.8a10.041,10.041,0,0,1-1.528,4.022,6.7,6.7,0,0,1-3.58,2.561c-2.923.845-5.792.308-8.46.308a11.556,11.556,0,0,0-3.821.483,5.845,5.845,0,0,0-2.9,2.065,8.124,8.124,0,0,0-1.019,6.529,24.882,24.882,0,0,0,2.319,5.631,9.385,9.385,0,0,1,1.18,5,4.089,4.089,0,0,1-1.984,3.285,3.191,3.191,0,0,1-2.427.322A1.877,1.877,0,0,1,264.47,153.282Z" transform="translate(-56.494 -75.013)" fill="#455a64"/>
      <path id="Tracé_2457" data-name="Tracé 2457" d="M328.38,121.475a1.517,1.517,0,0,1-.335.282,6.352,6.352,0,0,1-1.113.617,9.385,9.385,0,0,1-4.612.711,10.162,10.162,0,0,1-6.288-2.829,10.054,10.054,0,0,1-2.239-3.486,32.056,32.056,0,0,0-1.7-3.942,8.044,8.044,0,0,0-6.7-3.861,7.521,7.521,0,0,0-5.845,2.561,8.741,8.741,0,0,0-2.024,4.022c-.2,1.059-.161,1.662-.228,1.662s0-.147-.08-.429a6.178,6.178,0,0,1,0-1.341,8.392,8.392,0,0,1,1.917-4.25,7.923,7.923,0,0,1,6.234-2.882,8.58,8.58,0,0,1,7.253,4.156,30.053,30.053,0,0,1,1.729,4.022,9.585,9.585,0,0,0,2.065,3.3,9.961,9.961,0,0,0,6.006,2.856,9.72,9.72,0,0,0,4.451-.483C327.843,121.77,328.339,121.408,328.38,121.475Z" transform="translate(-45.353 -75.073)" fill="#455a64"/>
      <path id="Tracé_2458" data-name="Tracé 2458" d="M273.638,120.84a2.218,2.218,0,0,0,.228-.456,1.8,1.8,0,0,0,0-1.341,1.729,1.729,0,0,0-1.649-1.14,2.346,2.346,0,0,0-2.065,1.676,2.99,2.99,0,0,0,1.18,3.043,4.893,4.893,0,0,0,3.9.711,7.213,7.213,0,0,0,3.928-2.2,11.046,11.046,0,0,0,2.2-4.438,17.146,17.146,0,0,1,2.038-4.8,13.942,13.942,0,0,1,3.352-3.553,13.326,13.326,0,0,1,13.138-1.555,10.5,10.5,0,0,1,1.341.7c.282.174.429.282.416.308s-.657-.308-1.85-.751a13.983,13.983,0,0,0-5.3-.818,12.884,12.884,0,0,0-7.36,2.681,13.3,13.3,0,0,0-3.164,3.405,17.2,17.2,0,0,0-1.957,4.639,11.651,11.651,0,0,1-2.346,4.692,7.87,7.87,0,0,1-4.317,2.36,5.443,5.443,0,0,1-4.371-.885,3.526,3.526,0,0,1-1.341-3.633,2.775,2.775,0,0,1,2.534-1.931,1.944,1.944,0,0,1,1.341.483,2.279,2.279,0,0,1,.617.952,1.89,1.89,0,0,1-.08,1.528C273.813,120.84,273.652,120.907,273.638,120.84Z" transform="translate(-54.763 -75.952)" fill="#263238"/>
      <path id="Tracé_2459" data-name="Tracé 2459" d="M302.792,162.13a31.184,31.184,0,0,1-15.632-7.95s2.185,9.814,14.989,11.047Z" transform="translate(-48.764 -59.447)" fill="#aa6550"/>
      <path id="Tracé_2460" data-name="Tracé 2460" d="M202.7,303.592s1.957-14.2-9.84-15.069-14.2,9.385-14.2,9.385l-4.8-1.877s4.8-14.278,20.968-10.564,12.455,20.11,12.455,20.11Z" transform="translate(-87.361 -14.933)" fill="#86c232"/>
      <g id="Groupe_217" data-name="Groupe 217" transform="translate(86.499 269.917)" opacity="0.3">
        <path id="Tracé_2461" data-name="Tracé 2461" d="M202.7,303.592s1.957-14.2-9.84-15.069-14.2,9.385-14.2,9.385l-4.8-1.877s4.8-14.278,20.968-10.564,12.455,20.11,12.455,20.11Z" transform="translate(-173.86 -284.85)"/>
      </g>
      <path id="Tracé_2462" data-name="Tracé 2462" d="M159.72,287.62l-15.94,65.706,87.25,19.386L245.8,307.569Z" transform="translate(-97.608 -13.99)" fill="#86c232"/>
      <path id="Tracé_2463" data-name="Tracé 2463" d="M241.713,307.484a1.339,1.339,0,0,1-.215.241l-.684.63-2.681,2.386c-2.319,2.051-5.644,5.054-9.894,8.594a90.141,90.141,0,0,1-15.994,11.06,46.665,46.665,0,0,1-10.806,4.022,32.283,32.283,0,0,1-12.361.536,28.81,28.81,0,0,1-11.463-4.652,38.221,38.221,0,0,1-8.433-7.856,55.973,55.973,0,0,1-8.982-17.227c-1.756-5.255-2.775-9.626-3.472-12.642-.308-1.475-.563-2.681-.751-3.486l-.174-.912a.9.9,0,0,1,0-.308.817.817,0,0,1,.107.295l.241.9c.215.845.509,2,.885,3.445.778,2.99,1.863,7.333,3.673,12.549a56.656,56.656,0,0,0,9.023,16.986,37.86,37.86,0,0,0,8.312,7.7,28.287,28.287,0,0,0,11.194,4.531,31.479,31.479,0,0,0,12.066-.523,46.612,46.612,0,0,0,10.725-3.928A91.863,91.863,0,0,0,228,318.933c4.29-3.472,7.669-6.422,10.028-8.419l2.681-2.279.724-.576Z" transform="translate(-93.516 -13.905)" fill="#263238"/>
      <path id="Tracé_2464" data-name="Tracé 2464" d="M200,364.617c-.174-.08,5.363-13.8,12.4-30.647s12.857-30.446,13.031-30.379-5.363,13.8-12.388,30.647S200.108,364.684,200,364.617Z" transform="translate(-78.457 -8.55)" fill="#263238"/>
      <path id="Tracé_2465" data-name="Tracé 2465" d="M224.317,302.82a2.345,2.345,0,0,1-.107.67c-.121.5-.268,1.126-.456,1.877-.4,1.636-1.032,4.022-1.837,6.878-1.609,5.792-4.022,13.755-6.7,22.51s-5.121,16.611-6.931,22.443c-.845,2.8-1.542,5.108-2.051,6.824-.228.737-.429,1.341-.576,1.837a2.681,2.681,0,0,1-.255.643,3.783,3.783,0,0,1,.121-.67l.442-1.89c.4-1.636,1.032-4.022,1.85-6.878,1.609-5.792,4.022-13.755,6.7-22.51s5.121-16.611,6.931-22.443c.845-2.8,1.528-5.108,2.051-6.81.228-.751.416-1.341.576-1.85A2.493,2.493,0,0,1,224.317,302.82Z" transform="translate(-76.616 -8.812)" fill="#263238"/>
      <rect id="Rectangle_510" data-name="Rectangle 510" width="2.668" height="4.974" transform="matrix(0.983, 0.182, -0.182, 0.983, 92.399, 317.922)" fill="#263238"/>
      <path id="Tracé_2466" data-name="Tracé 2466" d="M241.689,307.528a3.4,3.4,0,0,1-.9-.134l-2.507-.509-9.224-2.011-30.366-6.9-30.326-7.092-9.17-2.225-2.48-.644a5.7,5.7,0,0,1-.858-.268,3.4,3.4,0,0,1,.885.134l2.52.509,9.21,2.011,30.379,6.9,30.326,7.092,9.17,2.239,2.48.63a7.591,7.591,0,0,1,.858.268Z" transform="translate(-93.493 -13.949)" fill="#263238"/>
      <path id="Tracé_2467" data-name="Tracé 2467" d="M192.7,267.79s-8.969,14.747-9.68,17.214-4.022,6.006-1.341,7.521c0,0-.885,1.877,2.091,3.218,0,0-.684,3.325,3.445,3.794,0,0,2.212,3.285,4.773,2.346,0,0,3.177,2.467,5.135.188a55.362,55.362,0,0,0,4.263-6.06l1.931,2.266a10.1,10.1,0,0,0,1.877-5.725c0-3.231-3.177-7.937-1.515-11.637a17.322,17.322,0,0,1,2-3.807Z" transform="translate(-85.047 -20.745)" fill="#b78876"/>
      <g id="Groupe_218" data-name="Groupe 218" transform="translate(66.912 291.086)" opacity="0.3">
        <path id="Tracé_2468" data-name="Tracé 2468" d="M218.36,321.326a49.6,49.6,0,0,1-18.9,16.423c-5.363,2.8-11.731,4.612-17.522,2.789-5.054-1.582-8.915-5.7-11.959-10.042A61.081,61.081,0,0,1,159.25,300.64s9.907,27.229,27.054,28.972S218.36,321.326,218.36,321.326Z" transform="translate(-159.25 -300.64)"/>
      </g>
      <path id="Tracé_2469" data-name="Tracé 2469" d="M187.16,265.644l4.826,14.157,11.691-18.541-4.585-14.05Z" transform="translate(-82.83 -27.756)" fill="#455a64"/>
      <path id="Tracé_2470" data-name="Tracé 2470" d="M367.13,101.759l4.692-5.939,10.618,12.066-4.572,8.728Z" transform="translate(-21.522 -79.328)" fill="#fafafa"/>
      <path id="Tracé_2471" data-name="Tracé 2471" d="M367.13,101.858a9.747,9.747,0,0,1,.912,1.113l2.333,3.057c1.957,2.6,4.665,6.247,7.776,10.5h-.576l3.5-6.7q.55-1.005,1.046-2.011v.4c-4.129-4.719-7.8-8.956-10.524-12.146h.375l-3.5,4.21a20.348,20.348,0,0,1-1.341,1.569,11.739,11.739,0,0,1,1.126-1.609c.778-1.059,1.917-2.587,3.378-4.478l.174-.228.2.215c2.815,3.11,6.542,7.307,10.725,12.066l.161.188-.121.2c-.335.67-.684,1.341-1.046,2.024l-3.513,6.7-.255.483-.322-.442c-3.137-4.371-5.792-8.151-7.642-10.819l-2.145-3.124a6.341,6.341,0,0,1-.724-1.166Z" transform="translate(-21.522 -79.427)" fill="#263238"/>
      <path id="Tracé_2472" data-name="Tracé 2472" d="M187.132,265.24s-4.022,7.521-4.1,7.588l19.587,10.1,2.225-4.947Z" transform="translate(-84.237 -21.614)" fill="#fafafa"/>
      <path id="Tracé_2473" data-name="Tracé 2473" d="M187.207,265.24a12.646,12.646,0,0,1,1.341.845l3.727,2.561c3.177,2.212,7.709,5.363,12.87,9.049l.228.161-.121.255c-.711,1.6-1.461,3.258-2.212,4.96l-.161.335-.322-.174-1.515-.778c-7.052-3.633-13.407-6.958-18.018-9.385l-.215-.107.174-.308,3.043-5.363a14.754,14.754,0,0,1,1.207-1.984,15.1,15.1,0,0,1-.965,2.1c-.362.7-.764,1.515-1.233,2.427-.241.483-.509.979-.778,1.5l-.442.831-.228.416-.107.228v.107a.764.764,0,0,1-.134.174v-.416c4.665,2.333,11.06,5.591,18.112,9.224l1.515.778-.483.174c.778-1.7,1.515-3.365,2.239-4.96l.121.416c-5.027-3.633-9.385-6.837-12.482-9.17l-3.807-2.882A13.225,13.225,0,0,1,187.207,265.24Z" transform="translate(-84.312 -21.614)" fill="#263238"/>
      <path id="Tracé_2474" data-name="Tracé 2474" d="M270.33,275.7c18.166-.094,38.048,6.7,51.012,19.319,5.2-9.264,3.057-20.3-.107-30.232S312.2,246.149,306.3,237.689a15.7,15.7,0,0,0-5.282-5.443c-4.33-2.212-9.76,0-13.581,3.311-5.765,4.947-9.505,12.066-11.691,19.359s-2.936,14.975-3.673,22.563" transform="translate(-54.498 -33.157)" fill="#455a64"/>
      <path id="Tracé_2475" data-name="Tracé 2475" d="M299.654,191.17s.215-7.146,3.633-7.146a18.769,18.769,0,0,1,5.778.992L392.32,99,406.6,115.852l-39.415,50.5-48.626,49.6s-4.277,7.977-5.068,12.16-2.145,44.108-1.7,51.562,7.253,36.761,7.159,50.663-4.424,9.787-4.424,9.787l-14.533-40.6-6.811-18.085L290.35,277.5,292.7,266.77s9.049-30.634,9.009-36.64,1.341-12.6,1.341-17.294c0-4.491-4.3-13.058-4.3-13.058Z" transform="translate(-47.678 -78.245)" fill="#263238"/>
      <path id="Tracé_2476" data-name="Tracé 2476" d="M277.862,155.85l-1.823,6.06-.992.442-7.226,17.254L266.6,310.991l10.886,2.963s10.283-12.066,13.675-20.686,10.39-34.321,10.39-34.321l9.519-56.871,1.341-14.171a12.508,12.508,0,0,0-4.437-10.819h0l.483-5.591-2.681,1.341Z" transform="translate(-55.768 -58.878)" fill="#fafafa"/>
      <path id="Tracé_2477" data-name="Tracé 2477" d="M273.82,162.035a8.169,8.169,0,0,1,.282-1.662c.268-1.207.6-2.681,1.005-4.478l.08-.335.295.174c3.258,1.9,7.709,4.572,12.616,7.548,6.542,4.022,12.24,7.508,15.257,9.465h-.174a21.191,21.191,0,0,1,2.789-1.18,17.953,17.953,0,0,1-2.681,1.5h-.174c-3.124-1.783-8.889-5.2-15.431-9.184-4.907-2.963-9.318-5.7-12.508-7.709l.362-.147c-.483,1.756-.9,3.231-1.22,4.424a7.027,7.027,0,0,1-.5,1.582Z" transform="translate(-53.309 -58.977)" fill="#263238"/>
      <path id="Tracé_2478" data-name="Tracé 2478" d="M294.327,176.1a13.965,13.965,0,0,1,.389,2.2c.214,1.421.469,3.486.711,6.06a175.441,175.441,0,0,1-.912,40.22c-.362,2.547-.7,4.612-.979,6.02a12.682,12.682,0,0,1-.5,2.185,15.487,15.487,0,0,1,.228-2.225c.2-1.421.456-3.486.751-6.046.6-5.095,1.22-12.173,1.408-20s-.134-14.922-.5-20.11c-.174-2.561-.349-4.639-.483-6.073a13.173,13.173,0,0,1-.121-2.225Z" transform="translate(-46.761 -51.98)" fill="#263238"/>
      <path id="Tracé_2479" data-name="Tracé 2479" d="M294.44,224.367s7.575-23.14,7.575-22.362-4.384,56.562-4.384,56.562l-6.851-18.836Z" transform="translate(-47.531 -43.162)" fill="#263238"/>
      <path id="Tracé_2480" data-name="Tracé 2480" d="M284.76,258.992a6.879,6.879,0,0,1,.469-1.622l1.5-4.3c1.26-3.633,2.963-8.674,4.692-14.291s3.137-10.725,4.129-14.466c.469-1.756.858-3.231,1.18-4.411a7.508,7.508,0,0,1,.509-1.609,8.216,8.216,0,0,1-.241,1.662c-.2,1.073-.536,2.587-.965,4.478-.871,3.754-2.226,8.915-3.942,14.546s-3.513,10.658-4.907,14.265c-.684,1.8-1.274,3.244-1.7,4.236A8.763,8.763,0,0,1,284.76,258.992Z" transform="translate(-49.582 -37.608)" fill="#455a64"/>
      <path id="Tracé_2481" data-name="Tracé 2481" d="M305.193,197.17a4.464,4.464,0,0,1,.228,1.341,25.608,25.608,0,0,1,0,3.66,29.011,29.011,0,0,1-3.2,11.583c-1.85,3.673-3.9,6.811-5.255,9.385a51.625,51.625,0,0,0-2.467,5.255h-.134c.094-.215.147-.335.174-.322s0,.134,0,.375H294.4a26.143,26.143,0,0,1,2.118-5.457c1.341-2.681,3.285-5.832,5.121-9.385a31.465,31.465,0,0,0,3.338-11.315C305.26,199.074,305.072,197.183,305.193,197.17Z" transform="translate(-46.312 -44.802)" fill="#455a64"/>
      <path id="Tracé_2482" data-name="Tracé 2482" d="M297.63,169.43a7.091,7.091,0,0,1,1.435,1.005,38.491,38.491,0,0,1,3.526,3.164A27.511,27.511,0,0,1,307,179.11a10.578,10.578,0,0,1,1.528,4.022,18.274,18.274,0,0,1-.134,4.518,72.4,72.4,0,0,1-3.03,12.039c-1.113,3.378-2.118,5.979-2.762,7.481l-.121-.174a6.933,6.933,0,0,1,1.636.134,8.848,8.848,0,0,1-1.636.121H302.3l.067-.188c.509-1.542,1.421-4.169,2.453-7.561a81.913,81.913,0,0,0,2.882-12.066,17.55,17.55,0,0,0,.147-4.33,10,10,0,0,0-1.341-3.74,30.486,30.486,0,0,0-4.21-5.5c-1.341-1.448-2.534-2.547-3.352-3.3a9.8,9.8,0,0,1-1.314-1.14Z" transform="translate(-45.198 -54.252)" fill="#455a64"/>
      <path id="Tracé_2483" data-name="Tracé 2483" d="M311.889,183.3a15.793,15.793,0,0,1-.295-3.271,36.2,36.2,0,0,0-1.126-7.736,15.739,15.739,0,0,0-3.754-6.7,28.91,28.91,0,0,0-2.494-2.078,2.238,2.238,0,0,1,.845.322,9.385,9.385,0,0,1,1.984,1.341,14.841,14.841,0,0,1,4.089,6.864,29.416,29.416,0,0,1,.952,7.923,14.882,14.882,0,0,1-.2,3.338Z" transform="translate(-42.953 -56.269)" fill="#455a64"/>
      <path id="Tracé_2484" data-name="Tracé 2484" d="M301.3,222.83a9.076,9.076,0,0,1-4.089.885,8.862,8.862,0,0,1-4.156-.389q4.114-.369,8.245-.5Z" transform="translate(-46.758 -36.061)" fill="#455a64"/>
      <path id="Tracé_2485" data-name="Tracé 2485" d="M296.869,231.688a11.208,11.208,0,0,1-2.306-3.325,11.838,11.838,0,0,1-1.7-3.673,11.637,11.637,0,0,1,2.306,3.338,12.4,12.4,0,0,1,1.7,3.66Z" transform="translate(-46.823 -35.427)" fill="#455a64"/>
      <path id="Tracé_2486" data-name="Tracé 2486" d="M254.751,166.15a6.476,6.476,0,0,1,1.26,1.046,22.913,22.913,0,0,1,2.936,3.365,27.564,27.564,0,0,1,2.681,28.154,23.863,23.863,0,0,1-2.266,3.848,6.782,6.782,0,0,1-1.046,1.26c-.121-.08,1.341-1.9,2.856-5.363a28.274,28.274,0,0,0-2.587-27.644C256.427,167.772,254.644,166.244,254.751,166.15Z" transform="translate(-59.806 -55.37)" fill="#455a64"/>
      <path id="Tracé_2487" data-name="Tracé 2487" d="M211.58,301.7c3.258,7,56.2,34.857,56.2,34.857s12.441-9.452,28.382-28.945S321.42,238.5,321.42,238.5s-8.848-38.463-15.069-54.645-12.616-23.394-12.616-23.394L261.3,168.37l-10.162,68.065-.59,21.089s-2.587.657-2.587,1.8v2.494Z" transform="translate(-74.511 -57.308)" fill="#263238"/>
      <path id="Tracé_2488" data-name="Tracé 2488" d="M184.81,297.758s46.816-75.814,51.843-84.461c5.792-9.974,31.036-48.451,34.857-47.1s16.651,10.98,11.5,29.856-11.074,28.878-11.074,28.878l-18.5,19.694-48.371,67.65L186.1,298.669Z" transform="translate(-83.631 -55.365)" fill="#263238"/>
      <path id="Tracé_2489" data-name="Tracé 2489" d="M305.008,223.52a1.823,1.823,0,0,1-.228.563c-.161.375-.416.9-.764,1.582a51.928,51.928,0,0,1-3.2,5.6,24.963,24.963,0,0,1-6.556,7.012,20.754,20.754,0,0,1-11.235,3.311,81.153,81.153,0,0,1-21.129-2.453c-2.681-.657-4.746-1.341-6.18-1.823a14.252,14.252,0,0,1-1.649-.617,2.212,2.212,0,0,1-.563-.255,15.553,15.553,0,0,1,2.293.617c1.461.416,3.566,1.006,6.221,1.6a87.235,87.235,0,0,0,20.981,2.239,20.391,20.391,0,0,0,10.9-3.151,25.379,25.379,0,0,0,6.516-6.7c1.542-2.212,2.614-4.143,3.378-5.456A16.1,16.1,0,0,1,305.008,223.52Z" transform="translate(-60.231 -35.826)" fill="#455a64"/>
      <path id="Tracé_2490" data-name="Tracé 2490" d="M300.832,239.486a3.9,3.9,0,0,1-.684-.55c-.483-.442-1.086-1.005-1.85-1.689-1.6-1.488-3.888-3.66-6.542-6.5a53.2,53.2,0,0,1-14.224-26.6c-1.475-5.751-2.789-11.262-4.022-16.249a117.24,117.24,0,0,1-2.882-13.407,15.471,15.471,0,0,1,1.5-9.063,9.641,9.641,0,0,1,1.488-2.038,4.558,4.558,0,0,1,.469-.456l.188-.134a14.746,14.746,0,0,0-1.9,2.762,15.619,15.619,0,0,0-1.247,8.875,125.342,125.342,0,0,0,3,13.286l4.089,16.235a54.069,54.069,0,0,0,13.9,26.438c2.6,2.882,4.84,5.094,6.368,6.636l1.756,1.783a4.877,4.877,0,0,1,.59.67Z" transform="translate(-54.446 -56.511)" fill="#455a64"/>
      <path id="Tracé_2491" data-name="Tracé 2491" d="M294.306,273.237a7.717,7.717,0,0,1-.7.751l-2.091,2.065-7.8,7.494c-3.325,3.177-7.253,6.918-11.624,11.06a27.59,27.59,0,0,1-3.526,3.1,4.478,4.478,0,0,1-2.44.751,6.7,6.7,0,0,1-2.48-.617c-3.016-1.341-6.14-2.681-9.277-4.2A233.042,233.042,0,0,1,223.4,275.878c-3.781-2.574-6.7-4.786-8.781-6.328l-2.319-1.81a7.5,7.5,0,0,1-.778-.67,5.363,5.363,0,0,1,.858.55l2.4,1.716c2.078,1.475,5.081,3.62,8.889,6.14a254.851,254.851,0,0,0,31,17.536c3.137,1.515,6.247,2.882,9.25,4.2a6.288,6.288,0,0,0,2.226.576,3.942,3.942,0,0,0,2.078-.644,30.385,30.385,0,0,0,3.445-3l11.717-10.94,7.95-7.347,2.185-1.971a4.438,4.438,0,0,1,.791-.643Z" transform="translate(-74.532 -20.99)" fill="#455a64"/>
      <path id="Tracé_2492" data-name="Tracé 2492" d="M291.048,221.008c-.067,0,.349-.536,1.26-.335a1.341,1.341,0,0,1,.979,1.233,1.421,1.421,0,0,1-1.341,1.421,1.649,1.649,0,0,1-1.716-.845,1.341,1.341,0,0,1,.214-1.555,1.032,1.032,0,0,1,1.005-.268c.241.08.322.2.295.241a1.115,1.115,0,0,0-.938.349.871.871,0,0,0,0,.925,1.113,1.113,0,0,0,1.046.469.818.818,0,0,0,.751-.711.912.912,0,0,0-.509-.791C291.557,220.874,291.074,221.129,291.048,221.008Z" transform="translate(-47.772 -36.813)" fill="#455a64"/>
      <path id="Tracé_2493" data-name="Tracé 2493" d="M258.427,255.918a3.512,3.512,0,0,1-.992-.523c-.63-.362-1.488-.952-2.547-1.716a59.506,59.506,0,0,1-7.6-6.7,60.325,60.325,0,0,1-6.382-7.856,23.618,23.618,0,0,1-1.622-2.6,3.552,3.552,0,0,1-.483-1.019,36.724,36.724,0,0,1,2.507,3.338,81.54,81.54,0,0,0,6.475,7.655,80.053,80.053,0,0,0,7.414,6.7,38.876,38.876,0,0,1,3.231,2.721Z" transform="translate(-65.238 -31.745)" fill="#455a64"/>
      <path id="Tracé_2494" data-name="Tracé 2494" d="M265.072,253.011a4.464,4.464,0,0,1-1.126-.55c-.7-.389-1.689-.992-2.9-1.756a108.678,108.678,0,0,1-9.09-6.542,104.569,104.569,0,0,1-8.366-7.441c-1.019-1.019-1.81-1.85-2.346-2.453s-.818-.938-.778-.979a44.151,44.151,0,0,1,3.472,3.07c2.1,1.931,5.054,4.531,8.46,7.266s6.583,5.027,8.915,6.7a35.247,35.247,0,0,1,3.754,2.681Z" transform="translate(-64.671 -32.498)" fill="#455a64"/>
      <path id="Tracé_2495" data-name="Tracé 2495" d="M257.012,205.13a39.165,39.165,0,0,1-2.936,4.022l-7.333,9.385c-2.869,3.647-5.5,6.931-7.454,9.264a24.573,24.573,0,0,1-3.338,3.633,5.767,5.767,0,0,1,.764-1.086l2.185-2.856,7.293-9.385c2.882-3.647,5.523-6.918,7.494-9.237.979-1.166,1.8-2.091,2.373-2.681a5.149,5.149,0,0,1,.952-1.059Z" transform="translate(-66.209 -42.091)" fill="#455a64"/>
      <path id="Tracé_2496" data-name="Tracé 2496" d="M257.109,166.38s17.429,4.665,13.728,25.137-27.054,48.5-27.054,48.5l-2.091-.416-8.862,11.556s7.253,2.681,12.937-.067,20.11-25,27.095-42.687c8.3-21.048,5.644-30.352,2.963-35.232-5.993-10.886-12-8.848-12-8.848Z" transform="translate(-67.272 -56.042)" fill="#455a64"/>
      <path id="Tracé_2497" data-name="Tracé 2497" d="M296.42,168.79l-4.21,5.108,1.743,4.625,3.016,1.046,2.266-5.389Z" transform="translate(-47.044 -54.47)" fill="#86c232"/>
      <path id="Tracé_2498" data-name="Tracé 2498" d="M297.19,176.865c-.215,0-.268-1.6-1.14-3.285s-2.065-2.775-1.917-2.936,1.582.751,2.534,2.681a4.478,4.478,0,0,1,.523,3.539Z" transform="translate(-46.393 -53.845)" fill="#263238"/>
      <path id="Tracé_2499" data-name="Tracé 2499" d="M311.968,182.963s.925,5.121,0,7.173c-3.445,7.736-10.055.684-16.088-5.859s-14.318-23.529-24.132-26.6-20.727-3.539-28.462,3.62l-2.386,8.808,8.822-.295s12.321-10.725,22.939-1.341,23.113,31.023,31.385,31.546,11.221-3.5,11.811-8.5a29.992,29.992,0,0,0-.469-9.465Z" transform="translate(-64.523 -58.977)" fill="#86c232"/>
      <g id="Groupe_219" data-name="Groupe 219" transform="translate(229.373 122.9)" opacity="0.3">
        <path id="Tracé_2500" data-name="Tracé 2500" d="M280.43,175.19a27.39,27.39,0,0,0,11.905,13.1,6.274,6.274,0,0,0,3.378.965,4.572,4.572,0,0,0,3.2-1.971,8.969,8.969,0,0,0,1.341-3.593,26.818,26.818,0,0,0,.4-4.759,3.647,3.647,0,0,0-.349-1.971,1.341,1.341,0,0,0-1.783-.375,17.885,17.885,0,0,1,.147,5.6,6.22,6.22,0,0,1-3.218,4.491s-2.534.952-6.6-2.614a91.308,91.308,0,0,1-8.433-8.875Z" transform="translate(-280.43 -175.19)"/>
      </g>
      <path id="Tracé_2501" data-name="Tracé 2501" d="M297.412,175.194c.161.08-.349,1.1-1.609,1.528a2.494,2.494,0,0,1-1.636,0c-.4-.147-.577-.362-.536-.442a6.389,6.389,0,0,0,1.957-.215C296.594,175.7,297.251,175.073,297.412,175.194Z" transform="translate(-46.562 -52.294)" fill="#263238"/>
      <path id="Tracé_2502" data-name="Tracé 2502" d="M296.681,185.191c-.188,0-.59-.684-.992-1.622s-.657-1.743-.5-1.837.724.576,1.14,1.555S296.855,185.137,296.681,185.191Z" transform="translate(-46.045 -50.064)" fill="#fff"/>
      <path id="Tracé_2503" data-name="Tracé 2503" d="M297.333,178.844c-.147.134-.509,0-.925-.147s-.791-.228-.818-.429.442-.429,1.046-.228S297.481,178.724,297.333,178.844Z" transform="translate(-45.893 -51.346)" fill="#fff"/>
      <path id="Tracé_2504" data-name="Tracé 2504" d="M295.993,172.184c.147.121-.362.992-1.14,1.931s-1.515,1.622-1.676,1.5.362-.992,1.14-1.931S295.832,172.063,295.993,172.184Z" transform="translate(-46.724 -53.319)" fill="#fff"/>
      <path id="Tracé_2505" data-name="Tracé 2505" d="M290.6,189.675c-.188,0-.107-.979.161-2.065s.644-1.931.831-1.89.121.952-.161,2.065S290.784,189.742,290.6,189.675Z" transform="translate(-47.629 -48.703)" fill="#fff"/>
      <path id="Tracé_2506" data-name="Tracé 2506" d="M283.775,187.611c-.147-.121.55-1.233,1.569-2.48s1.971-2.158,2.118-2.038-.55,1.233-1.569,2.48S283.909,187.731,283.775,187.611Z" transform="translate(-49.924 -49.601)" fill="#fff"/>
      <path id="Tracé_2507" data-name="Tracé 2507" d="M284.2,179.924c.134.134-.737,1.113-1.971,2.185s-2.306,1.823-2.427,1.676.764-1.14,1.971-2.2S284.093,179.79,284.2,179.924Z" transform="translate(-51.274 -50.683)" fill="#fff"/>
      <path id="Tracé_2508" data-name="Tracé 2508" d="M281.523,175a11.382,11.382,0,0,1-4.92,5.631c-.134-.161,1.059-1.341,2.4-2.856S281.349,174.92,281.523,175Z" transform="translate(-52.364 -52.356)" fill="#fff"/>
      <path id="Tracé_2509" data-name="Tracé 2509" d="M277.565,170c.134.147-.938,1.341-2.386,2.681a9.653,9.653,0,0,1-2.856,2.145c-.134-.147.938-1.341,2.386-2.681S277.431,169.856,277.565,170Z" transform="translate(-53.822 -54.062)" fill="#fff"/>
      <path id="Tracé_2510" data-name="Tracé 2510" d="M275.093,165.62a20.108,20.108,0,0,1-2.976,2.909,19.909,19.909,0,0,1-3.1,2.8,15.383,15.383,0,0,1,6.073-5.711Z" transform="translate(-54.944 -55.55)" fill="#fff"/>
      <path id="Tracé_2511" data-name="Tracé 2511" d="M271.533,161.33a34.856,34.856,0,0,1-3.1,3.016,43.282,43.282,0,0,1-2.936,3.191,8.379,8.379,0,0,1,2.44-3.673A8.7,8.7,0,0,1,271.533,161.33Z" transform="translate(-56.143 -57.011)" fill="#fff"/>
      <path id="Tracé_2512" data-name="Tracé 2512" d="M265.3,157.32a18.879,18.879,0,0,1-1.716,3.942,18.89,18.89,0,0,1-1.984,3.807,16.986,16.986,0,0,1,3.7-7.749Z" transform="translate(-57.471 -58.378)" fill="#fff"/>
      <path id="Tracé_2513" data-name="Tracé 2513" d="M258.486,155.83c.188.094-.536,1.957-.992,4.344a43.486,43.486,0,0,1-.737,4.4,12.414,12.414,0,0,1,1.729-8.741Z" transform="translate(-59.184 -58.885)" fill="#fff"/>
      <path id="Tracé_2514" data-name="Tracé 2514" d="M252.751,165.9A13.66,13.66,0,0,1,251.115,161a14.062,14.062,0,0,1-.362-5.135,30.663,30.663,0,0,1,1.046,5,31.92,31.92,0,0,1,.952,5.027Z" transform="translate(-61.197 -58.871)" fill="#fff"/>
      <path id="Tracé_2515" data-name="Tracé 2515" d="M249.223,167.749a15.1,15.1,0,0,1-6.033-8.339c.188-.08,1.18,2.011,2.842,4.29S249.357,167.589,249.223,167.749Z" transform="translate(-63.743 -57.666)" fill="#fff"/>
      <path id="Tracé_2516" data-name="Tracé 2516" d="M303.437,173.539a11.144,11.144,0,0,1-.2-2.118h.282a30.193,30.193,0,0,1-4.974,6.154,7.051,7.051,0,0,1-2.239,1.676,2.038,2.038,0,0,1-1.609-.2,8.045,8.045,0,0,1-1.233-.925c-1.528-1.274-3.137-2.681-4.786-4.022-6.7-5.778-12.066-11.1-14.439-13.567h.121a10.567,10.567,0,0,1-2.038.134,9.8,9.8,0,0,1,2-.429h.067c2.52,2.306,8.044,7.494,14.747,13.259l4.759,4.089c.751.657,1.475,1.341,2.225,1.019a6.851,6.851,0,0,0,2.038-1.488,35.729,35.729,0,0,0,5.108-5.885l.282-.389v.469a11.545,11.545,0,0,1-.107,2.225Z" transform="translate(-53.82 -57.383)" fill="#263238"/>
    </g>
  </g>
</svg>
