<svg xmlns="http://www.w3.org/2000/svg" width="40.231" height="40" viewBox="0 0 40.231 40">
  <g id="Groupe_154" data-name="Groupe 154" transform="translate(-367.209 -553.732)">
    <g id="Groupe_153" data-name="Groupe 153" transform="translate(367.209 590.264)">
      <g id="Groupe_152" data-name="Groupe 152" transform="translate(0)">
        <path id="Tracé_1733" data-name="Tracé 1733" d="M367.209,729.507v-3.468h1.276a2.434,2.434,0,0,1,.612.067,1.167,1.167,0,0,1,.412.188.715.715,0,0,1,.232.3,1,1,0,0,1,.073.388.755.755,0,0,1-.034.225.658.658,0,0,1-.1.2.781.781,0,0,1-.183.173,1.181,1.181,0,0,1-.269.135.954.954,0,0,1,.507.27.7.7,0,0,1,.164.48,1,1,0,0,1-.085.412.942.942,0,0,1-.251.332,1.186,1.186,0,0,1-.408.221,1.775,1.775,0,0,1-.555.08Zm.8-2.009h.419a1.381,1.381,0,0,0,.24-.019.5.5,0,0,0,.182-.067.309.309,0,0,0,.114-.131.493.493,0,0,0,.039-.21.59.59,0,0,0-.031-.206.3.3,0,0,0-.1-.132.4.4,0,0,0-.163-.071,1.121,1.121,0,0,0-.234-.021h-.472Zm0,.538v.864h.567a.712.712,0,0,0,.261-.04.416.416,0,0,0,.158-.1.356.356,0,0,0,.079-.145.641.641,0,0,0,.021-.164.547.547,0,0,0-.025-.172.284.284,0,0,0-.085-.128.422.422,0,0,0-.161-.081.934.934,0,0,0-.252-.029Z" transform="translate(-367.209 -726.039)" fill="#273956"/>
        <path id="Tracé_1734" data-name="Tracé 1734" d="M387.237,728.224v1.283h-.8v-3.468h1.128a2.32,2.32,0,0,1,.642.077,1.205,1.205,0,0,1,.433.216.815.815,0,0,1,.244.326,1.141,1.141,0,0,1,.031.728.97.97,0,0,1-.134.277,1.044,1.044,0,0,1-.219.227,1.158,1.158,0,0,1-.3.164.77.77,0,0,1,.151.1.592.592,0,0,1,.123.145l.738,1.207h-.728a.309.309,0,0,1-.29-.152l-.576-1.007a.243.243,0,0,0-.089-.1.3.3,0,0,0-.144-.028Zm0-.555h.324a.827.827,0,0,0,.28-.042.5.5,0,0,0,.189-.116.441.441,0,0,0,.107-.173.656.656,0,0,0,.033-.213.446.446,0,0,0-.149-.357.693.693,0,0,0-.461-.128h-.324Z" transform="translate(-382.356 -726.039)" fill="#273956"/>
        <path id="Tracé_1735" data-name="Tracé 1735" d="M408.041,729.507h-.624a.288.288,0,0,1-.173-.049.252.252,0,0,1-.094-.125l-.2-.6h-1.319l-.2.6a.275.275,0,0,1-.262.174h-.628l1.343-3.468h.823Zm-2.228-1.326h.947l-.319-.95-.072-.213q-.042-.123-.082-.265-.038.145-.078.269c-.027.082-.052.154-.076.214Z" transform="translate(-396.619 -726.039)" fill="#273956"/>
        <path id="Tracé_1736" data-name="Tracé 1736" d="M427.411,726.044a.216.216,0,0,1,.064.018.214.214,0,0,1,.055.037.658.658,0,0,1,.06.064l1.647,2.083c-.006-.067-.011-.131-.014-.194s0-.122,0-.177v-1.835h.709v3.468h-.419a.388.388,0,0,1-.157-.028.335.335,0,0,1-.124-.1l-1.635-2.067c0,.06.009.12.012.177s0,.112,0,.163v1.859H426.9v-3.468h.424A.685.685,0,0,1,427.411,726.044Z" transform="translate(-414.244 -726.039)" fill="#273956"/>
        <path id="Tracé_1737" data-name="Tracé 1737" d="M451.513,727.772a1.819,1.819,0,0,1-.13.694,1.625,1.625,0,0,1-.366.55,1.654,1.654,0,0,1-.568.362,2.011,2.011,0,0,1-.737.13h-1.348v-3.468h1.348a2,2,0,0,1,.737.131,1.684,1.684,0,0,1,.568.362,1.612,1.612,0,0,1,.366.549A1.813,1.813,0,0,1,451.513,727.772Zm-.824,0a1.508,1.508,0,0,0-.067-.464.993.993,0,0,0-.191-.351.832.832,0,0,0-.306-.221,1.038,1.038,0,0,0-.412-.077h-.538v2.231h.538a1.039,1.039,0,0,0,.412-.077.835.835,0,0,0,.306-.221.993.993,0,0,0,.191-.351A1.516,1.516,0,0,0,450.69,727.772Z" transform="translate(-431.159 -726.039)" fill="#273956"/>
        <path id="Tracé_1738" data-name="Tracé 1738" d="M478.858,726.044a.219.219,0,0,1,.064.018.214.214,0,0,1,.055.037.655.655,0,0,1,.059.064l1.647,2.083q-.01-.1-.014-.194c0-.063,0-.122,0-.177v-1.835h.709v3.468h-.419a.39.39,0,0,1-.157-.028.333.333,0,0,1-.124-.1l-1.635-2.067c0,.06.009.12.012.177s0,.112,0,.163v1.859h-.709v-3.468h.424A.685.685,0,0,1,478.858,726.044Z" transform="translate(-454.783 -726.039)" fill="#273956"/>
        <path id="Tracé_1739" data-name="Tracé 1739" d="M502,729.507h-.624a.289.289,0,0,1-.173-.049.253.253,0,0,1-.094-.125l-.2-.6h-1.319l-.2.6a.275.275,0,0,1-.262.174h-.628l1.343-3.468h.823Zm-2.228-1.326h.947l-.319-.95-.072-.213q-.042-.123-.082-.265-.038.145-.078.269c-.027.082-.052.154-.076.214Z" transform="translate(-470.656 -726.039)" fill="#273956"/>
        <path id="Tracé_1740" data-name="Tracé 1740" d="M522.721,728.119c.029.065.057.132.084.2q.04-.1.086-.2c.03-.066.061-.13.093-.192l.89-1.754a.291.291,0,0,1,.049-.07.162.162,0,0,1,.056-.037.19.19,0,0,1,.07-.012h.706v3.466h-.709v-1.995c0-.1,0-.2.014-.314l-.919,1.783a.3.3,0,0,1-.115.126.318.318,0,0,1-.165.043h-.11a.318.318,0,0,1-.165-.043.3.3,0,0,1-.116-.126l-.924-1.785q.009.083.014.165t0,.151v1.995h-.71V726.05h.706a.191.191,0,0,1,.07.012.164.164,0,0,1,.056.037.3.3,0,0,1,.049.07l.893,1.761Q522.677,728.021,522.721,728.119Z" transform="translate(-488.281 -726.048)" fill="#273956"/>
        <path id="Tracé_1741" data-name="Tracé 1741" d="M548.667,726.039v.619h-1.423v.809h1.09v.6h-1.09v.826h1.423v.619h-2.233v-3.468Z" transform="translate(-508.436 -726.039)" fill="#273956"/>
      </g>
    </g>
    <path id="Tracé_1742" data-name="Tracé 1742" d="M419.922,595.381,406.69,618.3l-13.232-22.919h26.464m.657-1.3H392.8a.919.919,0,0,0-.8,1.378l13.89,24.057a.919.919,0,0,0,1.592,0l13.89-24.057a.919.919,0,0,0-.8-1.378Z" transform="translate(-19.441 -31.796)" fill="#273956"/>
    <path id="Tracé_1743" data-name="Tracé 1743" d="M404.2,553.732l-15.481,26.814h30.962Zm-3.767,10.348.876,1.517-4.238,7.341-.876-1.517Zm-2.738,9.94,4.238-7.341,6.976,12.083h-8.477Z" transform="translate(-16.946)" fill="#273956"/>
  </g>
</svg>
