<svg xmlns="http://www.w3.org/2000/svg" width="56.099" height="40" viewBox="0 0 56.099 40">
  <g id="Groupe_144" data-name="Groupe 144" transform="translate(-353.746 -67.564)">
    <rect id="Rectangle_296" data-name="Rectangle 296" width="7.602" height="7.602" rx="3.801" transform="translate(361.448 79.776)" fill="#273956"/>
    <path id="Tracé_1705" data-name="Tracé 1705" d="M445.819,78.563a11.031,11.031,0,0,0-11-11h0a11.031,11.031,0,0,0-11,11h0V94.635s21.995-2.449,22-16.071Z" transform="translate(-52.524)" fill="#273956"/>
    <path id="Tracé_1706" data-name="Tracé 1706" d="M353.746,163.248v0h0A7.675,7.675,0,0,0,361.4,170.9h0a7.675,7.675,0,0,0,7.652-7.652h0V152.068S353.748,153.772,353.746,163.248Zm7.652,2.013a2.011,2.011,0,1,1,2.011-2.011A2.017,2.017,0,0,1,361.4,165.261Z" transform="translate(0 -63.338)" fill="#273956"/>
    <g id="Groupe_143" data-name="Groupe 143" transform="translate(371.429 97.979)">
      <path id="Tracé_1707" data-name="Tracé 1707" d="M425.649,193.8a2.447,2.447,0,0,1-.957-.918,2.681,2.681,0,0,1,0-2.645,2.474,2.474,0,0,1,.961-.918,2.82,2.82,0,0,1,1.369-.332,2.853,2.853,0,0,1,1.122.214,2.288,2.288,0,0,1,.858.622l-.6.565a1.751,1.751,0,0,0-1.337-.586,1.871,1.871,0,0,0-.922.225,1.622,1.622,0,0,0-.636.625,1.916,1.916,0,0,0,0,1.815,1.623,1.623,0,0,0,.636.625,1.874,1.874,0,0,0,.922.225,1.741,1.741,0,0,0,1.337-.593l.6.572a2.288,2.288,0,0,1-.861.622,2.879,2.879,0,0,1-1.126.214A2.817,2.817,0,0,1,425.649,193.8Z" transform="translate(-424.345 -188.991)" fill="#273956"/>
      <path id="Tracé_1708" data-name="Tracé 1708" d="M445.976,193.8a2.458,2.458,0,0,1-.965-.922,2.657,2.657,0,0,1,0-2.638,2.46,2.46,0,0,1,.965-.922,3.03,3.03,0,0,1,2.759,0,2.472,2.472,0,0,1,.965.918,2.672,2.672,0,0,1,0,2.645,2.468,2.468,0,0,1-.965.918,3.028,3.028,0,0,1-2.759,0Zm2.28-.707a1.632,1.632,0,0,0,.629-.629,1.9,1.9,0,0,0,0-1.808,1.631,1.631,0,0,0-.629-.629,1.914,1.914,0,0,0-1.8,0,1.628,1.628,0,0,0-.629.629,1.9,1.9,0,0,0,0,1.808,1.628,1.628,0,0,0,.629.629,1.915,1.915,0,0,0,1.8,0Z" transform="translate(-439.572 -188.991)" fill="#273956"/>
      <path id="Tracé_1709" data-name="Tracé 1709" d="M474.71,194.279l-.007-3.316-1.644,2.744h-.415l-1.644-2.7v3.273h-.886v-5h.765l1.987,3.316,1.951-3.316h.765l.007,5Z" transform="translate(-458.65 -189.205)" fill="#273956"/>
      <path id="Tracé_1710" data-name="Tracé 1710" d="M500.554,189.49a1.648,1.648,0,0,1,.74.615,1.879,1.879,0,0,1,0,1.9,1.638,1.638,0,0,1-.74.618,2.769,2.769,0,0,1-1.133.214h-1.129v1.444h-.929v-5h2.058A2.769,2.769,0,0,1,500.554,189.49Zm-.254,2.3a1.019,1.019,0,0,0,0-1.472,1.428,1.428,0,0,0-.922-.257h-1.086v1.987h1.086A1.428,1.428,0,0,0,500.3,191.792Z" transform="translate(-479.074 -189.205)" fill="#273956"/>
      <path id="Tracé_1711" data-name="Tracé 1711" d="M517.922,193.121h-2.5l-.493,1.158h-.958l2.251-5h.915l2.259,5h-.972Zm-.307-.729-.944-2.187-.936,2.187Z" transform="translate(-491.521 -189.205)" fill="#273956"/>
      <path id="Tracé_1712" data-name="Tracé 1712" d="M542.612,189.276v5h-.764l-2.759-3.388v3.388h-.922v-5h.765l2.759,3.388v-3.388Z" transform="translate(-509.657 -189.205)" fill="#273956"/>
      <path id="Tracé_1713" data-name="Tracé 1713" d="M561.235,192.514v1.765h-.929v-1.751l-1.965-3.252h.993l1.465,2.437,1.479-2.437h.915Z" transform="translate(-524.778 -189.205)" fill="#273956"/>
    </g>
  </g>
</svg>
