<svg xmlns="http://www.w3.org/2000/svg" width="524.815" height="490" viewBox="0 0 524.815 490">
  <g id="Forgot_password-amico" data-name="Forgot password-amico" transform="translate(-14.41 -38.007)">
    <g id="freepik--Floor--inject-3" transform="translate(14.41 225)">
      <ellipse id="freepik--floor--inject-3-2" data-name="freepik--floor--inject-3" cx="262.407" cy="151.503" rx="262.407" ry="151.503" transform="translate(0 0)" fill="#f0f0f0"/>
    </g>
    <g id="freepik--Shadow--inject-3" transform="translate(132.031 386.829)">
      <ellipse id="freepik--shadow--inject-3-2" data-name="freepik--shadow--inject-3" cx="90.488" cy="52.239" rx="90.488" ry="52.239" fill="#e0e0e0"/>
    </g>
    <g id="freepik--Plants--inject-3" transform="translate(39.07 265.743)">
      <g id="freepik--plants--inject-3-2" data-name="freepik--plants--inject-3" transform="translate(428.7 12.986)">
        <path id="Tracé_1149" data-name="Tracé 1149" d="M433.514,349.107,422.9,342.98s-2.6-22.722-.869-40.321c2.428-24.727,18.4-54.489,37.447-47.494s-8.732,32.167-14.914,53.141S433.514,349.107,433.514,349.107Z" transform="translate(-421.438 -254.128)" fill="#86c232"/>
        <path id="Tracé_1150" data-name="Tracé 1150" d="M433.514,349.107,422.9,342.98s-2.6-22.722-.869-40.321c2.428-24.727,18.4-54.489,37.447-47.494s-8.732,32.167-14.914,53.141S433.514,349.107,433.514,349.107Z" transform="translate(-421.438 -254.128)" opacity="0.15"/>
        <path id="Tracé_1151" data-name="Tracé 1151" d="M427.349,345.739h0a.646.646,0,0,0,.613-.668c-1.86-54.945,25.5-82.591,25.763-82.858a.646.646,0,0,0,0-.913.635.635,0,0,0-.9,0c-.29.267-28.035,28.314-26.153,83.816a.646.646,0,0,0,.679.624Z" transform="translate(-420.853 -253.334)" fill="#fff"/>
        <path id="Tracé_1152" data-name="Tracé 1152" d="M439.05,349.633l-7.552-4.355s-1.292-15.594,6.36-34.529c6.683-16.485,23.168-30.174,31.477-27.3s8.1,8.766,4.043,14.948S444.7,319.292,439.05,349.633Z" transform="translate(-420.302 -250.834)" fill="#86c232"/>
        <path id="Tracé_1153" data-name="Tracé 1153" d="M434.756,347.51h0a.657.657,0,0,0,.646-.646c-.156-34.752,32.468-58.231,32.8-58.465a.624.624,0,0,0,.145-.891.646.646,0,0,0-.891-.156c-.334.234-33.493,24.114-33.348,59.512a.646.646,0,0,0,.646.646Z" transform="translate(-419.996 -250.359)" fill="#fff"/>
      </g>
      <g id="freepik--plants--inject-3-3" data-name="freepik--plants--inject-3">
        <path id="Tracé_1154" data-name="Tracé 1154" d="M82.841,336.789l9.8-6.616s4.311-25.618.3-48.218C87.308,250.256,65.4,239.719,57.6,243.06s-9.468,12.776,5.09,30.864C71.324,284.562,82.54,307.273,82.841,336.789Z" transform="translate(-34.824 -242.469)" fill="#86c232"/>
        <g id="Groupe_109" data-name="Groupe 109" transform="translate(16.89)" opacity="0.15">
          <path id="Tracé_1155" data-name="Tracé 1155" d="M82.841,336.789l9.8-6.616s4.311-25.618.3-48.218C87.308,250.256,65.4,239.719,57.6,243.06s-9.468,12.776,5.09,30.864C71.324,284.562,82.54,307.273,82.841,336.789Z" transform="translate(-51.714 -242.469)"/>
        </g>
        <path id="Tracé_1156" data-name="Tracé 1156" d="M85.105,323.636H85a.713.713,0,0,1-.657-.835c3.542-29.84-9.055-62.23-22.767-75.117a.713.713,0,0,1,0-1,.7.7,0,0,1,1,0C76.551,259.8,89.382,292.727,85.8,323a.724.724,0,0,1-.691.635Z" transform="translate(-33.724 -242.014)" fill="#fff"/>
        <path id="Tracé_1157" data-name="Tracé 1157" d="M58.9,351.345c-1.559.936-6.1-2.439-7.362-3.252a14.97,14.97,0,0,1-5.1-5.636,14.079,14.079,0,0,1-1.415-8.421,33.291,33.291,0,0,1,.991-4.455c.39-1.459.78-2.918,1.114-4.388a10.86,10.86,0,0,0,.557-4.455c-.434-2.974-3.119-5.012-5.569-6.761-2.7-1.949-5.569-4.522-5.569-8.109a12.609,12.609,0,0,1,3.063-7.641c1.671-2.228,3.676-4.166,5.179-6.494a8.911,8.911,0,0,0,1.7-5.569A9.267,9.267,0,0,0,45.2,282.7c-1.314-2.317-3.018-4.455-3.943-6.917s-.858-5.625,1.114-7.463c1.57-1.5,3.965-1.749,6.137-1.648a14.067,14.067,0,0,1,5.792,1.9c5.759,3.063,9.145,9.746,15.237,12.074,2.35.891,4.912,1.047,7.351,1.648s4.957,1.793,6.126,4.01c2.306,4.4-1.715,9.947-.067,14.613,1.47,4.143,5.569,5.658,7.886,9.367a8.911,8.911,0,0,1,1.114,5.436,26.008,26.008,0,0,1-2.105,9.234,81.315,81.315,0,0,1-4.9,8.8S59.138,351.2,58.9,351.345Z" transform="translate(-36.55 -239.716)" fill="#86c232"/>
        <path id="Tracé_1158" data-name="Tracé 1158" d="M72.594,341.542h0a.713.713,0,0,1-.7-.724c.624-28.2-13.255-59.033-23.079-67.944a.713.713,0,0,1-.056-1,.7.7,0,0,1,1,0c10.024,9.022,24.181,40.388,23.546,68.98a.7.7,0,0,1-.713.691Z" transform="translate(-35.181 -239.146)" fill="#fff"/>
        <path id="Tracé_1159" data-name="Tracé 1159" d="M67.658,303.992a.412.412,0,0,1-.2,0c-9.111-2.629-20.405-2.9-20.517-2.907a.7.7,0,0,1-.691-.724.679.679,0,0,1,.724-.691c.111,0,11.584.278,20.873,2.952a.713.713,0,0,1,.479.88A.691.691,0,0,1,67.658,303.992Z" transform="translate(-35.446 -235.958)" fill="#fff"/>
      </g>
    </g>
    <g id="freepik--speech-bubble--inject-3" transform="translate(298.81 86.109)">
      <g id="freepik--speach-bubble--inject-3">
        <path id="Tracé_1160" data-name="Tracé 1160" d="M301.838,335.756l-4.221-2.439a5.324,5.324,0,0,1-2.417-4.177V153.689a5.346,5.346,0,0,1,2.406-4.177L414.948,81.769a5.335,5.335,0,0,1,4.823,0l4.221,2.439a5.324,5.324,0,0,1,2.417,4.177V263.836A5.346,5.346,0,0,1,424,268.013L306.661,335.767a5.3,5.3,0,0,1-4.823-.011Z" transform="translate(-266.847 -81.193)" fill="#455a64"/>
        <path id="Tracé_1161" data-name="Tracé 1161" d="M426.338,88c-.167-1.247-1.181-1.7-2.395-1L306.59,154.747a4.99,4.99,0,0,0-1.7,1.793l-9.055-5.224a4.934,4.934,0,0,1,1.7-1.8L414.876,81.769a5.335,5.335,0,0,1,4.823,0l4.221,2.439A5.38,5.38,0,0,1,426.338,88Z" transform="translate(-266.775 -81.193)" fill="#455a64"/>
        <path id="Tracé_1162" data-name="Tracé 1162" d="M306.254,328.79a5.38,5.38,0,0,1-4.455-.189l-4.233-2.45a5.346,5.346,0,0,1-2.406-4.177V146.522a4.934,4.934,0,0,1,.7-2.372l9.055,5.224a4.867,4.867,0,0,0-.713,2.384V327.208C304.249,328.589,305.118,329.224,306.254,328.79Z" transform="translate(-266.852 -74.026)" fill="#263238"/>
        <path id="Tracé_1163" data-name="Tracé 1163" d="M303.32,158.387V333.815c0,1.537,1.114,2.161,2.417,1.392l117.342-67.754a5.346,5.346,0,0,0,2.406-4.177V87.826c0-1.537-1.114-2.161-2.406-1.392L305.737,154.188A5.324,5.324,0,0,0,303.32,158.387Z" transform="translate(-265.923 -80.634)" fill="#37474f"/>
        <path id="Tracé_1164" data-name="Tracé 1164" d="M279.742,214.916c-1.515-.9-8.543-4.9-8.911-5.112a2.228,2.228,0,0,1-.479-3.442L298.1,176.6l9.044,5.19-27.734,29.784a2.228,2.228,0,0,0,.334,3.341Z" transform="translate(-269.745 -70.333)" fill="#455a64"/>
        <path id="Tracé_1165" data-name="Tracé 1165" d="M306.216,181.29l-27.734,29.75a2.228,2.228,0,0,0,1.816,3.742l25.919-2.139Z" transform="translate(-268.819 -69.799)" fill="#37474f"/>
        <path id="Tracé_1166" data-name="Tracé 1166" d="M360.69,133.546c13.678-7.9,24.76-1.493,24.76,14.3s-11.083,34.985-24.76,42.882-24.76,1.493-24.76-14.29S347.013,141.443,360.69,133.546Z" transform="translate(-262.211 -75.618)" fill="#86c232"/>
        <path id="Tracé_1167" data-name="Tracé 1167" d="M358.822,144.472c4.455-2.562,8.031-.49,8.031,4.634a17.743,17.743,0,0,1-8.031,13.9c-4.455,2.562-8.042.49-8.042-4.634A17.743,17.743,0,0,1,358.822,144.472Z" transform="translate(-260.52 -74.115)" fill="#fff"/>
        <path id="Tracé_1168" data-name="Tracé 1168" d="M375.383,169.843c0-8.409-5.914-11.829-13.2-7.619l-4.556,2.629c-7.284,4.21-13.2,14.48-13.2,22.867v2.306a13.844,13.844,0,0,0,4.255.657,22.433,22.433,0,0,0,11.038-3.342,48.8,48.8,0,0,0,15.661-15.482Z" transform="translate(-261.243 -72.174)" fill="#fff"/>
        <path id="Tracé_1169" data-name="Tracé 1169" d="M344.327,256.615,375.692,238.5c1.337-.769,2.417-.145,2.417,1.392V250a5.324,5.324,0,0,1-2.417,4.177l-31.365,18.111c-1.337.769-2.417.145-2.417-1.392v-10.1a5.324,5.324,0,0,1,2.417-4.177Z" transform="translate(-261.53 -63.323)" fill="#86c232"/>
        <path id="Tracé_1170" data-name="Tracé 1170" d="M330.588,238.174l62.052-35.843c1.593-.924,2.9-.178,2.9,1.671v3.754a6.394,6.394,0,0,1-2.9,5.012L330.555,248.61c-1.593.924-2.885.178-2.885-1.671v-3.72A6.382,6.382,0,0,1,330.588,238.174Z" transform="translate(-263.151 -67.449)" fill="#fafafa"/>
        <path id="Tracé_1171" data-name="Tracé 1171" d="M337.125,211.224c.847-.49,1.5-.568,1.971-.223s.7,1.114.7,2.294a6.594,6.594,0,0,1-.7,3.108,4.923,4.923,0,0,1-1.971,2.072l-1.671.969v3.6a.847.847,0,0,1-.089.356.512.512,0,0,1-.2.245l-.847.49a.167.167,0,0,1-.2,0,.367.367,0,0,1-.078-.267V213.452a.825.825,0,0,1,.078-.356.568.568,0,0,1,.2-.245Zm-1.671,6.2,1.615-.936a2.7,2.7,0,0,0,.958-.913,2.762,2.762,0,0,0,.356-1.47c0-.6-.122-.947-.356-1.047a1.114,1.114,0,0,0-.958.212l-1.615.936Z" transform="translate(-262.426 -66.441)" fill="#fafafa"/>
        <path id="Tracé_1172" data-name="Tracé 1172" d="M343.826,207.375c.111-.067.2-.067.256,0a.869.869,0,0,1,.145.334l2.573,8.71v.1a.8.8,0,0,1-.089.356.512.512,0,0,1-.2.245l-.757.434c-.134.078-.234.089-.29,0a.445.445,0,0,1-.111-.2l-.457-1.526-3.341,1.916-.446,2.049a2.039,2.039,0,0,1-.123.323.6.6,0,0,1-.29.312l-.757.434a.156.156,0,0,1-.2,0,.356.356,0,0,1-.078-.256.412.412,0,0,1,0-.123l2.562-11.673a2.526,2.526,0,0,1,.145-.5.624.624,0,0,1,.256-.278Zm.579,6.75-1.114-3.932-1.114,5.257Z" transform="translate(-261.787 -66.835)" fill="#fafafa"/>
        <path id="Tracé_1173" data-name="Tracé 1173" d="M349.869,203.7a2.728,2.728,0,0,1,1.236-.412,1.492,1.492,0,0,1,.891.2,1.437,1.437,0,0,1,.546.657,2.35,2.35,0,0,1,.2.869.668.668,0,0,1-.078.356.512.512,0,0,1-.2.245l-.735.423c-.122.067-.212.078-.267,0a.523.523,0,0,1-.167-.178.813.813,0,0,0-.468-.434,1.292,1.292,0,0,0-.958.245,4.147,4.147,0,0,0-.512.39,2.718,2.718,0,0,0-.434.512,2.817,2.817,0,0,0-.29.579,1.892,1.892,0,0,0-.1.6,1.114,1.114,0,0,0,.1.546.423.423,0,0,0,.334.212,1.826,1.826,0,0,0,.624,0l.969-.212a3.342,3.342,0,0,1,1.114-.134,1.247,1.247,0,0,1,.746.245,1.326,1.326,0,0,1,.423.657,3.432,3.432,0,0,1,.145,1.114,5.269,5.269,0,0,1-.212,1.47,5.957,5.957,0,0,1-.59,1.4,6.771,6.771,0,0,1-.958,1.247,5.737,5.737,0,0,1-1.27.991,3.432,3.432,0,0,1-1.114.434,1.794,1.794,0,0,1-.958-.078,1.448,1.448,0,0,1-.657-.613,2.494,2.494,0,0,1-.29-1.114.869.869,0,0,1,.078-.368.624.624,0,0,1,.212-.234l.735-.423c.111-.067.2-.089.267-.056a.343.343,0,0,1,.156.189,1.5,1.5,0,0,0,.178.323.59.59,0,0,0,.278.212.991.991,0,0,0,.445,0,2.227,2.227,0,0,0,.668-.278,4.311,4.311,0,0,0,.613-.423,2.985,2.985,0,0,0,.869-1.114,1.871,1.871,0,0,0,.134-.7.646.646,0,0,0-.145-.49.557.557,0,0,0-.446-.134,3.118,3.118,0,0,0-.746.122c-.29.067-.624.145-1.014.212a2.673,2.673,0,0,1-.913.067,1.047,1.047,0,0,1-.646-.278,1.426,1.426,0,0,1-.39-.691,4.791,4.791,0,0,1-.122-1.181,5.012,5.012,0,0,1,.212-1.448,5.838,5.838,0,0,1,.579-1.381,6.167,6.167,0,0,1,.869-1.192A5.045,5.045,0,0,1,349.869,203.7Z" transform="translate(-260.958 -67.295)" fill="#fafafa"/>
        <path id="Tracé_1174" data-name="Tracé 1174" d="M356.439,199.924a2.64,2.64,0,0,1,1.236-.423,1.515,1.515,0,0,1,.891.2,1.492,1.492,0,0,1,.535.657,2.35,2.35,0,0,1,.2.869.579.579,0,0,1-.078.356.513.513,0,0,1-.2.245l-.735.423c-.111.067-.2.089-.267,0a.39.39,0,0,1-.156-.189.891.891,0,0,0-.479-.423,1.259,1.259,0,0,0-.947.245,3.554,3.554,0,0,0-.523.39,2.661,2.661,0,0,0-.423.512,2.349,2.349,0,0,0-.29.579,1.9,1.9,0,0,0-.111.6,1.114,1.114,0,0,0,.1.546.423.423,0,0,0,.334.212,1.816,1.816,0,0,0,.624,0l.969-.212a3.7,3.7,0,0,1,1.114-.134,1.225,1.225,0,0,1,.746.245,1.426,1.426,0,0,1,.434.657,3.876,3.876,0,0,1,.134,1.114,5.269,5.269,0,0,1-.212,1.47,5.958,5.958,0,0,1-.59,1.4,6.682,6.682,0,0,1-.958,1.259,6.269,6.269,0,0,1-1.259.98,3.475,3.475,0,0,1-1.114.434,1.771,1.771,0,0,1-.947-.078,1.414,1.414,0,0,1-.668-.613,2.361,2.361,0,0,1-.279-1.114.579.579,0,0,1,.078-.356.512.512,0,0,1,.2-.245l.735-.423c.111-.067.212-.089.267-.056a.278.278,0,0,1,.156.189,2.226,2.226,0,0,0,.178.323.612.612,0,0,0,.29.212.991.991,0,0,0,.445,0,2.229,2.229,0,0,0,.668-.278,4.962,4.962,0,0,0,.6-.423,2.582,2.582,0,0,0,.512-.535,2.907,2.907,0,0,0,.356-.624,1.871,1.871,0,0,0,.134-.7.646.646,0,0,0-.145-.49.557.557,0,0,0-.446-.134,3.586,3.586,0,0,0-.735.123c-.29.067-.635.145-1.014.212a2.74,2.74,0,0,1-.924.067,1.013,1.013,0,0,1-.646-.278,1.415,1.415,0,0,1-.379-.691,4.221,4.221,0,0,1-.134-1.17,5.434,5.434,0,0,1,.212-1.459,6.336,6.336,0,0,1,.579-1.381,5.781,5.781,0,0,1,.88-1.192,4.455,4.455,0,0,1,1.047-.9Z" transform="translate(-260.209 -67.726)" fill="#fafafa"/>
        <path id="Tracé_1175" data-name="Tracé 1175" d="M363.82,201.948l-.9,5.335a2.151,2.151,0,0,1-.134.468.568.568,0,0,1-.234.29l-.846.49c-.111.067-.189.067-.245,0a.546.546,0,0,1-.122-.323L360,198.8v-.123a.846.846,0,0,1,.089-.356.568.568,0,0,1,.2-.245l.769-.446a.268.268,0,0,1,.2,0q.1,0,.134.267l.88,6.338.769-4.756a1.561,1.561,0,0,1,.1-.345.59.59,0,0,1,.267-.334l.858-.5c.122-.067.212-.056.267,0a.668.668,0,0,1,.1.234l.78,3.865.88-7.351a1,1,0,0,1,.123-.412.735.735,0,0,1,.2-.212l.769-.446a.167.167,0,0,1,.2,0,.368.368,0,0,1,.089.267.689.689,0,0,1,0,.134l-1.337,10.949a2.059,2.059,0,0,1-.122.468.646.646,0,0,1-.245.29l-.858.49q-.15.084-.234,0a1.569,1.569,0,0,1-.134-.323Z" transform="translate(-259.471 -68.359)" fill="#fafafa"/>
        <path id="Tracé_1176" data-name="Tracé 1176" d="M368.11,197.563a11.492,11.492,0,0,1,.223-1.838,7.977,7.977,0,0,1,.579-1.715,6.682,6.682,0,0,1,.936-1.481,5.034,5.034,0,0,1,1.348-1.114,2.528,2.528,0,0,1,1.325-.434,1.381,1.381,0,0,1,.947.39,2.584,2.584,0,0,1,.568,1.058,6.315,6.315,0,0,1,.234,1.57v2.9a11.216,11.216,0,0,1-.223,1.827,8.614,8.614,0,0,1-.568,1.715,7.119,7.119,0,0,1-.947,1.481,5.267,5.267,0,0,1-1.337,1.114,2.651,2.651,0,0,1-1.348.434,1.281,1.281,0,0,1-.936-.379,2.35,2.35,0,0,1-.579-1.114,7.11,7.11,0,0,1-.223-1.571q0-.3,0-.668V198.2C368.11,197.941,368.1,197.763,368.11,197.563Zm4.745-2.662a2.027,2.027,0,0,0-.49-1.515.993.993,0,0,0-1.17,0,2.918,2.918,0,0,0-1.181,1.314,4.868,4.868,0,0,0-.49,2.083V199.5a2.027,2.027,0,0,0,.49,1.515c.29.245.691.223,1.181-.056a2.985,2.985,0,0,0,1.17-1.3,4.811,4.811,0,0,0,.49-2.072c0-.423,0-.88,0-1.381S372.867,195.3,372.855,194.9Z" transform="translate(-258.548 -68.696)" fill="#fafafa"/>
        <path id="Tracé_1177" data-name="Tracé 1177" d="M378.307,187.425c.88-.5,1.537-.579,1.994-.212a2.729,2.729,0,0,1,.679,2.228,6.827,6.827,0,0,1-.345,2.228A5.569,5.569,0,0,1,379.6,193.5l1.448,3.152a.875.875,0,0,1,0,.156.647.647,0,0,1-.067.29.434.434,0,0,1-.156.2l-.891.512c-.145.078-.245.089-.312,0a.757.757,0,0,1-.145-.2l-1.37-2.974-1.392.8V199.2a.825.825,0,0,1-.078.356.658.658,0,0,1-.2.245l-.846.49a.156.156,0,0,1-.2,0,.334.334,0,0,1-.089-.256V189.619a.846.846,0,0,1,.089-.356.513.513,0,0,1,.2-.245Zm-1.57,5.992,1.57-.847a2.807,2.807,0,0,0,.958-.88,2.518,2.518,0,0,0,.356-1.426c0-.6-.122-.936-.356-1a1.314,1.314,0,0,0-.958.245l-1.515.869Z" transform="translate(-257.729 -69.15)" fill="#fafafa"/>
        <path id="Tracé_1178" data-name="Tracé 1178" d="M384.994,183.578a2.951,2.951,0,0,1,1.348-.468,1.337,1.337,0,0,1,.947.345,2.339,2.339,0,0,1,.59,1.114,7.084,7.084,0,0,1,.245,1.693v2.395a11.14,11.14,0,0,1-.245,1.971,8.266,8.266,0,0,1-.579,1.749,6.572,6.572,0,0,1-.936,1.426,5.124,5.124,0,0,1-1.314,1.114l-2.64,1.437a.156.156,0,0,1-.2,0,.323.323,0,0,1-.089-.256V185.683a.845.845,0,0,1,.089-.356.513.513,0,0,1,.2-.245Zm1.715,3.464a3.409,3.409,0,0,0-.134-.891,1.214,1.214,0,0,0-.323-.579.724.724,0,0,0-.535-.212,1.581,1.581,0,0,0-.78.267l-1.4.8v7.262l1.459-.835a2.9,2.9,0,0,0,.746-.624,3.82,3.82,0,0,0,.523-.8,4.589,4.589,0,0,0,.312-.958,5.562,5.562,0,0,0,.134-1.047c.033-.813.033-1.6,0-2.384Z" transform="translate(-256.953 -69.592)" fill="#fafafa"/>
      </g>
    </g>
    <g id="freepik--question-marks--inject-3" transform="translate(255.108 38.007)">
      <g id="freepik--question-marks--inject-3-2" data-name="freepik--question-marks--inject-3">
        <path id="Tracé_1179" data-name="Tracé 1179" d="M249.3,38.434a20.9,20.9,0,0,1,5.5,2.072,15.805,15.805,0,0,1,4.377,3.475,12.542,12.542,0,0,1,2.584,4.678,11.138,11.138,0,0,1,.111,5.669,11.539,11.539,0,0,1-1.726,4.143,14.09,14.09,0,0,1-2.718,2.851,21.664,21.664,0,0,1-3.241,2.083l-3.208,1.7a17.555,17.555,0,0,0-2.74,1.771,5.257,5.257,0,0,0-1.715,2.306,2.451,2.451,0,0,1-.813,1.047,1.426,1.426,0,0,1-1.225.256l-4.723-1.047a1.749,1.749,0,0,1-1.114-.769,1.437,1.437,0,0,1-.212-1.281,11.272,11.272,0,0,1,1.971-4.032,15.726,15.726,0,0,1,2.9-2.818A23.287,23.287,0,0,1,246.65,58.5c1.114-.568,2.228-1.114,3.2-1.66a14.479,14.479,0,0,0,2.528-1.726,4.021,4.021,0,0,0,1.348-2.228,4.812,4.812,0,0,0-1.114-4.322,8.632,8.632,0,0,0-4.945-2.684q-5.28-1.17-8.911,3.553a3.418,3.418,0,0,1-.869.88,1.637,1.637,0,0,1-1.236.089l-5.023-1.114a1.381,1.381,0,0,1-.88-.579,1.359,1.359,0,0,1-.189-1.114,9.958,9.958,0,0,1,2.317-4.143,15.515,15.515,0,0,1,4.333-3.341,18.723,18.723,0,0,1,5.692-1.894A16.6,16.6,0,0,1,249.3,38.434Zm-5.335,35.843a1.738,1.738,0,0,1,1.3,2.049l-1.2,5.458a1.649,1.649,0,0,1-.757,1.114,1.626,1.626,0,0,1-1.292.245l-5.391-1.236a1.615,1.615,0,0,1-1.114-.757,1.66,1.66,0,0,1-.234-1.292l1.214-5.458a1.749,1.749,0,0,1,2.049-1.314Z" transform="translate(-230.509 -38.007)" fill="#86c232"/>
        <path id="Tracé_1180" data-name="Tracé 1180" d="M253.721,85.319a14.547,14.547,0,0,1,4.054-.078,11.139,11.139,0,0,1,3.7,1.114,8.911,8.911,0,0,1,2.851,2.339,8.432,8.432,0,0,1,1.47,6.683,9.323,9.323,0,0,1-1.014,2.528,14.07,14.07,0,0,1-1.537,2.161c-.568.668-1.114,1.3-1.615,1.916a12.094,12.094,0,0,0-1.3,1.838,3.442,3.442,0,0,0-.512,1.9,1.883,1.883,0,0,1-.256.891,1.047,1.047,0,0,1-.724.468l-3.341.535a1.192,1.192,0,0,1-.9-.2.98.98,0,0,1-.457-.769,7.585,7.585,0,0,1,.223-3.1,10.927,10.927,0,0,1,1.114-2.54,14.777,14.777,0,0,1,1.6-2.15c.59-.668,1.114-1.292,1.626-1.894a9.482,9.482,0,0,0,1.181-1.749,2.8,2.8,0,0,0,.3-1.76,3.342,3.342,0,0,0-1.838-2.484,6,6,0,0,0-3.854-.468,5.77,5.77,0,0,0-4.823,4.578,2.517,2.517,0,0,1-.334.791,1.181,1.181,0,0,1-.757.368l-3.52.568a.958.958,0,0,1-.713-.145.913.913,0,0,1-.39-.646,6.682,6.682,0,0,1,.5-3.241,10.681,10.681,0,0,1,1.916-3.252,13.1,13.1,0,0,1,3.163-2.673,11.606,11.606,0,0,1,4.188-1.537Zm5.747,24.337a1.181,1.181,0,0,1,.88.212,1.114,1.114,0,0,1,.49.769l.624,3.82a1.192,1.192,0,0,1-.98,1.359l-3.731.613a1.192,1.192,0,0,1-.88-.212,1.114,1.114,0,0,1-.479-.769l-.624-3.82a1.194,1.194,0,0,1,.98-1.359Z" transform="translate(-228.982 -32.642)" fill="#86c232"/>
        <g id="Groupe_110" data-name="Groupe 110" transform="translate(14.941 52.493)" opacity="0.2">
          <path id="Tracé_1181" data-name="Tracé 1181" d="M253.721,85.319a14.547,14.547,0,0,1,4.054-.078,11.139,11.139,0,0,1,3.7,1.114,8.911,8.911,0,0,1,2.851,2.339,8.432,8.432,0,0,1,1.47,6.683,9.323,9.323,0,0,1-1.014,2.528,14.07,14.07,0,0,1-1.537,2.161c-.568.668-1.114,1.3-1.615,1.916a12.094,12.094,0,0,0-1.3,1.838,3.442,3.442,0,0,0-.512,1.9,1.883,1.883,0,0,1-.256.891,1.047,1.047,0,0,1-.724.468l-3.341.535a1.192,1.192,0,0,1-.9-.2.98.98,0,0,1-.457-.769,7.585,7.585,0,0,1,.223-3.1,10.927,10.927,0,0,1,1.114-2.54,14.777,14.777,0,0,1,1.6-2.15c.59-.668,1.114-1.292,1.626-1.894a9.482,9.482,0,0,0,1.181-1.749,2.8,2.8,0,0,0,.3-1.76,3.342,3.342,0,0,0-1.838-2.484,6,6,0,0,0-3.854-.468,5.77,5.77,0,0,0-4.823,4.578,2.517,2.517,0,0,1-.334.791,1.181,1.181,0,0,1-.757.368l-3.52.568a.958.958,0,0,1-.713-.145.913.913,0,0,1-.39-.646,6.682,6.682,0,0,1,.5-3.241,10.681,10.681,0,0,1,1.916-3.252,13.1,13.1,0,0,1,3.163-2.673,11.606,11.606,0,0,1,4.188-1.537Zm5.747,24.337a1.181,1.181,0,0,1,.88.212,1.114,1.114,0,0,1,.49.769l.624,3.82a1.192,1.192,0,0,1-.98,1.359l-3.731.613a1.192,1.192,0,0,1-.88-.212,1.114,1.114,0,0,1-.479-.769l-.624-3.82a1.194,1.194,0,0,1,.98-1.359Z" transform="translate(-243.923 -85.135)"/>
        </g>
        <path id="Tracé_1182" data-name="Tracé 1182" d="M281.87,93.546a1.359,1.359,0,0,1,.568.913,1.337,1.337,0,0,1-.234,1.047l-2.651,3.731a1.359,1.359,0,0,1-.913.568,1.337,1.337,0,0,1-1.047-.234l-3.653-2.6a1.3,1.3,0,0,1-.557-.913,1.336,1.336,0,0,1,.234-1.047l2.684-3.731a1.415,1.415,0,0,1,1.96-.334Zm15.415-25.273a16.44,16.44,0,0,1,3.52,3.341,12.866,12.866,0,0,1,2.228,4.01,10.258,10.258,0,0,1,.457,4.344,9.078,9.078,0,0,1-1.715,4.311,9.189,9.189,0,0,1-2.629,2.562,10.971,10.971,0,0,1-2.952,1.292,18.582,18.582,0,0,1-3.1.535l-2.963.267a14.48,14.48,0,0,0-2.629.457,4.3,4.3,0,0,0-2.094,1.158,1.971,1.971,0,0,1-.947.535,1.114,1.114,0,0,1-1-.2l-3.23-2.294a1.47,1.47,0,0,1-.59-.924,1.18,1.18,0,0,1,.256-1.036,9.256,9.256,0,0,1,2.773-2.406,12.72,12.72,0,0,1,3.074-1.192,18.3,18.3,0,0,1,3.152-.479q1.57-.1,2.941-.234a11.6,11.6,0,0,0,2.462-.49,3.341,3.341,0,0,0,1.715-1.3,3.954,3.954,0,0,0,.523-3.62,7.073,7.073,0,0,0-2.863-3.6q-3.609-2.573-7.875-.167a2.784,2.784,0,0,1-.936.379,1.314,1.314,0,0,1-.958-.323l-3.431-2.439a1.1,1.1,0,0,1-.267-1.593,8.031,8.031,0,0,1,3.063-2.395,12.954,12.954,0,0,1,4.322-1.114,15.17,15.17,0,0,1,4.9.39A13.366,13.366,0,0,1,297.285,68.273Z" transform="translate(-225.631 -34.865)" fill="#86c232"/>
        <g id="Groupe_111" data-name="Groupe 111" transform="translate(47.726 30.737)" opacity="0.6">
          <path id="Tracé_1183" data-name="Tracé 1183" d="M281.87,93.546a1.359,1.359,0,0,1,.568.913,1.337,1.337,0,0,1-.234,1.047l-2.651,3.731a1.359,1.359,0,0,1-.913.568,1.337,1.337,0,0,1-1.047-.234l-3.653-2.6a1.3,1.3,0,0,1-.557-.913,1.336,1.336,0,0,1,.234-1.047l2.684-3.731a1.415,1.415,0,0,1,1.96-.334Zm15.415-25.273a16.44,16.44,0,0,1,3.52,3.341,12.866,12.866,0,0,1,2.228,4.01,10.258,10.258,0,0,1,.457,4.344,9.078,9.078,0,0,1-1.715,4.311,9.189,9.189,0,0,1-2.629,2.562,10.971,10.971,0,0,1-2.952,1.292,18.582,18.582,0,0,1-3.1.535l-2.963.267a14.48,14.48,0,0,0-2.629.457,4.3,4.3,0,0,0-2.094,1.158,1.971,1.971,0,0,1-.947.535,1.114,1.114,0,0,1-1-.2l-3.23-2.294a1.47,1.47,0,0,1-.59-.924,1.18,1.18,0,0,1,.256-1.036,9.256,9.256,0,0,1,2.773-2.406,12.72,12.72,0,0,1,3.074-1.192,18.3,18.3,0,0,1,3.152-.479q1.57-.1,2.941-.234a11.6,11.6,0,0,0,2.462-.49,3.341,3.341,0,0,0,1.715-1.3,3.954,3.954,0,0,0,.523-3.62,7.073,7.073,0,0,0-2.863-3.6q-3.609-2.573-7.875-.167a2.784,2.784,0,0,1-.936.379,1.314,1.314,0,0,1-.958-.323l-3.431-2.439a1.1,1.1,0,0,1-.267-1.593,8.031,8.031,0,0,1,3.063-2.395,12.954,12.954,0,0,1,4.322-1.114,15.17,15.17,0,0,1,4.9.39A13.366,13.366,0,0,1,297.285,68.273Z" transform="translate(-273.358 -65.603)" fill="#fff"/>
        </g>
      </g>
    </g>
    <g id="freepik--Character--inject-3" transform="translate(140.676 65.406)">
      <g id="freepik--character--inject-3-2" data-name="freepik--character--inject-3">
        <path id="Tracé_1184" data-name="Tracé 1184" d="M210.574,192.217H171V96.339a31.4,31.4,0,0,1,31.4-31.4h3.653a31.4,31.4,0,0,1,31.4,31.4V165.4A26.877,26.877,0,0,1,210.574,192.217Z" transform="translate(-122.852 -62.34)" fill="#263238"/>
        <path id="Tracé_1185" data-name="Tracé 1185" d="M167.826,386.44a73.669,73.669,0,0,0-1.114,12.029c-.145,7.307-1.481,9.9-1.66,15.894-.212,6.85.98,9.412,3.754,13.266s10.024,7.34,13.165.835,2.684-10.771,1.693-17.487c-1.014-6.95-1.114-10.793-1.738-16.084-.512-4.667-1.114-8.22-1.114-8.22Z" transform="translate(-123.531 -25.744)" fill="#263238"/>
        <path id="Tracé_1186" data-name="Tracé 1186" d="M188.619,342.914l-24.059-.434c.356,16.061,2.907,33.894,3.341,49.009.089,2.84-.067,22.043,1,27.846,1.615,8.777,12.018,7.585,12.575,2.339s-.668-27.668-.635-29.984c-.1-9.668,4.455-25.986,6.806-43.339C187.75,347.515,188.507,343.75,188.619,342.914Z" transform="translate(-123.585 -30.748)" fill="#ffa8a7"/>
        <path id="Tracé_1187" data-name="Tracé 1187" d="M214.239,375.233s-.947-.512-1.114.5c-.234,1.2-.59,3.687-1.114,5.669-.691,2.751-1.27,7.284-.858,9.534s5.647,5.124,9.044,6.171a27.555,27.555,0,0,1,11.138,6.627c3.341,3.163,10.615,6.148,15.594,6.115,5.848,0,9.924-1.949,11.851-5.079s-1.76-3.509-8.443-7.8l-5.179-3.341c-10.592-6.917-14.48-10.615-17.454-17.532Z" transform="translate(-118.296 -27.034)" fill="#263238"/>
        <path id="Tracé_1188" data-name="Tracé 1188" d="M228.082,376.193C227.9,371.225,231.335,329,231.335,329L208.49,339.414c4.89,29.2,5.937,36.1,6.015,40.878h0a4.244,4.244,0,0,0-.123,1.225c0,5.669,6.427,8.732,11.417,12.519a93.842,93.842,0,0,0,13.511,8.822c3.631,1.815,11,1.983,11.918-.345-6.082-4.645-14.925-11.595-19.759-16.9C229.107,383.121,228.26,381.172,228.082,376.193Z" transform="translate(-118.584 -32.282)" fill="#ffa8a7"/>
        <path id="Tracé_1189" data-name="Tracé 1189" d="M174.5,202.16c-8.777,19.258-8.777,34.161-7.318,58.743,1.292,22.555,3.442,42.437,3.442,42.437-.334,4-5.892,11.807-6.616,29.494-.668,16.529,1.114,37.547,1.114,37.547s12.486,6.917,21.72-.067c0,0,8.911-42.537,11.517-63.232,2.228-18.055,6.237-41.123,6.237-41.123l8.432,41a106.93,106.93,0,0,0-3.943,17.821c-1.181,12.174,5.636,36.077,5.636,36.077s12.9,3.843,20.773-3.141c0,0,2.941-38.862,4.043-53.52,1.47-19.637-1.626-72.789-4.043-100.935Z" transform="translate(-123.665 -46.721)" fill="#455a64"/>
        <path id="Tracé_1190" data-name="Tracé 1190" d="M200.45,263.456l3.464-30.9s15.527-2.072,22.566-8.688a25.485,25.485,0,0,1-18.3,11.562l-5.012,28.748,5.692,40.31Z" transform="translate(-119.499 -44.249)" fill="#263238"/>
        <path id="Tracé_1191" data-name="Tracé 1191" d="M262.241,202.746a134.057,134.057,0,0,0,.846-16.986c-.345-4.9-1.225-5.7-8.075-14.38-9.245-11.729-17.142-22.277-25.5-32.758-5.97-7.485-12.252-8.632-18.356-8.3-4.277.234,4.077,20.806,8.276,32.981l23.981,25.819a5.124,5.124,0,0,1,.958,3.531l-1.448,21.965,7.184,9.624S260.994,214.865,262.241,202.746Z" transform="translate(-118.415 -54.903)" fill="#ffa8a7"/>
        <path id="Tracé_1192" data-name="Tracé 1192" d="M192.633,130.992h0c-4.645.323-13.088,1.114-13.088,1.114-4.867,2.718-6.1,4.957-7.006,11.417-.39,2.762,1.86,10.1,3.787,20.539l3.653,19.347-.4,9.6c-1.894,5.859-6.182,13.132-9.969,23.858,18.6,10.381,34.195,10.771,48.34,8.911,10.782-1.392,16.5-4,18.4-6.583-.4-10.593-1.114-17.142-1.337-28.213-.078-4.645.2-9.345.39-14.691,7.229-5.948,7.318-15.839,3.341-22.277-9.167-14.847-18.089-24.192-23.992-23.713Z" transform="translate(-123.01 -54.902)" fill="#86c232"/>
        <path id="Tracé_1193" data-name="Tracé 1193" d="M192.633,130.992h0c-4.645.323-13.088,1.114-13.088,1.114-4.867,2.718-6.1,4.957-7.006,11.417-.39,2.762,1.86,10.1,3.787,20.539l3.653,19.347-.4,9.6c-1.894,5.859-6.182,13.132-9.969,23.858,18.6,10.381,34.195,10.771,48.34,8.911,10.782-1.392,16.5-4,18.4-6.583-.4-10.593-1.114-17.142-1.337-28.213-.078-4.645.2-9.345.39-14.691,7.229-5.948,7.318-15.839,3.341-22.277-9.167-14.847-18.089-24.192-23.992-23.713Z" transform="translate(-123.01 -54.902)" fill="#fff" opacity="0.6"/>
        <path id="Tracé_1194" data-name="Tracé 1194" d="M218.749,172.615s-8.487,6.594-18.189,3.152a16.6,16.6,0,0,1-11.138-11.907s-1.025,11.083,11.194,14.859C212.456,182.361,218.749,172.615,218.749,172.615Z" transform="translate(-120.757 -51.08)" opacity="0.1"/>
        <path id="Tracé_1195" data-name="Tracé 1195" d="M231.449,106.387c-.368,16.084-5.569,20.049-8.2,21.163s-7.663.446-12.564-.368V136.9s5.658,5.926,5.235,10.347-8.911,4.923-15.237.59a47.9,47.9,0,0,1-9.39-8.476,3.442,3.442,0,0,1-.813-2.228V114.407s-2.684,2.84-7.429-.412a8.755,8.755,0,0,1-2.228-12.72c2.072-2.439,7.329-2.606,9.846,1.114,1.426,2.773,1.615,5.569,3.208,4.455,4.233-3.052,1.96-10.024,7.073-13.366h0a36.757,36.757,0,0,1,5.213-2.228c9.122-3.152,17.03-5.8,18.935-12.041C228.687,81.259,231.895,87.419,231.449,106.387Z" transform="translate(-121.94 -60.716)" fill="#ffa8a7"/>
        <circle id="Ellipse_13" data-name="Ellipse 13" cx="2.116" cy="2.116" r="2.116" transform="translate(89.405 55.807)" fill="#b16668"/>
        <path id="Tracé_1196" data-name="Tracé 1196" d="M209.135,101.648a2.228,2.228,0,1,1-.691-1.616A2.228,2.228,0,0,1,209.135,101.648Z" transform="translate(-119.018 -58.416)" fill="#263238"/>
        <path id="Tracé_1197" data-name="Tracé 1197" d="M224.244,101.826a2.061,2.061,0,0,1-1.916,2.228,1.949,1.949,0,0,1-2.127-2,2.027,2.027,0,1,1,4.043-.189Z" transform="translate(-117.252 -58.371)" fill="#263238"/>
        <path id="Tracé_1198" data-name="Tracé 1198" d="M206.851,107.8a7.251,7.251,0,0,1-7.251-7.24c0-4.923,5.079-4.923,7.251-4.923s7.24,0,7.24,4.923a7.251,7.251,0,0,1-7.24,7.24Zm0-11.027c-4.455,0-6.1,1.114-6.1,3.787a6.126,6.126,0,1,0,12.252,0c-.045-2.729-1.76-3.787-6.148-3.787Z" transform="translate(-119.596 -58.846)" fill="#455a64"/>
        <path id="Tracé_1199" data-name="Tracé 1199" d="M223.361,107.8a7.251,7.251,0,0,1-7.251-7.24c0-4.923,5.079-4.923,7.251-4.923s7.24,0,7.24,4.923a7.251,7.251,0,0,1-7.24,7.24Zm0-11.027c-4.388,0-6.1,1.114-6.1,3.787a6.126,6.126,0,0,0,12.252,0c-.045-2.729-1.76-3.787-6.148-3.787Z" transform="translate(-117.717 -58.846)" fill="#455a64"/>
        <path id="Tracé_1200" data-name="Tracé 1200" d="M213.62,97.96l.356,13.533,7.117-2.205Z" transform="translate(-118 -58.582)" fill="#f28f8f"/>
        <path id="Tracé_1201" data-name="Tracé 1201" d="M209.225,123.122c-5.168-.679-15.805-3.731-17.465-7.942a10.949,10.949,0,0,0,3.731,5.369c3.174,2.729,13.734,5.792,13.734,5.792Z" transform="translate(-120.488 -56.622)" fill="#f28f8f"/>
        <path id="Tracé_1202" data-name="Tracé 1202" d="M208.192,92.2l-4.723,2.885a2.907,2.907,0,0,1,.958-3.9,2.7,2.7,0,0,1,3.765,1.014Z" transform="translate(-119.199 -59.397)" fill="#263238"/>
        <path id="Tracé_1203" data-name="Tracé 1203" d="M225.457,95.324,220.2,93.486a2.662,2.662,0,0,1,3.453-1.76,2.918,2.918,0,0,1,1.8,3.6Z" transform="translate(-117.251 -59.309)" fill="#263238"/>
        <path id="Tracé_1204" data-name="Tracé 1204" d="M212.158,100.8a.568.568,0,0,1-.568-.579c0-.924,1.827-1.526,3.475-1.526s2.707.6,2.707,1.526a.579.579,0,0,1-1.114,0c0-.111-.568-.39-1.559-.39a6.248,6.248,0,0,0-2.339.4.568.568,0,0,1-.6.568Z" transform="translate(-118.231 -58.499)" fill="#455a64"/>
        <path id="Tracé_1205" data-name="Tracé 1205" d="M201.651,100.393h-.067l-12.731-1.114a6.17,6.17,0,0,0-2.083-1.359L201.718,99.3a.579.579,0,0,1,.5.635.568.568,0,0,1-.568.457Z" transform="translate(-121.056 -58.586)" fill="#455a64"/>
        <path id="Tracé_1206" data-name="Tracé 1206" d="M156.094,117.689c4.166-5.569,7.006-9.768,10.8-14.48,2.161-2.707,3.542-4.645,5.569-7.418,1.426-1.916,2.228-3.531,3.854-4.121a13.366,13.366,0,0,0,4.645-3.186,27.97,27.97,0,0,0,2.228-2.807,41.879,41.879,0,0,1,8.421-8.476c3.341-2.517,7.073-4.455,10.515-6.85,2.049-1.437,4.244-3.82,1.749-6.048a5.937,5.937,0,0,0-2.662-1.281c-6.07-1.314-11.35.769-17.287,2.283a48.841,48.841,0,0,0-7.541,2.551,13.421,13.421,0,0,0-3.341,1.916,17.632,17.632,0,0,0-3.442,4.923c-2.6,4.634-8.164,8.777-12.063,12.441-4.556,4.288-8.632,8.22-13.834,12.943-4.678,4.266-9.256,8.187-13.544,12.842-3.553,3.843-2.228,6.85-1.76,7.9,2.9,5.948,6.137,8.086,10.024,11.773,6.683,6.382,29.795,24.749,37.447,30.82a12.408,12.408,0,0,1,3.754,4.9l1.47,3.4c8.732,1.6,14.558-11.506,7.329-27.289a16.562,16.562,0,0,0-5.313-6.4C173.983,131.367,156.094,117.689,156.094,117.689Z" transform="translate(-127.772 -62.606)" fill="#ffa8a7"/>
        <path id="Tracé_1207" data-name="Tracé 1207" d="M154.29,112.06a22.978,22.978,0,0,1-10.671,7.34s5.569,1.426,13.2-5.424Z" transform="translate(-125.968 -56.977)" fill="#f28f8f"/>
        <path id="Tracé_1208" data-name="Tracé 1208" d="M258.246,185.063h0l-1.426-1.225h0a1.626,1.626,0,0,0-1.459-.167l-15.471,4.21a5.7,5.7,0,0,0-3.475,3.252l-11.138,32.112a1.47,1.47,0,0,0,.2,1.637h0l1.47,1.27h0a1.6,1.6,0,0,0,1.481.178l15.493-4.21a5.7,5.7,0,0,0,3.475-3.252c2.228-6.315,8.911-25.8,11.138-32.112C258.8,185.965,258.669,185.363,258.246,185.063Z" transform="translate(-116.692 -48.837)" fill="#455a64"/>
        <path id="Tracé_1209" data-name="Tracé 1209" d="M226.585,224.353l11.138-32.112A5.658,5.658,0,0,1,241.2,189l15.46-4.21c1.437-.39,2.228.434,1.715,1.838-2.228,6.315-8.911,25.8-11.138,32.112a5.7,5.7,0,0,1-3.475,3.252l-15.46,4.255C226.874,226.581,226.106,225.757,226.585,224.353Z" transform="translate(-116.54 -48.709)" fill="#86c232"/>
        <path id="Tracé_1210" data-name="Tracé 1210" d="M239.666,189.472a5.569,5.569,0,0,0-1.8,2.361l-11.138,32.1a1.515,1.515,0,0,0,.156,1.6l-1.381-1.181h0a1.448,1.448,0,0,1-.212-1.637l11.138-32.112a5.469,5.469,0,0,1,1.66-2.228Z" transform="translate(-116.691 -48.289)" fill="#37474f"/>
        <path id="Tracé_1211" data-name="Tracé 1211" d="M253.14,198.634c-1.114,3.264-4.979,5.447-11.372,6.961s-9.924,8.3-8.911,10.359,11.35,3.988,15.482,3.4,8.276-6.56,9.534-8.409,2.707-14.747,1.381-16.518-4.121-1.493-4.121-1.493Z" transform="translate(-115.83 -47.773)" fill="#f28f8f"/>
      </g>
    </g>
  </g>
</svg>
