<svg xmlns="http://www.w3.org/2000/svg" width="692.521" height="446.253" viewBox="0 0 692.521 446.253">
  <g id="Design_team-pana" data-name="Design team-pana" transform="translate(-23.493 -29.548)">
    <g id="freepik--background-simple--inject-74">
      <path id="Tracé_702" data-name="Tracé 702" d="M36.68,254.8l1.86,3.07c15.74,25.94,44.19,41.57,74.19,39.67A78.252,78.252,0,0,0,124.21,296c27.28-5.83,51-26.46,60.84-52.87,5.79-15.54,7.41-33.42,18.38-45.76,14.29-16,38.55-16.55,59.87-15.88s45.6.1,59.82-16c8.91-10.09,11.74-24.43,11-37.95-1.9-35.77-26.83-67.76-58.53-83.66s-69-17.33-103.73-10.33c-48.61,9.8-94.83,36.71-122.62,78.27S14.45,209.94,36.68,254.8Z" fill="#f5f5f5"/>
      <path id="Tracé_703" data-name="Tracé 703" d="M688.92,219.72l-1.87-3.08c-15.74-25.93-44.19-41.56-74.18-39.67a79.556,79.556,0,0,0-11.49,1.58c-27.27,5.84-51,26.46-60.84,52.88-5.78,15.53-7.4,33.42-18.38,45.75-14.29,16.05-38.54,16.55-59.87,15.89s-45.6-.1-59.82,16c-8.9,10.09-11.73,24.44-11,37.95,1.91,35.78,26.83,67.77,58.54,83.67S519,448,553.72,441c48.6-9.79,94.83-36.7,122.61-78.26S711.15,264.57,688.92,219.72Z" fill="#f5f5f5"/>
    </g>
    <g id="freepik--Floor--inject-74">
      <path id="Tracé_704" data-name="Tracé 704" d="M715.2,473.38c0,.15-152.33.26-340.18.26s-340.22-.11-340.22-.26,152.29-.26,340.22-.26S715.2,473.24,715.2,473.38Z" fill="#263238"/>
    </g>
    <g id="freepik--Screen--inject-74">
      <path id="Tracé_705" data-name="Tracé 705" d="M542.35,43.53H238.4V327.17H373.73v25.06l22.16-25.06H542.35Z" fill="#fff"/>
      <rect id="Rectangle_19" data-name="Rectangle 19" width="304.91" height="20.56" transform="translate(237.91 43.53)" fill="#e0e0e0"/>
      <path id="Tracé_706" data-name="Tracé 706" d="M254.32,54.49a4.47,4.47,0,1,1-1.3-3.174,4.47,4.47,0,0,1,1.3,3.174Z" fill="#fff"/>
      <path id="Tracé_707" data-name="Tracé 707" d="M267.19,54.49a4.47,4.47,0,1,1-1.3-3.174,4.47,4.47,0,0,1,1.3,3.174Z" fill="#fff"/>
      <path id="Tracé_708" data-name="Tracé 708" d="M280.06,54.49a4.47,4.47,0,1,1-1.3-3.174,4.48,4.48,0,0,1,1.3,3.174Z" fill="#fff"/>
      <path id="Tracé_709" data-name="Tracé 709" d="M542.35,327.41c0-1.85-.09-112.84-.23-283.88l.23.22h-304l.26-.26V327.41l-.23-.23H373.9v25.01l-.32-.13,22.16-24.4.05-.05h.08l146.47-.24L395.88,328l.12-.06-22.14,24.42-.32.36V327.43l.2.19H238.17V43.29H542.65v.22C542.43,214.57,542.35,325.56,542.35,327.41Z" fill="#263238"/>
      <rect id="Rectangle_20" data-name="Rectangle 20" width="46.71" height="6.56" transform="translate(254.92 105.19)" fill="#e0e0e0"/>
      <path id="Tracé_710" data-name="Tracé 710" d="M348.17,128.47c0,.14-20.84.26-46.54.26s-46.54-.12-46.54-.26,20.83-.26,46.54-.26S348.17,128.32,348.17,128.47Z" fill="#263238"/>
      <path id="Tracé_711" data-name="Tracé 711" d="M320.3,156c0,.15-14.6.27-32.61.27s-32.6-.12-32.6-.27,14.59-.26,32.6-.26S320.3,155.9,320.3,156Z" fill="#263238"/>
      <path id="Tracé_712" data-name="Tracé 712" d="M348.17,141.15c0,.15-20.84.26-46.54.26s-46.54-.11-46.54-.26,20.83-.26,46.54-.26S348.17,141,348.17,141.15Z" fill="#263238"/>
      <path id="Tracé_713" data-name="Tracé 713" d="M382.43,289.36H344.88V251.81h37.55Zm-36.55-1h35.55V252.81H345.88Z" fill="#86c232"/>
      <path id="Tracé_714" data-name="Tracé 714" d="M311.81,289.36H274.26V251.81h37.55Zm-36.55-1h35.55V252.81H275.26Z" fill="#86c232"/>
      <path id="Tracé_715" data-name="Tracé 715" d="M313.36,297.67c0,.15-9.1.26-20.33.26s-20.33-.11-20.33-.26,9.1-.26,20.33-.26S313.36,297.53,313.36,297.67Z" fill="#263238"/>
      <path id="Tracé_716" data-name="Tracé 716" d="M309.86,306c0,.15-7.9.26-17.63.26s-17.64-.11-17.64-.26,7.9-.26,17.64-.26S309.86,305.86,309.86,306Z" fill="#263238"/>
      <path id="Tracé_717" data-name="Tracé 717" d="M385,297.67c0,.15-9.11.26-20.34.26s-20.33-.11-20.33-.26,9.1-.26,20.33-.26S385,297.53,385,297.67Z" fill="#263238"/>
      <path id="Tracé_718" data-name="Tracé 718" d="M381.5,306c0,.15-7.89.26-17.63.26s-17.63-.11-17.63-.26,7.89-.26,17.63-.26S381.5,305.86,381.5,306Z" fill="#263238"/>
      <path id="Tracé_719" data-name="Tracé 719" d="M381.93,252.31c.1.1-8,8.37-18.09,18.46S345.48,289,345.38,288.86s8-8.37,18.09-18.46S381.83,252.21,381.93,252.31Z" fill="#86c232"/>
      <path id="Tracé_720" data-name="Tracé 720" d="M380,289.09a2,2,0,0,1-.33-.37l-.88-1.14c-.75-1-1.85-2.43-3.22-4.19-2.74-3.51-6.66-8.27-11.27-13.27s-9-9.28-12.33-12.29c-1.64-1.51-3-2.72-3.91-3.55l-1.07-1c-.23-.23-.35-.35-.34-.37a2.38,2.38,0,0,1,.41.29l1.13.89c1,.78,2.35,1.95,4,3.42,3.35,2.95,7.84,7.21,12.47,12.22a172.587,172.587,0,0,1,11.17,13.4c1.34,1.79,2.39,3.25,3.09,4.29l.8,1.19C380,288.93,380.05,289.08,380,289.09Z" fill="#86c232"/>
      <path id="Tracé_721" data-name="Tracé 721" d="M310.53,254.53c.1.1-7.92,7.83-17.9,17.26s-18.17,17-18.27,16.88,7.92-7.83,17.91-17.26S310.43,254.43,310.53,254.53Z" fill="#86c232"/>
      <path id="Tracé_722" data-name="Tracé 722" d="M310.13,288.69a3.462,3.462,0,0,1-.35-.37l-.93-1.13c-.78-1-1.93-2.39-3.37-4.12-2.88-3.47-7-8.15-11.8-13s-9.45-9-12.87-12c-1.71-1.46-3.11-2.63-4.08-3.43l-1.11-.94a2.07,2.07,0,0,1-.36-.35,3.787,3.787,0,0,1,.43.27l1.17.86c1,.75,2.44,1.88,4.19,3.31a170.73,170.73,0,0,1,13,11.9,173.132,173.132,0,0,1,11.71,13.16c1.41,1.77,2.52,3.22,3.26,4.24l.84,1.18a2.333,2.333,0,0,1,.27.42Z" fill="#86c232"/>
      <path id="Tracé_723" data-name="Tracé 723" d="M514.59,288.8H477V251.25h37.55Zm-36.55-1h35.55V252.25H478Z" fill="#86c232"/>
      <path id="Tracé_724" data-name="Tracé 724" d="M449,288.8H411.43V251.25H449Zm-36.54-1H448V252.25H412.43Z" fill="#86c232"/>
      <path id="Tracé_725" data-name="Tracé 725" d="M450.53,297.11c0,.15-9.1.26-20.33.26s-20.33-.11-20.33-.26,9.1-.26,20.33-.26S450.53,297,450.53,297.11Z" fill="#263238"/>
      <path id="Tracé_726" data-name="Tracé 726" d="M447,305.44c0,.15-7.9.26-17.63.26s-17.64-.11-17.64-.26,7.9-.26,17.64-.26S447,305.3,447,305.44Z" fill="#263238"/>
      <path id="Tracé_727" data-name="Tracé 727" d="M517.17,297.11c0,.15-9.11.26-20.34.26s-20.33-.11-20.33-.26,9.1-.26,20.33-.26S517.17,297,517.17,297.11Z" fill="#263238"/>
      <path id="Tracé_728" data-name="Tracé 728" d="M513.66,305.44c0,.15-7.89.26-17.63.26s-17.64-.11-17.64-.26,7.9-.26,17.64-.26S513.66,305.3,513.66,305.44Z" fill="#263238"/>
      <path id="Tracé_729" data-name="Tracé 729" d="M514.09,251.75c.1.1-8,8.37-18.09,18.46s-18.36,18.19-18.46,18.09,8-8.37,18.09-18.46S514,251.65,514.09,251.75Z" fill="#86c232"/>
      <path id="Tracé_730" data-name="Tracé 730" d="M512.19,288.53a2,2,0,0,1-.33-.37L511,287c-.75-1-1.85-2.43-3.22-4.19-2.75-3.51-6.66-8.27-11.27-13.27s-9.05-9.28-12.33-12.29c-1.64-1.51-3-2.72-3.91-3.55l-1.07-1c-.24-.23-.36-.35-.35-.37a1.879,1.879,0,0,1,.42.29l1.13.89c1,.78,2.35,2,4,3.42,3.35,3,7.83,7.21,12.46,12.22a170.73,170.73,0,0,1,11.18,13.4c1.34,1.79,2.39,3.26,3.09,4.29.32.48.59.87.8,1.2S512.21,288.52,512.19,288.53Z" fill="#86c232"/>
      <path id="Tracé_731" data-name="Tracé 731" d="M447.7,254c.1.11-7.92,7.83-17.9,17.26s-18.17,17-18.27,16.88,7.92-7.83,17.91-17.26S447.6,253.87,447.7,254Z" fill="#86c232"/>
      <path id="Tracé_732" data-name="Tracé 732" d="M447.29,288.13a2.521,2.521,0,0,1-.35-.37c-.24-.31-.55-.68-.92-1.12-.78-1-1.93-2.4-3.37-4.13-2.88-3.46-7-8.14-11.8-13s-9.45-9.05-12.87-12c-1.71-1.46-3.11-2.63-4.08-3.43l-1.11-.94a2.069,2.069,0,0,1-.36-.35,3.787,3.787,0,0,1,.43.27l1.17.86c1,.75,2.44,1.88,4.19,3.31a171.566,171.566,0,0,1,24.71,25.07c1.41,1.76,2.52,3.21,3.25,4.23l.85,1.18C447.22,288,447.31,288.12,447.29,288.13Z" fill="#86c232"/>
      <path id="Tracé_733" data-name="Tracé 733" d="M512.66,210.32H385.4V83.06H512.66Zm-126.26-1H511.66V84.06H386.4Z" fill="#86c232"/>
      <path id="Tracé_734" data-name="Tracé 734" d="M506.77,204.43H391V88.66H506.77Zm-114.77-1H505.77V89.66H392Z" fill="#86c232"/>
      <path id="Tracé_735" data-name="Tracé 735" d="M393.6,202.86l-.8-.6,34.05-45.3,23.6,13.1,29.82-45.25.84.55-30.34,46.03-23.64-13.13Z" fill="#86c232"/>
      <path id="Tracé_736" data-name="Tracé 736" d="M445,137.78a15.26,15.26,0,1,1,15.26-15.25A15.26,15.26,0,0,1,445,137.78Zm0-29.51a14.26,14.26,0,1,0,14.26,14.26A14.26,14.26,0,0,0,445,108.27Z" fill="#86c232"/>
      <rect id="Rectangle_21" data-name="Rectangle 21" width="1.88" height="1.88" transform="translate(426.05 156.67)" fill="#86c232"/>
      <rect id="Rectangle_22" data-name="Rectangle 22" width="1.88" height="1.88" transform="translate(449.55 169.67)" fill="#86c232"/>
      <rect id="Rectangle_23" data-name="Rectangle 23" width="1.88" height="1.88" transform="translate(479.75 124.41)" fill="#86c232"/>
      <rect id="Rectangle_24" data-name="Rectangle 24" width="1.88" height="1.88" transform="translate(444.06 136.34)" fill="#86c232"/>
      <rect id="Rectangle_25" data-name="Rectangle 25" width="1.88" height="1.88" transform="translate(444.06 106.72)" fill="#86c232"/>
      <rect id="Rectangle_26" data-name="Rectangle 26" width="1.88" height="1.88" transform="translate(458.87 123.47) rotate(-90)" fill="#86c232"/>
      <rect id="Rectangle_27" data-name="Rectangle 27" width="1.88" height="1.88" transform="translate(429.25 123.47) rotate(-90)" fill="#86c232"/>
      <rect id="Rectangle_28" data-name="Rectangle 28" width="1.88" height="1.88" transform="translate(392.25 201.62)" fill="#86c232"/>
      <path id="Tracé_737" data-name="Tracé 737" d="M480.69,145.6c-.14,0-.26-8.64-.26-19.3s.12-19.31.26-19.31.26,8.64.26,19.31S480.83,145.6,480.69,145.6Z" fill="#86c232"/>
      <path id="Tracé_738" data-name="Tracé 738" d="M481.39,107a.7.7,0,1,1-.7-.7.7.7,0,0,1,.7.7Z" fill="#86c232"/>
      <circle id="Ellipse_9" data-name="Ellipse 9" cx="0.7" cy="0.7" r="0.7" transform="translate(479.99 145.31)" fill="#86c232"/>
      <path id="Tracé_739" data-name="Tracé 739" d="M529.71,233.3c0,.14-52,.26-116.09.26s-116.09-.12-116.09-.26,52-.27,116.09-.27S529.71,233.15,529.71,233.3Z" fill="#e0e0e0"/>
    </g>
    <g id="freepik--Images--inject-74">
      <path id="Tracé_740" data-name="Tracé 740" d="M565.44,383.28l1.66,75.7-82.28,1.16-1.65-75.7Z" fill="#fafafa"/>
      <path id="Tracé_741" data-name="Tracé 741" d="M565.44,383.28h-1.55l-4.47.09-16.84.3-59.41,1,.21-.25c.5,22.54,1.07,48.37,1.68,75.7h0l-.24-.27,82.27-1.11-.19.23c-.46-22.8-.84-41.7-1.1-54.91-.12-6.61-.22-11.8-.28-15.35,0-1.76,0-3.12-.07-4.05a7.038,7.038,0,0,1,0-1.4v1.35c0,.9.07,2.26.11,4,.09,3.54.22,8.7.39,15.29.31,13.25.76,32.2,1.3,55.05v.23h-.2l-82.27,1.21h-.24v-.28h0C484,432.8,483.44,407,483,384.44v-.25h.21l59.55-.72,16.8-.17h5.93Z" fill="#263238"/>
      <path id="Tracé_742" data-name="Tracé 742" d="M487.55,456.37l76.5-1.07-1.45-66.18-76.49,1.08Z" fill="#86c232"/>
      <g id="Groupe_84" data-name="Groupe 84" opacity="0.3">
        <path id="Tracé_743" data-name="Tracé 743" d="M487.55,456.37l25.82-41.51,17.12,25.5,10.92-13.91,22.64,28.85Z"/>
      </g>
      <g id="Groupe_85" data-name="Groupe 85" opacity="0.3">
        <path id="Tracé_744" data-name="Tracé 744" d="M536.84,410c.08,3.83-2.55,7-5.87,7s-6.09-3-6.18-6.85,2.55-7,5.87-7S536.75,406.12,536.84,410Z"/>
      </g>
      <path id="Tracé_745" data-name="Tracé 745" d="M544.86,376.23l1.66,75.7-82.28,1.16-1.65-75.71Z" fill="#fafafa"/>
      <path id="Tracé_746" data-name="Tracé 746" d="M544.86,376.23h-1.55l-4.47.09-16.84.3-59.4,1,.2-.25c.5,22.53,1.08,48.36,1.68,75.7h0l-.24-.27,82.27-1.12-.19.24c-.46-22.8-.83-41.7-1.1-54.91-.12-6.61-.22-11.8-.28-15.35,0-1.76-.05-3.12-.07-4.05s0-1.4,0-1.4,0,.45.06,1.35.06,2.26.11,4c.08,3.54.21,8.7.38,15.29.31,13.25.76,32.19,1.31,55.05v.23h-.2l-82.27,1.2H464v-.28h0c-.59-27.34-1.15-53.17-1.63-75.7v-.25h.22l59.54-.72,16.8-.17h5.93Z" fill="#263238"/>
      <path id="Tracé_747" data-name="Tracé 747" d="M466.98,448.28l76.49-1.07-1.45-66.18-76.49,1.08Z" fill="#455a64"/>
      <path id="Tracé_748" data-name="Tracé 748" d="M466.98,448.28l25.82-41.51,17.11,25.51,10.92-13.92,22.64,28.85Z" fill="#455a64"/>
      <path id="Tracé_749" data-name="Tracé 749" d="M516.26,401.4c.08,3.83-2.54,7-5.87,7s-6.09-3-6.18-6.85,2.55-7,5.88-7S516.18,397.58,516.26,401.4Z" fill="#455a64"/>
      <g id="Groupe_86" data-name="Groupe 86" opacity="0.3">
        <path id="Tracé_750" data-name="Tracé 750" d="M466.98,448.28l25.82-41.51,17.11,25.51,10.92-13.92,22.64,28.85Z"/>
      </g>
      <g id="Groupe_87" data-name="Groupe 87" opacity="0.3">
        <path id="Tracé_751" data-name="Tracé 751" d="M516.26,401.4c.08,3.83-2.54,7-5.87,7s-6.09-3-6.18-6.85,2.55-7,5.88-7S516.18,397.58,516.26,401.4Z"/>
      </g>
      <path id="Tracé_752" data-name="Tracé 752" d="M535.94,366.61l1.65,75.7-82.27,1.16-1.65-75.71Z" fill="#fafafa"/>
      <path id="Tracé_753" data-name="Tracé 753" d="M535.94,366.61h-1.55l-4.47.09-16.84.3-59.41,1,.21-.25c.5,22.53,1.07,48.36,1.68,75.7h0l-.25-.28,82.28-1.11-.19.23c-.46-22.79-.84-41.69-1.1-54.9-.12-6.61-.22-11.8-.29-15.35,0-1.76,0-3.12-.06-4.05a8.205,8.205,0,0,1,0-1.4v1.35c0,.9.06,2.26.11,4,.09,3.53.22,8.7.39,15.29.31,13.25.76,32.19,1.3,55.05v.23h-.2l-82.27,1.2h-.24v-.28h0c-.59-27.33-1.14-53.16-1.63-75.69v-.25h.21l59.55-.72,16.8-.17h5.93Z" fill="#263238"/>
      <path id="Tracé_754" data-name="Tracé 754" d="M458.05,439.7l76.5-1.08-1.45-66.17-76.49,1.07Z" fill="#86c232"/>
      <g id="Groupe_88" data-name="Groupe 88" opacity="0.3">
        <path id="Tracé_755" data-name="Tracé 755" d="M458.05,439.7l25.82-41.51,17.11,25.5,10.93-13.92,22.64,28.85Z"/>
      </g>
      <g id="Groupe_89" data-name="Groupe 89" opacity="0.3">
        <path id="Tracé_756" data-name="Tracé 756" d="M507.34,393.28c.08,3.83-2.55,7-5.88,7s-6.09-3-6.17-6.85,2.55-7,5.87-7S507.25,389.45,507.34,393.28Z"/>
      </g>
      <path id="Tracé_757" data-name="Tracé 757" d="M526.37,376.36l1.79,75.71-88.93,1.16-1.79-75.71Z" fill="#fafafa"/>
      <path id="Tracé_758" data-name="Tracé 758" d="M526.37,376.36h-1.68l-4.83.09-18.2.31-64.21.95.22-.24c.54,22.53,1.16,48.36,1.82,75.69h0l-.27-.27,88.93-1.11-.21.23c-.49-22.8-.9-41.69-1.18-54.91-.14-6.61-.24-11.79-.31-15.35,0-1.76-.06-3.11-.07-4s0-1.41,0-1.41v1.36c0,.91.07,2.26.12,4,.1,3.54.24,8.71.42,15.29.34,13.25.82,32.2,1.41,55.05v.23h-.22l-88.92,1.2H439v-.27h0c-.63-27.33-1.24-53.17-1.76-75.7v-.24h.23l64.36-.71,18.15-.17h6.42Z" fill="#263238"/>
      <path id="Tracé_759" data-name="Tracé 759" d="M442.18,448.42l82.68-1.08-1.56-66.17-82.68,1.07Z" fill="#86c232"/>
      <g id="Groupe_90" data-name="Groupe 90" opacity="0.3">
        <path id="Tracé_760" data-name="Tracé 760" d="M442.18,448.42l27.91-41.51,18.49,25.5,11.81-13.91,24.47,28.84Z"/>
      </g>
      <g id="Groupe_91" data-name="Groupe 91" opacity="0.3">
        <path id="Tracé_761" data-name="Tracé 761" d="M495.45,401.54a6.65,6.65,0,0,1-6.34,7,6.83,6.83,0,0,1-6.68-6.85,6.65,6.65,0,0,1,6.35-7,6.82,6.82,0,0,1,6.67,6.85Z"/>
      </g>
      <rect id="Rectangle_29" data-name="Rectangle 29" width="83.77" height="51.35" transform="translate(484.58 421.71)" fill="#263238"/>
      <rect id="Rectangle_30" data-name="Rectangle 30" width="91.83" height="51.35" transform="translate(433.41 421.71)" fill="#455a64"/>
    </g>
    <g id="freepik--character-3--inject-74">
      <path id="Tracé_762" data-name="Tracé 762" d="M592.38,253.11l-1.16-.35c-5.43,2.24-9,7.59-10.89,13.16s-2.33,11.49-3.42,17.26-3,11.65-7,15.87a65.248,65.248,0,0,0,8.44,6.15,6.59,6.59,0,0,0,3.14,1.22c1.81.07,3.36-1.22,4.6-2.54,6.1-6.52,6.85-18.27,7.49-27.18S594.87,261.68,592.38,253.11Z" fill="#86c232"/>
      <g id="Groupe_92" data-name="Groupe 92" opacity="0.2">
        <path id="Tracé_763" data-name="Tracé 763" d="M588,256.47s-13.27,46.41-12.42,47,3.49,2.21,3.49,2.21l12.1-48.55Z"/>
      </g>
      <path id="Tracé_764" data-name="Tracé 764" d="M596.72,245.09a4,4,0,0,0-3.58-3.54,5.72,5.72,0,0,0-4.81,2.13,10.281,10.281,0,0,0-2.09,5c-.42,2.53-.08,5.52,2,7a5.08,5.08,0,0,0,5.54-.07,7.54,7.54,0,0,0,3.08-4.82,14.74,14.74,0,0,0-.19-5.84" fill="#86c232"/>
      <path id="Tracé_765" data-name="Tracé 765" d="M592.31,252.77a3.9,3.9,0,0,1-.65-1.61,10,10,0,0,1,1.58-8.06c.64-.88,1.17-1.29,1.21-1.25s-.36.56-.9,1.45a11.841,11.841,0,0,0-1.46,3.76,11.671,11.671,0,0,0-.07,4,11.628,11.628,0,0,1,.29,1.71Z" fill="#263238"/>
      <path id="Tracé_766" data-name="Tracé 766" d="M590.37,257.06c0,.06-.26.21-.74.23a2.71,2.71,0,0,1-1.78-.62,2.68,2.68,0,0,1-.94-1.62c-.07-.48,0-.77.09-.77a4.446,4.446,0,0,0,1.18,2C589.17,257.11,590.36,256.91,590.37,257.06Z" fill="#263238"/>
      <path id="Tracé_767" data-name="Tracé 767" d="M660.01,193.1l9.95,21.5-22.15-12.75Z" fill="#ffbe9d"/>
      <path id="Tracé_768" data-name="Tracé 768" d="M480.33,124.79l29.98,39.45,12.93-3.43,6.51,3.7L541,143.81l-6.77-3.55-5.01-12.7Z" fill="#fafafa"/>
      <path id="Tracé_769" data-name="Tracé 769" d="M480.33,124.79l48.9,2.62h.1v.09l5,12.7-.07-.09,6.77,3.55.15.08-.08.15c-1.84,3.39-3.78,7-5.75,10.56l-5.51,10.14-.08.15-.15-.09-6.5-3.69h.12l-12.93,3.42h-.1l-.06-.08-29.86-39.55,30.11,39.36-.17-.05,12.93-3.44h.12l6.51,3.69-.23.07,5.51-10.13,5.74-10.57.07.23-6.77-3.56h0v-.05l-5-12.7.13.09Z" fill="#263238"/>
      <path id="Tracé_770" data-name="Tracé 770" d="M516.31,136.27a7.06,7.06,0,0,1,2.9,9.67,7.32,7.32,0,0,1-9.79,3,7.07,7.07,0,0,1-2.9-9.67,7.33,7.33,0,0,1,9.79-3Z" fill="#263238"/>
      <path id="Tracé_771" data-name="Tracé 771" d="M480.33,124.79c.05-.08,7.39,3.53,16.4,8.06S513,141.13,513,141.21s-7.38-3.53-16.4-8.06S480.29,124.87,480.33,124.79Z" fill="#263238"/>
      <path id="Tracé_772" data-name="Tracé 772" d="M714.62,245.61h0a11.66,11.66,0,0,1-15.55,4.82L536,167.18,547,147l162.93,83.2a11.24,11.24,0,0,1,4.69,15.41Z" fill="#86c232"/>
      <path id="Tracé_773" data-name="Tracé 773" d="M548.99,145.87l-12.92,23.75-8.26-4.33,12.91-23.76Z" fill="#86c232"/>
      <g id="Groupe_93" data-name="Groupe 93" opacity="0.3">
        <path id="Tracé_774" data-name="Tracé 774" d="M536.95,168.01l10.98-20.2,3.08,1.6-12.96,19.17Z"/>
      </g>
      <g id="Groupe_94" data-name="Groupe 94" opacity="0.5">
        <path id="Tracé_775" data-name="Tracé 775" d="M531.35,158.78l11.94-2.96,1.93-3.02-12.28,3.04Z" fill="#fff"/>
      </g>
      <g id="Groupe_95" data-name="Groupe 95" opacity="0.2">
        <path id="Tracé_776" data-name="Tracé 776" d="M648.65,199.63a24.23,24.23,0,0,1,.61,25.63Z"/>
      </g>
      <path id="Tracé_777" data-name="Tracé 777" d="M618.48,454.48c.1.2,1.07-.12,2.29-.06s2.17.42,2.28.23-.82-.93-2.25-1S618.37,454.32,618.48,454.48Z" fill="#263238"/>
      <path id="Tracé_778" data-name="Tracé 778" d="M615.8,437.89c.17.12.87-.64,2-1.19s2.09-.72,2.09-.93-1.17-.41-2.44.27S615.62,437.8,615.8,437.89Z" fill="#263238"/>
      <path id="Tracé_779" data-name="Tracé 779" d="M617.63,437.26l1.29,22.62s-22.56,8.91-22.73,13.11l43.95-.92-.56-35.33Z" fill="#86c232"/>
      <path id="Tracé_780" data-name="Tracé 780" d="M632.47,457.69a1.8,1.8,0,0,1,1.29,2,1.73,1.73,0,0,1-2,1.29,1.9,1.9,0,0,1-1.35-2.15,1.81,1.81,0,0,1,2.23-1.11" fill="#e0e0e0"/>
      <path id="Tracé_781" data-name="Tracé 781" d="M640.2,473.2v-4.71l-42.32,2.23s-1.94.9-1.69,2.27Z" fill="#263238"/>
      <path id="Tracé_782" data-name="Tracé 782" d="M618.2,459.67c0,.22,1.09.29,2.16,1s1.65,1.56,1.85,1.47-.15-1.32-1.46-2.11S618.15,459.48,618.2,459.67Z" fill="#263238"/>
      <path id="Tracé_783" data-name="Tracé 783" d="M613.63,461.67c0,.21.9.56,1.65,1.45s1,1.85,1.19,1.84.32-1.23-.63-2.33S613.64,461.47,613.63,461.67Z" fill="#263238"/>
      <path id="Tracé_784" data-name="Tracé 784" d="M611.13,467.25c.2,0,.47-1-.1-2.2s-1.59-1.61-1.68-1.43.55.79,1,1.76S610.92,467.23,611.13,467.25Z" fill="#263238"/>
      <path id="Tracé_785" data-name="Tracé 785" d="M647.78,237s10,17.25,11.41,32.69c1.25,14-7.58,30-7.58,30l-15.26,57.46,4.5,98.26-24.41,1.25L602.36,344l4.26-104.85Z" fill="#263238"/>
      <path id="Tracé_786" data-name="Tracé 786" d="M606.5,423.36l12.36,19S603.7,461.29,605.65,465l37.68-22.63-18-30.38Z" fill="#86c232"/>
      <path id="Tracé_787" data-name="Tracé 787" d="M629.53,433.72a1.79,1.79,0,0,1,2.12,1.12,1.73,1.73,0,0,1-1.09,2.11,1.9,1.9,0,0,1-2.24-1.19,1.79,1.79,0,0,1,1.38-2.07" fill="#e0e0e0"/>
      <path id="Tracé_788" data-name="Tracé 788" d="M643.33,442.39l-1.94-3L606,462.22s-1.24,1.74-.34,2.8Z" fill="#263238"/>
      <path id="Tracé_789" data-name="Tracé 789" d="M618.13,442.53c.12.18,1.09-.29,2.35-.24s2.21.53,2.33.36-.78-1.08-2.31-1.11S618,442.39,618.13,442.53Z" fill="#263238"/>
      <path id="Tracé_790" data-name="Tracé 790" d="M615.16,446.54c.07.2,1.05,0,2.14.44s1.77,1.12,2,1-.33-1.23-1.7-1.7S615.06,446.36,615.16,446.54Z" fill="#263238"/>
      <path id="Tracé_791" data-name="Tracé 791" d="M615.76,452.62c.19-.06-.11-1.14-1.18-1.86s-2.18-.61-2.17-.41.87.42,1.75,1S615.56,452.71,615.76,452.62Z" fill="#263238"/>
      <path id="Tracé_792" data-name="Tracé 792" d="M594.72,243.91S565,350.74,571.4,362.7s39.14,78.54,39.14,78.54l27.52-15.15-31.44-73.45,23.9-52.57s11.45-10,15.88-23.93-3.22-37-3.22-37H595.39Z" fill="#263238"/>
      <path id="Tracé_793" data-name="Tracé 793" d="M647.78,261.36s.08.27.18.82.26,1.37.4,2.44A60.393,60.393,0,0,1,649,274a37.541,37.541,0,0,1-.74,6.71,21.276,21.276,0,0,1-1.12,3.69,24,24,0,0,1-1.92,3.68A30.669,30.669,0,0,1,630.6,300.3l.14-.13-23.85,52.59v-.23l1.37,3.19C620,383.19,630.59,408,638.25,426l.07.17-.16.09-20.18,11-5.5,3L611,441a5.264,5.264,0,0,1-.5.24l.5-.24,1.41-.81,5.45-3.06L638,425.91l-.09.26c-7.71-17.95-18.37-42.77-30.15-70.22l-1.37-3.19-.05-.12.05-.12L630.3,300v-.09h.1a30.41,30.41,0,0,0,14.4-11.94,24.164,24.164,0,0,0,1.92-3.6,21.56,21.56,0,0,0,1.12-3.63,37.887,37.887,0,0,0,.79-6.65,65.3,65.3,0,0,0-.45-9.38c-.12-1.07-.25-1.89-.33-2.44A5.851,5.851,0,0,1,647.78,261.36Z" fill="#455a64"/>
      <path id="Tracé_794" data-name="Tracé 794" d="M606.62,263.13a4.163,4.163,0,0,1,.56-.07l1.67-.12,6.4-.43,22.86-1.41h.28v22.72l-.1.09c-1.1.93-2.26,1.93-3.44,2.94l-11.72,10L623,297l-.16-.08-15.24-7.61-.13-.07v-.14c-.27-7.82-.51-14.32-.67-18.91-.07-2.21-.12-4-.16-5.22v-1.36a.31.31,0,1,1,.06.05c0,.36.05.82.09,1.4.07,1.27.16,3,.28,5.27.23,4.56.54,11,.92,18.75l-.13-.21,15.27,7.54h-.31l11.71-10,3.44-2.94-.11.22v-22.3l.28.26-22.71,1.14-6.47.3-1.72.06C606.84,263.13,606.63,263.14,606.62,263.13Z" fill="#455a64"/>
      <path id="Tracé_795" data-name="Tracé 795" d="M638,265.54a4.851,4.851,0,0,1-1.22.25c-.79.13-1.93.29-3.35.46-2.83.34-6.76.73-11.11,1s-8.3.37-11.15.38h-3.38a5.372,5.372,0,0,1-1.24-.1,4.77,4.77,0,0,1,1.23-.13l3.38-.15c2.85-.11,6.78-.28,11.12-.55s8.27-.59,11.11-.82l3.37-.28a5.14,5.14,0,0,1,1.24-.06Z" fill="#455a64"/>
      <path id="Tracé_796" data-name="Tracé 796" d="M595.45,189.53a39.689,39.689,0,0,0-3.11,19.1c.45,4.19,2.91,14.86,2.91,14.86l-.33,20.42s54.16-4.06,54.11-4.17.59-25.71.1-43.71-8.4-36.53-8.4-36.53-7.21-4.16-12.61-3.7-28.07,3-28.07,3Z" fill="#455a64"/>
      <path id="Tracé_797" data-name="Tracé 797" d="M599.17,159.47s-9,1.31-17.43,14.48c-8.67,13.61-12.64,19.24-12.64,19.24l24.69,16.13s13.62-20.52,15.32-24.92S612.71,159.06,599.17,159.47Z" fill="#455a64"/>
      <path id="Tracé_798" data-name="Tracé 798" d="M635.38,158.09s7.81,3.09,11,8.07c2.1,3.23,15,25.94,15,25.94l-14.86,10.34-11.21-31.51Z" fill="#455a64"/>
      <g id="Groupe_96" data-name="Groupe 96" opacity="0.2">
        <path id="Tracé_799" data-name="Tracé 799" d="M591.88,212.2l2.86,1.29s13.5-17.9,14-28l-14.83,23-2.49-1.32Z"/>
      </g>
      <path id="Tracé_800" data-name="Tracé 800" d="M647.08,174a1.8,1.8,0,0,1,.12.51l.22,1.46c.18,1.27.42,3.11.67,5.39.51,4.56,1,10.87,1.41,17.86s.48,13.33.52,17.91v6.91a1.651,1.651,0,0,1-.05.52,3.076,3.076,0,0,1,0-.52,13.681,13.681,0,0,0-.06-1.47c0-1.36-.09-3.2-.15-5.43-.13-4.58-.3-10.91-.67-17.89s-.85-13.29-1.26-17.86c-.21-2.22-.38-4-.5-5.4-.05-.59-.09-1.07-.13-1.47a2.926,2.926,0,0,1-.12-.52Z" fill="#263238"/>
      <path id="Tracé_801" data-name="Tracé 801" d="M643.14,133c-1.13-5.77-3.51-11.2-5.32-16.79-2.11-6.51-3.75-13.73-9-18.11-3.46-2.9-8-4.09-12.44-5-4-.82-8.16-1.45-12.17-.62-2,.42-3.91,1.19-5.89,1.67-2.31.56-4.74.73-6.89,1.72-4.45,2-6.72,7.13-7.39,12s-.12,9.82-.81,14.67c-.34,2.32-1,4.6-1.52,6.88-2.05,4.43-4.3,8.86-4,13.6.23,3.43,1.81,6.62,2.56,10s.45,7.39-2.26,9.5a4.94,4.94,0,0,0,8.29-3.27,3.55,3.55,0,0,0,1.36,1.13,8.57,8.57,0,0,0,4.42.34c4.31-.41,8.79-.91,12.54-3l21.11-1.8c5.45,2.21,12-.85,15.16-5.82S644.28,138.75,643.14,133Z" fill="#263238"/>
      <path id="Tracé_802" data-name="Tracé 802" d="M600.33,97c-2,.41-4.2.11-6.2.67-2.91.82-5.07,3.38-6.18,6.19a29.58,29.58,0,0,0-1.54,8.89l-.57,8.09a25.46,25.46,0,0,1-.72,5.16c-.53,1.87-2,6.83-2.08,9.25a26.14,26.14,0,0,0,6,18.3c1.86,2.11,10.53,2.16,13.29,2.72,1.21-1.06,4.25-1.05,5.47-2.12.2-.18-8.83-7.08-8.72-7.33a1.87,1.87,0,0,0-.12-1.31,64.54,64.54,0,0,1,2.72-48.07" fill="#263238"/>
      <path id="Tracé_803" data-name="Tracé 803" d="M624.76,158.78l3.16-49.62h0a4.15,4.15,0,0,0-3.71-4.22l-22-5.62c-7.06-.76-11.78,7.92-12.24,15-.51,7.87-.83,17.5.09,23.38,1.85,11.81,10.9,13.33,10.9,13.33l.75,7.93s5.73-1,10-1.46C621,156.5,624.76,158.78,624.76,158.78Z" fill="#ffbe9d"/>
      <path id="Tracé_804" data-name="Tracé 804" d="M592.68,123.15a1.51,1.51,0,0,0,1.45,1.53,1.45,1.45,0,0,0,1.57-1.36,1.53,1.53,0,0,0-1.46-1.54,1.46,1.46,0,0,0-1.56,1.37Z" fill="#263238"/>
      <path id="Tracé_805" data-name="Tracé 805" d="M592.7,119.68c.19.2,1.34-.65,3-.64s2.82.83,3,.63-.11-.45-.63-.83a4.07,4.07,0,0,0-2.4-.74,4,4,0,0,0-2.36.75C592.78,119.24,592.61,119.59,592.7,119.68Z" fill="#263238"/>
      <path id="Tracé_806" data-name="Tracé 806" d="M607.65,123.35a1.51,1.51,0,0,0,1.45,1.53,1.45,1.45,0,0,0,1.57-1.36,1.52,1.52,0,0,0-1.46-1.54,1.46,1.46,0,0,0-1.56,1.37Z" fill="#263238"/>
      <path id="Tracé_807" data-name="Tracé 807" d="M608.72,119.68c.19.2,1.34-.65,3-.64s2.82.83,3,.63-.1-.45-.63-.83a4.07,4.07,0,0,0-2.4-.74,4,4,0,0,0-2.36.75C608.8,119.24,608.63,119.59,608.72,119.68Z" fill="#263238"/>
      <path id="Tracé_808" data-name="Tracé 808" d="M602.78,131.76a11.159,11.159,0,0,0-2.65-.49c-.41,0-.81-.12-.88-.41a2.11,2.11,0,0,1,.28-1.23c.4-1,.81-2.06,1.24-3.17,1.72-4.51,3-8.21,2.78-8.28s-1.72,3.53-3.44,8c-.41,1.11-.81,2.17-1.19,3.19a2.45,2.45,0,0,0-.22,1.63,1.06,1.06,0,0,0,.69.61,2.74,2.74,0,0,0,.7.1,11,11,0,0,0,2.69.05Z" fill="#263238"/>
      <path id="Tracé_809" data-name="Tracé 809" d="M600.93,151a31.79,31.79,0,0,0,16.51-4.18s-4.34,9-16.16,7.85Z" fill="#eb996e"/>
      <path id="Tracé_810" data-name="Tracé 810" d="M608.27,135.2a3.05,3.05,0,0,0-2.13-1.15,3.41,3.41,0,0,0-3,1.25l-.08.06a.64.64,0,0,0,0,.7,1.92,1.92,0,0,0,.54.56,7,7,0,0,0,2.4,1.44,2.28,2.28,0,0,0,2.47-.61A2,2,0,0,0,608.27,135.2Z" fill="#eb996e"/>
      <path id="Tracé_811" data-name="Tracé 811" d="M607.57,132.9c-.26,0-.27,1.75-1.79,3s-3.4,1.06-3.41,1.3.42.35,1.21.37a4.41,4.41,0,0,0,2.85-1,3.83,3.83,0,0,0,1.39-2.53C607.89,133.33,607.69,132.89,607.57,132.9Z" fill="#263238"/>
      <path id="Tracé_812" data-name="Tracé 812" d="M607.72,113.86c.16.44,1.79.23,3.7.47s3.46.76,3.72.36c.11-.19-.16-.61-.78-1a6.19,6.19,0,0,0-2.75-1,6.34,6.34,0,0,0-2.9.34C608,113.3,607.66,113.65,607.72,113.86Z" fill="#263238"/>
      <path id="Tracé_813" data-name="Tracé 813" d="M592.67,114.5c.29.37,1.41,0,2.76,0s2.5.25,2.76-.13c.12-.19-.06-.56-.56-.91a4,4,0,0,0-4.45.13C592.71,113.93,592.55,114.32,592.67,114.5Z" fill="#263238"/>
      <path id="Tracé_814" data-name="Tracé 814" d="M582.7,161.35a3.28,3.28,0,0,1-.24-.69c-.13-.46-.31-1.15-.5-2a37.862,37.862,0,0,1-.79-7.71,40.879,40.879,0,0,1,1.66-11.38c1.12-4.17,2.82-8.63,3.59-13.52s.53-9.68,1.14-14,1.92-8.14,4-10.73a12.53,12.53,0,0,1,6.35-4.37,7.1,7.1,0,0,1,2.83-.29,13.9,13.9,0,0,0-2.77.51,12.69,12.69,0,0,0-6.09,4.4,21.55,21.55,0,0,0-3.8,10.55c-.58,4.25-.36,9-1.1,14s-2.51,9.44-3.65,13.58a41.43,41.43,0,0,0-1.76,11.23,41,41,0,0,0,.6,7.67c.15.9.29,1.59.39,2.06A3.273,3.273,0,0,1,582.7,161.35Z" fill="#455a64"/>
      <path id="Tracé_815" data-name="Tracé 815" d="M598.86,98.53a2.84,2.84,0,0,1,1.21-1.65A16.76,16.76,0,0,1,612.89,94a29.91,29.91,0,0,1,12.31,5.34c3.22,2.23,6.27,5,7.91,8.53a28.321,28.321,0,0,1,1.91,8.06c.93,6.81,2.76,13.63,2.69,20.5,0,2.68.46,7.18,0,10.48-.48,3.52-3.9,7.82-7.37,8.61l-7.83.78s4.24-14.61,3.91-19.87c-.28-4.61-.24-9.67-.76-14.26a2.4,2.4,0,0,0-.28-1,2.53,2.53,0,0,0-1.07-.83l-4.89-2.5a48.886,48.886,0,0,1-4.59-2.56,41.167,41.167,0,0,1-4.62-3.19c-2.11-1.8-4.05-3.25-6.16-5.05a24.879,24.879,0,0,1-3.85-4.59,6.35,6.35,0,0,1-1.05-5" fill="#263238"/>
      <path id="Tracé_816" data-name="Tracé 816" d="M625.1,125.34a3.44,3.44,0,0,1,5-2.93c1.2.69,2.11,2.08,2,4.75-.29,7.11-7.37,5.35-7.38,5.15S625,128.28,625.1,125.34Z" fill="#ffbe9d"/>
      <path id="Tracé_817" data-name="Tracé 817" d="M627.05,129.7a2.969,2.969,0,0,0,.32.2,1.28,1.28,0,0,0,.93.06,3.1,3.1,0,0,0,1.53-2.7,4,4,0,0,0-.27-1.79,1.47,1.47,0,0,0-.89-1,.64.64,0,0,0-.75.31c-.1.2-.06.34-.1.35s-.15-.12-.08-.41a.75.75,0,0,1,.3-.44.93.93,0,0,1,.69-.15,1.73,1.73,0,0,1,1.25,1.15,4.25,4.25,0,0,1,.35,2c-.11,1.43-.9,2.74-1.94,3a1.31,1.31,0,0,1-1.12-.23C627.05,129.87,627,129.71,627.05,129.7Z" fill="#eb996e"/>
      <path id="Tracé_818" data-name="Tracé 818" d="M636.9,114.14a24.838,24.838,0,0,0-4.93-3,37,37,0,0,0-6-2c-2.3-.62-4.87-1.17-7.51-2A38.2,38.2,0,0,1,606,100.57a33.181,33.181,0,0,1-3.2-2.86,7,7,0,0,1-1-1.18,8.933,8.933,0,0,1,1.19,1c.75.67,1.85,1.62,3.29,2.69a41,41,0,0,0,12.41,6.34c2.61.81,5.18,1.38,7.48,2a35.341,35.341,0,0,1,6,2.14,17.06,17.06,0,0,1,3.63,2.29,9.39,9.39,0,0,1,.86.8C636.83,114,636.92,114.13,636.9,114.14Z" fill="#455a64"/>
      <path id="Tracé_819" data-name="Tracé 819" d="M633.87,104.94c2.72,8.8,7.16,16.84,9.89,23.19,1.27,2.94,3.09,6.41,3.67,9.56.64,3.46-.84,6.9-1.66,10.32s-.7,7.64,2.14,9.71a22.69,22.69,0,0,1-13.43,4.84,4.14,4.14,0,0,1-2.62-.57,1.65,1.65,0,0,1-.4-2.37,11.66,11.66,0,0,1-14.79,1.53c-.32-3.79-.57-7.91,1.52-11.1,1.71-2.6,4.8-4.24,5.92-7.14.67-1.73-.21-3.9.08-5.74s1.51-4.27,2.06-4.52h0a9,9,0,0,0,9.61-6.65l.15-.56Z" fill="#263238"/>
      <path id="Tracé_820" data-name="Tracé 820" d="M632.14,155.88a3.844,3.844,0,0,1,.37-.72l1.12-2a51.23,51.23,0,0,0,3.44-7.73,31.429,31.429,0,0,0,1.79-12.3,21.88,21.88,0,0,0-5.75-13.78c-3.77-3.93-8.57-6.23-12.84-8.21A95.326,95.326,0,0,1,609,105.51a26.441,26.441,0,0,1-6.53-5.47,15.215,15.215,0,0,1-1.37-1.87,3.9,3.9,0,0,1-.4-.7c.06,0,.62.93,1.94,2.42a27.929,27.929,0,0,0,6.58,5.27,102.562,102.562,0,0,0,11.32,5.47c4.29,2,9.16,4.26,13,8.3a22.27,22.27,0,0,1,5.86,14.15,31.4,31.4,0,0,1-1.93,12.47,46.129,46.129,0,0,1-3.64,7.7c-.51.87-.93,1.53-1.22,2A5.055,5.055,0,0,1,632.14,155.88Z" fill="#455a64"/>
      <path id="Tracé_821" data-name="Tracé 821" d="M610.17,183c-.09-.05.6-1.27,1.12-3.44a16.12,16.12,0,0,0-4.79-15.79c-1.64-1.51-2.9-2.14-2.85-2.23a3.781,3.781,0,0,1,.9.41,14.181,14.181,0,0,1,2.19,1.55,15.6,15.6,0,0,1,4.91,16.15,12.8,12.8,0,0,1-1,2.51A3.829,3.829,0,0,1,610.17,183Z" fill="#263238"/>
      <path id="Tracé_822" data-name="Tracé 822" d="M591.28,252.67l23.24.51a2,2,0,0,1,1.93,2c-.47,11.52-2.59,68.7,2.15,69.59,5.28,1,10.87-9.07,18.63-5.57s16.95,7.44,21.28,3.06,7.8-55.08-9.48-82.82l-55,3.15Z" fill="#86c232"/>
      <path id="Tracé_823" data-name="Tracé 823" d="M619.91,246.36a5.33,5.33,0,0,1-1.14,0l-3.1-.06c-2.62,0-6.23,0-10.22.26s-7.56.75-10.15,1.16l-3.06.49a4.33,4.33,0,0,1-1.13.13,5.119,5.119,0,0,1,1.09-.33c.71-.18,1.75-.41,3-.66A87.569,87.569,0,0,1,615.68,246c1.31.07,2.37.15,3.1.23a4.5,4.5,0,0,1,1.13.13Z" fill="#263238"/>
      <path id="Tracé_824" data-name="Tracé 824" d="M631.61,252.81a11.207,11.207,0,0,1-1.61-.25c-1-.2-2.52-.48-4.36-.79-3.68-.64-8.8-1.38-14.49-1.83s-10.85-.5-14.59-.45c-1.87,0-3.39.07-4.43.11a8.911,8.911,0,0,1-1.63,0,10.859,10.859,0,0,1,1.62-.19c1-.1,2.56-.2,4.43-.27a126.228,126.228,0,0,1,14.64.29,128.534,128.534,0,0,1,14.52,2c1.84.37,3.32.7,4.33,1A8.36,8.36,0,0,1,631.61,252.81Z" fill="#263238"/>
      <path id="Tracé_825" data-name="Tracé 825" d="M640.75,273.21a7.735,7.735,0,0,1,0,1.49c0,1.05-.1,2.41-.17,4-.13,3.42-.21,8.14-.05,13.35s.56,9.92.91,13.32c.17,1.63.31,3,.43,4a7.452,7.452,0,0,1,.1,1.48,8.6,8.6,0,0,1-.3-1.46c-.17-.94-.38-2.31-.6-4-.44-3.39-.89-8.11-1.06-13.34s0-10,.2-13.38c.11-1.71.23-3.1.34-4.05A8.712,8.712,0,0,1,640.75,273.21Z" fill="#263238"/>
      <path id="Tracé_826" data-name="Tracé 826" d="M648.28,308.31c-.15,0-1.1-10.24-2.14-22.9s-1.77-22.92-1.62-22.93,1.1,10.23,2.14,22.89S648.42,308.3,648.28,308.31Z" fill="#263238"/>
      <path id="Tracé_827" data-name="Tracé 827" d="M571.83,194.92l-2,2.67L569.1,184l-13.69-4.6s-3.22,34.12-2.73,39.42c.54,5.78.65,6.07,2.12,8.7,1.88,3.38,8.41,5.73,12.14,4.74s7.74-6.07,10.72-9.11c5.43-5.51,13.8-16,13.8-16Z" fill="#ffbe9d"/>
      <path id="Tracé_828" data-name="Tracé 828" d="M571.83,194.92a16.215,16.215,0,0,1-1.5,2.28c-1,1.38-2.26,3.3-3.6,5.48s-2.49,4.19-3.3,5.67a16,16,0,0,1-1.37,2.35,12.831,12.831,0,0,1,1-2.52A64.491,64.491,0,0,1,570,197,12.08,12.08,0,0,1,571.83,194.92Z" fill="#eb996e"/>
      <path id="Tracé_829" data-name="Tracé 829" d="M555.33,181.15l-5.34-3c-2.14-1.7-4.11-3.37-4.62-6.06h0s15.55,6.95,16.79,7.59,7.11,3,6.93,5.43Z" fill="#ffbe9d"/>
      <g id="Groupe_97" data-name="Groupe 97" opacity="0.2">
        <path id="Tracé_830" data-name="Tracé 830" d="M611.05,245.29c5.75-.13,11.51-.1,17.25.27,1.16.07,2.68.53,2.64,1.69a1.56,1.56,0,0,1-1.15,1.3,4.39,4.39,0,0,1-1.84.06L612.62,247A46,46,0,0,0,592,248.54l-.21-1.26S607.81,245.37,611.05,245.29Z"/>
      </g>
    </g>
    <g id="freepik--character-1--inject-74">
      <path id="Tracé_831" data-name="Tracé 831" d="M146.51,152.91h41.8l-.71,26.52-33.59,7.65Z" fill="#455a64"/>
      <path id="Tracé_832" data-name="Tracé 832" d="M138.81,437.44,131,456.36s16.61,14.28,15.5,17.92l-37.22-13.81,10.95-30Z" fill="#86c232"/>
      <g id="Groupe_98" data-name="Groupe 98" opacity="0.3">
        <path id="Tracé_833" data-name="Tracé 833" d="M138.81,437.44,131,456.36s16.61,14.28,15.5,17.92l-37.22-13.81,10.95-30Z"/>
      </g>
      <path id="Tracé_834" data-name="Tracé 834" d="M120.09,450.47a1.62,1.62,0,0,0-1.69,1.35,1.57,1.57,0,0,0,1.32,1.69,1.71,1.71,0,0,0,1.78-1.44c0-.79-.77-1.71-1.56-1.6" fill="#e0e0e0"/>
      <path id="Tracé_835" data-name="Tracé 835" d="M109.29,460.47l1.22-3,35.23,14.35s1.39,1.34.77,2.44Z" fill="#263238"/>
      <path id="Tracé_836" data-name="Tracé 836" d="M131.68,456.39c-.07.18-1-.08-2.12.18s-1.88.84-2,.7.52-1.08,1.87-1.36S131.78,456.24,131.68,456.39Z" fill="#263238"/>
      <path id="Tracé_837" data-name="Tracé 837" d="M135,459.45c0,.2-.93.21-1.83.75s-1.39,1.29-1.56,1.21.08-1.14,1.22-1.79S135.05,459.28,135,459.45Z" fill="#263238"/>
      <path id="Tracé_838" data-name="Tracé 838" d="M135.47,465c-.18,0-.1-1,.74-1.85s1.83-.9,1.85-.72-.7.52-1.38,1.2S135.66,465,135.47,465Z" fill="#263238"/>
      <path id="Tracé_839" data-name="Tracé 839" d="M133,451.88c-.14.14-.88-.42-1.93-.73s-2-.29-2-.48,1-.55,2.21-.17S133.12,451.77,133,451.88Z" fill="#263238"/>
      <path id="Tracé_840" data-name="Tracé 840" d="M119.94,440.66l-.62,21.56s21.71,7.87,22,11.87l-41.85.3L99,440.76Z" fill="#86c232"/>
      <path id="Tracé_841" data-name="Tracé 841" d="M106.37,460.5a1.72,1.72,0,0,0-1.17,2,1.64,1.64,0,0,0,1.93,1.18,1.81,1.81,0,0,0,1.23-2.08,1.71,1.71,0,0,0-2.15-1" fill="#e0e0e0"/>
      <path id="Tracé_842" data-name="Tracé 842" d="M99.43,475.28v-3.26h40.25s1.87.79,1.67,2.11Z" fill="#263238"/>
      <path id="Tracé_843" data-name="Tracé 843" d="M120,462c0,.2-1,.3-2,1s-1.53,1.53-1.72,1.45.11-1.26,1.34-2S120,461.82,120,462Z" fill="#263238"/>
      <path id="Tracé_844" data-name="Tracé 844" d="M124.4,463.79c0,.2-.83.55-1.52,1.42S122,467,121.8,467s-.35-1.16.53-2.23S124.4,463.59,124.4,463.79Z" fill="#263238"/>
      <path id="Tracé_845" data-name="Tracé 845" d="M126.93,469c-.18.05-.47-1,0-2.09s1.47-1.58,1.56-1.41-.5.77-.91,1.7S127.14,469,126.93,469Z" fill="#263238"/>
      <path id="Tracé_846" data-name="Tracé 846" d="M119.59,457.08c-.08.18-1-.09-2.17,0s-2.06.46-2.16.29.75-.91,2.11-1S119.69,456.91,119.59,457.08Z" fill="#263238"/>
      <path id="Tracé_847" data-name="Tracé 847" d="M158.44,249.56s17.07,68.93,19.88,91.05c2,15.4-1.9,25.54-2.36,28.62a8.83,8.83,0,0,1-1,2.95l-36.88,71.54-25.49-8.84s19.1-57.69,23.28-67l4.7-8.35-37.19-94.18Z" fill="#263238"/>
      <path id="Tracé_848" data-name="Tracé 848" d="M140.33,264.43c.47,1.89-21.93,112.73-21.93,112.73l2.88,79.4-23.56.64s-12.06-43.26-12.53-68.79,2.41-29.88.32-45.82c-2.2-16.8-15.68-51.41-9.57-74.89,5.11-19.63,18.29-29.08,18.29-29.08Z" fill="#263238"/>
      <path id="Tracé_849" data-name="Tracé 849" d="M121.3,457.23a2.561,2.561,0,0,0,0-.41v-1.2c0-1.08-.06-2.63-.11-4.61-.11-4-.29-9.85-.5-17.05-.48-14.5-1.15-34.59-1.9-57.18v.07c.54-2.71,1.12-5.59,1.7-8.5,4.74-24.15,9-46,12.15-61.87,1.52-7.9,2.76-14.3,3.62-18.77.41-2.19.72-3.9.95-5.1.1-.56.17-1,.23-1.33a2.739,2.739,0,0,0,.06-.46,2.882,2.882,0,0,0-.12.44c-.08.33-.17.77-.3,1.32-.25,1.2-.61,2.91-1.06,5.09-.91,4.45-2.21,10.84-3.81,18.72-3.17,15.85-7.52,37.7-12.34,61.83l-1.69,8.51v.07c.83,22.59,1.57,42.68,2.11,57.17.29,7.2.53,13,.69,17,.1,2,.17,3.52.22,4.61a5.731,5.731,0,0,0,.07,1.19,1.91,1.91,0,0,0,.03.46Z" fill="#455a64"/>
      <path id="Tracé_850" data-name="Tracé 850" d="M140.35,358c-.14.07,1,2.23,3.33,4a9.34,9.34,0,0,0,4.74,2.14c.06-.18-2.13-.93-4.36-2.64S140.51,357.92,140.35,358Z" fill="#455a64"/>
      <path id="Tracé_851" data-name="Tracé 851" d="M93.82,88.25a9.38,9.38,0,0,0-10.22-.8,13.53,13.53,0,0,0-6.36,8.46,11.2,11.2,0,0,0-.26,5.57,6.6,6.6,0,0,0,3.25,4.38,4.84,4.84,0,0,1,2.06,1.33c.86,1.34-.51,3.14-.08,4.68a2.77,2.77,0,0,0,3.21,1.65,6.64,6.64,0,0,0,3.3-2.08,25.47,25.47,0,0,0,7.14-15,7.45,7.45,0,0,0-2.04-8.19Z" fill="#263238"/>
      <path id="Tracé_852" data-name="Tracé 852" d="M248.86,437.71l-70.28-2.56a14.19,14.19,0,0,1-13.83-14.67l11.31-266.57a14.41,14.41,0,0,1,15-13.61l70.28,2.56a14.2,14.2,0,0,1,13.84,14.66L263.9,424.09a14.41,14.41,0,0,1-15.04,13.62Z" fill="#fafafa"/>
      <path id="Tracé_853" data-name="Tracé 853" d="M248.86,437.71h.51A14.54,14.54,0,0,0,262.62,429a15.11,15.11,0,0,0,1.17-5.78q.12-3.19.27-6.8c.78-19.24,1.92-47.05,3.32-81.41s3.14-75.29,5-120.72q.7-17,1.46-34.9.38-8.91.76-18c.09-3,.52-6.1-.59-8.91a13.92,13.92,0,0,0-9.68-8.78,21.421,21.421,0,0,0-4.64-.5l-9.58-.35-19.41-.7-39.64-1.44a14.43,14.43,0,0,0-9.1,2.84,13.94,13.94,0,0,0-5.15,7.81,23.1,23.1,0,0,0-.46,4.74c-.07,1.62-.14,3.23-.2,4.83-.14,3.22-.28,6.42-.41,9.62q-.83,19.15-1.61,37.71c-1.06,24.73-2.08,48.58-3,71.31-2,45.44-3.73,86.36-5.22,120.73-.19,4.29-.37,8.49-.55,12.57-.09,2.05-.18,4.06-.26,6.05a16.3,16.3,0,0,0,.4,5.77,14,14,0,0,0,6.78,8.48,14.32,14.32,0,0,0,5.09,1.63c1.75.19,3.56.17,5.29.26l35.75,1.38,22.59.9,5.87.25c1.33.06,2,.12,2,.12h-2L241,437.5l-22.59-.74-35.76-1.24c-1.75-.08-3.5,0-5.33-.24A14.76,14.76,0,0,1,172,433.6a14.49,14.49,0,0,1-7.05-8.77,16.87,16.87,0,0,1-.43-5.93q.12-3,.25-6c.17-4.08.34-8.28.52-12.57,1.43-34.37,3.14-75.3,5-120.74,1-22.72,2-46.58,3-71.31q.78-18.54,1.59-37.71c.14-3.2.27-6.4.41-9.62.07-1.6.13-3.21.2-4.83a24.29,24.29,0,0,1,.48-4.9,14.76,14.76,0,0,1,5.46-8.28,15.31,15.31,0,0,1,9.64-3l39.65,1.44,19.4.71,9.59.35a21.929,21.929,0,0,1,4.81.52,14.891,14.891,0,0,1,4.43,2,14.41,14.41,0,0,1,5.81,7.35,13.349,13.349,0,0,1,.8,4.63c0,1.56-.11,3-.16,4.58q-.39,9.11-.77,18-.76,17.84-1.5,34.89c-2,45.44-3.73,86.36-5.21,120.73s-2.75,62.16-3.59,81.39c-.11,2.4-.22,4.67-.31,6.8a15.249,15.249,0,0,1-1.23,5.87,14.32,14.32,0,0,1-6.37,6.86,13.93,13.93,0,0,1-5.61,1.69,10.6,10.6,0,0,1-1.5.05Z" fill="#263238"/>
      <path id="Tracé_854" data-name="Tracé 854" d="M269.09,208.02l-91.2-3.32,1.95-45.77,91.19,3.32Z" fill="#86c232"/>
      <path id="Tracé_855" data-name="Tracé 855" d="M266.33,272.84l-91.19-3.32,1.95-45.77,91.19,3.32Z" fill="#86c232"/>
      <path id="Tracé_856" data-name="Tracé 856" d="M263.58,337.66l-91.19-3.32,1.94-45.77,91.19,3.32Z" fill="#86c232"/>
      <path id="Tracé_857" data-name="Tracé 857" d="M260.83,402.48l-91.19-3.32,1.94-45.77,91.19,3.32Z" fill="#86c232"/>
      <g id="Groupe_99" data-name="Groupe 99" opacity="0.1">
        <path id="Tracé_858" data-name="Tracé 858" d="M269.09,208.02l-91.2-3.32,1.95-45.77,91.19,3.32Z"/>
      </g>
      <g id="Groupe_100" data-name="Groupe 100" opacity="0.2">
        <path id="Tracé_859" data-name="Tracé 859" d="M266.33,272.84l-91.19-3.32,1.95-45.77,91.19,3.32Z"/>
      </g>
      <g id="Groupe_101" data-name="Groupe 101" opacity="0.3">
        <path id="Tracé_860" data-name="Tracé 860" d="M263.58,337.66l-91.19-3.32,1.94-45.77,91.19,3.32Z"/>
      </g>
      <g id="Groupe_102" data-name="Groupe 102" opacity="0.4">
        <path id="Tracé_861" data-name="Tracé 861" d="M260.83,402.48l-91.19-3.32,1.94-45.77,91.19,3.32Z"/>
      </g>
      <path id="Tracé_862" data-name="Tracé 862" d="M247.52,438.49l-68.18.71c-7.3.07-13.28-6.12-13.35-13.83l-2.58-275.53c-.07-7.71,5.79-14,13.1-14.1l68.18-.71c7.31-.08,13.28,6.11,13.36,13.83l2.57,275.52C260.69,432.09,254.83,438.41,247.52,438.49Z" fill="#fafafa"/>
      <path id="Tracé_863" data-name="Tracé 863" d="M247.52,438.49a11.672,11.672,0,0,0,1.9-.23,12.561,12.561,0,0,0,5.16-2.13,13.8,13.8,0,0,0,5.33-7.51,18.139,18.139,0,0,0,.55-6.05q0-3.3-.08-7c-.22-19.83-.53-48.48-.91-83.89s-.78-77.58-1.25-124.4q-.17-17.57-.35-36-.09-9.19-.18-18.57c0-1.56,0-3.16-.08-4.68a14.389,14.389,0,0,0-1-4.44,13.59,13.59,0,0,0-5.83-6.63,12.24,12.24,0,0,0-4.17-1.4,30.28,30.28,0,0,0-4.49-.12l-9.16.1-18.55.19-37.88.4a12.53,12.53,0,0,0-8.45,3.48,13.67,13.67,0,0,0-4.16,8.45c-.17,1.59-.07,3.28-.08,4.93v5q0,5,.09,9.91.18,19.74.36,38.87c.23,25.48.45,50.06.66,73.48.41,46.83.77,89,1.08,124.42q0,6.65.1,13v6.23a16.86,16.86,0,0,0,.75,5.89,13.52,13.52,0,0,0,7.16,8.09c3.24,1.58,6.79,1,10.1,1.06l34.16-.29,21.59-.14h7.53l-1.91.06-5.61.1-21.59.3-34.17.43-5.08.05a12.511,12.511,0,0,1-5.2-1.11,14,14,0,0,1-7.46-8.38,17.17,17.17,0,0,1-.79-6.06q0-3.08-.07-6.24-.06-6.31-.13-13c-.36-35.41-.78-77.59-1.25-124.41-.22-23.42-.46-48-.71-73.48q-.18-19.11-.37-38.87,0-4.93-.09-9.91l-.05-5a49.208,49.208,0,0,1,.08-5,14.51,14.51,0,0,1,4.42-9,13.35,13.35,0,0,1,9-3.7l37.89-.39,18.54-.19,9.16-.09a31.078,31.078,0,0,1,4.61.12,13.141,13.141,0,0,1,4.42,1.49,14.46,14.46,0,0,1,6.19,7.05,15.44,15.44,0,0,1,1.06,4.7c.09,1.62.05,3.15.08,4.73q.09,9.38.17,18.57.17,18.38.32,36c.41,46.82.77,89,1.08,124.41s.5,64.06.65,83.88c0,2.48,0,4.82.05,7,0,1.1,0,2.16-.05,3.2-.07.51-.14,1-.2,1.51a7.972,7.972,0,0,1-.35,1.42,13.88,13.88,0,0,1-5.47,7.58,12.45,12.45,0,0,1-5.24,2.08,10.759,10.759,0,0,1-1.42.13Z" fill="#263238"/>
      <path id="Tracé_864" data-name="Tracé 864" d="M254.74,201.6l-87.03.9-.45-47.09,87.04-.91Z" fill="#86c232"/>
      <path id="Tracé_865" data-name="Tracé 865" d="M255.36,268.31l-87.03.91-.44-47.1,87.03-.91Z" fill="#86c232"/>
      <path id="Tracé_866" data-name="Tracé 866" d="M255.99,335.02l-87.04.91-.44-47.1,87.03-.9Z" fill="#86c232"/>
      <path id="Tracé_867" data-name="Tracé 867" d="M256.61,401.74l-87.04.9-.44-47.09,87.04-.91Z" fill="#86c232"/>
      <g id="Groupe_103" data-name="Groupe 103" opacity="0.2">
        <path id="Tracé_868" data-name="Tracé 868" d="M255.36,268.31l-87.03.91-.44-47.1,87.03-.91Z" fill="#fff"/>
      </g>
      <g id="Groupe_104" data-name="Groupe 104" opacity="0.3">
        <path id="Tracé_869" data-name="Tracé 869" d="M255.99,335.02l-87.04.91-.44-47.1,87.03-.9Z" fill="#fff"/>
      </g>
      <g id="Groupe_105" data-name="Groupe 105" opacity="0.4">
        <path id="Tracé_870" data-name="Tracé 870" d="M256.61,401.74l-87.04.9-.44-47.09,87.04-.91Z" fill="#fff"/>
      </g>
      <path id="Tracé_871" data-name="Tracé 871" d="M249.66,425a11.05,11.05,0,1,1-1.461-8.343A11.06,11.06,0,0,1,249.66,425Z" fill="#455a64"/>
      <path id="Tracé_872" data-name="Tracé 872" d="M249.66,425c-.09,0,.17-1,.09-2.71a11.09,11.09,0,0,0-2.68-6.63,10.77,10.77,0,0,0-9.59-3.63,10.69,10.69,0,0,0-4.35,19.57,10.75,10.75,0,0,0,10.22.76,11,11,0,0,0,5.22-4.87c.81-1.54,1-2.52,1.07-2.49a2,2,0,0,1-.1.7,8.4,8.4,0,0,1-.67,1.93,11,11,0,0,1-5.27,5.28,11.161,11.161,0,0,1-5.13,1.09,11.41,11.41,0,0,1-5.76-1.74,11.26,11.26,0,0,1-4.36-5A11.39,11.39,0,0,1,231.31,414a11.275,11.275,0,0,1,18.77,8.28,9,9,0,0,1-.21,2A2.33,2.33,0,0,1,249.66,425Z" fill="#263238"/>
      <path id="Tracé_873" data-name="Tracé 873" d="M187.22,207.15l-1,.85a.59.59,0,0,1-.38.18c-.18,0-.31-.17-.39-.33a2.33,2.33,0,0,1-.06-1.85,3.94,3.94,0,0,1,1.1-1.52,1.14,1.14,0,0,1,.78-.36,1.17,1.17,0,0,1,.72.44,11.007,11.007,0,0,1,.78.89.61.61,0,0,1,.19.51.67.67,0,0,1-.26.34c-.43.35-1.05.5-1.49.85" fill="#8e4842"/>
      <path id="Tracé_874" data-name="Tracé 874" d="M179.91,190.38c1.42-.06,7.8-.72,7.8-.72l10.68,2.57a3.7,3.7,0,0,1-3.06,1.9c-2.85-.06-6.83-.36-6.83-.36l-1.26.75s4.84,3.26,4.89,3.91a2.82,2.82,0,0,1-.34,1.35,5.06,5.06,0,0,1,.13,3.54l-.16,4.55L187.17,211a3.64,3.64,0,0,1-.37-2.46c.32-1.28,2.08-2,2.08-2l-1.06-1.9-1.61-.58s-10.55,3-13,2.77L164.79,211l-1.18-12.33S178.5,190.43,179.91,190.38Z" fill="#b2655f"/>
      <path id="Tracé_875" data-name="Tracé 875" d="M186.28,200c-.05.13,1.29.68,2.8,1.61s2.61,1.87,2.7,1.77a6.94,6.94,0,0,0-2.46-2.15,7.2,7.2,0,0,0-3.04-1.23Z" fill="#8e4842"/>
      <path id="Tracé_876" data-name="Tracé 876" d="M185.45,196.39a30.048,30.048,0,0,0,3.05,1.74,27.547,27.547,0,0,0,3,1.76,9.16,9.16,0,0,0-2.81-2.15,9,9,0,0,0-3.24-1.35Z" fill="#8e4842"/>
      <path id="Tracé_877" data-name="Tracé 877" d="M182.17,191.22a18.941,18.941,0,0,0,2.51,1.89,8.41,8.41,0,0,0,2.74,1.57,16.72,16.72,0,0,0-2.48-1.93,7.92,7.92,0,0,0-2.77-1.53Z" fill="#8e4842"/>
      <path id="Tracé_878" data-name="Tracé 878" d="M216.29,135.39a13.88,13.88,0,0,0-2.06-3.27,2.71,2.71,0,0,0-2.72-.51l-.65.38s-2.61-1.86-4.19-1.14c0,0-2.47-1.83-4.07-.62,0,0-1.83-1.78-3-.77a5,5,0,0,0-1.21,4.18c.22,1.12.33,4.82.94,5,0,0,1.64.51,2-.35A7.075,7.075,0,0,1,202,137s0,3.34.75,3.65,2.23.52,2.56-.88c0,0,.5,1.21,1.26,1s1.73-.51,1.83-1.4.25-1.76.25-1.76.13,1.35.82,1.2,1.32,0,1.89-1,1.9-2.94,1.9-2.94Z" fill="#b2655f"/>
      <path id="Tracé_879" data-name="Tracé 879" d="M208.72,137.61a9.845,9.845,0,0,1-.09-1,5.25,5.25,0,0,1,.35-2.24,5.13,5.13,0,0,1,1.28-1.86c.44-.41.76-.6.73-.64a2.06,2.06,0,0,0-.86.48,4.69,4.69,0,0,0-1.42,1.92,4.58,4.58,0,0,0-.28,2.36A2,2,0,0,0,208.72,137.61Z" fill="#8e4842"/>
      <path id="Tracé_880" data-name="Tracé 880" d="M206.49,130.83a4.61,4.61,0,0,0-.62,1.19,12.88,12.88,0,0,0-.83,6.38,4.31,4.31,0,0,0,.3,1.3,23,23,0,0,1,0-4.51,23.531,23.531,0,0,1,1.15-4.36Z" fill="#8e4842"/>
      <path id="Tracé_881" data-name="Tracé 881" d="M202.53,130.26a10.3,10.3,0,0,0-.72,3.39,10.6,10.6,0,0,0,.15,3.45c.09,0,0-1.54.13-3.43S202.61,130.28,202.53,130.26Z" fill="#8e4842"/>
      <path id="Tracé_882" data-name="Tracé 882" d="M155.23,178.81l-.09-.67C155.16,178.29,155.21,178.61,155.23,178.81Z" fill="#455a64"/>
      <path id="Tracé_883" data-name="Tracé 883" d="M155.14,178.14Z" fill="#455a64"/>
      <path id="Tracé_884" data-name="Tracé 884" d="M155.25,179v0Z" fill="#455a64"/>
      <path id="Tracé_885" data-name="Tracé 885" d="M155.37,220.68a134.159,134.159,0,0,0,14.38-8.43l-4.59-15.36-6.5,1c-.58-6.68-2.64-13.15-3.41-19l-7.87-26.06-17.17-1.56-20.87-1.53-13.29,1.92c-7.3,1-15.8,5.06-19.31,11.55-1.25,2.32-2.08,7.5-2.37,10.47-1.1,11.11,3,45,14.62,57.05L83.12,248.3c-8.39,26.15,77.87,15.15,77.12,5-1-4.8-5.67-25.3-5.67-25.3Z" fill="#455a64"/>
      <path id="Tracé_886" data-name="Tracé 886" d="M155.14,178.09Z" fill="#455a64"/>
      <path id="Tracé_887" data-name="Tracé 887" d="M111.12,205.52c.11.15-2.37,1.59-4.32,4.4s-2.5,5.61-2.68,5.56.12-3,2.2-5.89A10.61,10.61,0,0,1,111.12,205.52Z" fill="#263238"/>
      <g id="Groupe_106" data-name="Groupe 106" opacity="0.3">
        <path id="Tracé_888" data-name="Tracé 888" d="M89.35,230.87c1.71,3.63,5.39,6,9.28,7.06a32.68,32.68,0,0,0,12,.31c16-1.87,42.89-17.67,42.44-17.37C132.85,232.25,97.29,236.66,89.35,230.87Z"/>
      </g>
      <path id="Tracé_889" data-name="Tracé 889" d="M169.75,212.25a1.446,1.446,0,0,1-.18.14l-.57.36c-.5.31-1.24.77-2.2,1.34-1.93,1.14-4.76,2.75-8.31,4.61a158,158,0,0,1-29.05,11.75,66.639,66.639,0,0,1-8.79,1.7c-2.87.4-5.64.67-8.29.89s-5.16.38-7.52.48a48.448,48.448,0,0,1-6.58-.15,20.65,20.65,0,0,1-9.09-2.68,11.13,11.13,0,0,1-2-1.65l-.44-.52a.749.749,0,0,1-.13-.18,15.18,15.18,0,0,0,2.68,2.17,21,21,0,0,0,9,2.5,53.529,53.529,0,0,0,6.52.08c2.35-.12,4.86-.31,7.5-.53s5.41-.51,8.26-.91a69.792,69.792,0,0,0,8.72-1.7,166.89,166.89,0,0,0,29-11.57c3.57-1.82,6.42-3.38,8.37-4.47l2.26-1.25.59-.32Z" fill="#263238"/>
      <path id="Tracé_890" data-name="Tracé 890" d="M165.16,196.89a.79.79,0,0,1-.23.06l-.68.14-2.63.47-9.68,1.63-32,5.18-8.81,1.4h-.19l-.08-.18L100.77,181.3c-1.23-3-2.22-5.45-2.93-7.17l-.77-1.94a3.32,3.32,0,0,1-.23-.68,4.77,4.77,0,0,1,.32.64l.85,1.91c.73,1.71,1.78,4.12,3.07,7.12l10.28,24.24-.28-.15,8.81-1.41,32-5,9.71-1.46,2.64-.37.69-.09A1.1,1.1,0,0,1,165.16,196.89Z" fill="#263238"/>
      <path id="Tracé_891" data-name="Tracé 891" d="M150.22,165a23.222,23.222,0,0,0,1.17,3.19c.76,2,1.76,4.66,2.69,7.72s1.62,5.86,2.08,7.9a22.379,22.379,0,0,0,.8,3.3,14.7,14.7,0,0,0-.38-3.38,65,65,0,0,0-1.91-8A67.775,67.775,0,0,0,151.8,168a15.27,15.27,0,0,0-1.58-3Z" fill="#263238"/>
      <path id="Tracé_892" data-name="Tracé 892" d="M148,146.11a3.36,3.36,0,0,1-1.28,1.82,2.91,2.91,0,0,1-2.48.48,3.06,3.06,0,0,1-2.1-2.47,2.88,2.88,0,0,1,.4-1.89,6,6,0,0,1,1.49-1.59c1.19-.94,2.84-1.71,3.79-3.34a6.84,6.84,0,0,0,.64-5.53,7.83,7.83,0,0,0-1.4-2.66,12.069,12.069,0,0,0-2.26-2.08,15.151,15.151,0,0,1-2.25-1.92,3.92,3.92,0,0,1-1.09-2.47,4.82,4.82,0,0,1,.74-2.55,9.73,9.73,0,0,1,1.67-2,19.891,19.891,0,0,0,3.45-3.69,7.44,7.44,0,0,0,1.08-4.27,9.74,9.74,0,0,0-1-3.51,19.9,19.9,0,0,1-1-2.52,5.66,5.66,0,0,1-.13-2.27l-.06.14a2.2,2.2,0,0,0-.09.44,4.3,4.3,0,0,0,.1,1.73,17.818,17.818,0,0,0,.89,2.59,9.59,9.59,0,0,1,.87,3.41,7.27,7.27,0,0,1-1.08,4,20.66,20.66,0,0,1-3.42,3.57,10.25,10.25,0,0,0-1.76,2.13,5.37,5.37,0,0,0-.82,2.81,4.43,4.43,0,0,0,1.21,2.78,16.83,16.83,0,0,0,2.32,2,11.25,11.25,0,0,1,2.18,2,7.67,7.67,0,0,1,1.32,2.49,6.46,6.46,0,0,1-.57,5.15c-.85,1.51-2.41,2.27-3.65,3.25a6.27,6.27,0,0,0-1.57,1.73,3.19,3.19,0,0,0-.42,2.13,3.38,3.38,0,0,0,2.37,2.69,3.15,3.15,0,0,0,2.67-.59,3.2,3.2,0,0,0,1.05-1.39,1.78,1.78,0,0,0,.19-.6Z" fill="#263238"/>
      <path id="Tracé_893" data-name="Tracé 893" d="M97.59,95.46a3.1,3.1,0,0,1,.65,2.23,14,14,0,0,1-.31,2.79,14.291,14.291,0,0,1-.78,2.7A3.13,3.13,0,0,1,95.69,105c-.68.28-1.58,0-2.3-1.06a5.07,5.07,0,0,1-.79-2,6.84,6.84,0,0,1,0-2.55,7,7,0,0,1,1-2.37,5.16,5.16,0,0,1,1.48-1.5A2,2,0,0,1,97.59,95.46Z" fill="#86c232"/>
      <path id="Tracé_894" data-name="Tracé 894" d="M89.44,122.81c-1-2.72-.08-5.75,1.22-8.32s3-5,3.91-7.7c1-3,.9-6.22,2.09-9.11a11.4,11.4,0,0,1,6.87-6.41c1.85-.61,3.91-.77,5.52-1.89s2.51-3.12,3.76-4.7c2-2.57,4-4.78,7-6,3.45-1.44,8.5-2,12-.56a10,10,0,0,1,4.92,4.8,20.9,20.9,0,0,1,1.88,6.73c3.54.68,5.59,4.31,7.16,7.55a14.62,14.62,0,0,1,1.86,5.75c.07,2.26-1.87,10-3,12-5.65,10.22-14.06,12.37-24.28,18-3.94,2.18-6.38,7.2-10.89,7-5.25-.21-10.35-.41-13.4-4.69s-6.47-8.32-6.92-13.55" fill="#263238"/>
      <path id="Tracé_895" data-name="Tracé 895" d="M143.48,106.65c-.29-7.32-4.92-16.39-12.22-15.8l-22.87,5.21a4.29,4.29,0,0,0-3.93,4.25l1.13,54.88h-.16s4.78,15.59,19.92,11.26c3-.86,4.45-4.08,5.13-7.42h.15a8.622,8.622,0,0,1,.05-1.14,36.211,36.211,0,0,0,.28-7.53h0c.16-4.42.2-6.24.2-6.2s9.38-1.32,11.6-13.46C143.86,124.72,143.8,114.78,143.48,106.65Z" fill="#b2655f"/>
      <path id="Tracé_896" data-name="Tracé 896" d="M124.92,115.81a1.57,1.57,0,0,1-1.55,1.54,1.49,1.49,0,0,1-1.57-1.45,1.55,1.55,0,0,1,1.54-1.54,1.49,1.49,0,0,1,1.58,1.45Z" fill="#263238"/>
      <path id="Tracé_897" data-name="Tracé 897" d="M141,115.81a1.57,1.57,0,0,1-1.54,1.54,1.5,1.5,0,0,1-1.58-1.45,1.55,1.55,0,0,1,1.54-1.54,1.49,1.49,0,0,1,1.58,1.45Z" fill="#263238"/>
      <path id="Tracé_898" data-name="Tracé 898" d="M141.83,112c-.2.27-1.55-.79-3.38-.71s-3.11,1.2-3.33,1,.09-.59.65-1.11a4.26,4.26,0,0,1,2.64-1.08,4.12,4.12,0,0,1,2.71.89C141.71,111.41,141.93,111.87,141.83,112Z" fill="#263238"/>
      <path id="Tracé_899" data-name="Tracé 899" d="M124.88,112.23c-.24.24-1.55-.93-3.5-1s-3.44.84-3.64.58.16-.57.81-1a4.78,4.78,0,0,1,2.93-.77,4.59,4.59,0,0,1,2.77,1.15C124.82,111.66,125,112.13,124.88,112.23Z" fill="#263238"/>
      <path id="Tracé_900" data-name="Tracé 900" d="M130.48,124.3a10.921,10.921,0,0,1,2.74-.43c.43,0,.84-.11.91-.4a2.2,2.2,0,0,0-.25-1.28c-.38-1-.78-2.15-1.19-3.3-1.66-4.69-2.84-8.55-2.65-8.61s1.68,3.68,3.33,8.38l1.14,3.31a2.47,2.47,0,0,1,.18,1.69,1.08,1.08,0,0,1-.72.62,3.38,3.38,0,0,1-.73.08,11.36,11.36,0,0,1-2.76-.06Z" fill="#263238"/>
      <path id="Tracé_901" data-name="Tracé 901" d="M131.16,144.21a30.94,30.94,0,0,1-16.2-4.73s3.89,8.72,16.11,7.87Z" fill="#8e4842"/>
      <path id="Tracé_902" data-name="Tracé 902" d="M129.67,128.33a3,3,0,0,0-2.69-1.19,2.76,2.76,0,0,0-1.93,1,1.75,1.75,0,0,0-.18,2,2,2,0,0,0,2.19.61,6.35,6.35,0,0,0,2.17-1.23,1.8,1.8,0,0,0,.5-.49.58.58,0,0,0,0-.62" fill="#8e4842"/>
      <path id="Tracé_903" data-name="Tracé 903" d="M125.5,125.34c.27,0,.24,1.82,1.77,3.15s3.47,1.18,3.48,1.43-.44.35-1.26.35a4.53,4.53,0,0,1-2.91-1.09,4,4,0,0,1-1.37-2.64C125.16,125.78,125.38,125.33,125.5,125.34Z" fill="#263238"/>
      <path id="Tracé_904" data-name="Tracé 904" d="M125.3,106.53c-.18.46-1.85.2-3.83.39s-3.59.69-3.84.28c-.11-.2.18-.63.83-1a6.68,6.68,0,0,1,5.84-.51C125,106,125.37,106.32,125.3,106.53Z" fill="#263238"/>
      <path id="Tracé_905" data-name="Tracé 905" d="M140.69,106.89c-.35.37-1.66-.06-3.25-.11s-2.95.18-3.25-.22c-.13-.2.09-.58.69-.92a5.26,5.26,0,0,1,5.24.26C140.67,106.31,140.84,106.7,140.69,106.89Z" fill="#263238"/>
      <path id="Tracé_906" data-name="Tracé 906" d="M103.33,97.3c1.29-1.6,3.38-2.28,5.37-2.83A111.72,111.72,0,0,1,135,90.53c.91,1.91-.34,4.25-2.12,5.4s-3.95,1.44-6,2-4.18,1.47-5.18,3.33-.59,4.49-1.56,6.52c-1.67,3.49-6.84,4.15-8.49,7.64-1.25,2.65-.43,2-.33,5,.12,3.31-1.91,3.81-4.53,5.84-2.07,1.6-6,3.44-8.65,3.23.45-10.45,3.15-15.47,3.6-25.92C101.81,101.34,102,99,103.33,97.3Z" fill="#263238"/>
      <path id="Tracé_907" data-name="Tracé 907" d="M117.93,80.69l.22-.16a7.341,7.341,0,0,1,.66-.4,10.32,10.32,0,0,1,2.65-1,11.64,11.64,0,0,1,4.2-.19,10.77,10.77,0,0,1,8.21,5.68,11.77,11.77,0,0,1,1.3,4,10.121,10.121,0,0,1,0,2.83,6.3,6.3,0,0,1-.14.76,1.228,1.228,0,0,1-.07.26,13.651,13.651,0,0,0,0-3.82,11.77,11.77,0,0,0-1.33-3.91,10.64,10.64,0,0,0-8-5.55,11.84,11.84,0,0,0-4.13.13,13.62,13.62,0,0,0-3.57,1.37Z" fill="#455a64"/>
      <path id="Tracé_908" data-name="Tracé 908" d="M106.23,90.56a1.18,1.18,0,0,1,.35,0,4.589,4.589,0,0,0,1-.1,6,6,0,0,0,1.49-.53,12.47,12.47,0,0,0,1.76-1.13c.63-.47,1.29-1,2-1.58a13,13,0,0,1,2.49-1.6,13.67,13.67,0,0,1,6.61-1.29,13.34,13.34,0,0,1,6.43,2,13.54,13.54,0,0,1,4,3.82A13.23,13.23,0,0,1,134,93.47a9.857,9.857,0,0,1,.28,1,1.45,1.45,0,0,1,.06.34s-.13-.47-.44-1.28a14,14,0,0,0-5.68-7,13.15,13.15,0,0,0-6.31-2,13.66,13.66,0,0,0-6.49,1.24A13.16,13.16,0,0,0,113,87.39c-.73.55-1.4,1.09-2,1.56a12,12,0,0,1-1.82,1.11,6,6,0,0,1-1.53.5,4.081,4.081,0,0,1-1,0Z" fill="#455a64"/>
      <path id="Tracé_909" data-name="Tracé 909" d="M96,103.58a22.439,22.439,0,0,0,.64,3,13.5,13.5,0,0,0,10.41,9.3,23.082,23.082,0,0,0,3,.3h-.82a11.931,11.931,0,0,1-2.24-.17,13.27,13.27,0,0,1-10.57-9.44A11.431,11.431,0,0,1,96,104.4a5.519,5.519,0,0,1,0-.61.67.67,0,0,1,0-.21Z" fill="#455a64"/>
      <path id="Tracé_910" data-name="Tracé 910" d="M107.53,121.66a4.791,4.791,0,0,1-.83-.13c-.53-.11-1.28-.29-2.2-.57a16.64,16.64,0,0,1-6.5-3.65,10.89,10.89,0,0,1-3.38-6.61,7.92,7.92,0,0,1,.08-2.28,6,6,0,0,1,.15-.61.8.8,0,0,1,.07-.2,10.15,10.15,0,0,0,3.26,9.51,17.51,17.51,0,0,0,6.41,3.66c.91.3,1.66.51,2.17.65a5.08,5.08,0,0,1,.77.23Z" fill="#455a64"/>
      <path id="Tracé_911" data-name="Tracé 911" d="M145.74,88.61a14.72,14.72,0,0,0-4,.07,15.77,15.77,0,0,0-3.74,1.4,3.87,3.87,0,0,1,1-.68,8.89,8.89,0,0,1,2.71-1,9.25,9.25,0,0,1,2.88-.09A3.56,3.56,0,0,1,145.74,88.61Z" fill="#263238"/>
      <path id="Tracé_912" data-name="Tracé 912" d="M140.87,82.3a4.15,4.15,0,0,1,.09,1.28,11.28,11.28,0,0,1-.53,3,11.06,11.06,0,0,1-1.36,2.78,4,4,0,0,1-.82,1,17.889,17.889,0,0,0,1.92-3.85,18.321,18.321,0,0,0,.7-4.21Z" fill="#263238"/>
      <path id="Tracé_913" data-name="Tracé 913" d="M107.64,116.83c-.19-.09-7.62-2.6-7.69,5.08s7.65,6.17,7.67,6S107.64,116.83,107.64,116.83Z" fill="#b2655f"/>
      <path id="Tracé_914" data-name="Tracé 914" d="M105.3,124.93a3.115,3.115,0,0,1-.36.19,1.3,1.3,0,0,1-1,0c-.81-.3-1.48-1.6-1.51-3a4.54,4.54,0,0,1,.39-1.92,1.54,1.54,0,0,1,1-1,.68.68,0,0,1,.79.37c.1.22.05.37.09.38s.16-.12.11-.44a.88.88,0,0,0-.3-.49,1,1,0,0,0-.74-.2,1.91,1.91,0,0,0-1.41,1.18,4.47,4.47,0,0,0-.48,2.14c0,1.54.81,3,1.92,3.33a1.4,1.4,0,0,0,1.22-.19C105.28,125.11,105.33,124.94,105.3,124.93Z" fill="#8e4842"/>
      <path id="Tracé_915" data-name="Tracé 915" d="M101.18,126.19a3.56,3.56,0,0,1-.35.22c-.24.14-.6.32-1,.6a7.249,7.249,0,0,0-2.38,9.49,7.117,7.117,0,0,0,8.4,3.46,6.48,6.48,0,0,0,1.81-.83,7.25,7.25,0,0,0-.08-12.2,12.118,12.118,0,0,0-1.42-.74,5.46,5.46,0,0,1,1.48.65,7.3,7.3,0,0,1,2.9,3.26,7.5,7.5,0,0,1,.64,3,7.21,7.21,0,0,1-.8,3.4,7.29,7.29,0,0,1-2.58,2.87,6.94,6.94,0,0,1-1.87.87,7.4,7.4,0,0,1-6.18-13.3c.45-.27.82-.43,1.06-.56a1.82,1.82,0,0,1,.37-.19Z" fill="#fff"/>
      <path id="Tracé_916" data-name="Tracé 916" d="M95.35,102.76a1.751,1.751,0,0,1,0,.37,10,10,0,0,1-.11,1.08A15.39,15.39,0,0,1,94.11,108c-.65,1.55-1.62,3.29-2.63,5.24A31.165,31.165,0,0,0,90,116.37a14.73,14.73,0,0,0-1,3.55,13.25,13.25,0,0,0,1,7,14.08,14.08,0,0,0,1.59,2.66c.58.79,1.14,1.51,1.66,2.16,1,1.3,1.92,2.32,2.54,3l.7.81a1.62,1.62,0,0,1,.24.29,2.3,2.3,0,0,1-.28-.26l-.74-.77c-.64-.68-1.54-1.69-2.61-3-.53-.65-1.1-1.36-1.69-2.14a13.919,13.919,0,0,1-1.63-2.7,13.12,13.12,0,0,1-1.08-7.08,14.53,14.53,0,0,1,1-3.61,30.731,30.731,0,0,1,1.46-3.15c1-2,2-3.68,2.68-5.21a16.3,16.3,0,0,0,1.21-3.73,9.68,9.68,0,0,0,.15-1.06,1.931,1.931,0,0,1,.15-.37Z" fill="#455a64"/>
    </g>
    <g id="freepik--character-2--inject-74">
      <path id="Tracé_917" data-name="Tracé 917" d="M351.43,400.68,369,383.37l-31.24-53.49a30.129,30.129,0,0,0-12-8.33l-11-4.18-27.34-5L268,320a11.61,11.61,0,0,0-7.27,12.16l5.08,42.75,3,55.66,70.54-12.23-7.09-20.59.23-32.1Z" fill="#86c232"/>
      <path id="Tracé_918" data-name="Tracé 918" d="M332.86,396.38c.17,0,.21-11.12.1-24.83s-.34-24.83-.5-24.83-.21,11.12-.1,24.84S332.7,396.38,332.86,396.38Z" fill="#263238"/>
      <path id="Tracé_919" data-name="Tracé 919" d="M330.28,404.54l-42.63-17.16a9.74,9.74,0,0,1-6.07-8.29l-3.12-40.87S278.83,320.84,268,320l-6.17,2.43c-8,4.24-10,15.86-8.88,24.83,1.55,12.75,2.19,30.79,3.92,41.86,1.41,9.05,6.85,16.21,15.46,19.34l52.5,11.37Z" fill="#86c232"/>
      <path id="Tracé_920" data-name="Tracé 920" d="M279.07,344.46a5.211,5.211,0,0,1,.14.93q.09,1,.27,2.7c.22,2.39.52,5.76.9,9.91s.79,9.18,1.26,14.7c.12,1.38.24,2.8.36,4.25a32.42,32.42,0,0,0,.55,4.37,7.22,7.22,0,0,0,2.11,3.83,14.38,14.38,0,0,0,3.94,2.45c11.75,5.09,22.58,9.29,30.45,12.23l9.33,3.44,2.54.94a4.49,4.49,0,0,1,.87.36,5.674,5.674,0,0,1-.91-.26l-2.57-.83c-2.23-.74-5.45-1.85-9.4-3.27-7.91-2.85-18.76-7-30.55-12.09a14.829,14.829,0,0,1-4.09-2.56,7.84,7.84,0,0,1-2.27-4.11,31.932,31.932,0,0,1-.54-4.45c-.12-1.45-.23-2.87-.34-4.26-.43-5.52-.82-10.51-1.14-14.71s-.55-7.53-.72-9.93c-.07-1.13-.13-2-.17-2.7a6.051,6.051,0,0,1-.02-.94Z" fill="#263238"/>
      <path id="Tracé_921" data-name="Tracé 921" d="M254.65,366.67a1.9,1.9,0,0,1,.08.55l.15,1.58c.12,1.46.29,3.42.5,5.8s.53,5.35,1,8.57a80,80,0,0,0,1.92,10.35,15.39,15.39,0,0,0,2.08,4.94,28.459,28.459,0,0,0,3.18,3.91,27.08,27.08,0,0,0,6.83,5.12,25.48,25.48,0,0,0,7.48,2.45,2.3,2.3,0,0,1-.55,0,12.375,12.375,0,0,1-1.58-.21,20.92,20.92,0,0,1-5.54-1.87,26.87,26.87,0,0,1-7-5.11,28.229,28.229,0,0,1-3.27-4,16,16,0,0,1-2.17-5.09,79.171,79.171,0,0,1-1.9-10.44c-.39-3.23-.65-6.15-.83-8.61s-.28-4.44-.33-5.82v-1.58a2,2,0,0,1-.05-.54Z" fill="#263238"/>
      <path id="Tracé_922" data-name="Tracé 922" d="M272.88,395.27a6.13,6.13,0,0,1,.77-2.27,14.65,14.65,0,0,1,8.65-7.39,6.371,6.371,0,0,1,2.37-.41c0,.1-.88.27-2.24.79a17.151,17.151,0,0,0-4.83,2.88,16.86,16.86,0,0,0-3.59,4.32A18.656,18.656,0,0,1,272.88,395.27Z" fill="#263238"/>
      <g id="Groupe_107" data-name="Groupe 107" opacity="0.3">
        <path id="Tracé_923" data-name="Tracé 923" d="M318,399.67c-4.56-2.57-9-4.55-13.78-6.72s-9.44-4.94-12.56-9.15c-5.88-7.93-5.21-19.37-11.23-27.19l1.18,15.78c.36,4.82-.38,9.59,2.73,12.87,2.61,2.76,7.71,4.87,11.33,6.07,7.25,2.39,15.07,5.95,22.33,8.34"/>
      </g>
      <g id="Groupe_108" data-name="Groupe 108" opacity="0.3">
        <path id="Tracé_924" data-name="Tracé 924" d="M332.46,349.73l3.69,22.74-3.49-6.44Z"/>
      </g>
      <path id="Tracé_925" data-name="Tracé 925" d="M279.2,339.36c-.09,0-.22-1.45-1-3.63a18.25,18.25,0,0,0-12.92-11.61c-2.26-.56-3.72-.54-3.72-.63a4.118,4.118,0,0,1,1,0,16.282,16.282,0,0,1,2.77.35,17.68,17.68,0,0,1,13.15,11.82,15.487,15.487,0,0,1,.65,2.72A3.582,3.582,0,0,1,279.2,339.36Z" fill="#263238"/>
      <path id="Tracé_926" data-name="Tracé 926" d="M330,327.76a74.927,74.927,0,0,1,1.5,7.95,74.4,74.4,0,0,1,1.05,8,75.463,75.463,0,0,1-1.5-8A68.785,68.785,0,0,1,330,327.76Z" fill="#263238"/>
      <path id="Tracé_927" data-name="Tracé 927" d="M377.49,455.92s32.77,9.07,34.08,9.53c2,.7,1.64,7.93-1.43,7.81-1.45-.05-25.16.89-28.16.7s-12-3.75-12-3.75Z" fill="#86c232"/>
      <path id="Tracé_928" data-name="Tracé 928" d="M391.14,468.42a32.256,32.256,0,0,1,1.45-3.52,30.438,30.438,0,0,1,2.31-3,7.28,7.28,0,0,0-3.76,6.53Z" fill="#263238"/>
      <path id="Tracé_929" data-name="Tracé 929" d="M387.73,466.87c.16,0,.49-1.52,1.36-3.23s1.9-2.91,1.78-3a8.18,8.18,0,0,0-3.14,6.25Z" fill="#263238"/>
      <path id="Tracé_930" data-name="Tracé 930" d="M384.52,466a11.55,11.55,0,0,1,2.55-6.52,6.16,6.16,0,0,0-2.55,6.52Z" fill="#263238"/>
      <path id="Tracé_931" data-name="Tracé 931" d="M385.1,461.78a5.72,5.72,0,0,0,.35-2.44,11.47,11.47,0,0,0-.33-2.67,11.123,11.123,0,0,0-.49-1.52,1.72,1.72,0,0,0-.52-.8.88.88,0,0,0-1.13.06,1.43,1.43,0,0,0-.43.92,6.412,6.412,0,0,0,0,.87,6.87,6.87,0,0,0,.2,1.6,9.64,9.64,0,0,0,1,2.51,6.729,6.729,0,0,0,1.47,2c.07,0-.48-.82-1.13-2.15a10.811,10.811,0,0,1-.86-2.44,7.259,7.259,0,0,1-.16-1.5c0-.5,0-1.13.3-1.37a.33.33,0,0,1,.44,0,1.549,1.549,0,0,1,.36.57,11.265,11.265,0,0,1,.49,1.45,13,13,0,0,1,.44,2.56C385.16,460.84,385,461.77,385.1,461.78Z" fill="#263238"/>
      <path id="Tracé_932" data-name="Tracé 932" d="M385.06,461.45a4.55,4.55,0,0,0-2.11-.34,9.871,9.871,0,0,0-2.33.28,5.2,5.2,0,0,0-1.33.5,1.37,1.37,0,0,0-.74,1.49,1.63,1.63,0,0,0,1.18,1.17,2.92,2.92,0,0,0,1.47,0,7.17,7.17,0,0,0,3.65-2.55,14.409,14.409,0,0,0-1.75,1.18,5.609,5.609,0,0,1-2,.87,2.6,2.6,0,0,1-1.21,0,1.11,1.11,0,0,1-.8-.78.86.86,0,0,1,.49-.92,5.26,5.26,0,0,1,1.18-.46,10.668,10.668,0,0,1,2.21-.38C384.24,461.41,385.05,461.54,385.06,461.45Z" fill="#263238"/>
      <path id="Tracé_933" data-name="Tracé 933" d="M396.18,468.77a17.3,17.3,0,0,1,.64-2.95,17.115,17.115,0,0,1,1.61-2.57,3.82,3.82,0,0,0-2.12,2.36A3.76,3.76,0,0,0,396.18,468.77Z" fill="#263238"/>
      <path id="Tracé_934" data-name="Tracé 934" d="M373.31,470.28a6.5,6.5,0,0,0,1.27.6,28.411,28.411,0,0,0,3.65,1.13,52,52,0,0,0,12.51,1.19c4.91-.06,9.33-.28,12.54-.41l3.8-.2a6.691,6.691,0,0,0,1.39-.15,6.522,6.522,0,0,0-1.4-.06h-3.8l-12.54.25a58.274,58.274,0,0,1-12.42-1C375.18,471,373.35,470.18,373.31,470.28Z" fill="#263238"/>
      <path id="Tracé_935" data-name="Tracé 935" d="M372.35,471c0,.08.94-.45,2.45-1.11a11.439,11.439,0,0,1,6.2-1,9.84,9.84,0,0,1,5.36,3.19,20.107,20.107,0,0,0,1.89,1.93,9.753,9.753,0,0,0-1.61-2.2,13.127,13.127,0,0,0-2.17-2,7.85,7.85,0,0,0-3.38-1.43,10.81,10.81,0,0,0-6.45,1.22,8.559,8.559,0,0,0-2.29,1.4Z" fill="#263238"/>
      <path id="Tracé_936" data-name="Tracé 936" d="M338.72,448.31s-31,20.3-32.12,21.14c-1.67,1.27.25,7.27,3.14,6.23,1.37-.49,27.38-7.73,30.18-8.82s10.33-7.22,10.33-7.22Z" fill="#86c232"/>
      <path id="Tracé_937" data-name="Tracé 937" d="M329.51,464.37a5.8,5.8,0,0,0-2.07-3.32,5.87,5.87,0,0,0-3.5-1.76,27.831,27.831,0,0,1,3.13,2.17A31.51,31.51,0,0,1,329.51,464.37Z" fill="#263238"/>
      <path id="Tracé_938" data-name="Tracé 938" d="M332.29,461.86a6,6,0,0,0-1.89-3.05,6.14,6.14,0,0,0-3-1.95c-.07.14,1.28.95,2.62,2.33S332.15,461.93,332.29,461.86Z" fill="#263238"/>
      <path id="Tracé_939" data-name="Tracé 939" d="M335.09,460.07a6.18,6.18,0,0,0-4.42-5.45,22,22,0,0,1,2.64,2.38A22.568,22.568,0,0,1,335.09,460.07Z" fill="#263238"/>
      <path id="Tracé_940" data-name="Tracé 940" d="M333.25,456.21c.08,0-.35-.88-.7-2.32a12.767,12.767,0,0,1-.37-2.57,11.342,11.342,0,0,1,0-1.53,1.35,1.35,0,0,1,.16-.65.33.33,0,0,1,.43-.1c.35.14.54.75.7,1.22a7.283,7.283,0,0,1,.31,1.47,11.352,11.352,0,0,1-.08,2.59c-.22,1.47-.51,2.36-.42,2.39a6.73,6.73,0,0,0,.8-2.33,9.692,9.692,0,0,0,.2-2.69,7.751,7.751,0,0,0-.29-1.59,5.816,5.816,0,0,0-.31-.81,1.44,1.44,0,0,0-.7-.75.85.85,0,0,0-1.08.29,1.8,1.8,0,0,0-.26.92,10.679,10.679,0,0,0,0,1.6,11.72,11.72,0,0,0,.49,2.65,5.79,5.79,0,0,0,1.12,2.21Z" fill="#263238"/>
      <path id="Tracé_941" data-name="Tracé 941" d="M333.18,455.88c0,.08.77-.29,2-.59a11.2,11.2,0,0,1,2.22-.31,5.36,5.36,0,0,1,1.27.08.87.87,0,0,1,.75.73,1.12,1.12,0,0,1-.53,1,2.58,2.58,0,0,1-1.15.39,6,6,0,0,1-2.18-.22,14.691,14.691,0,0,0-2-.6,7,7,0,0,0,4.25,1.32,3.05,3.05,0,0,0,1.4-.44,1.64,1.64,0,0,0,.77-1.48,1.38,1.38,0,0,0-1.16-1.2,5.341,5.341,0,0,0-1.42-.06,10,10,0,0,0-2.31.43,4.71,4.71,0,0,0-1.91.95Z" fill="#263238"/>
      <path id="Tracé_942" data-name="Tracé 942" d="M313.69,474.55c0,.05.52-.31.76-1.2a4.58,4.58,0,0,0-.58-3.37,12.881,12.881,0,0,0-1-1.54,5.789,5.789,0,0,0-1.05-1.13,1.88,1.88,0,0,0-1-.42c-.26,0-.39.05-.39.09a2.86,2.86,0,0,1,1.13.62,7.181,7.181,0,0,1,.89,1.13,16.611,16.611,0,0,1,1,1.52,4.79,4.79,0,0,1,.68,3,11.829,11.829,0,0,1-.44,1.3Z" fill="#263238"/>
      <path id="Tracé_943" data-name="Tracé 943" d="M324.82,466.23a4.68,4.68,0,0,0-3.82-4.57,17.343,17.343,0,0,1,2.31,1.95,18,18,0,0,1,1.51,2.62Z" fill="#263238"/>
      <path id="Tracé_944" data-name="Tracé 944" d="M347.06,460.73a11.221,11.221,0,0,0-1.36.94,39.708,39.708,0,0,1-3.82,2.34,51.543,51.543,0,0,1-6.08,2.7c-2.34.88-5,1.7-7.76,2.51-5.58,1.61-10.63,3.07-14.27,4.17l-4.31,1.32a9.869,9.869,0,0,0-1.56.56,9.079,9.079,0,0,0,1.62-.35l4.36-1.16c3.67-1,8.73-2.41,14.31-4,2.79-.81,5.44-1.66,7.79-2.57a45,45,0,0,0,6.08-2.83,30.7,30.7,0,0,0,3.77-2.51,8.813,8.813,0,0,0,1.23-1.12Z" fill="#263238"/>
      <path id="Tracé_945" data-name="Tracé 945" d="M348.21,461.15a8.77,8.77,0,0,0-2.63-.7,10.79,10.79,0,0,0-6.51.8,7.66,7.66,0,0,0-2.79,2.39,12.891,12.891,0,0,0-1.45,2.6,10.11,10.11,0,0,0-.87,2.57,19.667,19.667,0,0,0,1.22-2.41,9.81,9.81,0,0,1,4.13-4.66,11.49,11.49,0,0,1,6.22-.91C347.18,461,348.19,461.23,348.21,461.15Z" fill="#263238"/>
      <path id="Tracé_946" data-name="Tracé 946" d="M403.17,397.55s9.3,3.32,9.34,13.75c.07,20-40.37,42-40.37,42l-53.81-35.66L315,416.28S387.6,389,403.17,397.55Z" fill="#263238"/>
      <path id="Tracé_947" data-name="Tracé 947" d="M345.59,435.65a10.255,10.255,0,0,0,1.4-.95c.88-.64,2.14-1.59,3.68-2.78,3.08-2.38,7.28-5.76,11.78-9.63s8.48-7.5,11.3-10.19c1.42-1.34,2.54-2.44,3.31-3.22a9.689,9.689,0,0,0,1.15-1.24,9.112,9.112,0,0,0-1.3,1.09l-3.42,3.09c-2.88,2.61-6.89,6.19-11.39,10.06s-8.65,7.28-11.67,9.74l-3.57,2.91a10,10,0,0,0-1.27,1.12Z" fill="#455a64"/>
      <path id="Tracé_948" data-name="Tracé 948" d="M388,405a10.55,10.55,0,0,0-5.19.47,10.689,10.689,0,0,0-4.61,2.42c.09.14,2.05-1.11,4.77-1.9S388,405.18,388,405Z" fill="#455a64"/>
      <path id="Tracé_949" data-name="Tracé 949" d="M383.34,401.87a8.17,8.17,0,0,0-4.86,6c.15.06.74-1.62,2.1-3.28S383.43,402,383.34,401.87Z" fill="#455a64"/>
      <path id="Tracé_950" data-name="Tracé 950" d="M406.13,465.12c0-.06-.65-.19-1.39.42a5.07,5.07,0,0,0-1.56,3.12,6.23,6.23,0,0,0,.49,3.45c.38.82.8,1.2.85,1.16A10,10,0,0,0,404,472a7,7,0,0,1-.3-3.22,5.32,5.32,0,0,1,1.27-2.91C405.57,465.23,406.14,465.21,406.13,465.12Z" fill="#263238"/>
      <path id="Tracé_951" data-name="Tracé 951" d="M399.32,369.18,384,410.42a6,6,0,0,1-5.65,3.87l-84.27-1.11v-6.4l31.27,1.14,13.28-41.17a3.34,3.34,0,0,1,3.2-2.32l54.36.15a3.37,3.37,0,0,1,3.13,4.6Z" fill="#e0e0e0"/>
      <path id="Tracé_952" data-name="Tracé 952" d="M399.32,369.18v-.13a2.192,2.192,0,0,0,.11-.39,3.25,3.25,0,0,0,0-1.55,3.41,3.41,0,0,0-1.48-2,3.33,3.33,0,0,0-1.53-.48H342.36a3.69,3.69,0,0,0-2.24.49,3.32,3.32,0,0,0-1.4,1.84c-4,12.44-8.47,26.29-13.23,41.09v.1h-.1l-31.27-1.14.14-.13v6.4l-.14-.13,53,.71,23,.31,5.31.07h2.58a5.94,5.94,0,0,0,2.45-.36,5.82,5.82,0,0,0,3.38-3.25q.84-2.25,1.64-4.39l10.11-27.11,2.75-7.34c.64-1.68,1-2.55,1-2.55s-.31.88-.93,2.57l-2.7,7.36-10,27.13q-.8,2.16-1.64,4.41a6,6,0,0,1-3.49,3.37,6.33,6.33,0,0,1-2.52.37h-2.58l-5.31-.07-23-.29-53-.68H294v-6.68h.14l31.27,1.15-.13.09c4.77-14.8,9.24-28.64,13.26-41.08a3.51,3.51,0,0,1,1.5-2,3.87,3.87,0,0,1,2.36-.52h13.62l15.89.06,22.67.1h1.88a3.392,3.392,0,0,1,3.05,2.5,3.15,3.15,0,0,1,0,1.57,4.544,4.544,0,0,1-.19.58Z" fill="#263238"/>
      <path id="Tracé_953" data-name="Tracé 953" d="M362,384.77a3.8,3.8,0,0,1,4.1.44,3.31,3.31,0,0,1,.8,3.63,3.59,3.59,0,0,1-3.08,2.15,3.25,3.25,0,0,1-3.25-2.15c-.39-1.35,0-3.36,1.43-4.07" fill="#fff"/>
      <path id="Tracé_954" data-name="Tracé 954" d="M381.22,455.54s-76-48.64-79.3-50.55c-2.85-1.63-10.48-6.32-18-4.25s-14.26,8.82-17.64,18.68c-1.92,5.63-2.83,15.24-3.26,22.45a33.34,33.34,0,0,0,7.79,23.75,21.35,21.35,0,0,0,9.48,6.73c.79.24,1.62.45,2.46.64A35.77,35.77,0,0,0,320,457.36l1.78-2.7s49.73,18.27,50.51,18Z" fill="#263238"/>
      <path id="Tracé_955" data-name="Tracé 955" d="M305.84,407.68s-.07,0-.19-.11l-.53-.36c-.47-.32-1.15-.8-2.05-1.38a40.231,40.231,0,0,0-8.07-4.1,21.831,21.831,0,0,0-6.07-1.28,17.62,17.62,0,0,0-7,1.14,22.429,22.429,0,0,0-6.71,4.08,31.626,31.626,0,0,0-3,2.92,22,22,0,0,0-2.46,3.51,36,36,0,0,0-3.28,7.83c-.71,2.64-1.29,5.26-1.83,7.73A70.339,70.339,0,0,0,262.92,441a48,48,0,0,0,.69,9c.17,1.06.36,1.87.47,2.43q.07.38.12.63a.6.6,0,0,1,0,.22.8.8,0,0,1-.07-.21c-.05-.17-.1-.37-.17-.62-.14-.55-.36-1.36-.55-2.42a45.26,45.26,0,0,1-.84-9.07,69.328,69.328,0,0,1,1.66-13.4c.54-2.49,1.1-5.09,1.82-7.78a35.339,35.339,0,0,1,3.31-7.92,21.129,21.129,0,0,1,2.52-3.58,29.23,29.23,0,0,1,3-3,22.79,22.79,0,0,1,6.85-4.13,17.72,17.72,0,0,1,7.16-1.12,21.859,21.859,0,0,1,6.16,1.35,38.819,38.819,0,0,1,8.05,4.25c.89.61,1.56,1.11,2,1.45l.51.4Z" fill="#455a64"/>
      <path id="Tracé_956" data-name="Tracé 956" d="M287.16,441.81l.41.19,1.25.49,4.82,1.86,17.91,6.75c7.61,2.84,16.72,6.21,26.95,9.93s21.56,7.8,33.66,11.9l.22.07.11-.2c1.9-3.63,3.91-7.46,5.94-11.35l3-5.78.12-.22-.21-.14-58-36.81-17.42-11-4.73-2.95L300,403.8c-.28-.17-.43-.24-.43-.24l.4.29c.29.19.7.45,1.21.8l4.68,3,17.33,11.13,57.9,37-.1-.36-3,5.79L372,472.54l.33-.13c-12.1-4.08-23.44-8.15-33.67-11.83l-27-9.82-18-6.6-4.86-1.76-1.26-.45Z" fill="#455a64"/>
      <path id="Tracé_957" data-name="Tracé 957" d="M291.09,280.43a39.061,39.061,0,0,1-3.38-8.07,13.16,13.16,0,0,1,.45-8.59c.71-1.56,1.82-2.92,2.38-4.54.76-2.22.45-4.85,1.83-6.76,2.15-3,6.76-2.28,10.08-3.84,2.6-1.22,4.41-3.84,7.13-4.71,2.39-.77,5,0,7.28,1s4.54,2.24,7,2.56a50,50,0,0,0,5.34,0,7,7,0,0,1,4.93,1.7c1.26,1.26,1.52,3.6.16,4.76,3.12-.53,6.06,2.58,6,5.75s-2.43,5.94-5.3,7.26a19,19,0,0,1-9.32,1.16c-8.93-.7-17.9-4.09-24-10.67" fill="#263238"/>
      <path id="Tracé_958" data-name="Tracé 958" d="M293,269.26l-6.08,44.21a13.27,13.27,0,0,0,12,15h0a13.29,13.29,0,0,0,14.32-11.44c.45-3.33.84-6.1.91-6.44,0,0,11.4.49,13.74-10.54,1.14-5.33,2.58-16.49,3.76-26.61a21,21,0,0,0-16.75-23l-1.07-.22C302.2,248.61,294.32,257.58,293,269.26Z" fill="#ffbe9d"/>
      <path id="Tracé_959" data-name="Tracé 959" d="M314.2,310.47a26.19,26.19,0,0,1-13.6-7s1.82,8.64,13,9.84Z" fill="#eb996e"/>
      <path id="Tracé_960" data-name="Tracé 960" d="M326.7,282.88a1.63,1.63,0,0,1-1.85,1.29,1.54,1.54,0,0,1-1.34-1.75,1.61,1.61,0,0,1,1.84-1.29,1.55,1.55,0,0,1,1.35,1.75Z" fill="#263238"/>
      <path id="Tracé_961" data-name="Tracé 961" d="M328.19,278.43c-.23.17-1.25-1-2.95-1.29s-3.12.26-3.26,0,.2-.44.82-.73a4.38,4.38,0,0,1,2.66-.27,4.18,4.18,0,0,1,2.3,1.28C328.21,278,328.31,278.36,328.19,278.43Z" fill="#263238"/>
      <path id="Tracé_962" data-name="Tracé 962" d="M310.85,280.14a1.61,1.61,0,0,1-1.84,1.29,1.54,1.54,0,0,1-1.34-1.75,1.6,1.6,0,0,1,1.84-1.29,1.54,1.54,0,0,1,1.34,1.75Z" fill="#263238"/>
      <path id="Tracé_963" data-name="Tracé 963" d="M311.43,275.41c-.24.17-1.26-1-3-1.29s-3.11.26-3.25,0,.2-.44.82-.73a4.36,4.36,0,0,1,2.66-.27,4.18,4.18,0,0,1,2.3,1.28C311.44,274.93,311.54,275.34,311.43,275.41Z" fill="#263238"/>
      <path id="Tracé_964" data-name="Tracé 964" d="M315.08,289.24a11.409,11.409,0,0,1,2.86.05c.44,0,.87,0,1-.24a2.19,2.19,0,0,0,0-1.34c-.2-1.13-.41-2.32-.62-3.56-.85-5.06-1.36-9.19-1.16-9.22s1.05,4,1.89,9.1l.57,3.57a2.55,2.55,0,0,1-.12,1.75,1.1,1.1,0,0,1-.84.49,2.918,2.918,0,0,1-.75,0,11.57,11.57,0,0,1-2.83-.6Z" fill="#263238"/>
      <path id="Tracé_965" data-name="Tracé 965" d="M309.84,289.42c.28,0-.08,1.88,1.24,3.51s3.32,1.81,3.28,2.07-.51.27-1.34.13a4.76,4.76,0,0,1-2.77-1.63,4.09,4.09,0,0,1-.91-2.92C309.42,289.8,309.72,289.38,309.84,289.42Z" fill="#263238"/>
      <path id="Tracé_966" data-name="Tracé 966" d="M313.2,268.84c-.26.43-1.91-.13-3.95-.29s-3.77.06-3.95-.4c-.08-.22.29-.6,1-.92a6.51,6.51,0,0,1,3.07-.43,6.65,6.65,0,0,1,3,1C313,268.2,313.32,268.63,313.2,268.84Z" fill="#263238"/>
      <path id="Tracé_967" data-name="Tracé 967" d="M328.55,273.39c-.37.32-1.46-.31-2.87-.61s-2.65-.26-2.84-.72c-.08-.22.18-.57.77-.83a4.28,4.28,0,0,1,4.61,1.07C328.64,272.8,328.72,273.23,328.55,273.39Z" fill="#263238"/>
      <path id="Tracé_968" data-name="Tracé 968" d="M292.28,277.63c-.17-.12-7.15-3.77-8.42,3.84s6.63,7.31,6.68,7.09S292.28,277.63,292.28,277.63Z" fill="#ffbe9d"/>
      <path id="Tracé_969" data-name="Tracé 969" d="M288.7,285.3a2.372,2.372,0,0,1-.39.13,1.37,1.37,0,0,1-1-.14c-.76-.43-1.22-1.82-1-3.2a4.42,4.42,0,0,1,.69-1.83,1.53,1.53,0,0,1,1.16-.85.69.69,0,0,1,.73.49.723.723,0,0,1,0,.39c0,.02.18-.1.17-.42a.8.8,0,0,0-.22-.53,1,1,0,0,0-.7-.32,1.92,1.92,0,0,0-1.58,1,4.63,4.63,0,0,0-.81,2c-.21,1.54.34,3.1,1.38,3.6a1.45,1.45,0,0,0,1.25,0C288.66,285.48,288.72,285.31,288.7,285.3Z" fill="#eb996e"/>
      <path id="Tracé_970" data-name="Tracé 970" d="M333.84,263.21c-1.3,2.81-8,3.89-12.93,2.41-4.54-1.37-6.18-4.25-9.07-6.76C310,257.27,310,257.27,307,257c-2.4-.25-4.34,2.15-6.16,3.74,1,6.05-1.67,12-4.29,17.57a3,3,0,0,1-1.23,1.57c-1,.51-2.26-.29-2.88-1.27a9.52,9.52,0,0,1-1.07-5.33A31.7,31.7,0,0,1,293.93,261a21.6,21.6,0,0,1,7.95-9.52A20.48,20.48,0,0,1,317,249a25.18,25.18,0,0,1,13.26,8,14.7,14.7,0,0,1,3.57,6.28" fill="#263238"/>
      <path id="Tracé_971" data-name="Tracé 971" d="M318.37,281.6a12.8,12.8,0,0,1,.34-1.77,7.38,7.38,0,0,1,2.7-3.91,7.15,7.15,0,0,1,6.73-1,7.083,7.083,0,0,1,0,13.29,7.13,7.13,0,0,1-6.73-1,7.38,7.38,0,0,1-2.7-3.91c-.3-1.11-.28-1.77-.34-1.76a1.24,1.24,0,0,0,0,.47,6.059,6.059,0,0,0,.15,1.35,7.33,7.33,0,0,0,2.66,4.2,7.611,7.611,0,1,0,0-12.05,7.36,7.36,0,0,0-2.66,4.2,6.059,6.059,0,0,0-.15,1.35,1.32,1.32,0,0,0,0,.54Z" fill="#263238"/>
      <path id="Tracé_972" data-name="Tracé 972" d="M300.33,278.45a12.8,12.8,0,0,1,.34-1.77,7.35,7.35,0,0,1,2.69-3.91,7.17,7.17,0,0,1,6.74-1,7.083,7.083,0,0,1,0,13.29,7.15,7.15,0,0,1-6.74-1,7.35,7.35,0,0,1-2.69-3.91c-.3-1.11-.28-1.77-.34-1.76s0,.16,0,.47a5.512,5.512,0,0,0,.15,1.35,7.33,7.33,0,0,0,2.66,4.2,7.614,7.614,0,1,0,0-12.05,7.36,7.36,0,0,0-2.66,4.2,5.512,5.512,0,0,0-.15,1.35C300.29,278.28,300.3,278.45,300.33,278.45Z" fill="#263238"/>
      <path id="Tracé_973" data-name="Tracé 973" d="M315.19,278.7c.08.16,1-.3,2.17.05s1.68,1.24,1.83,1.16,0-.33-.22-.71a2.64,2.64,0,0,0-1.43-1,2.68,2.68,0,0,0-1.78.07C315.34,278.41,315.15,278.63,315.19,278.7Z" fill="#263238"/>
      <path id="Tracé_974" data-name="Tracé 974" d="M290.1,276.5c0,.17,2.43.27,5.42.23s5.41-.22,5.41-.39-2.43-.27-5.42-.23S290.1,276.33,290.1,276.5Z" fill="#263238"/>
    </g>
  </g>
</svg>
