<svg xmlns="http://www.w3.org/2000/svg" width="554.926" height="521.24" viewBox="0 0 554.926 521.24">
  <g id="My_password-rafiki" data-name="My password-rafiki" transform="translate(-56.11 -63.32)">
    <g id="freepik--background-simple--inject-9" transform="translate(75.478 71.345)">
      <path id="Tracé_1212" data-name="Tracé 1212" d="M132.06,119.117c23.526-23.655,52.948-41.414,85.533-47.782,42.473-8.314,90.026,5.009,117.6,38.38,35.776,43.317,31.34,105.9,45.321,160.276,3.306,12.879,7.957,25.887,16.929,35.776,14.9,16.342,38.638,20.965,60.776,21.637,27.733.83,61.534-2.862,85.461,14.224,45.893,32.914,16.285,98.584-11.892,132.8C491.722,523.013,422.7,541.8,366.721,509.074c-17.7-10.346-33.028-25.243-52.5-31.626-26.016-8.515-54.236-.343-81.569-.9-54.05-1.1-102.763-37.608-131.011-83.673-46.351-75.659-41.944-179.309,10.676-250.717a208.576,208.576,0,0,1,19.748-23.04Z" transform="translate(-69.645 -68.928)" fill="#86c232"/>
      <path id="Tracé_1213" data-name="Tracé 1213" d="M132.06,119.117c23.526-23.655,52.948-41.414,85.533-47.782,42.473-8.314,90.026,5.009,117.6,38.38,35.776,43.317,31.34,105.9,45.321,160.276,3.306,12.879,7.957,25.887,16.929,35.776,14.9,16.342,38.638,20.965,60.776,21.637,27.733.83,61.534-2.862,85.461,14.224,45.893,32.914,16.285,98.584-11.892,132.8C491.722,523.013,422.7,541.8,366.721,509.074c-17.7-10.346-33.028-25.243-52.5-31.626-26.016-8.515-54.236-.343-81.569-.9-54.05-1.1-102.763-37.608-131.011-83.673-46.351-75.659-41.944-179.309,10.676-250.717a208.576,208.576,0,0,1,19.748-23.04Z" transform="translate(-69.645 -68.928)" fill="#fff" opacity="0.9"/>
    </g>
    <g id="freepik--Shadow--inject-9" transform="translate(56.11 552.161)">
      <ellipse id="freepik--path--inject-9" cx="277.463" cy="16.199" rx="277.463" ry="16.199" fill="#f5f5f5"/>
    </g>
    <g id="freepik--Plant--inject-9" transform="translate(74.64 453.09)">
      <path id="Tracé_1214" data-name="Tracé 1214" d="M93.717,346.909c.3,2.1-5.409,3.492-10.017,4.293.386,3.821,2.862,7.685,6.425,11.291,4.422-2.49,10.718-5.724,11.892-4.966s-5.238,4.98-9.3,7.47a84.431,84.431,0,0,0,9.144,6.926c1.975-1.846,4.293-3.477,5.724-2.59s1.045,3.764.329,6.325c4.808,2.791,8.4,4.493,8.4,4.493a97.717,97.717,0,0,0,3.22-13.638c-.243-.472-.487-.959-.716-1.431-.773-1.789,0-2.547,1.259-2.791a48.125,48.125,0,0,0,.086-9.831c-5.438-1.145-12.049-3.248-9.574-6.511,1.431-1.961,4.293-2.19,7.069-1.7a11.262,11.262,0,0,0-1.345-1.817c-9.888-10.9-16.786,0-16.786,0-5.724-4.794-13.838-3.506-15.584,3.993C87.163,345.549,93.345,344.319,93.717,346.909Z" transform="translate(-62.748 -334.873)" fill="#86c232"/>
      <path id="Tracé_1215" data-name="Tracé 1215" d="M93.717,346.909c.3,2.1-5.409,3.492-10.017,4.293.386,3.821,2.862,7.685,6.425,11.291,4.422-2.49,10.718-5.724,11.892-4.966s-5.238,4.98-9.3,7.47a84.431,84.431,0,0,0,9.144,6.926c1.975-1.846,4.293-3.477,5.724-2.59s1.045,3.764.329,6.325c4.808,2.791,8.4,4.493,8.4,4.493a97.717,97.717,0,0,0,3.22-13.638c-.243-.472-.487-.959-.716-1.431-.773-1.789,0-2.547,1.259-2.791a48.125,48.125,0,0,0,.086-9.831c-5.438-1.145-12.049-3.248-9.574-6.511,1.431-1.961,4.293-2.19,7.069-1.7a11.262,11.262,0,0,0-1.345-1.817c-9.888-10.9-16.786,0-16.786,0-5.724-4.794-13.838-3.506-15.584,3.993C87.163,345.549,93.345,344.319,93.717,346.909Z" transform="translate(-62.748 -334.873)" fill="#fff" opacity="0.3"/>
      <path id="Tracé_1216" data-name="Tracé 1216" d="M107.5,425l-1.431-.115c0-.744,5.853-73.741-10.532-80.624a5.6,5.6,0,0,0-4.966.129c-5.91,3.077-8.744,15.856-8.772,15.985l-1.431-.3c.114-.544,3.005-13.566,9.516-16.958a7,7,0,0,1,6.182-.172C113.427,350.226,107.746,422.006,107.5,425Z" transform="translate(-64.184 -332.838)" fill="#86c232"/>
      <path id="Tracé_1217" data-name="Tracé 1217" d="M101.386,426.289c-.286-3.277-6.983-80.51,5.524-88.724,3.005-1.975,5.724-2.39,7.942-1.245,5.91,2.991,6.683,15.613,6.712,16.156l-1.431.086c0-.129-.758-12.35-5.924-14.954-1.789-.9-3.978-.515-6.511,1.145-11.792,7.742-4.951,86.606-4.894,87.408Z" transform="translate(-56.007 -335.69)" fill="#86c232"/>
      <path id="Tracé_1218" data-name="Tracé 1218" d="M102.14,423.7c-.086-2.519-2.147-61.635,9.23-66.815a8.028,8.028,0,0,1,6.783,0c7.813,3.435,12.636,18,12.879,18.6l-1.359.444c0-.143-4.837-14.568-12.064-17.745a6.5,6.5,0,0,0-5.6,0c-8.729,3.964-9.03,48.655-8.4,65.456Z" transform="translate(-54.886 -326.877)" fill="#86c232"/>
      <path id="Tracé_1219" data-name="Tracé 1219" d="M104.047,423.318l-1.431-.157c2.018-17.6,5.853-64.5-.415-70.121a2.461,2.461,0,0,0-2.562-.8c-4.264,1.732-6.769,16.9-7.4,22.653l-1.431-.157c.243-2.2,2.533-21.58,8.3-23.784a3.749,3.749,0,0,1,4.021,1.059C111.245,359.237,104.348,420.7,104.047,423.318Z" transform="translate(-59.684 -329.199)" fill="#86c232"/>
      <path id="Tracé_1220" data-name="Tracé 1220" d="M83.37,378.15h51.417l-4.293,57.585H87.663Z" transform="translate(-62.89 -317.388)" fill="#263238"/>
      <path id="Tracé_1221" data-name="Tracé 1221" d="M94.28,378.15l1.431,57.585h30.08l4.293-57.585Z" transform="translate(-58.188 -317.388)" fill="#fff" opacity="0.2"/>
      <path id="Tracé_1222" data-name="Tracé 1222" d="M90.779,365.117c-.529,1.431-4.522.3-7.656-.816-1.073,2.49-.83,5.724.1,9.159,3.563,0,8.586.115,9.03,1.016s-4.937,1.331-8.271,1.431a58.27,58.27,0,0,0,3.277,7.413c1.846-.472,3.835-.673,4.379.343s-.644,2.676-1.961,4.007c2,3.377,3.635,5.724,3.635,5.724a67.119,67.119,0,0,0,6.654-7.355c0-.372,0-.758,0-1.145.143-1.431.873-1.588,1.746-1.3a34.344,34.344,0,0,0,3.42-6.039c-2.962-2.562-6.325-6.125-3.678-7.3,1.6-.687,3.363.1,4.937,1.431a7.312,7.312,0,0,0-.2-1.588c-2.361-10.117-10.346-5.724-10.346-5.724-1.9-4.923-7.341-6.883-10.976-2.862C87.216,362.026,91.451,363.385,90.779,365.117Z" transform="translate(-63.302 -325.491)" fill="#86c232"/>
      <path id="Tracé_1223" data-name="Tracé 1223" d="M90.779,365.117c-.529,1.431-4.522.3-7.656-.816-1.073,2.49-.83,5.724.1,9.159,3.563,0,8.586.115,9.03,1.016s-4.937,1.331-8.271,1.431a58.27,58.27,0,0,0,3.277,7.413c1.846-.472,3.835-.673,4.379.343s-.644,2.676-1.961,4.007c2,3.377,3.635,5.724,3.635,5.724a67.119,67.119,0,0,0,6.654-7.355c0-.372,0-.758,0-1.145.143-1.431.873-1.588,1.746-1.3a34.344,34.344,0,0,0,3.42-6.039c-2.962-2.562-6.325-6.125-3.678-7.3,1.6-.687,3.363.1,4.937,1.431a7.312,7.312,0,0,0-.2-1.588c-2.361-10.117-10.346-5.724-10.346-5.724-1.9-4.923-7.341-6.883-10.976-2.862C87.216,362.026,91.451,363.385,90.779,365.117Z" transform="translate(-63.302 -325.491)" fill="#fff" opacity="0.3"/>
      <path id="Tracé_1224" data-name="Tracé 1224" d="M116.568,372.248a19.308,19.308,0,0,0-4.694.987,10.948,10.948,0,0,1-.7-3.406c-.329-10.361,7.155-6,11.019-9.044a8.586,8.586,0,0,1,6.568-2.061,13.857,13.857,0,0,0-.887,1.789,1.6,1.6,0,0,0,1.245,2.2,4.665,4.665,0,0,0,2.862-.343,4.287,4.287,0,0,0,.744-.515,14.314,14.314,0,0,1,1.431,3.463,20.278,20.278,0,0,1,.673,4.436,12.73,12.73,0,0,0-1.746.5,1.617,1.617,0,0,0-.644,2.461,7.656,7.656,0,0,0,2.147,1.5,24.212,24.212,0,0,1-1.317,4.851l-.529.086c-.372.072-.744.172-1.116.272l-.615.229a1.552,1.552,0,0,0-.358,2.69,5.316,5.316,0,0,0,.773.472,11.448,11.448,0,0,1-4.107,4.136,41.833,41.833,0,0,1-4.379-2.3c.315-.415.63-.83.916-1.259a2.447,2.447,0,0,0,.444-1.631,2.29,2.29,0,0,0-.844-1.431,2.2,2.2,0,0,0-1.631-.444,2.29,2.29,0,0,0-1.431.844,14.506,14.506,0,0,1-1.1,1.431,27.018,27.018,0,0,1-5.266-5.123h.157a16.8,16.8,0,0,1,2.862-.487,2.2,2.2,0,0,0-.558-4.293Z" transform="translate(-50.911 -325.782)" fill="#86c232"/>
      <path id="Tracé_1225" data-name="Tracé 1225" d="M116.568,372.248a19.308,19.308,0,0,0-4.694.987,10.948,10.948,0,0,1-.7-3.406c-.329-10.361,7.155-6,11.019-9.044a8.586,8.586,0,0,1,6.568-2.061,13.857,13.857,0,0,0-.887,1.789,1.6,1.6,0,0,0,1.245,2.2,4.665,4.665,0,0,0,2.862-.343,4.287,4.287,0,0,0,.744-.515,14.314,14.314,0,0,1,1.431,3.463,20.278,20.278,0,0,1,.673,4.436,12.73,12.73,0,0,0-1.746.5,1.617,1.617,0,0,0-.644,2.461,7.656,7.656,0,0,0,2.147,1.5,24.212,24.212,0,0,1-1.317,4.851l-.529.086c-.372.072-.744.172-1.116.272l-.615.229a1.552,1.552,0,0,0-.358,2.69,5.316,5.316,0,0,0,.773.472,11.448,11.448,0,0,1-4.107,4.136,41.833,41.833,0,0,1-4.379-2.3c.315-.415.63-.83.916-1.259a2.447,2.447,0,0,0,.444-1.631,2.29,2.29,0,0,0-.844-1.431,2.2,2.2,0,0,0-1.631-.444,2.29,2.29,0,0,0-1.431.844,14.506,14.506,0,0,1-1.1,1.431,27.018,27.018,0,0,1-5.266-5.123h.157a16.8,16.8,0,0,1,2.862-.487,2.2,2.2,0,0,0-.558-4.293Z" transform="translate(-50.911 -325.782)" fill="#fff" opacity="0.5"/>
      <path id="Tracé_1226" data-name="Tracé 1226" d="M120.935,345.023a12.881,12.881,0,0,1,2.862-1.545,7.4,7.4,0,0,0-1.131-2.089c-4.379-5.6-6.354,0-9.76.086a5.839,5.839,0,0,0-4.293,1.789,12.131,12.131,0,0,1,1.245.544,1.1,1.1,0,0,1,.315,1.717,3.177,3.177,0,0,1-1.674,1.1,4.682,4.682,0,0,1-.63,0,10.776,10.776,0,0,0,.773,2.447,13.666,13.666,0,0,0,1.6,2.619,9,9,0,0,1,1.131-.5,1.1,1.1,0,0,1,1.431,1,5.008,5.008,0,0,1-.472,1.732,16.817,16.817,0,0,0,2.862,1.989l.315-.2.716-.343a2.158,2.158,0,0,1,.429-.143,1.1,1.1,0,0,1,1.059.229,1.116,1.116,0,0,1,.329,1.059,4.636,4.636,0,0,1-.186.587,7.8,7.8,0,0,0,3.964.372,26.469,26.469,0,0,0,1.288-3.134l-1.03-.258a1.7,1.7,0,0,1-.944-.658,1.531,1.531,0,0,1-.2-1.145,1.431,1.431,0,0,1,.658-.944,1.531,1.531,0,0,1,1.145-.2c.4.115.816.2,1.216.3a18.189,18.189,0,0,0,.529-4.994h-.1a11.118,11.118,0,0,0-1.746,1.016,1.506,1.506,0,1,1-1.631-2.533Z" transform="translate(-52.33 -334.304)" fill="#86c232"/>
      <path id="Tracé_1227" data-name="Tracé 1227" d="M120.935,345.023a12.881,12.881,0,0,1,2.862-1.545,7.4,7.4,0,0,0-1.131-2.089c-4.379-5.6-6.354,0-9.76.086a5.839,5.839,0,0,0-4.293,1.789,12.131,12.131,0,0,1,1.245.544,1.1,1.1,0,0,1,.315,1.717,3.177,3.177,0,0,1-1.674,1.1,4.682,4.682,0,0,1-.63,0,10.776,10.776,0,0,0,.773,2.447,13.666,13.666,0,0,0,1.6,2.619,9,9,0,0,1,1.131-.5,1.1,1.1,0,0,1,1.431,1,5.008,5.008,0,0,1-.472,1.732,16.817,16.817,0,0,0,2.862,1.989l.315-.2.716-.343a2.158,2.158,0,0,1,.429-.143,1.1,1.1,0,0,1,1.059.229,1.116,1.116,0,0,1,.329,1.059,4.636,4.636,0,0,1-.186.587,7.8,7.8,0,0,0,3.964.372,26.469,26.469,0,0,0,1.288-3.134l-1.03-.258a1.7,1.7,0,0,1-.944-.658,1.531,1.531,0,0,1-.2-1.145,1.431,1.431,0,0,1,.658-.944,1.531,1.531,0,0,1,1.145-.2c.4.115.816.2,1.216.3a18.189,18.189,0,0,0,.529-4.994h-.1a11.118,11.118,0,0,0-1.746,1.016,1.506,1.506,0,1,1-1.631-2.533Z" transform="translate(-52.33 -334.304)" fill="#fff" opacity="0.3"/>
      <path id="Tracé_1228" data-name="Tracé 1228" d="M95.792,353.26c-.3,2.1,5.409,3.492,10.017,4.293-.386,3.821-2.862,7.685-6.44,11.277-4.408-2.476-10.718-5.724-11.878-4.966s5.195,5.052,9.23,7.5a82.565,82.565,0,0,1-9.144,6.9c-1.975-1.846-4.293-3.463-5.724-2.59s-1.045,3.778-.329,6.325c-4.808,2.862-8.4,4.508-8.4,4.508a97.728,97.728,0,0,1-3.22-13.638c.243-.487.487-.959.7-1.431.787-1.789,0-2.547-1.245-2.862a47.11,47.11,0,0,1-.086-9.831c5.438-1.13,12.049-3.248,9.574-6.511-1.431-1.961-4.222-2.189-7.069-1.689a11.448,11.448,0,0,1,1.345-1.832c9.888-10.9,16.786,0,16.786,0,5.724-4.794,13.824-3.492,15.57,3.993C102.346,351.887,96.164,350.656,95.792,353.26Z" transform="translate(-69.059 -332.166)" fill="#86c232"/>
      <path id="Tracé_1229" data-name="Tracé 1229" d="M95.792,353.26c-.3,2.1,5.409,3.492,10.017,4.293-.386,3.821-2.862,7.685-6.44,11.277-4.408-2.476-10.718-5.724-11.878-4.966s5.195,5.052,9.23,7.5a82.565,82.565,0,0,1-9.144,6.9c-1.975-1.846-4.293-3.463-5.724-2.59s-1.045,3.778-.329,6.325c-4.808,2.862-8.4,4.508-8.4,4.508a97.728,97.728,0,0,1-3.22-13.638c.243-.487.487-.959.7-1.431.787-1.789,0-2.547-1.245-2.862a47.11,47.11,0,0,1-.086-9.831c5.438-1.13,12.049-3.248,9.574-6.511-1.431-1.961-4.222-2.189-7.069-1.689a11.448,11.448,0,0,1,1.345-1.832c9.888-10.9,16.786,0,16.786,0,5.724-4.794,13.824-3.492,15.57,3.993C102.346,351.887,96.164,350.656,95.792,353.26Z" transform="translate(-69.059 -332.166)" fill="#fff" opacity="0.5"/>
    </g>
    <g id="freepik--Lamp--inject-9" transform="translate(519.364 304.163)">
      <path id="Tracé_1230" data-name="Tracé 1230" d="M387.872,489.679l27.4-182.1v182.1h7.355V306.449l27.433,183.23h7.885L423.605,260.313l-.973.143V253h-7.355v7.427l-1.016-.115L379.83,489.679Z" transform="translate(-379.83 -222.404)" fill="#86c232"/>
      <path id="Tracé_1231" data-name="Tracé 1231" d="M387.872,489.679l27.4-182.1v182.1h7.355V306.449l27.433,183.23h7.885L423.605,260.313l-.973.143V253h-7.355v7.427l-1.016-.115L379.83,489.679Z" transform="translate(-379.83 -222.404)" fill="#fff" opacity="0.3"/>
      <path id="Tracé_1232" data-name="Tracé 1232" d="M456.356,294.972H380.54l6.139-63.352h63.538Z" transform="translate(-379.524 -231.62)" fill="#86c232"/>
      <g id="Groupe_112" data-name="Groupe 112" transform="translate(1.016)" opacity="0.5">
        <path id="Tracé_1233" data-name="Tracé 1233" d="M456.356,294.972H380.54l6.139-63.352h63.538Z" transform="translate(-380.54 -231.62)" fill="#fff"/>
      </g>
    </g>
    <g id="freepik--Fingerprint--inject-9" transform="translate(375.801 221.038)">
      <path id="Tracé_1234" data-name="Tracé 1234" d="M308.833,237.754H283.9a2,2,0,0,1-2-2V176.72a1.677,1.677,0,1,0-1.431,0v59.016a3.42,3.42,0,0,0,3.434,3.434h24.929a2,2,0,0,1,2,2v33.787h1.431V241.188a3.434,3.434,0,0,0-3.434-3.434Z" transform="translate(-279.509 -173.533)" fill="#86c232"/>
      <path id="Tracé_1235" data-name="Tracé 1235" d="M308.833,237.754H283.9a2,2,0,0,1-2-2V176.72a1.677,1.677,0,1,0-1.431,0v59.016a3.42,3.42,0,0,0,3.434,3.434h24.929a2,2,0,0,1,2,2v33.787h1.431V241.188a3.434,3.434,0,0,0-3.434-3.434Z" transform="translate(-279.509 -173.533)" fill="#fff" opacity="0.4"/>
      <rect id="Rectangle_116" data-name="Rectangle 116" width="62.035" height="65.069" rx="2.69" transform="translate(0.961 100.011)" fill="#86c232"/>
      <rect id="Rectangle_117" data-name="Rectangle 117" width="62.035" height="65.069" rx="2.69" transform="translate(0.961 100.011)" fill="#fff" opacity="0.4"/>
      <rect id="Rectangle_118" data-name="Rectangle 118" width="8.343" height="8.343" transform="translate(27.807 137.433)" fill="#fff" opacity="0.2"/>
      <rect id="Rectangle_119" data-name="Rectangle 119" width="8.343" height="8.343" transform="translate(36.866 110.257)" fill="#fff" opacity="0.2"/>
      <rect id="Rectangle_120" data-name="Rectangle 120" width="8.343" height="8.343" transform="translate(18.749 146.491)" fill="#fff" opacity="0.2"/>
      <rect id="Rectangle_121" data-name="Rectangle 121" width="8.343" height="8.343" transform="translate(36.866 119.316)" fill="#fff" opacity="0.2"/>
      <rect id="Rectangle_122" data-name="Rectangle 122" width="8.343" height="8.343" transform="translate(36.866 128.374)" fill="#fff" opacity="0.2"/>
      <rect id="Rectangle_123" data-name="Rectangle 123" width="8.343" height="8.343" transform="translate(27.807 119.316)" fill="#fff" opacity="0.2"/>
      <rect id="Rectangle_124" data-name="Rectangle 124" width="8.343" height="8.815" transform="translate(27.807 100.727)" fill="#fff" opacity="0.2"/>
      <rect id="Rectangle_125" data-name="Rectangle 125" width="8.343" height="8.343" transform="translate(18.749 137.433)" fill="#fff" opacity="0.2"/>
      <rect id="Rectangle_126" data-name="Rectangle 126" width="8.343" height="8.343" transform="translate(27.807 110.257)" fill="#fff" opacity="0.2"/>
      <rect id="Rectangle_127" data-name="Rectangle 127" width="8.343" height="8.343" transform="translate(27.807 146.491)" fill="#fff" opacity="0.2"/>
      <rect id="Rectangle_128" data-name="Rectangle 128" width="8.343" height="8.343" transform="translate(36.866 146.491)" fill="#fff" opacity="0.2"/>
      <rect id="Rectangle_129" data-name="Rectangle 129" width="8.343" height="8.343" transform="translate(27.807 128.374)" fill="#fff" opacity="0.2"/>
      <rect id="Rectangle_130" data-name="Rectangle 130" width="8.343" height="8.815" transform="translate(36.866 100.727)" fill="#fff" opacity="0.2"/>
      <rect id="Rectangle_131" data-name="Rectangle 131" width="7.298" height="8.343" transform="translate(1.676 137.433)" fill="#fff" opacity="0.2"/>
      <rect id="Rectangle_132" data-name="Rectangle 132" width="7.298" height="8.343" transform="translate(1.676 110.257)" fill="#fff" opacity="0.2"/>
      <rect id="Rectangle_133" data-name="Rectangle 133" width="7.298" height="8.343" transform="translate(1.676 128.374)" fill="#fff" opacity="0.2"/>
      <rect id="Rectangle_134" data-name="Rectangle 134" width="7.298" height="8.343" transform="translate(1.676 119.316)" fill="#fff" opacity="0.2"/>
      <rect id="Rectangle_135" data-name="Rectangle 135" width="8.343" height="8.343" transform="translate(36.866 137.433)" fill="#fff" opacity="0.2"/>
      <path id="Tracé_1236" data-name="Tracé 1236" d="M317.943,252.748H325.2v-5.724a3.134,3.134,0,0,0-3.134-3.134H317.9Z" transform="translate(-262.96 -143.206)" fill="#fff" opacity="0.2"/>
      <rect id="Rectangle_136" data-name="Rectangle 136" width="8.343" height="8.343" transform="translate(45.924 110.257)" fill="#fff" opacity="0.2"/>
      <rect id="Rectangle_137" data-name="Rectangle 137" width="7.298" height="8.343" transform="translate(1.676 146.491)" fill="#fff" opacity="0.2"/>
      <rect id="Rectangle_138" data-name="Rectangle 138" width="8.343" height="8.343" transform="translate(45.924 119.316)" fill="#fff" opacity="0.2"/>
      <rect id="Rectangle_139" data-name="Rectangle 139" width="8.343" height="8.343" transform="translate(45.924 128.374)" fill="#fff" opacity="0.2"/>
      <rect id="Rectangle_140" data-name="Rectangle 140" width="8.343" height="8.343" transform="translate(45.924 137.433)" fill="#fff" opacity="0.2"/>
      <rect id="Rectangle_141" data-name="Rectangle 141" width="8.343" height="8.343" transform="translate(45.924 146.491)" fill="#fff" opacity="0.2"/>
      <rect id="Rectangle_142" data-name="Rectangle 142" width="7.298" height="8.343" transform="translate(54.982 146.491)" fill="#fff" opacity="0.2"/>
      <rect id="Rectangle_143" data-name="Rectangle 143" width="8.343" height="8.815" transform="translate(45.924 100.727)" fill="#fff" opacity="0.2"/>
      <rect id="Rectangle_144" data-name="Rectangle 144" width="8.343" height="8.815" transform="translate(27.807 155.564)" fill="#fff" opacity="0.2"/>
      <rect id="Rectangle_145" data-name="Rectangle 145" width="8.343" height="8.815" transform="translate(36.866 155.564)" fill="#fff" opacity="0.2"/>
      <rect id="Rectangle_146" data-name="Rectangle 146" width="7.298" height="8.343" transform="translate(54.982 128.374)" fill="#fff" opacity="0.2"/>
      <rect id="Rectangle_147" data-name="Rectangle 147" width="8.343" height="8.815" transform="translate(45.924 155.564)" fill="#fff" opacity="0.2"/>
      <rect id="Rectangle_148" data-name="Rectangle 148" width="7.298" height="8.343" transform="translate(54.982 137.433)" fill="#fff" opacity="0.2"/>
      <path id="Tracé_1237" data-name="Tracé 1237" d="M287.964,282.24H280.68v5.724a3.134,3.134,0,0,0,3.134,3.12h4.15Z" transform="translate(-279.004 -126.676)" fill="#fff" opacity="0.2"/>
      <path id="Tracé_1238" data-name="Tracé 1238" d="M317.93,282.253v8.8h4.164a3.134,3.134,0,0,0,3.134-3.12V282.21Z" transform="translate(-262.948 -126.689)" fill="#fff" opacity="0.2"/>
      <path id="Tracé_1239" data-name="Tracé 1239" d="M287.964,252.735V243.92h-4.15a3.134,3.134,0,0,0-3.134,3.134v5.724Z" transform="translate(-279.004 -143.193)" fill="#fff" opacity="0.2"/>
      <rect id="Rectangle_149" data-name="Rectangle 149" width="7.298" height="8.343" transform="translate(54.982 119.316)" fill="#fff" opacity="0.2"/>
      <rect id="Rectangle_150" data-name="Rectangle 150" width="7.298" height="8.343" transform="translate(54.982 110.257)" fill="#fff" opacity="0.2"/>
      <rect id="Rectangle_151" data-name="Rectangle 151" width="8.343" height="8.343" transform="translate(9.676 128.374)" fill="#fff" opacity="0.2"/>
      <rect id="Rectangle_152" data-name="Rectangle 152" width="8.343" height="8.343" transform="translate(9.676 146.491)" fill="#fff" opacity="0.2"/>
      <rect id="Rectangle_153" data-name="Rectangle 153" width="8.343" height="8.815" transform="translate(18.749 100.727)" fill="#fff" opacity="0.2"/>
      <rect id="Rectangle_154" data-name="Rectangle 154" width="8.343" height="8.343" transform="translate(9.676 137.433)" fill="#fff" opacity="0.2"/>
      <rect id="Rectangle_155" data-name="Rectangle 155" width="8.343" height="8.343" transform="translate(18.749 119.316)" fill="#fff" opacity="0.2"/>
      <rect id="Rectangle_156" data-name="Rectangle 156" width="8.343" height="8.343" transform="translate(18.749 110.257)" fill="#fff" opacity="0.2"/>
      <rect id="Rectangle_157" data-name="Rectangle 157" width="8.343" height="8.815" transform="translate(18.749 155.564)" fill="#fff" opacity="0.2"/>
      <rect id="Rectangle_158" data-name="Rectangle 158" width="8.343" height="8.815" transform="translate(9.676 155.564)" fill="#fff" opacity="0.2"/>
      <rect id="Rectangle_159" data-name="Rectangle 159" width="8.343" height="8.815" transform="translate(9.676 100.727)" fill="#fff" opacity="0.2"/>
      <rect id="Rectangle_160" data-name="Rectangle 160" width="8.343" height="8.343" transform="translate(18.749 128.374)" fill="#fff" opacity="0.2"/>
      <rect id="Rectangle_161" data-name="Rectangle 161" width="8.343" height="8.343" transform="translate(9.676 119.316)" fill="#fff" opacity="0.2"/>
      <rect id="Rectangle_162" data-name="Rectangle 162" width="8.343" height="8.343" transform="translate(9.676 110.257)" fill="#fff" opacity="0.2"/>
      <path id="Tracé_1240" data-name="Tracé 1240" d="M321.236,263.077a12.236,12.236,0,0,0-.529-1.918,15.14,15.14,0,0,0-26.1-4.451,14.755,14.755,0,0,0-1.989,3.248,15.1,15.1,0,0,0-1.345,6.225v12.994a14.8,14.8,0,0,0,.458,3.678h0a13.111,13.111,0,0,0,.959,2.662h0a14.786,14.786,0,0,0,1.288,2.275h0a15.01,15.01,0,0,0,1.188,1.431,15.453,15.453,0,0,0,1.646,1.574,16.042,16.042,0,0,0,1.5,1.088,15.6,15.6,0,0,0,2.862,1.431h0c.487.172.973.329,1.431.458a17.182,17.182,0,0,0,1.9.358,12.557,12.557,0,0,0,1.431.1h.386a15.737,15.737,0,0,0,2.333-.172c.487-.086.973-.186,1.431-.3h0A15.255,15.255,0,0,0,315,291.483a14.047,14.047,0,0,0,1.531-1.231,15.282,15.282,0,0,0,3.234-4.207,14.213,14.213,0,0,0,1.045-2.547,14.454,14.454,0,0,0,.644-3.964h0V266.1A14.852,14.852,0,0,0,321.236,263.077Zm-3.392,23.684a13.565,13.565,0,0,1-2.977,3.22,11.594,11.594,0,0,1-1.331.916,13.652,13.652,0,0,1-3.964,1.646h0a14.187,14.187,0,0,1-1.431.243,13.887,13.887,0,0,1-1.732.114h-.644a4.727,4.727,0,0,1-1.431-.143,14.517,14.517,0,0,1-1.774-.4,12.913,12.913,0,0,1-1.431-.515,14.585,14.585,0,0,1-2.862-1.631,13.09,13.09,0,0,1-1.359-1.174,12.607,12.607,0,0,1-1.431-1.6,13.728,13.728,0,0,1-1.116-1.732h0a13.094,13.094,0,0,1-1.145-2.862,13.583,13.583,0,0,1-.5-3.678V266.168a13.6,13.6,0,0,1,2.862-8.329,13.809,13.809,0,0,1,4.608-3.864,13.5,13.5,0,0,1,6.282-1.531,13.738,13.738,0,0,1,13.394,10.7h0a13.679,13.679,0,0,1,.329,2.991v13.108a14.581,14.581,0,0,1-.258,2.519h0a13.739,13.739,0,0,1-1.073,3.22A12.543,12.543,0,0,1,317.844,286.761Z" transform="translate(-274.439 -140.127)" fill="#fff"/>
      <path id="Tracé_1241" data-name="Tracé 1241" d="M307.314,270.488c-1.531,4.851-3.52,11.234-2.376,18.6.072.472.157.944.258,1.431a12.545,12.545,0,0,1-1.431-.1c-.1-.5-.186-.987-.243-1.431-1.088-7.584.93-14.038,2.461-18.947,1.631-5.209,2.3-7.756-.157-8.8a2.361,2.361,0,0,0-2.361.315c-3.907,2.59-7.4,13.767-8.787,22.109q-.172.987-.3,1.889c-.415-.472-.8-.959-1.188-1.431h0c.1-.687.229-1.431.372-2.132h0c1.574-8.271,4.937-18.789,9.116-21.551a3.792,3.792,0,0,1,3.706-.444C310.09,261.558,308.874,265.493,307.314,270.488Z" transform="translate(-273.611 -136.389)" fill="#fff"/>
      <path id="Tracé_1242" data-name="Tracé 1242" d="M303.967,268.982c-1.431,4.594-3.535,11.319-3.12,18.475a6.842,6.842,0,0,0,.114,1.517,12.908,12.908,0,0,1-1.431-.458h0c0-.529-.072-1.045-.086-1.574-.286-7.155,1.789-13.824,3.22-18.389a24.069,24.069,0,0,0,1.2-4.651c-1.732,1.546-7.155,14.139-7.255,21.466a10.108,10.108,0,0,0,.072,1.774,16.039,16.039,0,0,1-1.5-1.088,16.686,16.686,0,0,1,.072-1.86c.6-7.584,5.166-19.018,7.656-21.279a1.431,1.431,0,0,1,1.531-.444C305.856,262.971,305.183,265.1,303.967,268.982Z" transform="translate(-272.754 -135.227)" fill="#fff"/>
      <path id="Tracé_1243" data-name="Tracé 1243" d="M309.435,289.968a12.75,12.75,0,0,0,.6,1.317c-.458.114-.944.215-1.431.3a12.358,12.358,0,0,1-.6-1.431c-1.173-3.062-1.789-7.713.343-14.067,4.164-12.393,3.434-15.341.343-16.972a5.5,5.5,0,0,0-5.238-.172c-4.293,2.118-8,9.774-10.389,21.279-.186.873-.358,1.76-.515,2.676a13.106,13.106,0,0,1-.959-2.662h0c.3-1.431.63-2.862.973-4.293,2.49-9.846,6.053-16.242,10.261-18.317a6.812,6.812,0,0,1,6.54.172c4.293,2.29,4.393,6.654.343,18.689-2.075,6.182-1.431,10.59-.286,13.38Z" transform="translate(-274.301 -137.61)" fill="#fff"/>
      <path id="Tracé_1244" data-name="Tracé 1244" d="M316.638,288.656a14.053,14.053,0,0,1-1.531,1.231l-.587-.186a4.18,4.18,0,0,1-.973-.5,7.427,7.427,0,0,1-3.163-4.622c-.744-2.676.472-6.54,1.774-10.618s2.647-8.343,2-11.448A7.3,7.3,0,0,0,310.4,257.2c-2.5-1.245-5.839-1.03-9.373.615s-6.568,6.912-8.314,10.99c-.615,1.431-1.1,2.748-1.431,3.706v-4.021c.415-.973.887-2.032,1.431-3.091,1.846-3.62,4.436-7.356,7.7-8.872,3.95-1.846,7.728-2.061,10.633-.6a8.672,8.672,0,0,1,4.522,6.3c.716,3.435-.687,7.856-2.046,12.135-1.231,3.878-2.39,7.527-1.76,9.8a5.838,5.838,0,0,0,3.12,4.093l.157.072A4.294,4.294,0,0,0,316.638,288.656Z" transform="translate(-274.435 -138.43)" fill="#fff"/>
      <path id="Tracé_1245" data-name="Tracé 1245" d="M320.552,282.965a14.209,14.209,0,0,1-1.045,2.547,5.724,5.724,0,0,1-2.018.615h-.758a3.735,3.735,0,0,1-3.334-2.862c-.63-2.132.4-6.139,1.431-10.375a40.914,40.914,0,0,0,1.6-8.228c0-4.408-1.145-9.13-9.6-10.633-4.293-.773-10.475,1.975-14.1,7.842-.716,1.145.215-3.248-.572-2.6.515-1.173,1.317-1.116,2.1-2.1,1.588-1.03,6.01-5.4,12.808-4.551,9.745,1.2,10.79,7.7,10.79,12.049a40.067,40.067,0,0,1-1.66,8.586c-.945,3.678-2,7.856-1.431,9.617a2.333,2.333,0,0,0,2.061,1.832,3.378,3.378,0,0,0,1.588-.286A6.312,6.312,0,0,0,320.552,282.965Z" transform="translate(-274.055 -139.493)" fill="#fff"/>
      <path id="Tracé_1246" data-name="Tracé 1246" d="M313.96,272.764v3.807h0a6.068,6.068,0,0,1-1.674,2.175h0a2.862,2.862,0,0,1-1.7.544h-.415a1.3,1.3,0,0,1-1.016-.73c-.644-1.188.157-3.592.687-4.923a29.022,29.022,0,0,0,2.375-13.509h0a9.784,9.784,0,0,1,.086-1.345.744.744,0,0,1,.758-.673h0a12.239,12.239,0,0,1,.529,1.918c0,1.059-.172,2.118-.272,3.177-.2,2.032-.444,4.064-.83,6.082-.1.544.358.329.243.873a25.76,25.76,0,0,1-1.259,3.148c-.343.787-.73,1.56-1,2.376-.172.487-.8,2.776.487,2.275a2.863,2.863,0,0,0,1.159-1.1c.129-.2.258-.4.372-.615a16.508,16.508,0,0,0,1.059-2.418A7.382,7.382,0,0,0,313.96,272.764Z" transform="translate(-266.834 -137.077)" fill="#fff"/>
    </g>
    <g id="freepik--iris-recognition--inject-9" transform="translate(275.119 63.32)">
      <path id="Tracé_1247" data-name="Tracé 1247" d="M251.45,98.73v36.491a2,2,0,0,1-2,2H212.34a1.646,1.646,0,0,0-1.431-.959,1.674,1.674,0,1,0,1.431,2.39h37.107a3.449,3.449,0,0,0,3.434-3.434V98.73Z" transform="translate(-209.153 -48.057)" fill="#86c232"/>
      <path id="Tracé_1248" data-name="Tracé 1248" d="M251.45,98.73v36.491a2,2,0,0,1-2,2H212.34a1.646,1.646,0,0,0-1.431-.959,1.674,1.674,0,1,0,1.431,2.39h37.107a3.449,3.449,0,0,0,3.434-3.434V98.73Z" transform="translate(-209.153 -48.057)" fill="#fff" opacity="0.4"/>
      <rect id="Rectangle_163" data-name="Rectangle 163" width="62.035" height="65.069" rx="2.69" transform="translate(75.54) rotate(90)" fill="#86c232"/>
      <rect id="Rectangle_164" data-name="Rectangle 164" width="62.035" height="65.069" rx="2.69" transform="translate(75.54) rotate(90)" fill="#fff" opacity="0.4"/>
      <rect id="Rectangle_165" data-name="Rectangle 165" width="8.343" height="8.343" transform="translate(29.776 26.846)" fill="#fff" opacity="0.2"/>
      <rect id="Rectangle_166" data-name="Rectangle 166" width="8.343" height="8.343" transform="translate(56.951 35.905)" fill="#fff" opacity="0.2"/>
      <rect id="Rectangle_167" data-name="Rectangle 167" width="8.343" height="8.343" transform="translate(20.717 17.773)" fill="#fff" opacity="0.2"/>
      <rect id="Rectangle_168" data-name="Rectangle 168" width="8.343" height="8.343" transform="translate(47.893 35.905)" fill="#fff" opacity="0.2"/>
      <rect id="Rectangle_169" data-name="Rectangle 169" width="8.343" height="8.343" transform="translate(38.834 35.905)" fill="#fff" opacity="0.2"/>
      <rect id="Rectangle_170" data-name="Rectangle 170" width="8.343" height="8.343" transform="translate(47.893 26.846)" fill="#fff" opacity="0.2"/>
      <rect id="Rectangle_171" data-name="Rectangle 171" width="8.815" height="8.343" transform="translate(66.024 26.846)" fill="#fff" opacity="0.2"/>
      <rect id="Rectangle_172" data-name="Rectangle 172" width="8.343" height="8.343" transform="translate(29.776 17.773)" fill="#fff" opacity="0.2"/>
      <rect id="Rectangle_173" data-name="Rectangle 173" width="8.343" height="8.343" transform="translate(56.951 26.846)" fill="#fff" opacity="0.2"/>
      <rect id="Rectangle_174" data-name="Rectangle 174" width="8.343" height="8.343" transform="translate(20.717 26.846)" fill="#fff" opacity="0.2"/>
      <rect id="Rectangle_175" data-name="Rectangle 175" width="8.343" height="8.343" transform="translate(20.717 35.905)" fill="#fff" opacity="0.2"/>
      <rect id="Rectangle_176" data-name="Rectangle 176" width="8.343" height="8.343" transform="translate(38.834 26.846)" fill="#fff" opacity="0.2"/>
      <rect id="Rectangle_177" data-name="Rectangle 177" width="8.815" height="8.343" transform="translate(66.024 35.905)" fill="#fff" opacity="0.2"/>
      <rect id="Rectangle_178" data-name="Rectangle 178" width="8.343" height="7.298" transform="translate(29.776 0.716)" fill="#fff" opacity="0.2"/>
      <rect id="Rectangle_179" data-name="Rectangle 179" width="8.343" height="7.298" transform="translate(56.951 0.716)" fill="#fff" opacity="0.2"/>
      <rect id="Rectangle_180" data-name="Rectangle 180" width="8.343" height="7.298" transform="translate(38.834 0.716)" fill="#fff" opacity="0.2"/>
      <rect id="Rectangle_181" data-name="Rectangle 181" width="8.343" height="7.298" transform="translate(47.893 0.716)" fill="#fff" opacity="0.2"/>
      <rect id="Rectangle_182" data-name="Rectangle 182" width="8.343" height="8.343" transform="translate(29.776 35.905)" fill="#fff" opacity="0.2"/>
      <path id="Tracé_1249" data-name="Tracé 1249" d="M255.29,101.07v7.3h5.724a3.134,3.134,0,0,0,3.12-3.134V101.07Z" transform="translate(-189.266 -47.048)" fill="#fff" opacity="0.2"/>
      <rect id="Rectangle_183" data-name="Rectangle 183" width="8.343" height="8.343" transform="translate(56.951 44.963)" fill="#fff" opacity="0.2"/>
      <rect id="Rectangle_184" data-name="Rectangle 184" width="8.343" height="7.298" transform="translate(20.717 0.716)" fill="#fff" opacity="0.2"/>
      <rect id="Rectangle_185" data-name="Rectangle 185" width="8.343" height="8.343" transform="translate(47.893 44.963)" fill="#fff" opacity="0.2"/>
      <rect id="Rectangle_186" data-name="Rectangle 186" width="8.343" height="8.343" transform="translate(38.834 44.963)" fill="#fff" opacity="0.2"/>
      <rect id="Rectangle_187" data-name="Rectangle 187" width="8.343" height="8.343" transform="translate(29.776 44.963)" fill="#fff" opacity="0.2"/>
      <rect id="Rectangle_188" data-name="Rectangle 188" width="8.343" height="8.343" transform="translate(20.717 44.963)" fill="#fff" opacity="0.2"/>
      <rect id="Rectangle_189" data-name="Rectangle 189" width="8.343" height="7.298" transform="translate(20.717 54.022)" fill="#fff" opacity="0.2"/>
      <rect id="Rectangle_190" data-name="Rectangle 190" width="8.815" height="8.343" transform="translate(66.024 44.963)" fill="#fff" opacity="0.2"/>
      <rect id="Rectangle_191" data-name="Rectangle 191" width="8.815" height="8.343" transform="translate(11.187 26.846)" fill="#fff" opacity="0.2"/>
      <rect id="Rectangle_192" data-name="Rectangle 192" width="8.815" height="8.343" transform="translate(11.187 35.905)" fill="#fff" opacity="0.2"/>
      <rect id="Rectangle_193" data-name="Rectangle 193" width="8.343" height="7.298" transform="translate(38.834 54.022)" fill="#fff" opacity="0.2"/>
      <rect id="Rectangle_194" data-name="Rectangle 194" width="8.815" height="8.343" transform="translate(11.187 44.963)" fill="#fff" opacity="0.2"/>
      <rect id="Rectangle_195" data-name="Rectangle 195" width="8.343" height="7.298" transform="translate(29.776 54.022)" fill="#fff" opacity="0.2"/>
      <path id="Tracé_1250" data-name="Tracé 1250" d="M225.772,71.1V63.82h-5.724A3.134,3.134,0,0,0,217,66.94V71.1Z" transform="translate(-205.77 -63.104)" fill="#fff" opacity="0.2"/>
      <path id="Tracé_1251" data-name="Tracé 1251" d="M225.772,101.07H217v4.193a3.134,3.134,0,0,0,3.134,3.134h5.724Z" transform="translate(-205.77 -47.048)" fill="#fff" opacity="0.2"/>
      <path id="Tracé_1252" data-name="Tracé 1252" d="M255.3,71.1h8.8V66.94a3.134,3.134,0,0,0-3.12-3.12H255.26Z" transform="translate(-189.279 -63.104)" fill="#fff" opacity="0.2"/>
      <rect id="Rectangle_196" data-name="Rectangle 196" width="8.343" height="7.298" transform="translate(47.893 54.022)" fill="#fff" opacity="0.2"/>
      <rect id="Rectangle_197" data-name="Rectangle 197" width="8.343" height="7.298" transform="translate(56.951 54.022)" fill="#fff" opacity="0.2"/>
      <rect id="Rectangle_198" data-name="Rectangle 198" width="8.343" height="8.343" transform="translate(38.834 8.715)" fill="#fff" opacity="0.2"/>
      <rect id="Rectangle_199" data-name="Rectangle 199" width="8.343" height="8.343" transform="translate(20.717 8.715)" fill="#fff" opacity="0.2"/>
      <rect id="Rectangle_200" data-name="Rectangle 200" width="8.815" height="8.343" transform="translate(66.024 17.773)" fill="#fff" opacity="0.2"/>
      <rect id="Rectangle_201" data-name="Rectangle 201" width="8.343" height="8.343" transform="translate(29.776 8.715)" fill="#fff" opacity="0.2"/>
      <rect id="Rectangle_202" data-name="Rectangle 202" width="8.343" height="8.343" transform="translate(47.893 17.773)" fill="#fff" opacity="0.2"/>
      <rect id="Rectangle_203" data-name="Rectangle 203" width="8.343" height="8.343" transform="translate(56.951 17.773)" fill="#fff" opacity="0.2"/>
      <rect id="Rectangle_204" data-name="Rectangle 204" width="8.815" height="8.343" transform="translate(11.187 17.773)" fill="#fff" opacity="0.2"/>
      <rect id="Rectangle_205" data-name="Rectangle 205" width="8.815" height="8.343" transform="translate(11.187 8.715)" fill="#fff" opacity="0.2"/>
      <rect id="Rectangle_206" data-name="Rectangle 206" width="8.815" height="8.343" transform="translate(66.024 8.715)" fill="#fff" opacity="0.2"/>
      <rect id="Rectangle_207" data-name="Rectangle 207" width="8.343" height="8.343" transform="translate(38.834 17.773)" fill="#fff" opacity="0.2"/>
      <rect id="Rectangle_208" data-name="Rectangle 208" width="8.343" height="8.343" transform="translate(47.893 8.715)" fill="#fff" opacity="0.2"/>
      <rect id="Rectangle_209" data-name="Rectangle 209" width="8.343" height="8.343" transform="translate(56.951 8.715)" fill="#fff" opacity="0.2"/>
      <path id="Tracé_1253" data-name="Tracé 1253" d="M226,87.827s8.443,10.017,18.875,10.017,18.861-10.017,18.861-10.017S255.293,77.81,244.875,77.81,226,87.827,226,87.827Z" transform="translate(-201.891 -57.074)" fill="none" stroke="#fff" stroke-linecap="round" stroke-linejoin="round" stroke-width="1"/>
      <path id="Tracé_1254" data-name="Tracé 1254" d="M247.766,85.788A6.583,6.583,0,1,1,241.2,79.22,6.583,6.583,0,0,1,247.766,85.788Z" transform="translate(-198.184 -56.467)" fill="none" stroke="#fff" stroke-miterlimit="10" stroke-width="1"/>
      <path id="Tracé_1255" data-name="Tracé 1255" d="M239.72,82.437a2.132,2.132,0,1,1,2.132,2.118,2.132,2.132,0,0,1-2.132-2.118Z" transform="translate(-195.977 -56.005)" fill="none" stroke="#fff" stroke-miterlimit="10" stroke-width="1"/>
      <line id="Ligne_4" data-name="Ligne 4" y1="6.726" transform="translate(43.013 13.996)" fill="none" stroke="#fff" stroke-linecap="round" stroke-linejoin="round" stroke-width="1"/>
      <line id="Ligne_5" data-name="Ligne 5" y1="5.467" x2="2.404" transform="translate(48.866 15.741)" fill="none" stroke="#fff" stroke-linecap="round" stroke-linejoin="round" stroke-width="1"/>
      <line id="Ligne_6" data-name="Ligne 6" y1="3.993" x2="3.363" transform="translate(54.49 19.705)" fill="none" stroke="#fff" stroke-linecap="round" stroke-linejoin="round" stroke-width="1"/>
      <line id="Ligne_7" data-name="Ligne 7" y1="2.161" x2="3.248" transform="translate(58.998 24.614)" fill="none" stroke="#fff" stroke-linecap="round" stroke-linejoin="round" stroke-width="1"/>
      <line id="Ligne_8" data-name="Ligne 8" x1="2.404" y1="5.467" transform="translate(34.742 15.741)" fill="none" stroke="#fff" stroke-linecap="round" stroke-linejoin="round" stroke-width="1"/>
      <line id="Ligne_9" data-name="Ligne 9" x1="3.363" y1="3.993" transform="translate(28.159 19.705)" fill="none" stroke="#fff" stroke-linecap="round" stroke-linejoin="round" stroke-width="1"/>
      <line id="Ligne_10" data-name="Ligne 10" x1="3.248" y1="2.161" transform="translate(23.766 24.614)" fill="none" stroke="#fff" stroke-linecap="round" stroke-linejoin="round" stroke-width="1"/>
    </g>
    <g id="freepik--face-recognition--inject-9" transform="translate(98.626 154.749)">
      <path id="Tracé_1256" data-name="Tracé 1256" d="M189.374,127.21a1.646,1.646,0,0,0-1.431.93H149.891a3.449,3.449,0,0,0-3.434,3.434v39.053a2,2,0,0,1-2,2H129.17v1.431h15.283a3.449,3.449,0,0,0,3.434-3.434V131.575a2,2,0,0,1,2-2h37.965a1.674,1.674,0,1,0,1.517-2.361Z" transform="translate(-67.135 -127.21)" fill="#86c232"/>
      <path id="Tracé_1257" data-name="Tracé 1257" d="M189.374,127.21a1.646,1.646,0,0,0-1.431.93H149.891a3.449,3.449,0,0,0-3.434,3.434v39.053a2,2,0,0,1-2,2H129.17v1.431h15.283a3.449,3.449,0,0,0,3.434-3.434V131.575a2,2,0,0,1,2-2h37.965a1.674,1.674,0,1,0,1.517-2.361Z" transform="translate(-67.135 -127.21)" fill="#fff" opacity="0.4"/>
      <rect id="Rectangle_210" data-name="Rectangle 210" width="62.035" height="65.069" rx="2.69" transform="translate(0 13.595)" fill="#86c232"/>
      <rect id="Rectangle_211" data-name="Rectangle 211" width="62.035" height="65.069" rx="2.69" transform="translate(0 13.595)" fill="#fff" opacity="0.4"/>
      <rect id="Rectangle_212" data-name="Rectangle 212" width="8.343" height="8.343" transform="translate(26.846 51.016)" fill="#fff" opacity="0.2"/>
      <rect id="Rectangle_213" data-name="Rectangle 213" width="8.343" height="8.343" transform="translate(35.905 23.841)" fill="#fff" opacity="0.2"/>
      <rect id="Rectangle_214" data-name="Rectangle 214" width="8.343" height="8.343" transform="translate(17.773 60.089)" fill="#fff" opacity="0.2"/>
      <rect id="Rectangle_215" data-name="Rectangle 215" width="8.343" height="8.343" transform="translate(35.905 32.9)" fill="#fff" opacity="0.2"/>
      <rect id="Rectangle_216" data-name="Rectangle 216" width="8.343" height="8.343" transform="translate(35.905 41.958)" fill="#fff" opacity="0.2"/>
      <rect id="Rectangle_217" data-name="Rectangle 217" width="8.343" height="8.343" transform="translate(26.846 32.9)" fill="#fff" opacity="0.2"/>
      <rect id="Rectangle_218" data-name="Rectangle 218" width="8.343" height="8.815" transform="translate(26.846 14.31)" fill="#fff" opacity="0.2"/>
      <rect id="Rectangle_219" data-name="Rectangle 219" width="8.343" height="8.343" transform="translate(17.773 51.016)" fill="#fff" opacity="0.2"/>
      <rect id="Rectangle_220" data-name="Rectangle 220" width="8.343" height="8.343" transform="translate(26.846 23.841)" fill="#fff" opacity="0.2"/>
      <rect id="Rectangle_221" data-name="Rectangle 221" width="8.343" height="8.343" transform="translate(26.846 60.089)" fill="#fff" opacity="0.2"/>
      <rect id="Rectangle_222" data-name="Rectangle 222" width="8.343" height="8.343" transform="translate(35.905 60.089)" fill="#fff" opacity="0.2"/>
      <rect id="Rectangle_223" data-name="Rectangle 223" width="8.343" height="8.343" transform="translate(26.846 41.958)" fill="#fff" opacity="0.2"/>
      <rect id="Rectangle_224" data-name="Rectangle 224" width="8.343" height="8.815" transform="translate(35.905 14.31)" fill="#fff" opacity="0.2"/>
      <rect id="Rectangle_225" data-name="Rectangle 225" width="7.298" height="8.343" transform="translate(0.716 51.016)" fill="#fff" opacity="0.2"/>
      <rect id="Rectangle_226" data-name="Rectangle 226" width="7.298" height="8.343" transform="translate(0.716 23.841)" fill="#fff" opacity="0.2"/>
      <rect id="Rectangle_227" data-name="Rectangle 227" width="7.298" height="8.343" transform="translate(0.716 41.958)" fill="#fff" opacity="0.2"/>
      <rect id="Rectangle_228" data-name="Rectangle 228" width="7.298" height="8.343" transform="translate(0.716 32.9)" fill="#fff" opacity="0.2"/>
      <rect id="Rectangle_229" data-name="Rectangle 229" width="8.343" height="8.343" transform="translate(35.905 51.016)" fill="#fff" opacity="0.2"/>
      <path id="Tracé_1258" data-name="Tracé 1258" d="M123.57,146.038h7.3v-5.724a3.134,3.134,0,0,0-3.134-3.134H123.57Z" transform="translate(-69.548 -122.913)" fill="#fff" opacity="0.2"/>
      <rect id="Rectangle_230" data-name="Rectangle 230" width="8.343" height="8.343" transform="translate(44.963 23.841)" fill="#fff" opacity="0.2"/>
      <rect id="Rectangle_231" data-name="Rectangle 231" width="7.298" height="8.343" transform="translate(0.716 60.089)" fill="#fff" opacity="0.2"/>
      <rect id="Rectangle_232" data-name="Rectangle 232" width="8.343" height="8.343" transform="translate(44.963 32.9)" fill="#fff" opacity="0.2"/>
      <rect id="Rectangle_233" data-name="Rectangle 233" width="8.343" height="8.343" transform="translate(44.963 41.958)" fill="#fff" opacity="0.2"/>
      <rect id="Rectangle_234" data-name="Rectangle 234" width="8.343" height="8.343" transform="translate(44.963 51.016)" fill="#fff" opacity="0.2"/>
      <rect id="Rectangle_235" data-name="Rectangle 235" width="8.343" height="8.343" transform="translate(44.963 60.089)" fill="#fff" opacity="0.2"/>
      <rect id="Rectangle_236" data-name="Rectangle 236" width="7.298" height="8.343" transform="translate(54.022 60.089)" fill="#fff" opacity="0.2"/>
      <rect id="Rectangle_237" data-name="Rectangle 237" width="8.343" height="8.815" transform="translate(44.963 14.31)" fill="#fff" opacity="0.2"/>
      <rect id="Rectangle_238" data-name="Rectangle 238" width="8.343" height="8.815" transform="translate(26.846 69.148)" fill="#fff" opacity="0.2"/>
      <rect id="Rectangle_239" data-name="Rectangle 239" width="8.343" height="8.815" transform="translate(35.905 69.148)" fill="#fff" opacity="0.2"/>
      <rect id="Rectangle_240" data-name="Rectangle 240" width="7.298" height="8.343" transform="translate(54.022 41.958)" fill="#fff" opacity="0.2"/>
      <rect id="Rectangle_241" data-name="Rectangle 241" width="8.343" height="8.815" transform="translate(44.963 69.148)" fill="#fff" opacity="0.2"/>
      <rect id="Rectangle_242" data-name="Rectangle 242" width="7.298" height="8.343" transform="translate(54.022 51.016)" fill="#fff" opacity="0.2"/>
      <path id="Tracé_1259" data-name="Tracé 1259" d="M93.6,175.53H86.32v5.724a3.134,3.134,0,0,0,3.12,3.12H93.6Z" transform="translate(-85.604 -106.382)" fill="#fff" opacity="0.2"/>
      <path id="Tracé_1260" data-name="Tracé 1260" d="M123.57,175.543v8.8h4.164a3.134,3.134,0,0,0,3.134-3.12V175.5Z" transform="translate(-69.548 -106.395)" fill="#fff" opacity="0.2"/>
      <path id="Tracé_1261" data-name="Tracé 1261" d="M93.6,146.025V137.21H89.44a3.134,3.134,0,0,0-3.12,3.134v5.724Z" transform="translate(-85.604 -122.9)" fill="#fff" opacity="0.2"/>
      <rect id="Rectangle_243" data-name="Rectangle 243" width="7.298" height="8.343" transform="translate(54.022 32.9)" fill="#fff" opacity="0.2"/>
      <rect id="Rectangle_244" data-name="Rectangle 244" width="7.298" height="8.343" transform="translate(54.022 23.841)" fill="#fff" opacity="0.2"/>
      <rect id="Rectangle_245" data-name="Rectangle 245" width="8.343" height="8.343" transform="translate(8.715 41.958)" fill="#fff" opacity="0.2"/>
      <rect id="Rectangle_246" data-name="Rectangle 246" width="8.343" height="8.343" transform="translate(8.715 60.089)" fill="#fff" opacity="0.2"/>
      <rect id="Rectangle_247" data-name="Rectangle 247" width="8.343" height="8.815" transform="translate(17.773 14.31)" fill="#fff" opacity="0.2"/>
      <rect id="Rectangle_248" data-name="Rectangle 248" width="8.343" height="8.343" transform="translate(8.715 51.016)" fill="#fff" opacity="0.2"/>
      <rect id="Rectangle_249" data-name="Rectangle 249" width="8.343" height="8.343" transform="translate(17.773 32.9)" fill="#fff" opacity="0.2"/>
      <rect id="Rectangle_250" data-name="Rectangle 250" width="8.343" height="8.343" transform="translate(17.773 23.841)" fill="#fff" opacity="0.2"/>
      <rect id="Rectangle_251" data-name="Rectangle 251" width="8.343" height="8.815" transform="translate(17.773 69.148)" fill="#fff" opacity="0.2"/>
      <rect id="Rectangle_252" data-name="Rectangle 252" width="8.343" height="8.815" transform="translate(8.715 69.148)" fill="#fff" opacity="0.2"/>
      <rect id="Rectangle_253" data-name="Rectangle 253" width="8.343" height="8.815" transform="translate(8.715 14.31)" fill="#fff" opacity="0.2"/>
      <rect id="Rectangle_254" data-name="Rectangle 254" width="8.343" height="8.343" transform="translate(17.773 41.958)" fill="#fff" opacity="0.2"/>
      <rect id="Rectangle_255" data-name="Rectangle 255" width="8.343" height="8.343" transform="translate(8.715 32.9)" fill="#fff" opacity="0.2"/>
      <rect id="Rectangle_256" data-name="Rectangle 256" width="8.343" height="8.343" transform="translate(8.715 23.841)" fill="#fff" opacity="0.2"/>
      <path id="Tracé_1262" data-name="Tracé 1262" d="M112.055,187.627A15.169,15.169,0,0,1,96.9,172.487V159.465a15.155,15.155,0,0,1,30.309,0v13.022a15.169,15.169,0,0,1-15.155,15.14Zm0-41.872a13.738,13.738,0,0,0-13.724,13.709v13.022a13.724,13.724,0,0,0,27.447,0V159.465a13.738,13.738,0,0,0-13.724-13.709Z" transform="translate(-81.044 -119.839)" fill="#fff"/>
      <ellipse id="Ellipse_14" data-name="Ellipse 14" cx="1.603" cy="2.175" rx="1.603" ry="2.175" transform="translate(36.248 40.012)" fill="#fff"/>
      <path id="Tracé_1263" data-name="Tracé 1263" d="M104.8,157.345c0,1.188-.716,2.161-1.6,2.161s-1.6-.973-1.6-2.161.716-2.175,1.6-2.175S104.8,156.143,104.8,157.345Z" transform="translate(-79.023 -115.158)" fill="#fff"/>
      <path id="Tracé_1264" data-name="Tracé 1264" d="M108.459,158.2l-3.019,7.742h3.019Z" transform="translate(-77.363 -113.852)" fill="#fff"/>
      <path id="Tracé_1265" data-name="Tracé 1265" d="M108.317,167.938a9.8,9.8,0,0,1-4.007-.63l.615-1.288-.315.644.315-.644s2.562,1.131,8.028,0l.3,1.431a23.485,23.485,0,0,1-4.937.487Z" transform="translate(-77.85 -110.481)" fill="#fff"/>
    </g>
    <g id="freepik--Interface--inject-9" transform="translate(382.085 71.983)">
      <rect id="Rectangle_257" data-name="Rectangle 257" width="170.594" height="170.594" rx="5.13" transform="translate(0 1.311)" fill="#86c232"/>
      <rect id="Rectangle_258" data-name="Rectangle 258" width="133.873" height="35.318" rx="4.63" transform="translate(18.36 106.464)" fill="#fff" opacity="0.5"/>
      <path id="Tracé_1266" data-name="Tracé 1266" d="M316.661,158.258l3.907,2.118-1.689,2.934-4.021-2.361.072,4.293h-3.363v-4.379l-3.95,2.361L306,160.376l3.907-2.118L306,156.111l1.717-2.948,3.95,2.376V151.16h3.363l-.072,4.379,3.95-2.376,1.76,2.948Z" transform="translate(-274.374 -34.121)" fill="#fff"/>
      <path id="Tracé_1267" data-name="Tracé 1267" d="M332.919,158.284l3.907,2.118-1.746,2.934-3.95-2.361v4.293h-3.363v-4.379l-3.935,2.361-1.732-2.934,3.907-2.118-3.907-2.147,1.732-2.948,3.935,2.376V151.1h3.363v4.379l3.95-2.376,1.746,2.948Z" transform="translate(-267.434 -34.147)" fill="#fff"/>
      <path id="Tracé_1268" data-name="Tracé 1268" d="M349.121,158.284l3.907,2.118-1.76,2.934-3.935-2.361.072,4.293h-3.377v-4.379l-3.95,2.361-1.717-2.934,3.907-2.118-3.907-2.147,1.717-2.948,3.95,2.376V151.1H347.4l-.072,4.379,3.935-2.376,1.76,2.948Z" transform="translate(-260.426 -34.147)" fill="#fff"/>
      <path id="Tracé_1269" data-name="Tracé 1269" d="M365.337,158.284l3.907,2.118-1.76,2.934-3.95-2.361.072,4.293h-3.363v-4.379l-3.935,2.361-1.717-2.934L358.5,158.2l-3.907-2.147,1.717-2.948,3.935,2.376V151.1h3.363l-.072,4.379,3.95-2.376,1.76,2.948Z" transform="translate(-253.43 -34.147)" fill="#fff"/>
      <path id="Tracé_1270" data-name="Tracé 1270" d="M381.551,158.258l3.849,2.118-1.746,2.934-3.892-2.361.072,4.293h-3.363v-4.379l-3.95,2.447-1.732-2.934,3.907-2.118-3.907-2.147,1.732-2.948,3.935,2.376V151.16h3.363l-.072,4.379,3.95-2.376,1.746,2.948Z" transform="translate(-246.447 -34.121)" fill="#fff"/>
      <circle id="Ellipse_15" data-name="Ellipse 15" cx="38.252" cy="38.252" r="38.252" transform="translate(31.194 54.096) rotate(-45)" fill="#fff" opacity="0.5"/>
      <path id="Tracé_1271" data-name="Tracé 1271" d="M364.246,105.68H334.337a4.093,4.093,0,0,0-4.107,4.107V128a4.107,4.107,0,0,0,4.107,4.107h29.909A4.107,4.107,0,0,0,368.353,128V109.787a4.093,4.093,0,0,0-4.107-4.107Zm-12.207,20.278h-5.5l1.145-7.456a3.635,3.635,0,1,1,3.205,0Z" transform="translate(-263.93 -53.724)" fill="#86c232"/>
      <path id="Tracé_1272" data-name="Tracé 1272" d="M339.326,109.468l-.558-2.862a9.217,9.217,0,1,1,18.074-3.621l.558,2.791,5.281-1.059-.572-2.862a14.6,14.6,0,1,0-28.623,5.725l.561,2.862Z" transform="translate(-262.651 -60.432)" fill="#86c232"/>
      <path id="Tracé_1273" data-name="Tracé 1273" d="M371.814,178.474H329.169a1.889,1.889,0,0,1-1.889-1.889h0a1.889,1.889,0,0,1,1.889-1.875h42.645a1.889,1.889,0,0,1,1.889,1.875h0a1.889,1.889,0,0,1-1.889,1.889Z" transform="translate(-265.202 -23.97)" opacity="0.2"/>
    </g>
    <g id="freepik--Character--inject-9" transform="translate(191.546 125.475)">
      <g id="freepik--group--inject-9">
        <path id="Tracé_1274" data-name="Tracé 1274" d="M259.69,184.622l14.654-12.45s12.479-13.223,15.112-13.509,8.314.844,9.817,2.733-9.76,14.167-12.407,16.428-7.928,1.889-7.928,1.889L264.97,193.208Z" transform="translate(-103.796 -84.398)" fill="#ebb376"/>
        <path id="Tracé_1275" data-name="Tracé 1275" d="M185.96,409.11H171.792a1.045,1.045,0,0,0-.987.8L168.5,420.3a1.732,1.732,0,0,0,1.331,2.046h.372c4.579-.072,7.928-.358,13.681-.358,3.549,0,14.239.372,19.133.372s5.538-4.837,3.535-5.281c-8.987-1.961-15.741-4.665-18.6-7.255A2.862,2.862,0,0,0,185.96,409.11Z" transform="translate(-143.117 23.572)" fill="#263238"/>
        <path id="Tracé_1276" data-name="Tracé 1276" d="M227.94,408.861H213.772a1.016,1.016,0,0,0-.987.8l-2.3,10.375a1.732,1.732,0,0,0,1.331,2.046h.372c4.594-.072,7.928-.358,13.681-.358,3.549,0,14.239.372,19.133.372s5.538-4.837,3.535-5.281c-8.987-1.961-15.741-4.665-18.6-7.255A2.862,2.862,0,0,0,227.94,408.861Z" transform="translate(-125.022 23.464)" fill="#263238"/>
        <path id="Tracé_1277" data-name="Tracé 1277" d="M178.406,225.62H240.3c5.882,32.127,22.711,162.179,9.5,263.5l-20.664,2.261s3.234-155.7-15.255-205.425c-2.132,26.617-4.665,54.923-6.855,69.992-5.381,37.092-17.516,133.73-17.516,133.73l-20.95.572s4.594-93.747,6.6-130.224C177.375,320.483,178.32,233.734,178.406,225.62Z" transform="translate(-143.076 -55.518)" fill="#263238"/>
        <path id="Tracé_1278" data-name="Tracé 1278" d="M178.406,225.62H240.3c5.882,32.127,22.711,162.179,9.5,263.5l-20.664,2.261s3.234-155.7-15.255-205.425c-2.132,26.617-4.665,54.923-6.855,69.992-5.381,37.092-17.516,133.73-17.516,133.73l-20.95.572s4.594-93.747,6.6-130.224C177.375,320.483,178.32,233.734,178.406,225.62Z" transform="translate(-143.076 -55.518)" fill="#fff" opacity="0.2"/>
        <path id="Tracé_1279" data-name="Tracé 1279" d="M200.23,274.414a166,166,0,0,1,6.912,26.775c1.732-23.684-5.195-48.8-5.195-48.8Z" transform="translate(-129.425 -43.979)" opacity="0.2"/>
        <path id="Tracé_1280" data-name="Tracé 1280" d="M216.2,150.79c9.774,1.188,29.021,45.621,36.377,49.585s36.52-20.95,36.52-20.95l7.356,9.058s-33.114,35.389-46.137,31.483-31.483-37.364-37.078-47.839S216.2,150.79,216.2,150.79Z" transform="translate(-124.635 -87.772)" fill="#86c232"/>
        <path id="Tracé_1281" data-name="Tracé 1281" d="M296.459,188.466s-33.114,35.375-46.137,31.483c-5.724-1.732-12.393-9.073-18.6-17.659a286.206,286.206,0,0,1-18.46-30.166,17.859,17.859,0,0,1-.315-15.455,25.974,25.974,0,0,1,3.277-5.839c9.774,1.188,29.021,45.636,36.377,49.6s36.52-20.95,36.52-20.95Z" transform="translate(-124.637 -87.755)" fill="#fff" opacity="0.5"/>
        <path id="Tracé_1282" data-name="Tracé 1282" d="M231.709,200.481a286.214,286.214,0,0,1-18.46-30.166,17.86,17.86,0,0,1-.315-15.455C218.5,161.715,229.82,178.172,231.709,200.481Z" transform="translate(-124.641 -86.018)" opacity="0.2"/>
        <path id="Tracé_1283" data-name="Tracé 1283" d="M235.43,150.853s-39.368-1.86-68.69,5.538c0,0,10.99,85.161,10.5,122.253l70.121-3.778S245.662,189.119,235.43,150.853Z" transform="translate(-143.86 -87.835)" fill="#86c232"/>
        <path id="Tracé_1284" data-name="Tracé 1284" d="M177.261,278.64c.229-17.244-2.032-44.877-4.508-69.52h0c-.944-9.4-1.918-18.374-2.862-26.159-1.789-15.67-3.191-26.56-3.191-26.56,29.322-7.4,68.69-5.538,68.69-5.538C245.622,189.129,247.4,274.876,247.4,274.876Z" transform="translate(-143.878 -87.831)" fill="#fff" opacity="0.6"/>
        <path id="Tracé_1285" data-name="Tracé 1285" d="M171.792,200.422c-.944-9.4-1.918-18.374-2.862-26.159l4.508-3.463S177.416,186.312,171.792,200.422Z" transform="translate(-142.916 -79.147)" opacity="0.2"/>
        <path id="Tracé_1286" data-name="Tracé 1286" d="M226.63,236.215l-3.849.186-10.447.487-6.411.3-13.352.63s0-.658-.072-1.86h0c-.114-2.59-.343-7.713-.73-14.167h0c-.272-4.808-.644-10.361-1.1-16.171-.329-4.007-.687-8.128-1.1-12.207-.615-6.053-1.331-12.035-2.175-17.416-.444-2.862-.93-5.6-1.431-8.057l33.214-2.161s.429,2.1,1.073,5.724c.429,2.376.944,5.409,1.5,8.958A380.2,380.2,0,0,1,226.63,236.215Z" transform="translate(-135.576 -81.311)" opacity="0.2"/>
        <path id="Tracé_1287" data-name="Tracé 1287" d="M210.593,228.866l-6.411.3c4.565-11.606,6.354-27.962,3.291-33.057-4.15-6.9-9.245,6.325-12.879,22.181a28.234,28.234,0,0,1-3.864,9.631c-.115-2.59-.343-7.713-.73-14.167h0a41.27,41.27,0,0,0,4.594-10.919c5.109-17.931,9.645-21.136,15.484-16.428C215.458,190.714,217.032,211.608,210.593,228.866Z" transform="translate(-133.834 -73.26)" opacity="0.2"/>
        <path id="Tracé_1288" data-name="Tracé 1288" d="M221.694,233.679c1.3-15.212-.7-40.842-5.166-48.727-5.109-9.044-16.385-9.245-21.809,7.155a42.187,42.187,0,0,1-5.137,10.8c-.329-4.007-.687-8.128-1.1-12.207a43.975,43.975,0,0,0,4.078-6.082c6.182-10.947,15.741-16.042,25.186-9.674a12.465,12.465,0,0,1,2.862,2.862,380.2,380.2,0,0,1,4.937,55.653Z" transform="translate(-134.49 -78.56)" opacity="0.2"/>
        <path id="Tracé_1289" data-name="Tracé 1289" d="M220.233,171.561c-7.427-5.61-17.459-4.093-23.87,1.216a12.507,12.507,0,0,1-8.973,3.22c-.444-2.862-.93-5.6-1.431-8.057l33.214-2.161S219.589,167.884,220.233,171.561Z" transform="translate(-135.576 -81.311)" opacity="0.2"/>
        <path id="Tracé_1290" data-name="Tracé 1290" d="M182.8,161.587c5.653,5.137,19.505,3.234,19.505,3.234s8.586-2.361,6.826-5.066c-5.094-.844-7.556-3.22-8.586-6.254a14.468,14.468,0,0,1-.515-5.824,28.47,28.47,0,0,1,.429-3.248L183.287,131.75C185.591,140.122,188.338,155.519,182.8,161.587Z" transform="translate(-136.938 -95.979)" fill="#ebb376"/>
        <path id="Tracé_1291" data-name="Tracé 1291" d="M185.94,137.38c.687,10.275,9.13,13.108,13.266,13.7a14.467,14.467,0,0,1-.515-5.824Z" transform="translate(-135.584 -93.553)" opacity="0.2"/>
        <path id="Tracé_1292" data-name="Tracé 1292" d="M207.827,113.15s4.78,15.455-2.7,22.8-11.892-22.1-11.892-22.1Z" transform="translate(-132.442 -103.997)" fill="#263238"/>
        <path id="Tracé_1293" data-name="Tracé 1293" d="M187.6,152.708a14.5,14.5,0,0,0,17.316,3.091,16.128,16.128,0,0,0,8.014-8.8,16.777,16.777,0,0,0,.529-1.631c2.676-10.275,1.431-27.376-9.717-32.184a15.741,15.741,0,0,0-21.995,15.3C182.191,139.958,181.9,146.741,187.6,152.708Z" transform="translate(-137.402 -104.545)" fill="#ebb376"/>
        <path id="Tracé_1294" data-name="Tracé 1294" d="M193.883,126.5c-.086.916.458,1.7,1.073,1.7s1.116-.744,1.145-1.674-.472-1.7-1.073-1.7S193.911,125.517,193.883,126.5Z" transform="translate(-132.165 -98.962)" fill="#263238"/>
        <path id="Tracé_1295" data-name="Tracé 1295" d="M201.273,126.624c-.086.916.472,1.7,1.073,1.7s1.116-.744,1.145-1.674-.472-1.7-1.073-1.7S201.3,125.737,201.273,126.624Z" transform="translate(-128.979 -98.91)" fill="#263238"/>
        <path id="Tracé_1296" data-name="Tracé 1296" d="M198.989,126.39a32.914,32.914,0,0,0,4.293,8.1,5.452,5.452,0,0,1-4.522.744Z" transform="translate(-130.059 -98.29)" fill="#d58745"/>
        <path id="Tracé_1297" data-name="Tracé 1297" d="M191.761,124.453a.587.587,0,0,0,.544-.2,4.422,4.422,0,0,1,3.549-1.774.558.558,0,0,0,.6-.5.544.544,0,0,0-.5-.587h0a5.424,5.424,0,0,0-4.508,2.175.544.544,0,0,0,.072.758h0a1.145,1.145,0,0,0,.243.129Z" transform="translate(-133.263 -100.446)" fill="#263238"/>
        <path id="Tracé_1298" data-name="Tracé 1298" d="M205.682,124.8a.487.487,0,0,0,.315,0,.544.544,0,0,0,.286-.716h0a5.452,5.452,0,0,0-3.907-3.163.544.544,0,0,0-.615.458h0a.558.558,0,0,0,.458.615h0a4.408,4.408,0,0,1,3.048,2.562A.587.587,0,0,0,205.682,124.8Z" transform="translate(-128.767 -100.649)" fill="#263238"/>
        <path id="Tracé_1299" data-name="Tracé 1299" d="M192.165,113.58l.758,5.037a3.778,3.778,0,0,0-1.76,4.808c1.746,4.293-.487,10.89-3.678,13.609,0,0-.157-1.832-1.7-1.359s-.859,10.017,2.318,14.582a33.53,33.53,0,0,1-8.372-14.94c-2.647-9.259-2.376-16.128-.558-19.791Z" transform="translate(-139.104 -103.811)" fill="#263238"/>
        <path id="Tracé_1300" data-name="Tracé 1300" d="M201.741,135.047a28.109,28.109,0,0,0-1.13,4.078,6.471,6.471,0,0,1-.744,0c-3.377-.143-4.894-1.331-5.552-2.6a4.422,4.422,0,0,1-.444-2.018,4.193,4.193,0,0,1,.157-1.173A15.742,15.742,0,0,0,200.582,135C201.3,135.047,201.741,135.047,201.741,135.047Z" transform="translate(-132.167 -95.298)" fill="#263238"/>
        <path id="Tracé_1301" data-name="Tracé 1301" d="M200.582,134.984l-.358,1.2c-3.177-.157-5.4-.687-6.354-1.7a4.192,4.192,0,0,1,.157-1.173A15.741,15.741,0,0,0,200.582,134.984Z" transform="translate(-132.166 -95.307)" fill="#fff"/>
        <path id="Tracé_1302" data-name="Tracé 1302" d="M199.732,138.144c-3.377-.143-4.894-1.331-5.552-2.6a10.9,10.9,0,0,1,3.721.916A4.007,4.007,0,0,1,199.732,138.144Z" transform="translate(-132.033 -94.346)" fill="#de5753"/>
        <path id="Tracé_1303" data-name="Tracé 1303" d="M200.347,119.656a2.69,2.69,0,0,1,3.306-.844c2.418.7,4.551,3.134,7.041,6.225s7.413,3.105,8.586,1.274-1.13-4.393-1.13-4.393,2.118-11.749-10.69-14.439-19.548,2.977-19.548,2.977-10.633.358-11.448,10.189a46.452,46.452,0,0,0,.716,11.935s-2.862,3.592,2.519,3.377c6.111-.243,13.452-3.563,13.809-9.5S200.347,119.656,200.347,119.656Z" transform="translate(-139.717 -106.754)" fill="#263238"/>
        <path id="Tracé_1304" data-name="Tracé 1304" d="M178.259,132.18a10.962,10.962,0,0,0,6.153,5.653c3.606,1.288,5.724-1.875,4.923-5.424-.716-3.163-3.42-7.728-7.155-7.456S176.8,128.917,178.259,132.18Z" transform="translate(-139.123 -98.914)" fill="#ebb376"/>
        <path id="Tracé_1305" data-name="Tracé 1305" d="M173.631,154.66c-10.261,2.991-24.6,72.811-22.711,81.869s37.922,47.224,37.922,47.224l10.017-7.6s-30.624-43.36-31-52.419,13.581-42.645,13.581-42.645-.372-11.319-1.889-16.986A20.506,20.506,0,0,0,173.631,154.66Z" transform="translate(-150.752 -86.104)" fill="#86c232"/>
        <path id="Tracé_1306" data-name="Tracé 1306" d="M173.631,154.66c-10.261,2.991-24.6,72.811-22.711,81.869s37.922,47.224,37.922,47.224l10.017-7.6s-30.624-43.36-31-52.419,13.581-42.645,13.581-42.645-.372-11.319-1.889-16.986A20.506,20.506,0,0,0,173.631,154.66Z" transform="translate(-150.752 -86.104)" fill="#fff" opacity="0.5"/>
      </g>
    </g>
  </g>
</svg>
